<svg width="17" height="17" viewBox="0 0 17 17" fill="none" xmlns="http://www.w3.org/2000/svg">
<path d="M4.5 7.80737C4.224 7.80737 4 7.58337 4 7.30737V3.80737C4 3.53137 4.224 3.30737 4.5 3.30737C4.776 3.30737 5 3.53137 5 3.80737V7.30737C5 7.58337 4.776 7.80737 4.5 7.80737Z" fill="#EB4F58"/>
<path d="M4.5 4.40967C4.224 4.40967 4 4.18567 4 3.90967V2.03467C4 1.75867 4.224 1.53467 4.5 1.53467C4.776 1.53467 5 1.75867 5 2.03467V3.90967C5 4.18567 4.776 4.40967 4.5 4.40967Z" fill="#EB4F58"/>
<path d="M4.5 15.5347C4.224 15.5347 4 15.3107 4 15.0347V7.15967C4 6.88367 4.224 6.65967 4.5 6.65967C4.776 6.65967 5 6.88367 5 7.15967V15.0347C5 15.3107 4.776 15.5347 4.5 15.5347Z" fill="#EB4F58"/>
<path d="M8.5 10.0347C8.224 10.0347 8 9.81067 8 9.53467V3.03467C8 2.75867 8.224 2.53467 8.5 2.53467C8.776 2.53467 9 2.75867 9 3.03467V9.53467C9 9.81067 8.776 10.0347 8.5 10.0347Z" fill="#EB4F58"/>
<path d="M8.5 3.53467H4.5C4.224 3.53467 4 3.31067 4 3.03467C4 2.75867 4.224 2.53467 4.5 2.53467H8.5C8.776 2.53467 9 2.75867 9 3.03467C9 3.31067 8.776 3.53467 8.5 3.53467Z" fill="#EB4F58"/>
<path d="M8.5 8.53467H4.5C4.224 8.53467 4 8.31067 4 8.03467C4 7.75867 4.224 7.53467 4.5 7.53467H8.5C8.776 7.53467 9 7.75867 9 8.03467C9 8.31067 8.776 8.53467 8.5 8.53467Z" fill="#EB4F58"/>
<path d="M12.5 10.0347C12.224 10.0347 12 9.81067 12 9.53467V4.53467C12 4.25867 12.224 4.03467 12.5 4.03467C12.776 4.03467 13 4.25867 13 4.53467V9.53467C13 9.81067 12.776 10.0347 12.5 10.0347Z" fill="#EB4F58"/>
<path d="M12.5 10.0347H8.5C8.224 10.0347 8 9.81067 8 9.53467C8 9.25867 8.224 9.03467 8.5 9.03467H12.5C12.776 9.03467 13 9.25867 13 9.53467C13 9.81067 12.776 10.0347 12.5 10.0347Z" fill="#EB4F58"/>
<path d="M12.5 5.03467H8.5C8.224 5.03467 8 4.81067 8 4.53467C8 4.25867 8.224 4.03467 8.5 4.03467H12.5C12.776 4.03467 13 4.25867 13 4.53467C13 4.81067 12.776 5.03467 12.5 5.03467Z" fill="#EB4F58"/>
</svg>
