<svg width="32" height="33" viewBox="0 0 32 33" fill="none" xmlns="http://www.w3.org/2000/svg">
<path d="M28.8 18.3543V16.2209H26.6666V3.4209H24.5335V6.62186L24.5322 6.6209C19.8208 10.8887 12.1824 10.8887 7.46657 6.62186V3.4209H5.33313V16.2209H3.20001V18.3543H5.33345V24.7543H3.20001V29.0209H9.60001V24.7543H7.46657V23.667C12.1776 19.3991 19.8176 19.3991 24.5331 23.667V24.7543H22.4V29.0209H28.8V24.7543H26.6666V18.3543H28.8ZM24.5335 9.31786V16.2209H21.8666V10.7655C22.8 10.3793 23.6938 9.89802 24.5335 9.31786ZM14.9331 16.2209H12.2666V11.4699C13.1418 11.6865 14.0343 11.826 14.9331 11.8875V16.2209ZM17.0666 11.8875C17.9658 11.8263 18.8586 11.6875 19.7335 11.4708V16.2209H17.0666V11.8875ZM7.46657 9.31882C8.30625 9.89834 9.20033 10.3793 10.1331 10.7649V16.2209H7.46657V9.31882ZM24.5335 20.97C19.5072 17.4999 12.4903 17.499 7.46657 20.9687V18.3543H24.5331L24.5335 20.97Z" fill="#FCFF72"/>
</svg>
