<svg width="32" height="33" viewBox="0 0 32 33" fill="none" xmlns="http://www.w3.org/2000/svg">
<g clip-path="url(#clip0_45_3998)">
<path d="M30.6667 11.2013C29.9307 11.2013 29.3334 10.6053 29.3334 9.868V4.53467C29.3334 3.79867 28.7347 3.20133 28 3.20133H22.6667C21.9307 3.20133 21.3334 2.60533 21.3334 1.868C21.3334 1.13067 21.9307 0.534668 22.6667 0.534668H28C30.2054 0.534668 32 2.32933 32 4.53467V9.868C32 10.6053 31.4027 11.2013 30.6667 11.2013Z" fill="#FCFF72"/>
<path d="M28 32.5348H22.6667C21.9307 32.5348 21.3334 31.9388 21.3334 31.2015C21.3334 30.4642 21.9307 29.8682 22.6667 29.8682H28C28.7347 29.8682 29.3334 29.2708 29.3334 28.5348V23.2015C29.3334 22.4642 29.9307 21.8682 30.6667 21.8682C31.4027 21.8682 32 22.4642 32 23.2015V28.5348C32 30.7402 30.2054 32.5348 28 32.5348Z" fill="#FCFF72"/>
<path d="M9.33333 32.5348H4C1.79467 32.5348 0 30.7402 0 28.5348V23.2015C0 22.4642 0.597333 21.8682 1.33333 21.8682C2.06933 21.8682 2.66667 22.4642 2.66667 23.2015V28.5348C2.66667 29.2708 3.26533 29.8682 4 29.8682H9.33333C10.0693 29.8682 10.6667 30.4642 10.6667 31.2015C10.6667 31.9388 10.0693 32.5348 9.33333 32.5348Z" fill="#FCFF72"/>
<path d="M1.33333 11.2013C0.597333 11.2013 0 10.6053 0 9.868V4.53467C0 2.32933 1.79467 0.534668 4 0.534668H9.33333C10.0693 0.534668 10.6667 1.13067 10.6667 1.868C10.6667 2.60533 10.0693 3.20133 9.33333 3.20133H4C3.26533 3.20133 2.66667 3.79867 2.66667 4.53467V9.868C2.66667 10.6053 2.06933 11.2013 1.33333 11.2013Z" fill="#FCFF72"/>
<path d="M24 15.2012C23.264 15.2012 22.6666 14.6052 22.6666 13.8678V9.86784H9.33329V13.8678C9.33329 14.6052 8.73596 15.2012 7.99996 15.2012C7.26396 15.2012 6.66663 14.6052 6.66663 13.8678V9.86784C6.66663 8.39717 7.86263 7.20117 9.33329 7.20117H22.6666C24.1373 7.20117 25.3333 8.39717 25.3333 9.86784V13.8678C25.3333 14.6052 24.736 15.2012 24 15.2012Z" fill="#FCFF72"/>
<path d="M28 19.2015C28 19.9388 27.4027 20.5348 26.6667 20.5348H25.3333V23.2015C25.3333 24.6722 24.1373 25.8682 22.6667 25.8682H9.33333C7.86267 25.8682 6.66667 24.6722 6.66667 23.2015V20.5348H5.33333C4.59733 20.5348 4 19.9388 4 19.2015C4 18.4642 4.59733 17.8682 5.33333 17.8682H26.6667C27.4027 17.8682 28 18.4642 28 19.2015Z" fill="#FCFF72"/>
</g>
<defs>
<clipPath id="clip0_45_3998">
<rect width="32" height="32" fill="white" transform="translate(0 0.534668)"/>
</clipPath>
</defs>
</svg>
