<svg width="17" height="17" viewBox="0 0 17 17" fill="none" xmlns="http://www.w3.org/2000/svg">
<g clip-path="url(#clip0_9_1074)">
<path d="M4.12036 6.52193H2.3964C2.25923 6.52193 2.12768 6.46744 2.03069 6.37044C1.9337 6.27345 1.87921 6.1419 1.87921 6.00474C1.87921 5.86757 1.9337 5.73602 2.03069 5.63903C2.12768 5.54204 2.25923 5.48755 2.3964 5.48755H4.12036C4.25753 5.48755 4.38908 5.54204 4.48607 5.63903C4.58306 5.73602 4.63755 5.86757 4.63755 6.00474C4.63755 6.1419 4.58306 6.27345 4.48607 6.37044C4.38908 6.46744 4.25753 6.52193 4.12036 6.52193Z" fill="#FCFF72"/>
<path d="M4.12032 9.26924H1.01719C0.880022 9.26924 0.748473 9.21475 0.651481 9.11776C0.554489 9.02077 0.5 8.88922 0.5 8.75205C0.5 8.61488 0.554489 8.48334 0.651481 8.38634C0.748473 8.28935 0.880022 8.23486 1.01719 8.23486H4.12032C4.25749 8.23486 4.38903 8.28935 4.48603 8.38634C4.58302 8.48334 4.63751 8.61488 4.63751 8.75205C4.63751 8.88922 4.58302 9.02077 4.48603 9.11776C4.38903 9.21475 4.25749 9.26924 4.12032 9.26924Z" fill="#FCFF72"/>
<path d="M4.1203 12.017H2.39634C2.25917 12.017 2.12762 11.9626 2.03063 11.8656C1.93364 11.7686 1.87915 11.637 1.87915 11.4999C1.87915 11.3627 1.93364 11.2311 2.03063 11.1341C2.12762 11.0372 2.25917 10.9827 2.39634 10.9827H4.1203C4.25747 10.9827 4.38902 11.0372 4.48601 11.1341C4.583 11.2311 4.63749 11.3627 4.63749 11.4999C4.63749 11.637 4.583 11.7686 4.48601 11.8656C4.38902 11.9626 4.25747 12.017 4.1203 12.017Z" fill="#FCFF72"/>
<path d="M10.8114 16.1071C10.5637 16.1071 10.3165 16.0181 10.1194 15.8408L6.66308 12.7299C5.68352 11.8486 5.12238 10.5877 5.12238 9.27039V5.13133C5.12238 4.47864 5.53406 3.89318 6.14641 3.67441C6.77428 3.44995 7.39697 3.1867 7.99691 2.89139C8.76959 2.51126 9.52158 2.07009 10.2322 1.57928C10.5839 1.3362 11.038 1.3362 11.3902 1.57928C12.1008 2.07009 12.8528 2.51126 13.6255 2.89139C14.2254 3.1867 14.8481 3.44995 15.476 3.67493C16.0888 3.8937 16.5 4.47916 16.5 5.13185V9.27091C16.5 10.5882 15.9383 11.8496 14.9593 12.7304L11.5029 15.8413C11.3059 16.0187 11.0581 16.1076 10.8109 16.1076L10.8114 16.1071ZM10.8021 2.43006C10.0682 2.94931 9.27178 3.41685 8.45359 3.81974C7.81848 4.13212 7.15958 4.41089 6.49448 4.6488C6.28915 4.72224 6.15675 4.91204 6.15675 5.13185V9.27091C6.15675 10.2955 6.59378 11.2766 7.35508 11.9618L10.8114 15.0727L14.2678 11.9618C15.0296 11.2766 15.4661 10.2955 15.4661 9.27091V5.13133C15.4661 4.91153 15.3337 4.72172 15.1284 4.64828C14.4633 4.41037 13.8044 4.13161 13.1693 3.81922C12.3511 3.41685 11.5546 2.94931 10.8027 2.42954L10.8021 2.43006Z" fill="#FCFF72"/>
<path d="M9.94248 12.6052C9.81939 12.6052 9.69527 12.5618 9.597 12.4723L8.19077 11.2068C7.55514 10.6347 7.19104 9.81655 7.19104 8.96216V5.94126C7.19104 5.65577 7.42274 5.42407 7.70823 5.42407C7.99372 5.42407 8.22542 5.65577 8.22542 5.94126V8.96216C8.22542 9.52383 8.46488 10.0617 8.88276 10.4382L10.289 11.7038C10.5016 11.8946 10.5186 12.2215 10.3273 12.434C10.2254 12.5473 10.0842 12.6052 9.94248 12.6052Z" fill="#FCFF72"/>
</g>
<defs>
<clipPath id="clip0_9_1074">
<rect width="16" height="16" fill="white" transform="translate(0.5 0.534668)"/>
</clipPath>
</defs>
</svg>
