<svg width="17" height="17" viewBox="0 0 17 17" fill="none" xmlns="http://www.w3.org/2000/svg">
<g clip-path="url(#clip0_9_1088)">
<path d="M4.46654 12.5902L4.46645 12.5902C4.80057 12.9243 4.80057 13.4679 4.46648 13.802C4.4171 13.8514 4.36192 13.8947 4.30238 13.9306C4.26632 13.9531 4.22379 13.9716 4.18379 13.9912L1.72498 15.3094C1.74932 15.262 3.05026 12.9073 3.07532 12.8528C3.11829 12.7545 3.17857 12.6661 3.25451 12.5902C3.42157 12.4231 3.64101 12.3396 3.86048 12.3396C4.07995 12.3396 4.29938 12.4231 4.46645 12.5902L4.46638 12.5901L3.55842 11.6821C3.26873 11.7395 2.99242 11.88 2.76838 12.104C2.63545 12.2369 2.52907 12.3911 2.45204 12.5623L0.56276 15.9953C0.489322 16.1287 0.512416 16.2944 0.61951 16.4027C0.685728 16.4697 0.774322 16.5048 0.86401 16.5048C0.919353 16.5048 0.975135 16.4914 1.02632 16.4639L4.49782 14.6029C4.66838 14.5259 4.82042 14.4201 4.9526 14.2882C5.17663 14.0642 5.31717 13.7879 5.37451 13.4982L4.46654 12.5902Z" fill="#FCFF72"/>
<path d="M10.6022 8.31092C9.61408 8.33139 8.72502 7.46439 8.74483 6.45445C8.73811 4.81289 10.7568 3.97711 11.9155 5.14117C12.636 5.83248 12.6361 7.07651 11.9155 7.76783C11.5534 8.12989 11.0778 8.31092 10.6022 8.31092ZM10.6022 5.28517C9.97989 5.27227 9.41983 5.81842 9.43233 6.45445C9.43233 6.76692 9.55402 7.0607 9.77499 7.28164C10.5048 8.01476 11.7763 7.48839 11.772 6.45442C11.7844 5.81845 11.2245 5.27223 10.6022 5.28517Z" fill="#FCFF72"/>
<path d="M16.0222 3.87725C16.4995 2.16435 16.5002 0.936505 16.5 0.885068C16.4997 0.791568 16.4612 0.702193 16.3935 0.637661C16.3258 0.57313 16.2347 0.539068 16.1413 0.543036C14.3703 0.620349 12.6744 1.0301 11.1008 1.76094C9.17094 2.67447 7.53472 3.93047 6.22062 5.67457L3.3965 5.53725C3.29953 5.53232 3.20528 5.569 3.13675 5.63754L0.600687 8.17354C0.511719 8.26251 0.478469 8.39294 0.514 8.51366C0.549531 8.63435 0.648156 8.72601 0.771125 8.7526L3.88 9.42485C3.41325 10.2942 3.1215 10.9112 3.11762 10.9194C3.05578 11.0506 3.08294 11.2065 3.1855 11.3091L4.46644 12.59C4.46647 12.5901 4.46647 12.5901 4.4665 12.5901C4.46653 12.5901 4.46656 12.5901 4.46659 12.5902L5.77422 13.8978C5.882 14.0056 6.04769 14.029 6.18031 13.9573C6.24709 13.9214 6.81825 13.6128 7.60575 13.161L8.27513 16.2566C8.32731 16.5184 8.66766 16.6193 8.85419 16.427L11.3902 13.891C11.4587 13.8224 11.4952 13.7281 11.4905 13.6312L11.3532 10.808C13.8343 9.06188 15.2805 6.44719 16.0222 3.87725ZM15.3534 3.71588C15.2359 4.13463 15.0807 4.60744 14.8761 5.11294L11.9175 2.15435C13.1451 1.65176 14.4458 1.34891 15.7958 1.25157C15.7621 1.72491 15.6604 2.62169 15.3534 3.71588ZM3.51516 6.23135L5.74025 6.33954C5.26031 7.03047 4.70578 7.93391 4.22475 8.79601L1.53262 8.21388L3.51516 6.23135ZM4.48384 9.75563L5.64931 10.9211L4.70956 11.8609L3.84456 10.9959C3.96647 10.7478 4.18913 10.3041 4.48384 9.75563ZM6.07837 13.2297L5.19572 12.347L6.13547 11.4073L7.28113 12.5529C6.755 12.8553 6.32431 13.0945 6.07837 13.2297ZM10.7963 13.5125L8.81378 15.495L8.23069 12.7984C9.00263 12.3453 9.88641 11.8063 10.6873 11.2691L10.7963 13.5125ZM12.1338 9.28932C11.3029 10.1203 9.39303 11.3163 7.89612 12.1957L6.62159 10.9211L8.27822 9.26451C8.41247 9.13026 8.41244 8.9126 8.27822 8.77835C8.14397 8.64413 7.92631 8.64413 7.79206 8.77835L6.13544 10.435L4.82828 9.12779C5.60134 7.74797 6.68934 6.00063 7.76725 4.92272C8.78881 3.90116 9.95838 3.0716 11.2448 2.45401L14.5801 5.78922C14.0484 6.91779 13.2703 8.15282 12.1338 9.28932Z" fill="#FCFF72"/>
</g>
<defs>
<clipPath id="clip0_9_1088">
<rect width="16" height="16" fill="white" transform="translate(0.5 0.534668)"/>
</clipPath>
</defs>
</svg>
