<svg width="17" height="17" viewBox="0 0 17 17" fill="none" xmlns="http://www.w3.org/2000/svg">
<path d="M3.92854 13.1061C3.75711 13.1061 3.64282 13.049 3.52854 12.9347L1.81425 11.2204C1.58568 10.9918 1.58568 10.649 1.81425 10.4204L3.52854 8.7061C3.75711 8.47753 4.09996 8.47753 4.32854 8.7061C4.55711 8.93467 4.55711 9.27752 4.32854 9.5061L3.58568 10.249H9.64282C9.98568 10.249 10.2143 10.4775 10.2143 10.8204C10.2143 11.1632 9.98568 11.3918 9.64282 11.3918H3.58568L4.32854 12.1347C4.67139 12.4775 4.44282 13.1061 3.92854 13.1061Z" fill="#FCFF72"/>
<path d="M13.0714 8.53456C12.5571 8.53456 12.3285 7.90599 12.6714 7.56314L13.4142 6.82028H7.35707C7.01422 6.82028 6.78564 6.59171 6.78564 6.24885C6.78564 5.90599 7.01422 5.67742 7.35707 5.67742H13.4142L12.6714 4.93456C12.4428 4.70599 12.4428 4.36313 12.6714 4.13456C12.8999 3.90599 13.2428 3.90599 13.4714 4.13456L15.1856 5.84885C15.4142 6.07742 15.4142 6.42028 15.1856 6.64885L13.4714 8.36313C13.3571 8.47742 13.2428 8.53456 13.0714 8.53456Z" fill="#FCFF72"/>
</svg>
