<svg width="32" height="33" viewBox="0 0 32 33" fill="none" xmlns="http://www.w3.org/2000/svg">
<path d="M6.85713 25.6775C6.51428 25.6775 6.28571 25.5632 6.05713 25.3347L2.62856 21.9061C2.17142 21.449 2.17142 20.7632 2.62856 20.3061L6.05713 16.8775C6.51428 16.4204 7.19999 16.4204 7.65713 16.8775C8.11428 17.3347 8.11428 18.0204 7.65713 18.4775L6.17142 19.9632H18.2857C18.9714 19.9632 19.4286 20.4204 19.4286 21.1061C19.4286 21.7918 18.9714 22.249 18.2857 22.249H6.17142L7.65713 23.7347C8.34285 24.4204 7.88571 25.6775 6.85713 25.6775Z" fill="#EB4F58"/>
<path d="M25.1428 16.5345C24.1143 16.5345 23.6571 15.2773 24.3428 14.5916L25.8286 13.1059H13.7143C13.0286 13.1059 12.5714 12.6487 12.5714 11.963C12.5714 11.2773 13.0286 10.8202 13.7143 10.8202H25.8286L24.3428 9.33446C23.8857 8.87732 23.8857 8.1916 24.3428 7.73446C24.8 7.27732 25.4857 7.27732 25.9428 7.73446L29.3714 11.163C29.8286 11.6202 29.8286 12.3059 29.3714 12.763L25.9428 16.1916C25.7143 16.4202 25.4857 16.5345 25.1428 16.5345Z" fill="#EB4F58"/>
</svg>
