<svg width="32" height="33" viewBox="0 0 32 33" fill="none" xmlns="http://www.w3.org/2000/svg">
<g clip-path="url(#clip0_46_4014)">
<path d="M14 32.5347C15.1046 32.5347 16 31.6392 16 30.5347C16 29.4301 15.1046 28.5347 14 28.5347C12.8954 28.5347 12 29.4301 12 30.5347C12 31.6392 12.8954 32.5347 14 32.5347Z" fill="#FCFF72"/>
<path d="M24.6666 32.5347C25.7712 32.5347 26.6666 31.6392 26.6666 30.5347C26.6666 29.4301 25.7712 28.5347 24.6666 28.5347C23.5621 28.5347 22.6666 29.4301 22.6666 30.5347C22.6666 31.6392 23.5621 32.5347 24.6666 32.5347Z" fill="#FCFF72"/>
<path d="M32 9.20133C32 13.98 28.112 17.868 23.3333 17.868C18.5546 17.868 14.6666 13.98 14.6666 9.20133C14.6666 4.42267 18.5546 0.534668 23.3333 0.534668C28.112 0.534668 32 4.42267 32 9.20133ZM27.544 5.19867C26.9893 4.71333 26.148 4.772 25.6626 5.324L21.9346 9.58534L20.276 7.92667C19.7546 7.40534 18.912 7.40534 18.3906 7.92667C17.8693 8.448 17.8693 9.29067 18.3906 9.812L21.0573 12.4787C21.6026 13.024 22.496 12.9947 23.0026 12.4147L27.6693 7.08133C28.1546 6.52533 28.0986 5.68267 27.544 5.19867Z" fill="#FCFF72"/>
<path d="M12 9.20117C12 8.97584 12.02 8.75584 12.0333 8.53451H8.47868L7.97201 6.1265C7.61735 4.4465 6.11601 3.22251 4.40001 3.21584L1.00401 3.20117C1.00268 3.20117 1.00135 3.20117 1.00001 3.20117C0.449345 3.20117 0.00267855 3.64517 1.18784e-05 4.19717C-0.00265479 4.74917 0.444012 5.19851 0.996012 5.20117L4.39068 5.21584C5.17068 5.21851 5.85335 5.77584 6.01468 6.53851L6.68801 9.73984L9.10135 21.2012H8.33335C6.67868 21.2012 5.33335 22.5465 5.33335 24.2012C5.33335 25.8558 6.67868 27.2012 8.33335 27.2012H28.3333C28.8853 27.2012 29.3333 26.7532 29.3333 26.2012C29.3333 25.6492 28.8853 25.2012 28.3333 25.2012H8.33335C7.78135 25.2012 7.33335 24.7532 7.33335 24.2012C7.33335 23.6492 7.78135 23.2012 8.33335 23.2012H10.332H28.3333C28.8053 23.2012 29.2147 22.8692 29.312 22.4065L30.1987 18.1972C28.2907 19.6572 25.9147 20.5345 23.3333 20.5345C17.084 20.5345 12 15.4505 12 9.20117Z" fill="#FCFF72"/>
</g>
<defs>
<clipPath id="clip0_46_4014">
<rect width="32" height="32" fill="white" transform="translate(0 0.534668)"/>
</clipPath>
</defs>
</svg>
