<svg width="32" height="33" viewBox="0 0 32 33" fill="none" xmlns="http://www.w3.org/2000/svg">
<g clip-path="url(#clip0_45_3976)">
<path d="M30.0305 15.5972C29.5669 8.58861 23.9461 2.96779 16.9375 2.50417V0.534668H15.0625V2.50417C8.05394 2.96779 2.43312 8.58861 1.9695 15.5972H0V17.4722H1.9695C2.43312 24.4807 8.05394 30.1015 15.0625 30.5652V32.5347H16.9375V30.5652C23.9461 30.1015 29.5669 24.4807 30.0305 17.4722H32V15.5972H30.0305ZM15.0625 4.38286V8.14954C11.1576 8.58323 8.04856 11.6922 7.61487 15.5972H3.84819C4.30481 9.62273 9.08806 4.83948 15.0625 4.38286ZM15.0625 28.6865C9.08806 28.2299 4.30481 23.4466 3.84819 17.4722H7.61487C8.04856 21.3771 11.1576 24.4861 15.0625 24.9198V28.6865ZM15.0625 21.2222V23.0299C12.1927 22.6176 9.91706 20.3419 9.50475 17.4722H11.3125V15.5972H9.50475C9.91706 12.7274 12.1927 10.4517 15.0625 10.0394V11.8472H16.9375V10.0394C19.8073 10.4517 22.0829 12.7274 22.4953 15.5972H20.6875V17.4722H22.4953C22.0829 20.3419 19.8073 22.6176 16.9375 23.0299V21.2222H15.0625ZM16.9375 28.6865V24.9198C20.8424 24.4861 23.9514 21.377 24.3851 17.4722H28.1518C27.6952 23.4466 22.9119 28.2299 16.9375 28.6865ZM24.3851 15.5972C23.9514 11.6922 20.8424 8.58323 16.9375 8.14954V4.38286C22.9119 4.83948 27.6952 9.62273 28.1518 15.5972H24.3851Z" fill="#EB4F58"/>
<path d="M16 13.7222C14.4492 13.7222 13.1875 14.9839 13.1875 16.5347C13.1875 18.0855 14.4492 19.3472 16 19.3472C17.5508 19.3472 18.8125 18.0855 18.8125 16.5347C18.8125 14.9839 17.5508 13.7222 16 13.7222Z" fill="#EB4F58"/>
</g>
<defs>
<clipPath id="clip0_45_3976">
<rect width="32" height="32" fill="white" transform="translate(0 0.534668)"/>
</clipPath>
</defs>
</svg>
