<svg width="9" height="9" viewBox="0 0 9 9" fill="none" xmlns="http://www.w3.org/2000/svg">
<g clip-path="url(#clip0_67_4025)">
<path d="M0.146103 4.49955L2.21207 5.52787C2.29198 5.56725 2.38632 5.56444 2.4627 5.51979L4.30162 4.45209L3.18856 5.43717C3.13188 5.48744 3.0995 5.55916 3.0995 5.63475V8.03416C3.0995 8.28729 3.423 8.39381 3.57471 8.19272L4.46777 7.0069L6.67631 8.26303C6.83119 8.35198 7.02973 8.26268 7.06563 8.08584L8.44306 1.23037C8.48425 1.02436 8.27902 0.856311 8.08823 0.932952L0.167928 4.01791C-0.0446887 4.10088 -0.0584172 4.39795 0.146103 4.49955ZM7.83056 1.59951L6.61998 7.62424L4.52726 6.43385C4.41321 6.36881 4.26642 6.39764 4.18546 6.50451L3.62752 7.24526V5.75323L6.63759 3.08979C6.8759 2.8792 6.60203 2.50479 6.32993 2.6644L2.32049 4.99244L0.915252 4.29319L7.83056 1.59951Z" fill="white" fill-opacity="0.6"/>
</g>
<defs>
<clipPath id="clip0_67_4025">
<rect width="8.44833" height="8.4375" fill="white" transform="translate(0 0.5625)"/>
</clipPath>
</defs>
</svg>
