<svg width="26" height="27" viewBox="0 0 26 27" fill="none" xmlns="http://www.w3.org/2000/svg">
<g clip-path="url(#clip0_18_3303)">
<path d="M15.1729 16.1505C14.526 16.5818 13.7747 16.8097 13 16.8097C12.2254 16.8097 11.474 16.5818 10.8272 16.1505L0.173113 9.04759C0.114004 9.00819 0.056418 8.96711 0 8.92486V20.5638C0 21.8982 1.08291 22.9572 2.39347 22.9572H23.6065C24.9409 22.9572 25.9999 21.8743 25.9999 20.5638V8.9248C25.9434 8.96716 25.8857 9.00834 25.8265 9.0478L15.1729 16.1505Z" fill="white"/>
<path d="M1.01816 7.78006L11.6722 14.883C12.0755 15.1519 12.5377 15.2863 12.9999 15.2863C13.4622 15.2863 13.9245 15.1519 14.3278 14.883L24.9818 7.78006C25.6194 7.35528 26 6.64434 26 5.87704C26 4.55769 24.9266 3.48438 23.6073 3.48438H2.39266C1.07336 3.48443 0 4.55774 0 5.87831C0 6.64434 0.380656 7.35528 1.01816 7.78006Z" fill="white"/>
</g>
<defs>
<clipPath id="clip0_18_3303">
<rect width="26" height="26" fill="white" transform="translate(0 0.220703)"/>
</clipPath>
</defs>
</svg>
