<svg width="45" height="46" viewBox="0 0 45 46" fill="none" xmlns="http://www.w3.org/2000/svg">
<rect x="0.5625" y="1.22656" width="43.875" height="43.875" rx="3.9375" fill="#121212"/>
<g clip-path="url(#clip0_19_3506)">
<path d="M22.5 11.1641C15.88 11.1641 10.5 16.5441 10.5 23.1641C10.5 29.7841 15.88 35.1641 22.5 35.1641C23.25 35.1641 23.98 35.0941 24.7 34.9641L23.88 32.5041C23.76 32.6241 23.63 32.7241 23.5 32.8141V31.3541L21.64 25.7841C21.54 25.4941 21.5 25.1941 21.5 24.9041V26.9341C20.55 26.9741 19.62 27.0541 18.74 27.2041C18.56 26.2641 18.44 25.2441 18.39 24.1441H21.5V24.9041C21.5 24.1941 21.78 23.5041 22.31 22.9741C22.82 22.4541 23.51 22.1641 24.25 22.1641C24.55 22.1641 24.84 22.2141 25.13 22.3041L30.64 24.1441H32.45C32.43 24.3441 32.41 24.5341 32.37 24.7241L34.3 25.3641C34.43 24.6441 34.5 23.9141 34.5 23.1641C34.5 16.5441 29.12 11.1641 22.5 11.1641ZM21.5 28.9341V32.8141C20.64 32.2341 19.82 30.9541 19.24 29.1441C19.97 29.0341 20.72 28.9641 21.5 28.9341ZM14.1 17.7541C14.9 18.1341 15.8 18.4541 16.78 18.7141C16.57 19.7841 16.44 20.9341 16.39 22.1441H12.55C12.71 20.5441 13.27 19.0541 14.1 17.7541ZM12.55 24.1441H16.39C16.44 25.3741 16.57 26.5341 16.78 27.6141C15.8 27.8741 14.9 28.1941 14.1 28.5741C13.26 27.2741 12.71 25.7641 12.55 24.1441ZM18.44 32.2941C17.29 31.7841 16.26 31.0641 15.39 30.1841C15.96 29.9341 16.59 29.7241 17.26 29.5541C17.58 30.5841 17.98 31.5141 18.44 32.2941ZM17.26 16.7741C16.59 16.6041 15.96 16.3941 15.39 16.1441C16.26 15.2641 17.29 14.5441 18.44 14.0341C17.98 14.8141 17.58 15.7441 17.26 16.7741ZM21.5 22.1441H18.39C18.44 21.0641 18.56 20.0541 18.74 19.1241C19.62 19.2741 20.55 19.3541 21.5 19.3941V22.1441ZM21.5 17.3941C20.72 17.3641 19.97 17.2941 19.24 17.1841C19.82 15.3741 20.64 14.0941 21.5 13.5141V17.3941ZM23.5 13.5141C24.36 14.0941 25.18 15.3741 25.76 17.1841C25.03 17.2941 24.28 17.3641 23.5 17.3941V13.5141ZM23.5 22.1441V19.3941C24.45 19.3541 25.38 19.2741 26.26 19.1241C26.44 20.0541 26.56 21.0641 26.61 22.1441H23.5ZM26.56 14.0341C27.71 14.5441 28.74 15.2641 29.61 16.1441C29.04 16.3941 28.41 16.6041 27.74 16.7741C27.42 15.7441 27.02 14.8141 26.56 14.0341ZM28.61 22.1441C28.56 20.9341 28.43 19.7841 28.22 18.7141C29.2 18.4541 30.1 18.1341 30.9 17.7541C31.73 19.0541 32.29 20.5441 32.45 22.1441H28.61Z" fill="white"/>
<path d="M27.417 35.1643C27.412 35.1643 27.406 35.1643 27.4 35.1643C27.084 35.1573 26.806 34.9523 26.706 34.6513L23.539 25.1513C23.449 24.8813 23.519 24.5843 23.72 24.3833C23.921 24.1813 24.218 24.1113 24.488 24.2023L33.988 27.3693C34.288 27.4693 34.493 27.7473 34.501 28.0633C34.508 28.3793 34.316 28.6673 34.02 28.7803L29.757 30.4203L28.117 34.6833C28.005 34.9743 27.726 35.1643 27.417 35.1643Z" fill="white"/>
</g>
<rect x="0.5625" y="1.22656" width="43.875" height="43.875" rx="3.9375" stroke="url(#paint0_linear_19_3506)" stroke-width="1.125"/>
<defs>
<linearGradient id="paint0_linear_19_3506" x1="44.3404" y1="0.664064" x2="8.94428" y2="28.3051" gradientUnits="userSpaceOnUse">
<stop stop-color="#3D3D3D"/>
<stop offset="1" stop-color="#1F1F1F"/>
</linearGradient>
<clipPath id="clip0_19_3506">
<rect width="24" height="24" fill="white" transform="translate(10.5 11.1641)"/>
</clipPath>
</defs>
</svg>
