<svg width="15" height="16" viewBox="0 0 15 16" fill="none" xmlns="http://www.w3.org/2000/svg">
<path fill-rule="evenodd" clip-rule="evenodd" d="M4 0.220703C1.79086 0.220703 0 2.01156 0 4.2207V11.2207C0 13.4298 1.79086 15.2207 4 15.2207H11C13.2091 15.2207 15 13.4298 15 11.2207V4.2207C15 2.01156 13.2091 0.220703 11 0.220703H4ZM9.87182 5.95334L8.325 7.50016L9.87182 9.04692C10.0427 9.21757 10.0427 9.49465 9.87182 9.66561L9.66561 9.87182C9.49497 10.0427 9.21789 10.0427 9.04692 9.87182L7.50016 8.325L5.95334 9.87182C5.7827 10.0427 5.50562 10.0427 5.33471 9.87182L5.1285 9.66561C4.95754 9.49497 4.95754 9.21789 5.1285 9.04692L6.67527 7.50016L5.12818 5.95308C4.95727 5.78243 4.95727 5.50535 5.12818 5.33439L5.33471 5.12818C5.50535 4.95727 5.78243 4.95727 5.95334 5.12818L7.50016 6.67527L9.04692 5.1285C9.21757 4.95754 9.49465 4.95754 9.66561 5.1285L9.87182 5.33471C10.0427 5.50535 10.0427 5.78243 9.87182 5.95334Z" fill="#EB4F58"/>
</svg>
