<svg width="45" height="46" viewBox="0 0 45 46" fill="none" xmlns="http://www.w3.org/2000/svg">
<rect x="0.5625" y="1.22656" width="43.875" height="43.875" rx="3.9375" fill="#121212"/>
<g clip-path="url(#clip0_19_3500)">
<path d="M21.3 28.939C21.675 28.939 22.0125 29.239 22.0125 29.6515C22.0125 30.0265 21.7125 30.364 21.3 30.364C20.925 30.364 20.5875 30.064 20.5875 29.6515C20.5875 29.239 20.925 28.939 21.3 28.939ZM32.325 24.589C31.95 24.589 31.6125 24.289 31.6125 23.8765C31.6125 23.5015 31.9125 23.164 32.325 23.164C32.7 23.164 33.0375 23.464 33.0375 23.8765C33.0375 24.2515 32.7 24.589 32.325 24.589ZM32.325 21.7015C31.125 21.7015 30.15 22.6765 30.15 23.8765C30.15 24.1015 30.1875 24.3265 30.2625 24.5515L23.1 28.3765C22.6875 27.7765 22.0125 27.439 21.3 27.439C20.475 27.439 19.725 27.9265 19.35 28.639L12.9 25.264C12.225 24.889 11.7 23.8015 11.775 22.7515C11.8125 22.2265 12 21.814 12.2625 21.664C12.45 21.5515 12.6375 21.589 12.9 21.7015L12.9375 21.739C14.6625 22.639 20.25 25.564 20.475 25.6765C20.85 25.8265 21.0375 25.9015 21.675 25.6015L33.225 19.6015C33.4125 19.5265 33.6 19.3765 33.6 19.114C33.6 18.7765 33.2625 18.6265 33.2625 18.6265C32.5875 18.3265 31.575 17.839 30.6 17.389C28.5 16.414 26.1 15.289 25.05 14.7265C24.15 14.239 23.4 14.6515 23.2875 14.7265L23.025 14.839C18.2625 17.239 11.9625 20.3515 11.5875 20.5765C10.95 20.9515 10.5375 21.739 10.5 22.714C10.425 24.2515 11.2125 25.864 12.3375 26.4265L19.1625 29.9515C19.3125 31.0015 20.25 31.8265 21.3 31.8265C22.5 31.8265 23.4375 30.889 23.475 29.689L30.975 25.639C31.35 25.939 31.8375 26.089 32.325 26.089C33.525 26.089 34.5 25.114 34.5 23.914C34.5 22.6765 33.525 21.7015 32.325 21.7015Z" fill="white"/>
</g>
<rect x="0.5625" y="1.22656" width="43.875" height="43.875" rx="3.9375" stroke="url(#paint0_linear_19_3500)" stroke-width="1.125"/>
<defs>
<linearGradient id="paint0_linear_19_3500" x1="44.3404" y1="0.664064" x2="8.94428" y2="28.3051" gradientUnits="userSpaceOnUse">
<stop stop-color="#3D3D3D"/>
<stop offset="1" stop-color="#1F1F1F"/>
</linearGradient>
<clipPath id="clip0_19_3500">
<rect width="24" height="24" fill="white" transform="translate(10.5 11.1641)"/>
</clipPath>
</defs>
</svg>
