<svg width="45" height="46" viewBox="0 0 45 46" fill="none" xmlns="http://www.w3.org/2000/svg">
<rect x="0.5625" y="1.22656" width="43.875" height="43.875" rx="3.9375" fill="#121212"/>
<g clip-path="url(#clip0_19_3495)">
<path d="M34.5 15.7226C33.6075 16.1141 32.6565 16.3736 31.665 16.4996C32.685 15.8906 33.4635 14.9336 33.8295 13.7801C32.8785 14.3471 31.8285 14.7476 30.7095 14.9711C29.8065 14.0096 28.5195 13.4141 27.1155 13.4141C24.3915 13.4141 22.1985 15.6251 22.1985 18.3356C22.1985 18.7256 22.2315 19.1006 22.3125 19.4576C18.222 19.2581 14.6025 17.2976 12.171 14.3111C11.7465 15.0476 11.4975 15.8906 11.4975 16.7981C11.4975 18.5021 12.375 20.0126 13.683 20.8871C12.8925 20.8721 12.117 20.6426 11.46 20.2811C11.46 20.2961 11.46 20.3156 11.46 20.3351C11.46 22.7261 13.1655 24.7121 15.402 25.1696C15.0015 25.2791 14.565 25.3316 14.112 25.3316C13.797 25.3316 13.479 25.3136 13.1805 25.2476C13.818 27.1961 15.627 28.6286 17.778 28.6751C16.104 29.9846 13.9785 30.7736 11.6775 30.7736C11.274 30.7736 10.887 30.7556 10.5 30.7061C12.6795 32.1116 15.2625 32.9141 18.048 32.9141C27.102 32.9141 32.052 25.4141 32.052 18.9131C32.052 18.6956 32.0445 18.4856 32.034 18.2771C33.0105 17.5841 33.831 16.7186 34.5 15.7226Z" fill="white"/>
</g>
<rect x="0.5625" y="1.22656" width="43.875" height="43.875" rx="3.9375" stroke="url(#paint0_linear_19_3495)" stroke-width="1.125"/>
<defs>
<linearGradient id="paint0_linear_19_3495" x1="44.3404" y1="0.664064" x2="8.94428" y2="28.3051" gradientUnits="userSpaceOnUse">
<stop stop-color="#3D3D3D"/>
<stop offset="1" stop-color="#1F1F1F"/>
</linearGradient>
<clipPath id="clip0_19_3495">
<rect width="24" height="24" fill="white" transform="translate(10.5 11.1641)"/>
</clipPath>
</defs>
</svg>
