<svg width="32" height="33" viewBox="0 0 32 33" fill="none" xmlns="http://www.w3.org/2000/svg">
<path d="M30.47 16.0347H25.475C25.21 11.0297 21.07 7.03467 16 7.03467C10.93 7.03467 6.79005 11.0297 6.52505 16.0347H1.50005C1.36744 16.0347 1.24026 16.0873 1.1465 16.1811C1.05273 16.2749 1.00005 16.4021 1.00005 16.5347C1.00005 16.6673 1.05273 16.7945 1.1465 16.8882C1.24026 16.982 1.36744 17.0347 1.50005 17.0347H6.52505C6.61432 18.8006 7.19915 20.5057 8.21255 21.9547L6.45005 23.7147C6.25979 23.5931 6.03378 23.5399 5.80928 23.564C5.58477 23.5881 5.37518 23.688 5.21505 23.8472L1.33005 27.7347C0.895028 28.1792 0.652919 28.7774 0.656285 29.3994C0.659651 30.0213 0.908221 30.6169 1.34803 31.0567C1.78783 31.4965 2.38337 31.7451 3.00534 31.7484C3.62731 31.7518 4.22551 31.5097 4.67005 31.0747L7.13005 28.6147C9.69295 30.522 12.8053 31.5466 16 31.5347C19.6101 31.5393 23.1 30.2375 25.825 27.8697C26.0344 27.9758 26.2654 28.0322 26.5 28.0347C26.7967 28.0347 27.0867 27.9467 27.3334 27.7819C27.5801 27.617 27.7723 27.3828 27.8859 27.1087C27.9994 26.8346 28.0291 26.533 27.9712 26.242C27.9133 25.9511 27.7705 25.6838 27.5607 25.474C27.3509 25.2642 27.0837 25.1214 26.7927 25.0635C26.5017 25.0056 26.2001 25.0353 25.926 25.1488C25.6519 25.2624 25.4177 25.4546 25.2528 25.7013C25.088 25.948 25 26.238 25 26.5347C25.0003 26.7454 25.0464 26.9535 25.135 27.1447C22.5964 29.3358 19.3535 30.5392 16 30.5347C13.0707 30.5459 10.214 29.6229 7.84505 27.8997L8.55005 27.1897C8.70152 27.0386 8.80033 26.8427 8.83184 26.6311C8.86336 26.4195 8.82591 26.2033 8.72505 26.0147L10.485 24.2547C12.0917 25.4108 14.0207 26.0334 16 26.0347C21.07 26.0347 25.21 22.0397 25.475 17.0347H30.47C30.6027 17.0347 30.7298 16.982 30.8236 16.8882C30.9174 16.7945 30.97 16.6673 30.97 16.5347C30.97 16.4021 30.9174 16.2749 30.8236 16.1811C30.7298 16.0873 30.6027 16.0347 30.47 16.0347ZM16 22.5347C14.4963 22.5326 13.0481 21.9664 11.9417 20.948C10.8353 19.9296 10.1514 18.5331 10.025 17.0347H11.5C11.5849 17.0343 11.6683 17.0126 11.7426 16.9715C11.8169 16.9305 11.8796 16.8714 11.925 16.7997L13.7375 13.9047L15.0125 21.1197C15.0825 21.6147 15.8175 21.6822 15.9725 21.2047L18.0525 15.3797L19.5475 18.7397C19.5835 18.8208 19.6405 18.8909 19.7126 18.9427C19.7846 18.9946 19.8692 19.0263 19.9575 19.0347C20.0466 19.0402 20.1356 19.0229 20.2161 18.9844C20.2966 18.9459 20.366 18.8875 20.4175 18.8147L21.625 17.0347H21.975C21.8487 18.5331 21.1648 19.9296 20.0584 20.948C18.952 21.9664 17.5038 22.5326 16 22.5347ZM21.36 16.0347C21.2779 16.0333 21.1968 16.0528 21.1242 16.0912C21.0517 16.1297 20.99 16.1859 20.945 16.2547L20.09 17.5097L18.455 13.8297C18.285 13.4247 17.665 13.4497 17.53 13.8647L15.665 19.0897L14.49 12.4497C14.4275 12.0122 13.8025 11.8872 13.575 12.2697L11.225 16.0347H10.025C10.1497 14.5357 10.8332 13.1384 11.94 12.1198C13.0467 11.1013 14.4959 10.5359 16 10.5359C17.5042 10.5359 18.9534 11.1013 20.0601 12.1198C21.1669 13.1384 21.8504 14.5357 21.975 16.0347H21.36Z" fill="#EB4F58"/>
<path d="M26.61 6.63489C26.5156 6.72863 26.388 6.78124 26.255 6.78124C26.122 6.78124 25.9944 6.72863 25.9 6.63489C23.4021 4.13676 20.0521 2.67532 16.5219 2.54364C12.9916 2.41196 9.54205 3.61978 6.865 5.92489C6.9537 6.11603 6.99976 6.32418 7 6.53489C7 6.83157 6.91203 7.12158 6.74721 7.36825C6.58238 7.61492 6.34812 7.80718 6.07403 7.92071C5.79994 8.03425 5.49834 8.06395 5.20737 8.00607C4.91639 7.94819 4.64912 7.80533 4.43934 7.59555C4.22956 7.38578 4.0867 7.1185 4.02882 6.82753C3.97094 6.53656 4.00065 6.23496 4.11418 5.96087C4.22771 5.68678 4.41997 5.45251 4.66665 5.28769C4.91332 5.12287 5.20333 5.03489 5.5 5.03489C5.73468 5.03735 5.96565 5.09381 6.175 5.19989C9.04244 2.71517 12.7445 1.40862 16.5363 1.54313C20.3282 1.67765 23.9283 3.24323 26.6125 5.92489C26.7059 6.0196 26.7581 6.1474 26.7576 6.28041C26.7571 6.41342 26.7041 6.54085 26.61 6.63489Z" fill="#EB4F58"/>
</svg>
