<svg width="45" height="46" viewBox="0 0 45 46" fill="none" xmlns="http://www.w3.org/2000/svg">
<rect x="0.5625" y="1.54102" width="43.875" height="43.875" rx="3.9375" fill="#121212"/>
<path d="M33.2747 17.8547C33.0154 16.8908 32.2554 16.131 31.2916 15.8714C29.5309 15.3896 22.488 15.3896 22.488 15.3896C22.488 15.3896 15.4454 15.3896 13.6847 15.8531C12.7394 16.1124 11.9609 16.8909 11.7016 17.8547C11.2383 19.6153 11.2383 23.2664 11.2383 23.2664C11.2383 23.2664 11.2383 26.936 11.7016 28.6782C11.9612 29.6419 12.7209 30.4018 13.6848 30.6613C15.4639 31.1432 22.4883 31.1432 22.4883 31.1432C22.4883 31.1432 29.5309 31.1432 31.2916 30.6797C32.2555 30.4203 33.0154 29.6605 33.2749 28.6967C33.7381 26.936 33.7381 23.285 33.7381 23.285C33.7381 23.285 33.7567 19.6153 33.2747 17.8547ZM20.2457 26.6395V19.8934L26.1022 23.2664L20.2457 26.6395Z" fill="white"/>
<rect x="0.5625" y="1.54102" width="43.875" height="43.875" rx="3.9375" stroke="url(#paint0_linear_126_1260)" stroke-width="1.125"/>
<defs>
<linearGradient id="paint0_linear_126_1260" x1="44.3404" y1="0.978517" x2="8.94428" y2="28.6196" gradientUnits="userSpaceOnUse">
<stop stop-color="#3D3D3D"/>
<stop offset="1" stop-color="#1F1F1F"/>
</linearGradient>
</defs>
</svg>
