<svg width="32" height="33" viewBox="0 0 32 33" fill="none" xmlns="http://www.w3.org/2000/svg">
<g clip-path="url(#clip0_123_1227)">
<path fill-rule="evenodd" clip-rule="evenodd" d="M14.0544 32C11.7715 32 7.78182 31.0516 5.24932 27.3711C0.217869 20.0587 5.199 13.3166 5.199 13.3166C5.199 13.3166 4.70494 18.3968 8.01661 18.3312C9.71053 18.2977 10.9516 16.9057 10.7336 15.2285C10.5796 14.0441 10.3721 13.1574 10.1828 12.3482C9.90174 11.147 9.66062 10.1165 9.69376 8.53669C9.74408 6.13836 10.0773 4.61254 11.5051 2.70021C12.4869 1.38516 14.7252 0 14.7252 0C14.7252 0 13.3391 3.73612 13.4673 6.20545C13.6015 8.78826 14.6749 11.4214 17.1068 12.109C19.0858 12.6686 20.6288 12.0922 21.6854 10.3648C22.2866 9.38177 22.2556 7.51363 22.2556 7.51363C22.2556 7.51363 23.8824 9.35849 24.0166 10.9182C24.1376 12.3242 24.1048 12.8848 23.8489 14.2725C23.7286 14.9249 23.5435 15.4778 23.3555 16.0392C23.2034 16.4935 23.0494 16.9533 22.9265 17.4759C22.591 18.9015 22.667 20.524 24.0166 21.2662C25.5422 22.1053 27.6057 21.5346 28.0753 19.4214C28.3833 18.0355 28.4275 16.0839 28.4275 16.0839C28.4275 16.0839 30.2107 19.6897 29.6686 22.9266C29.1855 25.8113 28.3435 27.0372 26.2975 28.9476C23.0285 32 17.8447 32 17.8447 32H14.0544ZM12.8567 27.9078L13.747 26.5694L11.8883 26.5664L16.3997 19.7992L20.9141 26.5664H19.0494L19.9427 27.9048H23.5879L16.3997 17.1405L9.20546 27.9078H12.8567Z" fill="#FCFF72"/>
</g>
<defs>
<clipPath id="clip0_123_1227">
<rect width="32" height="32" fill="white" transform="translate(0 0.220703)"/>
</clipPath>
</defs>
</svg>
