<svg width="32" height="33" viewBox="0 0 32 33" fill="none" xmlns="http://www.w3.org/2000/svg">
<path fill-rule="evenodd" clip-rule="evenodd" d="M0.5 16.5C0.5 7.93959 7.43959 1 16 1C24.5604 1 31.5 7.93959 31.5 16.5C31.5 25.0604 24.5604 32 16 32C7.43959 32 0.5 25.0604 0.5 16.5ZM2.08851 15.8035C2.43941 8.67831 8.14434 2.96099 15.2643 2.59049V6.35508H15.9209V13.7121H15.2643V13.9832H15.9209V14.1397C14.6546 14.1904 13.6387 15.2141 13.6005 16.4836L13.4444 16.4838V15.803H13.1733V16.4843L10.4992 16.4884C10.5331 14.3587 11.7813 12.5228 13.5847 11.645C13.9197 11.4819 14.0591 11.0781 13.8961 10.7431C13.733 10.4081 13.3292 10.2687 12.9941 10.4317C10.7436 11.5272 9.18293 13.8242 9.14967 16.4904L6.17429 16.495C6.20428 12.8567 8.21529 9.68978 11.1846 8.02154C11.4967 7.84619 11.6075 7.45103 11.4322 7.13892C11.2568 6.82682 10.8617 6.71596 10.5496 6.89131C7.37758 8.67343 5.1681 11.9706 4.90411 15.8035H2.08851ZM16.0387 13.9832V14.1378C17.3392 14.148 18.3954 15.1838 18.4382 16.4762L18.5557 16.476V15.803H18.8268V16.4756L21.4617 16.4715C21.4215 14.3491 20.1751 12.5205 18.3765 11.645C18.0414 11.4819 17.902 11.0781 18.0651 10.7431C18.2282 10.4081 18.632 10.2687 18.967 10.4317C21.2116 11.5243 22.77 13.8122 22.8112 16.4695L25.7867 16.4649C25.7459 12.8392 23.7378 9.68518 20.7767 8.02154C20.4646 7.84619 20.3538 7.45103 20.5291 7.13892C20.7045 6.82682 21.0996 6.71596 21.4117 6.89131C24.5837 8.67343 26.7932 11.9706 27.0572 15.8035H29.9115C29.5606 8.67835 23.8557 2.96105 16.7358 2.5905V6.35508H16.0387V13.7121H16.7358V13.9832H16.0387ZM13.1733 16.6021L10.4986 16.6062C10.5097 18.7614 11.7643 20.6237 13.5847 21.5098C13.9197 21.6729 14.0591 22.0767 13.8961 22.4117C13.733 22.7467 13.3292 22.8861 12.9941 22.7231C10.7279 21.6199 9.16111 19.2983 9.14919 16.6083L6.17401 16.6129C6.1869 20.271 8.20244 23.4581 11.1846 25.1336C11.4967 25.3089 11.6075 25.7041 11.4322 26.0162C11.2568 26.3283 10.8617 26.4392 10.5496 26.2638C7.35643 24.4698 5.13868 21.1405 4.89909 17.2749H2.09259C2.4813 24.3636 8.17047 30.0404 15.2643 30.4095V26.6841H15.9209V19.4043H15.2643V19.1333H15.9209V18.976C14.6444 18.9249 13.6224 17.8851 13.5997 16.6015L13.4444 16.6017V17.2744H13.1733V16.6021ZM16.0387 26.6841V19.4043H16.7358V19.1333H16.0387V18.9779C17.3544 18.9676 18.4201 17.9075 18.4393 16.594L18.5557 16.5939V17.2744H18.8268V16.5934L21.4627 16.5894C21.458 18.7517 20.2016 20.6214 18.3765 21.5098C18.0414 21.6729 17.902 22.0767 18.0651 22.4117C18.2282 22.7467 18.632 22.8861 18.967 22.7231C21.2392 21.6171 22.8082 19.2863 22.812 16.5873L25.7873 16.5827C25.7854 20.2535 23.767 23.4535 20.7767 25.1336C20.4646 25.3089 20.3538 25.7041 20.5291 26.0162C20.7045 26.3283 21.0996 26.4392 21.4117 26.2638C24.6049 24.4698 26.8226 21.1405 27.0622 17.2749H29.9074C29.5187 24.3635 23.8296 30.0403 16.7358 30.4095V26.6841H16.0387ZM15.2961 17.3264L15.4669 17.0697L15.1104 17.0691L15.9756 15.7711L16.8415 17.0691H16.4839L16.6552 17.3258H17.3543L15.9756 15.2612L14.5958 17.3264H15.2961Z" fill="#FCFF72"/>
</svg>
