<?xml version="1.0" encoding="UTF-8" standalone="no"?>
<svg xmlns="http://www.w3.org/2000/svg" version="1.2" baseProfile="tiny" viewBox="0.00 0.00 40.00 41.00">
<path fill="#EB4F58" d="
  M 40.00 5.08
  L 40.00 35.97
  Q 38.50 40.53 33.75 40.52
  Q 20.12 40.50 6.50 40.50
  Q 1.39 40.50 0.00 35.85
  L 0.00 4.82
  C 1.05 1.70 2.84 0.53 6.24 0.52
  Q 20.02 0.48 33.74 0.50
  Q 38.83 0.51 40.00 5.08
  Z
  M 33.43 22.63
  L 35.33 22.57
  A 0.67 0.67 0.0 0 0 35.98 21.92
  L 36.09 19.20
  Q 36.13 18.27 35.20 18.26
  L 33.48 18.25
  A 0.81 0.79 -7.2 0 1 32.72 17.67
  Q 30.42 9.50 22.65 7.71
  Q 22.06 7.58 22.09 6.97
  L 22.17 5.23
  Q 22.20 4.50 21.48 4.50
  L 18.48 4.50
  Q 17.95 4.50 17.93 5.02
  L 17.86 6.96
  Q 17.84 7.58 17.25 7.74
  Q 9.31 9.86 7.26 17.80
  Q 7.14 18.26 6.67 18.26
  L 4.75 18.25
  Q 4.00 18.25 4.00 19.00
  L 4.01 21.93
  A 0.67 0.67 0.0 0 0 4.68 22.60
  L 6.27 22.59
  Q 7.04 22.58 7.30 23.30
  Q 7.62 24.16 7.89 25.04
  C 9.14 29.19 13.24 32.15 17.34 33.11
  A 0.71 0.70 7.1 0 1 17.89 33.81
  L 17.84 36.04
  Q 17.83 36.50 18.29 36.50
  L 21.55 36.49
  A 0.69 0.69 0.0 0 0 22.22 35.64
  Q 22.00 34.74 22.14 33.81
  Q 22.22 33.29 22.73 33.16
  Q 30.53 31.20 32.70 23.21
  Q 32.85 22.65 33.43 22.63
  Z"
/>
<path fill="#FFF" d="
  M 32.70 23.21
  Q 30.53 31.20 22.73 33.16
  Q 22.22 33.29 22.14 33.81
  Q 22.00 34.74 22.22 35.64
  A 0.69 0.69 0.0 0 1 21.55 36.49
  L 18.29 36.50
  Q 17.83 36.50 17.84 36.04
  L 17.89 33.81
  A 0.71 0.70 7.1 0 0 17.34 33.11
  C 13.24 32.15 9.14 29.19 7.89 25.04
  Q 7.62 24.16 7.30 23.30
  Q 7.04 22.58 6.27 22.59
  L 4.68 22.60
  A 0.67 0.67 0.0 0 1 4.01 21.93
  L 4.00 19.00
  Q 4.00 18.25 4.75 18.25
  L 6.67 18.26
  Q 7.14 18.26 7.26 17.80
  Q 9.31 9.86 17.25 7.74
  Q 17.84 7.58 17.86 6.96
  L 17.93 5.02
  Q 17.95 4.50 18.48 4.50
  L 21.48 4.50
  Q 22.20 4.50 22.17 5.23
  L 22.09 6.97
  Q 22.06 7.58 22.65 7.71
  Q 30.42 9.50 32.72 17.67
  A 0.81 0.79 -7.2 0 0 33.48 18.25
  L 35.20 18.26
  Q 36.13 18.27 36.09 19.20
  L 35.98 21.92
  A 0.67 0.67 0.0 0 1 35.33 22.57
  L 33.43 22.63
  Q 32.85 22.65 32.70 23.21
  Z
  M 29.38 20.44
  A 9.38 9.38 0.0 0 0 20.00 11.06
  A 9.38 9.38 0.0 0 0 10.62 20.44
  A 9.38 9.38 0.0 0 0 20.00 29.82
  A 9.38 9.38 0.0 0 0 29.38 20.44
  Z"
/>
<path fill="#E9355E" d="
  M 29.38 20.44
  A 9.38 9.38 0.0 0 1 20.00 29.82
  A 9.38 9.38 0.0 0 1 10.62 20.44
  A 9.38 9.38 0.0 0 1 20.00 11.06
  A 9.38 9.38 0.0 0 1 29.38 20.44
  Z
  M 23.64 20.44
  A 3.64 3.64 0.0 0 0 20.00 16.80
  A 3.64 3.64 0.0 0 0 16.36 20.44
  A 3.64 3.64 0.0 0 0 20.00 24.08
  A 3.64 3.64 0.0 0 0 23.64 20.44
  Z"
/>
<circle fill="#FFF" cx="20.00" cy="20.44" r="3.64"/>
</svg>
