<?xml version="1.0" encoding="UTF-8" standalone="no"?>
<svg xmlns="http://www.w3.org/2000/svg" version="1.2" baseProfile="tiny" viewBox="0.00 0.00 40.00 41.00">
<path fill="#EB4F58" d="
  M 40.00 5.39
  L 40.00 35.47
  Q 38.59 40.49 33.25 40.50
  Q 20.13 40.52 7.00 40.49
  Q 1.35 40.48 0.00 35.37
  L 0.00 5.29
  C 0.94 2.34 3.10 0.46 6.25 0.47
  Q 19.70 0.56 33.53 0.44
  C 36.81 0.41 39.10 2.22 40.00 5.39
  Z
  M 24.43 20.45
  Q 26.64 22.76 26.19 26.20
  Q 26.13 26.64 26.52 26.84
  Q 27.25 27.22 28.09 26.93
  Q 28.69 26.73 28.58 26.10
  Q 27.96 22.61 30.41 20.45
  Q 30.86 20.06 31.47 20.05
  L 35.06 19.99
  A 1.03 1.03 0.0 0 0 36.07 18.94
  L 36.04 17.26
  Q 36.02 16.25 35.01 16.25
  L 4.75 16.25
  Q 3.99 16.25 4.00 17.00
  L 4.01 19.52
  Q 4.01 20.17 4.66 20.16
  C 6.28 20.12 8.99 19.70 10.19 21.03
  C 11.49 22.48 11.63 24.39 11.49 26.25
  Q 11.44 26.99 12.18 27.00
  L 13.01 27.01
  Q 13.85 27.02 13.76 26.19
  C 13.54 24.21 13.81 22.04 15.42 20.68
  A 1.53 1.52 -36.0 0 1 17.70 21.04
  Q 19.26 23.57 18.84 26.24
  Q 18.73 27.01 19.50 27.01
  L 20.51 27.01
  Q 21.26 27.01 21.17 26.26
  C 20.90 24.04 21.26 21.45 23.42 20.29
  A 0.86 0.85 53.6 0 1 24.43 20.45
  Z"
/>
<path fill="#FFF" d="
  M 23.42 20.29
  C 21.26 21.45 20.90 24.04 21.17 26.26
  Q 21.26 27.01 20.51 27.01
  L 19.50 27.01
  Q 18.73 27.01 18.84 26.24
  Q 19.26 23.57 17.70 21.04
  A 1.53 1.52 -36.0 0 0 15.42 20.68
  C 13.81 22.04 13.54 24.21 13.76 26.19
  Q 13.85 27.02 13.01 27.01
  L 12.18 27.00
  Q 11.44 26.99 11.49 26.25
  C 11.63 24.39 11.49 22.48 10.19 21.03
  C 8.99 19.70 6.28 20.12 4.66 20.16
  Q 4.01 20.17 4.01 19.52
  L 4.00 17.00
  Q 3.99 16.25 4.75 16.25
  L 35.01 16.25
  Q 36.02 16.25 36.04 17.26
  L 36.07 18.94
  A 1.03 1.03 0.0 0 1 35.06 19.99
  L 31.47 20.05
  Q 30.86 20.06 30.41 20.45
  Q 27.96 22.61 28.58 26.10
  Q 28.69 26.73 28.09 26.93
  Q 27.25 27.22 26.52 26.84
  Q 26.13 26.64 26.19 26.20
  Q 26.64 22.76 24.43 20.45
  A 0.86 0.85 53.6 0 0 23.42 20.29
  Z"
/>
</svg>
