<?xml version="1.0" encoding="UTF-8" standalone="no"?>
<!DOCTYPE svg PUBLIC "-//W3C//DTD SVG 1.1//EN" "http://www.w3.org/Graphics/SVG/1.1/DTD/svg11.dtd">
<svg xmlns="http://www.w3.org/2000/svg" version="1.1" viewBox="0.00 0.00 500.00 456.00">
<path fill="##eb4f58b8" fill-opacity="0.400" d="
  M 215.54 34.90
  Q 207.93 35.81 209.73 43.96
  Q 200.79 39.29 196.72 37.33
  C 181.84 30.17 161.38 24.28 145.46 30.52
  C 133.15 35.34 123.56 46.17 118.42 58.16
  Q 112.39 72.22 111.48 89.88
  Q 110.20 114.81 116.73 144.21
  A 0.52 0.52 0.0 0 0 117.40 144.59
  C 133.89 139.08 151.49 135.40 168.76 132.05
  L 183.62 129.54
  L 175.86 140.87
  Q 175.09 142.36 174.76 142.46
  L 157.04 145.79
  Q 138.50 149.44 120.06 155.33
  A 0.74 0.73 -15.9 0 0 119.57 156.21
  Q 124.48 175.34 131.50 194.21
  L 137.08 208.27
  Q 137.17 208.27 137.26 208.28
  L 136.26 209.79
  L 131.07 221.39
  Q 130.14 220.72 129.93 220.25
  Q 118.18 193.17 110.07 163.94
  Q 109.51 161.94 109.22 160.12
  A 0.52 0.52 0.0 0 0 108.50 159.72
  C 89.37 167.83 71.69 178.69 54.97 190.91
  Q 52.56 192.67 51.07 192.92
  C 46.60 193.68 43.47 189.27 45.11 185.29
  C 45.82 183.54 47.75 182.41 49.35 181.25
  C 67.01 168.45 85.65 156.95 105.87 148.85
  A 0.64 0.63 72.8 0 0 106.25 148.12
  C 96.80 107.35 92.69 46.76 135.96 22.66
  C 150.03 14.82 167.42 15.65 183.02 20.25
  Q 199.02 24.97 214.36 34.30
  Q 214.94 34.65 215.54 34.90
  Z
  M 118.97 155.75
  A 0.45 0.45 0.0 0 0 119.25 155.22
  L 116.92 145.30
  A 0.45 0.45 0.0 0 0 116.32 144.98
  L 106.68 148.46
  A 0.45 0.45 0.0 0 0 106.39 148.99
  L 108.73 158.96
  A 0.45 0.45 0.0 0 0 109.33 159.28
  L 118.97 155.75
  Z"
/>
<path fill="#EB4F58" fill-opacity="0.906" d="
  M 353.67 24.24
  Q 348.93 28.31 348.48 34.25
  Q 328.99 29.27 311.06 34.84
  C 291.19 41.00 274.39 52.65 258.24 65.77
  L 250.15 72.67
  A 0.97 0.96 -41.9 0 1 248.82 72.60
  Q 245.47 69.08 241.36 66.43
  A 0.62 0.62 0.0 0 1 241.30 65.43
  L 248.79 59.19
  A 1.38 1.38 0.0 0 1 250.44 59.10
  Q 252.39 60.40 253.80 61.67
  Q 255.20 62.93 254.07 61.43
  Q 252.58 59.45 252.95 55.96
  Q 263.60 47.09 277.23 38.47
  C 300.54 23.73 326.52 16.25 353.67 24.24
  Z"
/>
<path fill="#ffffff" d="
  M 348.48 34.25
  Q 348.93 28.31 353.67 24.24
  Q 354.88 23.87 356.24 23.29
  C 362.50 20.64 368.86 24.04 371.46 29.79
  C 373.41 34.11 372.16 39.55 368.73 42.87
  C 365.08 46.39 359.64 47.15 355.07 44.81
  Q 349.22 41.80 348.48 34.25
  Z"
/>
<path fill="#c0c257" fill-opacity="0.761" d="
  M 215.54 34.90
  Q 216.16 35.25 216.69 35.56
  Q 233.79 45.56 249.13 58.18
  Q 249.53 58.50 249.94 58.20
  L 252.95 55.96
  Q 252.58 59.45 254.07 61.43
  Q 255.20 62.93 253.80 61.67
  Q 252.39 60.40 250.44 59.10
  A 1.38 1.38 0.0 0 0 248.79 59.19
  L 241.30 65.43
  A 0.62 0.62 0.0 0 0 241.36 66.43
  Q 245.47 69.08 248.82 72.60
  A 0.97 0.96 -41.9 0 0 250.15 72.67
  L 258.24 65.77
  Q 289.02 93.00 313.95 126.15
  Q 306.67 126.20 299.74 124.90
  Q 299.44 124.85 299.47 125.50
  Q 299.18 124.95 299.02 125.03
  L 290.38 114.45
  Q 271.72 92.24 250.01 73.35
  A 0.57 0.56 44.6 0 0 249.26 73.35
  Q 227.24 92.63 208.72 115.31
  L 199.98 126.41
  Q 199.92 126.47 199.86 126.53
  L 199.61 125.84
  Q 199.38 125.20 199.04 125.79
  Q 198.84 126.13 198.50 126.38
  Q 198.08 126.67 197.60 126.76
  Q 192.65 127.70 187.45 128.51
  Q 186.73 128.62 186.88 127.90
  Q 187.05 127.08 187.79 126.79
  Q 188.16 126.65 188.12 126.25
  Q 188.03 125.43 188.78 125.13
  Q 189.23 124.95 189.15 124.47
  Q 189.05 123.86 189.67 123.87
  Q 190.10 123.87 189.90 123.49
  L 189.76 123.23
  Q 189.51 122.77 189.22 123.20
  Q 188.64 124.04 188.14 123.68
  L 193.01 117.25
  Q 214.52 89.37 240.63 66.13
  Q 241.04 65.77 240.62 65.43
  Q 225.73 53.58 209.73 43.96
  Q 207.93 35.81 215.54 34.90
  Z"
/>
<path fill="##eb4f58b8" fill-opacity="0.400" d="
  M 390.25 141.79
  Q 389.51 141.93 389.25 141.86
  Q 384.24 140.60 379.50 138.82
  C 382.06 117.44 381.46 97.89 379.20 76.40
  Q 378.87 73.30 379.86 71.57
  C 381.83 68.12 386.77 67.95 389.08 71.20
  Q 390.02 72.53 390.37 75.94
  C 392.70 99.15 393.15 119.96 390.25 141.79
  Z"
/>
<path fill="#1e1e0e" fill-opacity="0.118" d="
  M 290.38 114.45
  L 299.02 125.03
  Q 299.02 125.57 298.12 125.13
  Q 297.70 124.92 297.32 124.89
  Q 276.43 122.98 260.25 122.55
  Q 230.95 121.78 199.98 126.41
  L 208.72 115.31
  L 209.06 115.72
  Q 209.40 116.12 209.71 115.69
  Q 211.16 113.70 213.71 112.53
  Q 214.05 112.37 214.37 112.58
  Q 214.49 112.66 214.64 112.66
  Q 214.81 112.67 214.93 112.54
  Q 215.44 111.97 216.21 112.13
  Q 216.76 112.24 217.17 111.86
  Q 217.76 111.34 218.38 111.87
  Q 218.48 111.96 218.58 111.87
  Q 218.68 111.77 218.73 111.64
  Q 218.77 111.52 218.88 111.49
  Q 224.94 109.64 231.38 108.94
  Q 231.96 108.88 232.45 108.58
  Q 233.28 108.08 234.06 108.43
  Q 234.49 108.62 234.96 108.56
  Q 238.07 108.17 240.88 107.57
  Q 242.19 107.29 243.39 107.55
  Q 243.97 107.68 244.53 107.67
  Q 250.72 107.55 257.05 107.70
  Q 259.02 107.75 260.89 108.17
  Q 262.73 108.60 264.56 108.72
  Q 266.94 108.89 269.56 109.46
  Q 271.88 109.96 273.92 110.10
  Q 275.69 110.22 277.47 110.84
  Q 278.66 111.25 280.03 111.43
  Q 281.25 111.59 282.34 112.06
  Q 284.25 112.88 286.37 113.55
  Q 286.71 113.65 286.91 113.37
  Q 287.01 113.24 287.15 113.18
  Q 287.46 113.07 287.67 113.32
  Q 289.74 115.82 290.38 114.45
  Z"
/>
<path fill="#1e1e0e" fill-opacity="0.118" d="
  M 193.01 117.25
  L 188.14 123.68
  L 183.62 129.54
  L 168.76 132.05
  Q 169.03 130.96 172.39 130.79
  A 0.69 0.69 0.0 0 0 172.98 130.40
  Q 173.25 129.86 172.75 129.91
  Q 171.89 129.98 171.42 129.43
  Q 171.24 129.22 171.59 129.02
  Q 171.75 128.92 171.93 128.86
  Q 174.46 128.04 176.27 125.96
  A 1.82 1.79 10.7 0 1 177.09 125.41
  C 178.49 124.94 178.92 124.07 180.07 123.44
  Q 180.61 123.14 180.91 122.97
  Q 185.81 120.26 190.06 117.44
  Q 190.57 117.11 190.85 117.65
  Q 191.16 118.25 191.74 117.90
  Q 192.01 117.74 192.23 117.48
  Q 192.61 117.05 193.01 117.25
  Z"
/>
<path fill="#85863c" fill-opacity="0.525" d="
  M 299.02 125.03
  Q 299.18 124.95 299.47 125.50
  L 307.93 136.84
  Q 293.73 135.91 289.75 135.39
  Q 288.04 135.17 288.00 136.22
  L 280.73 134.27
  Q 269.34 129.56 256.00 128.80
  Q 240.93 127.93 227.53 130.97
  Q 223.59 131.86 219.63 132.64
  Q 217.65 133.04 216.42 135.41
  L 208.11 136.79
  L 190.89 138.89
  L 199.86 126.53
  Q 199.92 126.47 199.98 126.41
  Q 230.95 121.78 260.25 122.55
  Q 276.43 122.98 297.32 124.89
  Q 297.70 124.92 298.12 125.13
  Q 299.02 125.57 299.02 125.03
  Z"
/>
<path fill="#EB4F58" fill-opacity="0.906" d="
  M 199.86 126.53
  L 190.89 138.89
  Q 189.80 139.66 188.69 141.94
  Q 187.75 141.60 188.16 140.65
  Q 188.61 139.61 187.49 139.69
  Q 185.19 139.85 183.78 140.48
  L 180.91 140.98
  Q 178.56 140.95 176.58 141.95
  Q 176.05 142.22 175.97 141.63
  L 175.86 140.87
  L 183.62 129.54
  L 188.14 123.68
  Q 188.64 124.04 189.22 123.20
  Q 189.51 122.77 189.76 123.23
  L 189.90 123.49
  Q 190.10 123.87 189.67 123.87
  Q 189.05 123.86 189.15 124.47
  Q 189.23 124.95 188.78 125.13
  Q 188.03 125.43 188.12 126.25
  Q 188.16 126.65 187.79 126.79
  Q 187.05 127.08 186.88 127.90
  Q 186.73 128.62 187.45 128.51
  Q 192.65 127.70 197.60 126.76
  Q 198.08 126.67 198.50 126.38
  Q 198.84 126.13 199.04 125.79
  Q 199.38 125.20 199.61 125.84
  L 199.86 126.53
  Z"
/>
<path fill="#EB4F58" fill-opacity="0.906" d="
  M 313.95 126.15
  L 315.08 127.22
  L 322.45 137.90
  L 322.34 138.38
  Q 322.21 138.93 321.66 138.79
  Q 315.47 137.12 308.98 137.95
  L 307.93 136.84
  L 299.47 125.50
  Q 299.44 124.85 299.74 124.90
  Q 306.67 126.20 313.95 126.15
  Z"
/>
<path fill="##eb4f58b8" fill-opacity="0.400" d="
  M 379.39 139.28
  L 377.74 150.04
  L 348.55 143.17
  L 323.50 139.19
  Q 323.41 139.63 322.45 137.90
  L 315.08 127.22
  Q 315.18 127.00 315.50 126.87
  Q 315.72 126.78 316.04 126.82
  Q 347.10 130.37 378.25 138.67
  Q 378.84 138.83 379.39 139.28
  Z"
/>
<path fill="##eb4f58b8" fill-opacity="0.400" d="
  M 280.73 134.27
  Q 276.53 134.41 265.50 133.89
  Q 243.33 132.83 216.42 135.41
  Q 217.65 133.04 219.63 132.64
  Q 223.59 131.86 227.53 130.97
  Q 240.93 127.93 256.00 128.80
  Q 269.34 129.56 280.73 134.27
  Z"
/>
<path fill="#3f401d" fill-opacity="0.247" d="
  M 307.93 136.84
  L 308.98 137.95
  Q 315.66 147.21 324.45 161.00
  Q 325.44 162.56 325.66 163.94
  Q 309.13 145.92 288.00 136.22
  Q 288.04 135.17 289.75 135.39
  Q 293.73 135.91 307.93 136.84
  Z"
/>
<path fill="#3f401d" fill-opacity="0.247" d="
  M 208.11 136.79
  Q 205.95 138.35 201.56 140.57
  Q 192.39 145.21 179.11 156.71
  Q 183.35 148.71 188.69 141.94
  Q 189.80 139.66 190.89 138.89
  L 208.11 136.79
  Z"
/>
<path fill="#1e1e0e" fill-opacity="0.118" d="
  M 174.00 279.13
  Q 172.71 277.88 171.78 276.27
  Q 168.41 270.44 165.11 264.37
  Q 164.97 264.11 164.77 263.89
  Q 164.39 263.47 164.19 263.68
  A 0.05 0.05 0.0 0 1 164.11 263.65
  Q 163.99 262.60 164.80 261.82
  Q 165.15 261.48 164.93 261.04
  Q 164.05 259.26 163.12 257.18
  Q 162.45 255.66 162.22 254.05
  Q 161.97 252.28 161.35 250.67
  Q 160.84 249.33 160.89 247.94
  Q 160.91 247.39 160.48 247.05
  Q 160.05 246.71 160.24 246.21
  Q 160.43 245.74 160.32 245.25
  L 158.50 236.49
  Q 158.42 236.10 158.64 235.77
  Q 159.14 235.03 158.63 234.31
  Q 158.33 233.89 158.33 233.37
  Q 158.33 233.10 158.56 232.96
  Q 158.94 232.73 158.72 232.35
  Q 158.12 231.34 158.24 230.07
  Q 158.53 227.21 158.27 224.72
  Q 158.16 223.69 158.72 222.84
  Q 158.97 222.45 158.65 222.12
  Q 158.27 221.73 158.50 221.28
  Q 158.65 220.97 158.70 220.63
  Q 159.32 216.26 159.35 212.71
  A 4.18 4.03 -35.5 0 1 159.62 211.25
  Q 160.75 208.34 161.08 204.95
  Q 161.12 204.51 161.42 204.18
  Q 162.01 203.52 161.88 202.61
  Q 161.81 202.09 162.02 201.60
  Q 162.41 200.72 162.70 199.70
  Q 162.95 198.79 163.46 198.04
  Q 164.27 196.85 164.09 195.22
  A 1.15 1.12 61.3 0 1 164.32 194.40
  Q 164.77 193.79 164.91 192.97
  Q 165.01 192.43 165.47 192.15
  Q 166.13 191.76 166.12 191.01
  Q 166.12 190.56 166.37 190.19
  Q 167.07 189.12 167.28 187.82
  Q 167.34 187.42 167.64 187.13
  Q 168.23 186.55 168.35 185.75
  Q 168.43 185.25 168.84 184.95
  Q 169.96 184.14 170.09 182.96
  Q 170.14 182.47 170.42 182.06
  Q 171.94 179.87 173.32 177.60
  Q 173.82 176.77 174.52 176.23
  Q 175.14 175.74 175.26 174.97
  Q 175.33 174.45 175.70 174.08
  Q 177.24 172.51 178.50 170.78
  Q 180.07 168.64 181.27 167.44
  Q 183.49 165.24 185.55 163.22
  Q 185.91 162.87 186.41 162.87
  L 187.01 162.86
  Q 187.82 162.86 187.61 162.07
  Q 187.27 160.83 188.45 160.82
  Q 188.81 160.82 188.85 160.46
  Q 188.98 158.89 190.46 158.38
  Q 191.00 158.19 191.22 157.67
  Q 191.51 156.98 192.22 156.85
  Q 192.74 156.76 193.11 156.38
  L 195.02 154.48
  Q 195.37 154.12 195.88 154.11
  C 197.00 154.10 198.42 151.69 199.95 151.27
  Q 200.51 151.12 200.88 150.65
  Q 201.20 150.23 201.71 150.10
  Q 203.72 149.60 205.12 148.27
  Q 206.13 147.31 207.56 146.79
  Q 208.93 146.29 210.48 145.77
  Q 210.89 145.63 211.18 145.33
  C 211.39 145.10 211.58 144.84 211.87 144.72
  Q 216.34 142.87 220.23 141.55
  C 221.56 141.10 222.91 141.10 224.20 140.48
  Q 225.74 139.75 227.43 139.53
  Q 229.02 139.31 230.48 138.77
  Q 232.15 138.15 234.15 138.17
  Q 235.73 138.19 237.14 137.74
  Q 238.69 137.24 240.00 137.26
  Q 242.21 137.30 244.72 137.10
  Q 247.56 136.88 249.47 136.92
  Q 263.50 137.26 276.98 141.16
  Q 277.48 141.31 277.85 141.66
  Q 278.64 142.39 279.78 142.38
  Q 280.28 142.38 280.73 142.59
  Q 282.46 143.38 284.32 144.02
  Q 285.68 144.49 286.94 145.39
  Q 288.40 146.44 290.23 146.93
  Q 291.61 147.31 292.81 148.10
  Q 295.17 149.67 297.86 151.11
  Q 299.13 151.79 299.93 152.71
  Q 300.74 153.63 301.87 153.89
  Q 302.47 154.03 302.83 154.53
  Q 303.92 156.03 305.42 156.69
  Q 306.56 157.20 307.46 158.14
  Q 309.38 160.14 311.23 161.93
  Q 311.46 162.15 311.75 162.25
  Q 311.90 162.30 312.05 162.33
  Q 312.35 162.40 312.50 162.67
  C 313.85 165.04 316.39 167.18 318.37 169.11
  Q 319.40 170.12 319.95 171.26
  Q 320.50 172.42 321.52 173.26
  Q 321.91 173.58 322.08 174.05
  Q 322.80 176.05 324.55 177.35
  Q 324.93 177.63 325.10 178.07
  Q 325.87 180.10 327.08 181.78
  Q 331.31 187.64 333.39 195.05
  Q 333.45 195.26 333.69 195.31
  A 0.33 0.32 -3.2 0 1 333.92 195.51
  L 335.86 201.41
  Q 336.00 201.85 336.39 202.12
  Q 336.82 202.42 336.51 202.80
  Q 336.12 203.26 336.31 203.83
  Q 337.21 206.45 338.15 209.24
  Q 338.41 210.02 338.01 211.06
  Q 337.83 211.51 338.16 211.87
  Q 338.85 212.63 338.66 213.82
  Q 338.55 214.46 338.76 215.07
  Q 339.38 216.86 339.09 218.95
  Q 339.00 219.58 339.45 220.02
  Q 339.88 220.45 339.74 221.03
  Q 339.63 221.47 339.65 221.91
  Q 339.81 227.24 339.66 232.67
  Q 339.63 233.95 339.36 235.24
  Q 339.11 236.49 338.88 237.72
  Q 338.81 238.09 338.72 241.26
  Q 338.68 242.94 338.20 244.76
  Q 338.01 245.46 338.41 246.05
  Q 338.67 246.45 338.49 246.88
  Q 337.52 249.21 336.91 251.87
  Q 336.72 252.70 336.34 253.48
  Q 335.91 254.37 336.13 255.49
  Q 336.22 255.94 335.98 256.32
  Q 334.67 258.35 334.13 261.01
  Q 333.78 262.74 332.92 264.31
  Q 332.02 265.96 331.25 267.69
  Q 330.87 268.56 330.27 269.26
  Q 329.70 269.92 329.88 270.78
  A 0.81 0.81 0.0 0 1 329.63 271.54
  Q 327.83 273.19 327.01 275.15
  Q 326.85 275.54 326.54 275.83
  Q 325.75 276.58 325.58 277.54
  Q 325.46 278.20 324.91 278.58
  Q 324.05 279.18 323.90 280.15
  Q 323.81 280.70 323.41 281.09
  L 320.99 283.52
  A 0.55 0.55 0.0 0 0 320.85 284.06
  Q 320.90 284.23 320.86 284.40
  Q 320.84 284.47 320.78 284.54
  Q 318.21 287.44 315.45 290.04
  Q 315.00 290.47 315.14 291.08
  Q 315.21 291.34 314.95 291.56
  A 0.47 0.46 -61.2 0 1 314.61 291.66
  Q 313.42 291.50 313.14 292.66
  Q 313.06 292.98 312.73 292.96
  Q 311.21 292.87 310.71 294.16
  Q 310.57 294.54 310.26 294.79
  L 301.94 301.61
  Q 301.53 301.94 301.02 301.89
  Q 300.49 301.84 300.33 302.31
  A 0.20 0.17 -40.3 0 0 300.32 302.37
  L 300.32 303.01
  Q 300.32 303.11 300.22 303.11
  Q 298.88 303.20 298.39 304.31
  Q 298.22 304.71 297.81 304.84
  L 296.68 305.20
  Q 296.24 305.34 296.06 305.76
  Q 295.87 306.19 295.35 306.11
  Q 294.97 306.06 294.61 306.22
  Q 294.33 306.35 294.17 306.61
  A 0.78 0.78 0.0 0 1 293.25 306.92
  Q 292.43 306.63 292.06 307.38
  A 0.77 0.75 0.8 0 1 291.70 307.72
  L 286.70 310.04
  Q 286.53 310.12 286.34 310.14
  Q 285.93 310.19 285.87 310.63
  Q 285.79 311.20 285.22 311.28
  Q 281.92 311.72 278.88 313.67
  Q 278.41 313.98 277.85 313.93
  Q 275.01 313.69 273.74 315.66
  Q 273.64 315.81 273.52 315.68
  Q 272.93 315.04 272.07 315.32
  Q 267.18 316.89 261.82 317.19
  Q 261.34 317.22 261.02 317.58
  Q 260.62 318.04 260.00 317.64
  Q 254.07 318.26 248.95 318.08
  Q 247.92 318.05 247.00 318.44
  Q 246.57 318.63 246.13 318.45
  C 244.70 317.88 243.16 318.21 241.62 318.04
  Q 236.98 317.53 232.36 316.90
  Q 231.47 316.78 230.63 316.36
  Q 229.81 315.96 228.82 316.12
  Q 228.26 316.21 227.73 316.01
  Q 226.41 315.52 225.03 315.07
  Q 223.76 314.66 222.42 314.42
  Q 220.97 314.17 219.84 313.37
  Q 219.45 313.10 218.98 313.17
  Q 218.14 313.29 217.47 312.83
  Q 216.86 312.40 216.15 312.16
  Q 214.98 311.75 213.90 311.46
  C 211.78 310.90 210.65 309.36 208.30 308.91
  Q 207.94 308.84 207.87 308.49
  Q 207.80 308.19 207.50 308.24
  Q 206.47 308.42 205.90 307.44
  A 1.13 1.13 0.0 0 0 204.94 306.88
  Q 203.63 306.88 202.91 305.69
  Q 202.57 305.12 201.90 305.08
  Q 200.47 305.01 200.15 303.76
  Q 200.01 303.23 199.46 303.18
  C 196.53 302.90 196.00 300.88 193.74 299.69
  Q 191.67 298.60 189.99 296.42
  Q 189.59 295.91 188.98 295.71
  Q 187.40 295.20 187.63 293.61
  Q 187.70 293.14 187.28 292.92
  Q 187.06 292.80 186.81 292.86
  Q 186.29 292.97 185.93 292.57
  Q 183.61 290.00 180.83 287.35
  C 180.29 286.84 179.45 286.70 178.71 286.66
  Q 178.15 286.63 178.43 286.15
  Q 178.51 286.02 178.66 286.00
  A 0.37 0.37 0.0 0 0 178.93 285.43
  Q 178.55 284.85 177.92 284.69
  Q 177.48 284.58 177.64 284.15
  Q 177.70 284.00 177.84 283.91
  Q 178.12 283.74 177.95 283.46
  Q 177.82 283.23 177.60 283.09
  Q 177.19 282.82 177.00 283.27
  Q 176.93 283.43 176.75 283.44
  Q 176.46 283.46 176.41 283.18
  Q 176.00 281.08 173.87 279.93
  Q 173.31 279.63 173.93 279.53
  Q 174.07 279.50 174.06 279.28
  Q 174.06 279.19 174.00 279.13
  Z
  M 192.25 259.84
  L 179.29 279.09
  A 0.43 0.43 0.0 0 0 179.65 279.76
  L 207.20 279.77
  Q 208.15 279.90 208.19 280.00
  A 1.08 1.01 -9.7 0 1 207.15 281.37
  Q 206.01 281.38 204.90 281.39
  Q 204.14 281.40 204.77 281.83
  Q 205.59 282.38 206.51 282.35
  Q 207.06 282.33 207.49 282.67
  L 211.01 285.47
  Q 211.46 285.83 212.02 285.94
  Q 213.95 286.32 215.10 287.84
  Q 215.21 287.99 215.38 288.06
  Q 215.54 288.13 215.71 288.10
  Q 216.31 287.98 216.69 288.45
  Q 217.17 289.02 218.01 289.16
  Q 218.48 289.24 218.86 289.53
  Q 219.48 290.03 220.23 290.37
  Q 225.21 292.62 230.28 294.26
  Q 230.63 294.37 230.99 294.46
  Q 237.94 296.07 244.14 296.34
  Q 244.63 296.36 245.04 296.61
  Q 246.05 297.22 247.06 296.55
  Q 247.45 296.30 247.86 296.51
  Q 249.50 297.35 251.20 296.49
  A 0.74 0.73 -36.2 0 1 252.06 296.62
  Q 252.51 297.06 253.03 296.58
  A 0.72 0.71 -68.2 0 1 253.51 296.37
  L 261.06 295.89
  A 1.86 1.84 27.0 0 0 261.91 295.62
  Q 263.19 294.84 264.76 294.89
  A 2.06 2.06 0.0 0 0 265.73 294.69
  Q 267.96 293.60 270.48 293.36
  Q 271.10 293.31 271.60 292.94
  Q 272.73 292.11 274.13 292.09
  Q 274.70 292.09 275.10 291.67
  Q 275.83 290.93 277.01 290.92
  Q 277.51 290.92 277.90 290.62
  Q 279.88 289.06 282.27 288.20
  A 1.84 1.81 -79.8 0 0 283.06 287.64
  Q 283.69 286.86 284.56 286.44
  C 286.11 285.68 287.26 284.96 288.61 284.11
  Q 288.78 284.00 288.82 283.80
  Q 288.85 283.67 288.90 283.54
  Q 289.06 283.13 289.50 283.10
  Q 290.37 283.05 290.93 282.45
  Q 291.23 282.12 291.67 282.12
  L 293.19 282.12
  Q 293.33 282.12 293.45 282.04
  Q 293.87 281.74 293.35 281.49
  Q 293.16 281.39 292.96 281.35
  C 291.56 281.06 290.38 280.64 288.91 280.66
  Q 285.28 280.72 281.49 280.62
  Q 281.39 280.62 281.39 280.51
  L 281.41 280.22
  A 0.21 0.21 0.0 0 1 281.61 280.02
  L 290.53 279.76
  L 320.40 279.71
  A 0.32 0.32 0.0 0 0 320.66 279.21
  L 305.64 256.79
  Q 306.21 255.90 307.09 256.67
  Q 308.13 257.58 307.71 258.58
  Q 307.43 259.22 308.06 258.92
  Q 308.92 258.51 308.90 259.44
  A 0.48 0.47 70.2 0 0 309.68 259.81
  Q 309.79 259.72 309.91 259.63
  Q 310.35 259.29 310.26 258.75
  Q 310.13 257.99 310.48 257.32
  Q 311.22 255.89 311.85 254.23
  Q 312.04 253.71 312.46 253.33
  Q 313.28 252.58 313.17 251.43
  Q 313.11 250.85 313.33 250.31
  Q 315.25 245.72 315.33 242.26
  Q 315.35 241.46 315.82 240.86
  A 1.69 1.61 68.2 0 0 316.16 240.01
  Q 316.47 236.47 317.06 233.01
  Q 317.78 228.85 316.53 217.19
  Q 316.40 216.00 315.91 215.02
  Q 315.37 213.94 315.61 212.82
  Q 315.70 212.36 315.54 211.92
  Q 313.99 207.66 312.91 203.20
  Q 312.65 202.14 312.07 201.13
  Q 311.44 200.03 311.13 198.82
  Q 310.95 198.06 310.34 197.58
  Q 310.09 197.37 309.93 197.08
  Q 309.81 196.86 309.85 196.59
  A 0.56 0.54 -61.2 0 0 309.72 196.12
  Q 308.13 194.35 307.18 191.70
  Q 307.01 191.23 306.63 190.89
  C 305.86 190.20 305.43 189.82 305.18 188.75
  Q 305.02 188.06 304.41 187.67
  Q 303.88 187.32 303.83 186.70
  Q 303.75 185.69 302.66 185.67
  Q 302.45 185.66 302.40 185.46
  Q 302.02 183.87 300.57 182.88
  Q 300.15 182.59 300.13 182.09
  Q 300.11 181.40 299.41 181.12
  C 298.21 180.63 297.27 179.61 296.42 178.66
  Q 296.09 178.29 296.04 177.79
  Q 295.96 177.09 295.25 177.12
  Q 294.68 177.14 294.34 176.67
  Q 292.99 174.78 291.09 174.07
  Q 290.62 173.90 290.28 173.52
  Q 287.85 170.74 284.34 169.51
  Q 284.25 169.48 284.18 169.42
  Q 284.09 169.33 284.07 169.19
  Q 284.06 169.05 283.94 168.97
  Q 280.49 166.77 276.74 165.34
  Q 275.79 164.98 274.94 164.46
  Q 274.06 163.92 272.98 163.78
  Q 271.76 163.62 270.61 163.15
  Q 267.31 161.81 263.78 160.69
  Q 261.78 160.06 259.49 159.96
  Q 257.24 159.86 254.87 159.65
  Q 254.35 159.60 253.88 159.36
  Q 252.80 158.81 251.78 159.42
  Q 250.73 160.05 249.77 159.29
  Q 249.47 159.06 249.19 159.30
  Q 248.51 159.87 247.80 159.32
  A 1.38 1.36 -29.4 0 0 246.83 159.06
  L 238.48 160.01
  Q 238.04 160.06 237.71 160.37
  Q 236.95 161.06 235.88 160.74
  Q 235.41 160.60 234.93 160.72
  Q 226.99 162.59 219.00 166.35
  Q 218.49 166.59 217.97 166.64
  Q 217.22 166.72 216.97 167.44
  Q 216.81 167.91 216.31 167.87
  Q 215.05 167.79 214.34 168.96
  Q 214.02 169.49 213.42 169.60
  Q 211.91 169.87 210.92 171.39
  Q 210.59 171.91 209.97 171.87
  Q 209.35 171.83 208.97 172.32
  Q 208.44 173.00 207.67 173.17
  A 2.12 2.08 -72.1 0 0 206.64 173.71
  Q 201.53 178.60 196.64 183.71
  Q 195.85 184.53 194.69 186.48
  Q 193.82 187.94 192.36 189.25
  A 0.88 0.84 73.5 0 0 192.09 189.78
  Q 192.03 190.43 191.54 190.86
  Q 189.27 192.86 189.49 195.30
  Q 189.53 195.71 189.27 196.07
  C 188.45 197.28 187.71 198.19 187.88 199.78
  Q 187.89 199.87 187.83 199.92
  Q 187.78 199.96 187.76 200.00
  Q 187.58 200.27 187.60 199.95
  Q 187.64 199.28 187.63 198.67
  Q 187.61 197.86 187.21 198.57
  Q 185.92 200.91 185.25 203.57
  Q 185.13 204.03 184.83 204.40
  Q 184.00 205.42 183.92 206.78
  Q 183.89 207.25 183.63 207.64
  Q 183.22 208.24 183.06 209.10
  Q 181.94 214.99 181.09 220.93
  Q 180.63 224.21 180.77 227.59
  Q 180.91 231.03 181.16 234.25
  Q 181.19 234.66 181.41 235.00
  Q 181.66 235.36 181.63 235.80
  Q 181.51 238.01 182.17 240.21
  Q 182.69 241.97 182.86 243.80
  Q 183.08 246.16 184.15 248.99
  Q 185.32 252.10 186.68 255.55
  Q 186.84 255.98 187.20 256.28
  Q 187.97 256.92 187.83 258.00
  Q 187.76 258.56 188.22 258.91
  Q 188.71 259.29 188.59 259.91
  Q 188.53 260.24 188.78 260.47
  Q 189.08 260.75 189.54 260.64
  A 0.61 0.60 11.7 0 0 189.88 260.42
  Q 191.56 258.37 192.25 259.84
  Z"
/>
<path fill="#cdce5c" fill-opacity="0.808" d="
  M 322.45 137.90
  Q 323.41 139.63 323.50 139.19
  Q 344.49 170.71 361.44 204.56
  L 361.67 205.30
  L 356.17 219.43
  Q 350.45 206.12 343.13 193.80
  Q 335.41 177.88 325.66 163.94
  Q 325.44 162.56 324.45 161.00
  Q 315.66 147.21 308.98 137.95
  Q 315.47 137.12 321.66 138.79
  Q 322.21 138.93 322.34 138.38
  L 322.45 137.90
  Z"
/>
<path fill="#a1a349" fill-opacity="0.639" d="
  M 379.50 138.82
  Q 384.24 140.60 389.25 141.86
  Q 389.51 141.93 390.25 141.79
  Q 390.06 141.71 390.25 142.22
  L 388.38 152.43
  Q 388.29 152.92 387.80 152.83
  Q 383.75 152.06 380.00 150.62
  Q 379.04 150.25 377.61 150.44
  Q 377.87 150.72 377.74 150.04
  L 379.39 139.28
  Q 379.00 138.82 379.50 138.82
  Z"
/>
<path fill="#1e1e0e" fill-opacity="0.118" d="
  M 348.55 143.17
  L 342.96 142.85
  A 0.47 0.46 1.8 0 0 342.46 143.31
  L 342.47 143.69
  Q 342.47 143.94 342.71 143.98
  L 344.62 144.28
  Q 345.08 144.35 345.30 144.75
  Q 346.18 146.27 346.71 147.65
  Q 347.19 148.90 348.33 149.44
  Q 348.81 149.67 349.02 150.16
  Q 350.10 152.75 351.57 155.22
  Q 352.11 156.13 353.07 156.42
  Q 353.53 156.57 353.53 157.06
  Q 353.52 158.13 354.43 158.80
  Q 354.84 159.11 354.89 159.62
  C 355.02 161.04 356.18 161.66 356.80 162.82
  Q 358.45 165.93 360.15 169.33
  Q 360.73 170.51 361.60 171.51
  Q 362.00 171.98 362.30 172.52
  Q 363.23 174.22 363.91 176.46
  Q 364.14 177.19 364.16 177.92
  Q 364.19 178.74 365.01 179.09
  A 2.96 2.93 -71.5 0 1 366.71 182.54
  Q 366.37 183.85 367.12 185.07
  Q 367.47 185.63 367.68 185.01
  Q 367.87 184.44 367.87 183.86
  Q 367.86 183.36 368.19 182.98
  Q 368.54 182.57 369.05 182.27
  L 361.44 204.56
  Q 344.49 170.71 323.50 139.19
  L 348.55 143.17
  Z"
/>
<path fill="#cdce5c" fill-opacity="0.808" d="
  M 188.69 141.94
  Q 183.35 148.71 179.11 156.71
  Q 177.11 158.95 174.95 162.49
  Q 164.40 179.72 154.84 197.53
  Q 153.32 200.34 152.22 203.24
  Q 151.76 203.85 151.40 204.06
  L 143.28 221.14
  Q 139.28 216.05 137.68 209.78
  Q 137.54 209.23 137.02 209.46
  L 136.26 209.79
  L 137.26 208.28
  Q 137.92 208.06 137.94 207.24
  Q 137.97 206.56 138.45 206.41
  Q 138.88 206.28 138.88 205.84
  L 138.89 204.45
  Q 154.74 172.89 174.76 142.46
  Q 175.09 142.36 175.86 140.87
  L 175.97 141.63
  Q 176.05 142.22 176.58 141.95
  Q 178.56 140.95 180.91 140.98
  Q 181.52 141.22 182.75 141.38
  Q 183.73 141.50 183.78 140.48
  Q 185.19 139.85 187.49 139.69
  Q 188.61 139.61 188.16 140.65
  Q 187.75 141.60 188.69 141.94
  Z"
/>
<path fill="#c0c257" fill-opacity="0.761" d="
  M 183.78 140.48
  Q 183.73 141.50 182.75 141.38
  Q 181.52 141.22 180.91 140.98
  L 183.78 140.48
  Z"
/>
<path fill="#1e1e0e" fill-opacity="0.118" d="
  M 174.76 142.46
  Q 154.74 172.89 138.89 204.45
  L 137.08 208.27
  L 131.50 194.21
  L 132.22 194.95
  Q 132.64 195.39 132.83 194.81
  L 136.67 183.41
  A 2.97 2.41 76.0 0 1 136.89 182.94
  Q 138.10 180.90 138.94 178.50
  C 139.82 175.99 141.06 173.70 142.23 171.30
  C 142.65 170.45 143.35 170.16 143.64 169.31
  Q 143.86 168.65 144.21 168.02
  Q 145.12 166.36 145.99 164.68
  C 146.54 163.60 147.43 163.25 147.89 162.15
  Q 148.34 161.10 149.00 160.16
  Q 149.99 158.75 150.96 157.43
  Q 151.61 156.55 152.16 155.58
  Q 152.92 154.22 154.19 153.22
  Q 154.92 152.64 154.89 151.72
  Q 154.86 151.08 155.49 151.15
  Q 155.64 151.16 155.77 151.08
  Q 156.26 150.79 156.15 150.23
  Q 155.82 148.52 157.15 147.22
  Q 157.47 146.91 157.92 146.90
  L 159.76 146.84
  Q 160.11 146.83 159.99 146.50
  L 159.81 145.98
  A 0.26 0.25 80.8 0 0 159.59 145.82
  L 157.04 145.79
  L 174.76 142.46
  Z"
/>
<path fill="##eb4f58b8" fill-opacity="0.400" d="
  M 390.25 142.22
  C 430.93 154.76 489.29 182.92 484.22 235.44
  C 482.92 248.81 474.16 262.07 464.76 271.23
  Q 451.37 284.27 434.79 293.48
  C 434.96 290.13 435.62 286.96 431.70 285.30
  Q 430.67 284.87 429.23 284.00
  Q 446.69 274.18 460.06 259.82
  Q 465.46 254.02 468.73 247.82
  C 473.60 238.60 474.60 229.34 472.36 219.16
  C 467.91 199.00 452.09 184.02 434.44 173.46
  Q 414.41 161.48 389.28 153.57
  A 0.92 0.91 14.3 0 0 388.11 154.26
  Q 385.67 166.18 381.84 178.82
  Q 375.89 198.46 368.33 218.64
  Q 368.01 218.34 367.68 218.03
  L 361.67 205.30
  L 361.44 204.56
  L 369.05 182.27
  Q 372.01 173.25 374.42 163.99
  Q 376.18 157.23 377.61 150.44
  Q 379.04 150.25 380.00 150.62
  Q 383.75 152.06 387.80 152.83
  Q 388.29 152.92 388.38 152.43
  L 390.25 142.22
  Z"
/>
<path fill="#a1a349" fill-opacity="0.639" d="
  M 118.97 155.75
  L 109.33 159.28
  A 0.45 0.45 0.0 0 1 108.73 158.96
  L 106.39 148.99
  A 0.45 0.45 0.0 0 1 106.68 148.46
  L 116.32 144.98
  A 0.45 0.45 0.0 0 1 116.92 145.30
  L 119.25 155.22
  A 0.45 0.45 0.0 0 1 118.97 155.75
  Z"
/>
<path fill="#313216" fill-opacity="0.192" d="
  M 305.64 256.79
  L 301.11 250.04
  Q 302.66 249.49 303.13 250.48
  Q 303.30 250.85 303.70 250.84
  Q 304.05 250.83 304.24 251.07
  Q 304.76 251.71 304.68 250.89
  Q 304.57 249.81 304.65 248.71
  Q 304.67 248.34 304.93 248.08
  L 305.37 247.64
  Q 305.73 247.28 305.62 246.79
  Q 305.33 245.47 306.36 244.75
  Q 306.73 244.49 306.66 244.04
  Q 306.55 243.26 307.20 242.80
  A 0.36 0.36 0.0 0 0 307.25 242.25
  Q 306.12 241.09 307.37 239.82
  Q 307.72 239.47 307.65 238.98
  Q 307.53 238.18 308.23 237.85
  Q 308.64 237.66 308.64 237.21
  L 308.64 224.05
  Q 308.64 223.58 308.38 223.19
  Q 307.13 221.30 308.45 219.63
  Q 308.54 219.52 308.43 219.42
  Q 307.19 218.24 307.68 216.06
  Q 307.80 215.52 307.36 215.19
  Q 306.47 214.51 307.26 213.75
  Q 307.57 213.45 307.21 213.21
  Q 306.55 212.77 306.66 211.99
  Q 306.73 211.48 306.31 211.20
  Q 305.28 210.49 305.66 209.25
  Q 305.84 208.63 305.36 208.22
  Q 304.48 207.49 305.27 206.73
  Q 305.51 206.50 305.24 206.31
  Q 304.59 205.87 304.64 205.11
  Q 304.67 204.63 304.34 204.30
  L 302.91 202.85
  Q 302.54 202.47 302.65 201.96
  Q 302.77 201.41 302.27 201.20
  Q 301.64 200.93 301.64 200.24
  L 301.64 199.10
  Q 301.64 198.65 301.33 198.31
  L 300.11 197.00
  Q 299.79 196.66 299.68 196.20
  Q 299.40 195.02 298.26 194.26
  Q 297.57 193.79 297.63 192.94
  A 0.99 0.97 18.7 0 0 297.17 192.03
  Q 295.86 191.21 295.60 189.90
  A 1.89 1.75 83.0 0 0 293.79 188.37
  Q 293.44 188.38 293.14 188.16
  Q 292.67 187.82 292.68 187.25
  Q 292.69 186.27 291.67 185.57
  Q 291.28 185.30 290.81 185.38
  Q 290.43 185.44 290.15 185.17
  Q 289.79 184.80 289.72 184.29
  Q 289.47 182.59 287.79 182.30
  Q 287.31 182.21 286.96 181.87
  L 284.85 179.80
  Q 284.53 179.49 284.09 179.40
  Q 282.74 179.12 281.87 177.72
  Q 281.68 177.42 281.35 177.50
  Q 279.96 177.84 278.93 176.82
  Q 277.47 175.39 276.01 173.92
  Q 275.60 173.51 275.15 173.87
  Q 274.44 174.42 273.87 173.69
  Q 273.54 173.26 273.00 173.34
  Q 272.22 173.46 271.83 172.73
  Q 271.63 172.36 271.20 172.36
  Q 268.95 172.36 267.69 170.54
  Q 267.62 170.44 267.50 170.43
  Q 267.33 170.41 267.30 170.56
  Q 267.22 170.97 266.81 171.05
  Q 266.18 171.18 265.80 170.63
  A 0.73 0.71 66.5 0 0 265.09 170.34
  Q 264.12 170.52 263.76 169.61
  A 0.43 0.43 0.0 0 0 263.30 169.35
  Q 262.22 169.50 261.59 168.61
  A 0.71 0.70 -40.5 0 0 260.50 168.53
  Q 258.84 170.26 256.79 168.58
  Q 256.43 168.29 255.99 168.38
  Q 254.80 168.63 254.00 167.92
  Q 253.67 167.62 253.27 167.82
  Q 251.01 168.94 248.18 168.16
  Q 248.08 168.13 248.01 168.04
  Q 247.92 167.92 247.87 167.78
  Q 247.58 167.00 247.17 167.74
  Q 246.65 168.67 245.48 168.33
  Q 245.29 168.28 245.16 168.15
  L 244.89 167.88
  Q 244.50 167.49 244.10 167.86
  Q 243.19 168.68 241.90 168.34
  Q 241.48 168.23 241.24 168.60
  Q 241.05 168.90 240.69 169.04
  A 0.56 0.51 44.0 0 1 240.28 169.03
  Q 239.96 168.90 239.78 168.62
  Q 239.46 168.11 239.14 168.62
  Q 238.45 169.70 237.10 169.36
  Q 236.54 169.23 236.14 169.63
  Q 235.00 170.80 233.84 169.88
  Q 233.38 169.51 232.97 169.93
  Q 232.53 170.36 232.03 170.74
  A 2.27 1.88 -67.5 0 1 231.37 171.09
  Q 230.96 171.21 230.86 170.82
  Q 230.67 170.06 230.19 170.69
  Q 228.57 172.79 225.82 172.32
  Q 225.43 172.25 225.27 172.61
  Q 224.88 173.50 223.91 173.35
  Q 223.48 173.28 223.23 173.65
  Q 222.52 174.71 221.24 174.35
  Q 220.68 174.20 220.34 174.67
  Q 219.80 175.40 218.88 175.42
  Q 218.48 175.43 218.41 175.83
  Q 218.05 177.75 215.80 178.28
  A 1.18 1.18 0.0 0 0 215.06 178.81
  Q 214.26 180.10 212.84 180.41
  Q 212.36 180.51 212.04 180.88
  Q 210.93 182.14 209.58 183.09
  C 208.82 183.63 208.57 184.30 207.42 184.44
  A 1.24 1.24 0.0 0 0 206.34 185.83
  Q 206.47 186.75 205.76 187.22
  Q 205.51 187.39 205.22 187.36
  Q 205.07 187.35 204.93 187.32
  Q 204.26 187.19 204.35 187.87
  Q 204.49 188.84 203.64 189.29
  Q 203.51 189.36 203.37 189.36
  Q 203.20 189.35 203.04 189.31
  Q 202.42 189.16 202.37 189.80
  Q 202.27 191.22 200.56 192.23
  Q 200.36 192.35 200.36 192.58
  L 200.36 193.09
  Q 200.36 193.56 200.03 193.90
  L 197.63 196.36
  Q 197.25 196.75 197.37 197.27
  Q 197.65 198.47 196.70 199.22
  Q 196.40 199.46 196.36 199.84
  Q 196.20 201.27 194.68 202.34
  Q 194.19 202.68 194.35 203.25
  Q 194.68 204.45 193.75 205.19
  A 0.91 0.89 -19.9 0 0 193.40 205.92
  Q 193.40 206.79 192.70 207.31
  Q 192.16 207.71 192.32 208.36
  Q 192.81 210.29 191.56 211.37
  Q 191.20 211.69 191.33 212.15
  Q 191.71 213.45 190.76 214.17
  Q 190.36 214.47 190.36 214.96
  L 190.36 218.00
  A 1.69 1.23 69.1 0 1 190.13 218.85
  Q 190.01 219.02 189.82 219.10
  Q 189.33 219.32 189.63 219.76
  Q 190.80 221.49 189.64 223.21
  Q 189.36 223.61 189.36 224.10
  L 189.36 231.20
  A 0.81 0.80 17.4 0 0 189.71 231.86
  Q 190.07 232.11 190.09 232.54
  Q 190.23 236.24 190.37 240.09
  Q 190.38 240.51 190.71 240.77
  Q 191.73 241.59 191.32 243.01
  A 0.65 0.65 0.0 0 0 191.68 243.79
  Q 192.23 244.04 192.40 244.64
  Q 192.48 244.94 192.17 244.99
  Q 192.01 245.01 191.90 245.12
  Q 191.49 245.50 191.87 245.91
  Q 192.71 246.84 192.30 248.15
  A 0.37 0.36 -83.1 0 0 192.66 248.62
  Q 194.12 248.53 194.28 250.12
  Q 194.41 251.51 194.37 252.94
  Q 194.35 253.44 194.43 252.94
  Q 194.45 252.80 194.53 252.68
  Q 194.71 252.40 195.04 252.43
  Q 195.59 252.48 196.12 252.26
  Q 196.54 252.08 196.67 252.51
  L 196.82 253.04
  L 192.25 259.84
  Q 191.56 258.37 189.88 260.42
  A 0.61 0.60 11.7 0 1 189.54 260.64
  Q 189.08 260.75 188.78 260.47
  Q 188.53 260.24 188.59 259.91
  Q 188.71 259.29 188.22 258.91
  Q 187.76 258.56 187.83 258.00
  Q 187.97 256.92 187.20 256.28
  Q 186.84 255.98 186.68 255.55
  Q 185.32 252.10 184.15 248.99
  Q 183.08 246.16 182.86 243.80
  Q 182.69 241.97 182.17 240.21
  Q 181.51 238.01 181.63 235.80
  Q 181.66 235.36 181.41 235.00
  Q 181.19 234.66 181.16 234.25
  Q 180.91 231.03 180.77 227.59
  Q 180.63 224.21 181.09 220.93
  Q 181.94 214.99 183.06 209.10
  Q 183.22 208.24 183.63 207.64
  Q 183.89 207.25 183.92 206.78
  Q 184.00 205.42 184.83 204.40
  Q 185.13 204.03 185.25 203.57
  Q 185.92 200.91 187.21 198.57
  Q 187.61 197.86 187.63 198.67
  Q 187.64 199.28 187.60 199.95
  Q 187.58 200.27 187.76 200.00
  Q 187.78 199.96 187.83 199.92
  Q 187.89 199.87 187.88 199.78
  C 187.71 198.19 188.45 197.28 189.27 196.07
  Q 189.53 195.71 189.49 195.30
  Q 189.27 192.86 191.54 190.86
  Q 192.03 190.43 192.09 189.78
  A 0.88 0.84 73.5 0 1 192.36 189.25
  Q 193.82 187.94 194.69 186.48
  Q 195.85 184.53 196.64 183.71
  Q 201.53 178.60 206.64 173.71
  A 2.12 2.08 -72.1 0 1 207.67 173.17
  Q 208.44 173.00 208.97 172.32
  Q 209.35 171.83 209.97 171.87
  Q 210.59 171.91 210.92 171.39
  Q 211.91 169.87 213.42 169.60
  Q 214.02 169.49 214.34 168.96
  Q 215.05 167.79 216.31 167.87
  Q 216.81 167.91 216.97 167.44
  Q 217.22 166.72 217.97 166.64
  Q 218.49 166.59 219.00 166.35
  Q 226.99 162.59 234.93 160.72
  Q 235.41 160.60 235.88 160.74
  Q 236.95 161.06 237.71 160.37
  Q 238.04 160.06 238.48 160.01
  L 246.83 159.06
  A 1.38 1.36 -29.4 0 1 247.80 159.32
  Q 248.51 159.87 249.19 159.30
  Q 249.47 159.06 249.77 159.29
  Q 250.73 160.05 251.78 159.42
  Q 252.80 158.81 253.88 159.36
  Q 254.35 159.60 254.87 159.65
  Q 257.24 159.86 259.49 159.96
  Q 261.78 160.06 263.78 160.69
  Q 267.31 161.81 270.61 163.15
  Q 271.76 163.62 272.98 163.78
  Q 274.06 163.92 274.94 164.46
  Q 275.79 164.98 276.74 165.34
  Q 280.49 166.77 283.94 168.97
  Q 284.06 169.05 284.07 169.19
  Q 284.09 169.33 284.18 169.42
  Q 284.25 169.48 284.34 169.51
  Q 287.85 170.74 290.28 173.52
  Q 290.62 173.90 291.09 174.07
  Q 292.99 174.78 294.34 176.67
  Q 294.68 177.14 295.25 177.12
  Q 295.96 177.09 296.04 177.79
  Q 296.09 178.29 296.42 178.66
  C 297.27 179.61 298.21 180.63 299.41 181.12
  Q 300.11 181.40 300.13 182.09
  Q 300.15 182.59 300.57 182.88
  Q 302.02 183.87 302.40 185.46
  Q 302.45 185.66 302.66 185.67
  Q 303.75 185.69 303.83 186.70
  Q 303.88 187.32 304.41 187.67
  Q 305.02 188.06 305.18 188.75
  C 305.43 189.82 305.86 190.20 306.63 190.89
  Q 307.01 191.23 307.18 191.70
  Q 308.13 194.35 309.72 196.12
  A 0.56 0.54 -61.2 0 1 309.85 196.59
  Q 309.81 196.86 309.93 197.08
  Q 310.09 197.37 310.34 197.58
  Q 310.95 198.06 311.13 198.82
  Q 311.44 200.03 312.07 201.13
  Q 312.65 202.14 312.91 203.20
  Q 313.99 207.66 315.54 211.92
  Q 315.70 212.36 315.61 212.82
  Q 315.37 213.94 315.91 215.02
  Q 316.40 216.00 316.53 217.19
  Q 317.78 228.85 317.06 233.01
  Q 316.47 236.47 316.16 240.01
  A 1.69 1.61 68.2 0 1 315.82 240.86
  Q 315.35 241.46 315.33 242.26
  Q 315.25 245.72 313.33 250.31
  Q 313.11 250.85 313.17 251.43
  Q 313.28 252.58 312.46 253.33
  Q 312.04 253.71 311.85 254.23
  Q 311.22 255.89 310.48 257.32
  Q 310.13 257.99 310.26 258.75
  Q 310.35 259.29 309.91 259.63
  Q 309.79 259.72 309.68 259.81
  A 0.48 0.47 70.2 0 1 308.90 259.44
  Q 308.92 258.51 308.06 258.92
  Q 307.43 259.22 307.71 258.58
  Q 308.13 257.58 307.09 256.67
  Q 306.21 255.90 305.64 256.79
  Z"
/>
<path fill="#3f401d" fill-opacity="0.247" d="
  M 301.11 250.04
  L 293.63 238.81
  Q 293.67 238.22 294.02 237.99
  Q 294.45 237.71 294.82 238.07
  L 295.13 238.39
  Q 295.65 238.91 295.76 238.18
  Q 295.88 237.42 295.84 236.55
  Q 295.80 235.59 295.92 234.94
  Q 296.54 231.32 296.93 227.66
  C 297.06 226.41 296.65 225.36 296.77 224.08
  Q 296.84 223.30 296.31 222.68
  Q 295.93 222.24 296.00 221.66
  Q 296.26 219.41 295.63 217.38
  Q 295.10 215.68 294.75 213.90
  Q 294.36 211.93 293.44 210.12
  Q 292.54 208.35 291.89 206.48
  Q 291.75 206.07 291.40 205.82
  Q 291.09 205.59 291.07 205.22
  C 291.02 204.52 290.49 203.84 289.95 203.45
  Q 289.52 203.14 289.39 202.64
  Q 289.03 201.25 287.83 200.36
  C 287.51 200.13 287.30 199.73 287.27 199.34
  Q 287.24 198.78 286.84 198.37
  L 283.57 195.03
  Q 283.26 194.71 283.26 194.27
  L 283.25 193.95
  Q 283.25 193.67 283.00 193.53
  Q 280.39 192.04 278.34 189.81
  Q 277.99 189.42 277.48 189.31
  Q 276.99 189.20 276.78 188.75
  Q 276.54 188.25 276.01 188.14
  Q 273.89 187.70 272.55 185.95
  Q 272.20 185.50 271.64 185.37
  Q 270.97 185.23 270.45 184.81
  Q 269.75 184.26 268.82 184.00
  Q 265.29 183.02 261.95 181.85
  Q 259.57 181.03 257.75 180.67
  Q 257.22 180.56 256.85 180.05
  Q 256.51 179.57 256.32 180.13
  Q 256.25 180.33 256.26 180.51
  Q 256.27 180.67 256.42 180.65
  Q 256.57 180.64 256.73 180.67
  Q 257.02 180.74 257.09 181.03
  L 257.54 183.00
  Q 257.69 183.68 257.16 183.22
  Q 256.60 182.75 256.03 182.52
  L 250.29 174.03
  Q 250.00 173.60 249.70 174.03
  L 243.90 182.62
  Q 242.74 182.08 242.95 181.00
  Q 243.01 180.72 243.29 180.68
  Q 243.45 180.66 243.58 180.71
  Q 244.44 181.00 243.79 180.37
  Q 243.55 180.13 243.57 179.80
  Q 243.60 179.10 243.01 179.49
  Q 242.13 180.06 241.21 180.54
  Q 240.37 180.98 239.26 181.05
  Q 237.30 181.19 235.35 181.98
  Q 233.68 182.66 232.04 183.12
  Q 228.55 184.12 225.85 186.39
  Q 225.49 186.70 225.01 186.71
  L 224.37 186.73
  A 1.30 1.29 23.0 0 0 223.52 187.07
  L 221.48 188.99
  Q 221.24 189.22 220.90 189.21
  Q 220.74 189.20 220.59 189.23
  Q 220.32 189.30 220.12 189.49
  Q 218.35 191.08 216.61 192.83
  Q 216.24 193.20 215.71 193.28
  Q 215.32 193.34 215.27 193.76
  Q 215.23 194.15 214.94 194.43
  Q 211.60 197.77 208.61 201.36
  Q 208.24 201.80 208.25 202.38
  A 1.31 1.21 61.0 0 1 208.09 203.04
  Q 206.69 205.56 205.30 208.30
  Q 204.94 209.01 205.00 209.83
  A 1.24 1.23 62.3 0 1 204.74 210.67
  Q 202.63 213.33 202.73 216.79
  A 1.96 1.92 57.9 0 1 202.52 217.75
  Q 201.77 219.27 201.76 220.96
  Q 201.76 222.99 201.35 224.95
  Q 200.79 227.59 201.40 230.51
  Q 201.97 233.18 201.94 236.34
  Q 201.94 237.10 202.34 237.75
  Q 202.90 238.66 202.72 239.70
  Q 202.60 240.33 203.19 240.57
  Q 204.13 240.95 204.15 242.12
  L 196.82 253.04
  L 196.67 252.51
  Q 196.54 252.08 196.12 252.26
  Q 195.59 252.48 195.04 252.43
  Q 194.71 252.40 194.53 252.68
  Q 194.45 252.80 194.43 252.94
  Q 194.35 253.44 194.37 252.94
  Q 194.41 251.51 194.28 250.12
  Q 194.12 248.53 192.66 248.62
  A 0.37 0.36 -83.1 0 1 192.30 248.15
  Q 192.71 246.84 191.87 245.91
  Q 191.49 245.50 191.90 245.12
  Q 192.01 245.01 192.17 244.99
  Q 192.48 244.94 192.40 244.64
  Q 192.23 244.04 191.68 243.79
  A 0.65 0.65 0.0 0 1 191.32 243.01
  Q 191.73 241.59 190.71 240.77
  Q 190.38 240.51 190.37 240.09
  Q 190.23 236.24 190.09 232.54
  Q 190.07 232.11 189.71 231.86
  A 0.81 0.80 17.4 0 1 189.36 231.20
  L 189.36 224.10
  Q 189.36 223.61 189.64 223.21
  Q 190.80 221.49 189.63 219.76
  Q 189.33 219.32 189.82 219.10
  Q 190.01 219.02 190.13 218.85
  A 1.69 1.23 69.1 0 0 190.36 218.00
  L 190.36 214.96
  Q 190.36 214.47 190.76 214.17
  Q 191.71 213.45 191.33 212.15
  Q 191.20 211.69 191.56 211.37
  Q 192.81 210.29 192.32 208.36
  Q 192.16 207.71 192.70 207.31
  Q 193.40 206.79 193.40 205.92
  A 0.91 0.89 -19.9 0 1 193.75 205.19
  Q 194.68 204.45 194.35 203.25
  Q 194.19 202.68 194.68 202.34
  Q 196.20 201.27 196.36 199.84
  Q 196.40 199.46 196.70 199.22
  Q 197.65 198.47 197.37 197.27
  Q 197.25 196.75 197.63 196.36
  L 200.03 193.90
  Q 200.36 193.56 200.36 193.09
  L 200.36 192.58
  Q 200.36 192.35 200.56 192.23
  Q 202.27 191.22 202.37 189.80
  Q 202.42 189.16 203.04 189.31
  Q 203.20 189.35 203.37 189.36
  Q 203.51 189.36 203.64 189.29
  Q 204.49 188.84 204.35 187.87
  Q 204.26 187.19 204.93 187.32
  Q 205.07 187.35 205.22 187.36
  Q 205.51 187.39 205.76 187.22
  Q 206.47 186.75 206.34 185.83
  A 1.24 1.24 0.0 0 1 207.42 184.44
  C 208.57 184.30 208.82 183.63 209.58 183.09
  Q 210.93 182.14 212.04 180.88
  Q 212.36 180.51 212.84 180.41
  Q 214.26 180.10 215.06 178.81
  A 1.18 1.18 0.0 0 1 215.80 178.28
  Q 218.05 177.75 218.41 175.83
  Q 218.48 175.43 218.88 175.42
  Q 219.80 175.40 220.34 174.67
  Q 220.68 174.20 221.24 174.35
  Q 222.52 174.71 223.23 173.65
  Q 223.48 173.28 223.91 173.35
  Q 224.88 173.50 225.27 172.61
  Q 225.43 172.25 225.82 172.32
  Q 228.57 172.79 230.19 170.69
  Q 230.67 170.06 230.86 170.82
  Q 230.96 171.21 231.37 171.09
  A 2.27 1.88 -67.5 0 0 232.03 170.74
  Q 232.53 170.36 232.97 169.93
  Q 233.38 169.51 233.84 169.88
  Q 235.00 170.80 236.14 169.63
  Q 236.54 169.23 237.10 169.36
  Q 238.45 169.70 239.14 168.62
  Q 239.46 168.11 239.78 168.62
  Q 239.96 168.90 240.28 169.03
  A 0.56 0.51 44.0 0 0 240.69 169.04
  Q 241.05 168.90 241.24 168.60
  Q 241.48 168.23 241.90 168.34
  Q 243.19 168.68 244.10 167.86
  Q 244.50 167.49 244.89 167.88
  L 245.16 168.15
  Q 245.29 168.28 245.48 168.33
  Q 246.65 168.67 247.17 167.74
  Q 247.58 167.00 247.87 167.78
  Q 247.92 167.92 248.01 168.04
  Q 248.08 168.13 248.18 168.16
  Q 251.01 168.94 253.27 167.82
  Q 253.67 167.62 254.00 167.92
  Q 254.80 168.63 255.99 168.38
  Q 256.43 168.29 256.79 168.58
  Q 258.84 170.26 260.50 168.53
  A 0.71 0.70 -40.5 0 1 261.59 168.61
  Q 262.22 169.50 263.30 169.35
  A 0.43 0.43 0.0 0 1 263.76 169.61
  Q 264.12 170.52 265.09 170.34
  A 0.73 0.71 66.5 0 1 265.80 170.63
  Q 266.18 171.18 266.81 171.05
  Q 267.22 170.97 267.30 170.56
  Q 267.33 170.41 267.50 170.43
  Q 267.62 170.44 267.69 170.54
  Q 268.95 172.36 271.20 172.36
  Q 271.63 172.36 271.83 172.73
  Q 272.22 173.46 273.00 173.34
  Q 273.54 173.26 273.87 173.69
  Q 274.44 174.42 275.15 173.87
  Q 275.60 173.51 276.01 173.92
  Q 277.47 175.39 278.93 176.82
  Q 279.96 177.84 281.35 177.50
  Q 281.68 177.42 281.87 177.72
  Q 282.74 179.12 284.09 179.40
  Q 284.53 179.49 284.85 179.80
  L 286.96 181.87
  Q 287.31 182.21 287.79 182.30
  Q 289.47 182.59 289.72 184.29
  Q 289.79 184.80 290.15 185.17
  Q 290.43 185.44 290.81 185.38
  Q 291.28 185.30 291.67 185.57
  Q 292.69 186.27 292.68 187.25
  Q 292.67 187.82 293.14 188.16
  Q 293.44 188.38 293.79 188.37
  A 1.89 1.75 83.0 0 1 295.60 189.90
  Q 295.86 191.21 297.17 192.03
  A 0.99 0.97 18.7 0 1 297.63 192.94
  Q 297.57 193.79 298.26 194.26
  Q 299.40 195.02 299.68 196.20
  Q 299.79 196.66 300.11 197.00
  L 301.33 198.31
  Q 301.64 198.65 301.64 199.10
  L 301.64 200.24
  Q 301.64 200.93 302.27 201.20
  Q 302.77 201.41 302.65 201.96
  Q 302.54 202.47 302.91 202.85
  L 304.34 204.30
  Q 304.67 204.63 304.64 205.11
  Q 304.59 205.87 305.24 206.31
  Q 305.51 206.50 305.27 206.73
  Q 304.48 207.49 305.36 208.22
  Q 305.84 208.63 305.66 209.25
  Q 305.28 210.49 306.31 211.20
  Q 306.73 211.48 306.66 211.99
  Q 306.55 212.77 307.21 213.21
  Q 307.57 213.45 307.26 213.75
  Q 306.47 214.51 307.36 215.19
  Q 307.80 215.52 307.68 216.06
  Q 307.19 218.24 308.43 219.42
  Q 308.54 219.52 308.45 219.63
  Q 307.13 221.30 308.38 223.19
  Q 308.64 223.58 308.64 224.05
  L 308.64 237.21
  Q 308.64 237.66 308.23 237.85
  Q 307.53 238.18 307.65 238.98
  Q 307.72 239.47 307.37 239.82
  Q 306.12 241.09 307.25 242.25
  A 0.36 0.36 0.0 0 1 307.20 242.80
  Q 306.55 243.26 306.66 244.04
  Q 306.73 244.49 306.36 244.75
  Q 305.33 245.47 305.62 246.79
  Q 305.73 247.28 305.37 247.64
  L 304.93 248.08
  Q 304.67 248.34 304.65 248.71
  Q 304.57 249.81 304.68 250.89
  Q 304.76 251.71 304.24 251.07
  Q 304.05 250.83 303.70 250.84
  Q 303.30 250.85 303.13 250.48
  Q 302.66 249.49 301.11 250.04
  Z"
/>
<path fill="#ffffff" d="
  M 256.03 182.52
  L 293.63 238.81
  L 301.11 250.04
  L 305.64 256.79
  L 320.66 279.21
  A 0.32 0.32 0.0 0 1 320.40 279.71
  L 290.53 279.76
  L 281.43 279.77
  A 1.40 1.38 -16.3 0 1 280.26 279.14
  L 276.06 272.73
  L 269.09 262.35
  A 0.41 0.41 0.0 0 1 269.43 261.71
  L 285.18 261.69
  A 0.31 0.30 72.7 0 0 285.43 261.21
  L 270.83 239.43
  L 250.28 208.61
  Q 250.01 208.21 249.74 208.61
  L 228.91 239.83
  L 214.70 261.15
  Q 214.35 261.68 214.99 261.68
  L 230.74 261.70
  A 0.31 0.31 0.0 0 1 230.99 262.18
  L 224.19 272.33
  L 219.48 279.24
  Q 219.20 279.66 218.69 279.67
  L 207.20 279.77
  L 179.65 279.76
  A 0.43 0.43 0.0 0 1 179.29 279.09
  L 192.25 259.84
  L 196.82 253.04
  L 204.15 242.12
  L 243.90 182.62
  L 249.70 174.03
  Q 250.00 173.60 250.29 174.03
  L 256.03 182.52
  Z"
/>
<path fill="#515224" fill-opacity="0.318" d="
  M 243.90 182.62
  L 204.15 242.12
  Q 204.13 240.95 203.19 240.57
  Q 202.60 240.33 202.72 239.70
  Q 202.90 238.66 202.34 237.75
  Q 201.94 237.10 201.94 236.34
  Q 201.97 233.18 201.40 230.51
  Q 200.79 227.59 201.35 224.95
  Q 201.76 222.99 201.76 220.96
  Q 201.77 219.27 202.52 217.75
  A 1.96 1.92 57.9 0 0 202.73 216.79
  Q 202.63 213.33 204.74 210.67
  A 1.24 1.23 62.3 0 0 205.00 209.83
  Q 204.94 209.01 205.30 208.30
  Q 206.69 205.56 208.09 203.04
  A 1.31 1.21 61.0 0 0 208.25 202.38
  Q 208.24 201.80 208.61 201.36
  Q 211.60 197.77 214.94 194.43
  Q 215.23 194.15 215.27 193.76
  Q 215.32 193.34 215.71 193.28
  Q 216.24 193.20 216.61 192.83
  Q 218.35 191.08 220.12 189.49
  Q 220.32 189.30 220.59 189.23
  Q 220.74 189.20 220.90 189.21
  Q 221.24 189.22 221.48 188.99
  L 223.52 187.07
  A 1.30 1.29 23.0 0 1 224.37 186.73
  L 225.01 186.71
  Q 225.49 186.70 225.85 186.39
  Q 228.55 184.12 232.04 183.12
  Q 233.68 182.66 235.35 181.98
  Q 237.30 181.19 239.26 181.05
  Q 240.37 180.98 241.21 180.54
  Q 242.13 180.06 243.01 179.49
  Q 243.60 179.10 243.57 179.80
  Q 243.55 180.13 243.79 180.37
  Q 244.44 181.00 243.58 180.71
  Q 243.45 180.66 243.29 180.68
  Q 243.01 180.72 242.95 181.00
  Q 242.74 182.08 243.90 182.62
  Z"
/>
<path fill="#515224" fill-opacity="0.318" d="
  M 293.63 238.81
  L 256.03 182.52
  Q 256.60 182.75 257.16 183.22
  Q 257.69 183.68 257.54 183.00
  L 257.09 181.03
  Q 257.02 180.74 256.73 180.67
  Q 256.57 180.64 256.42 180.65
  Q 256.27 180.67 256.26 180.51
  Q 256.25 180.33 256.32 180.13
  Q 256.51 179.57 256.85 180.05
  Q 257.22 180.56 257.75 180.67
  Q 259.57 181.03 261.95 181.85
  Q 265.29 183.02 268.82 184.00
  Q 269.75 184.26 270.45 184.81
  Q 270.97 185.23 271.64 185.37
  Q 272.20 185.50 272.55 185.95
  Q 273.89 187.70 276.01 188.14
  Q 276.54 188.25 276.78 188.75
  Q 276.99 189.20 277.48 189.31
  Q 277.99 189.42 278.34 189.81
  Q 280.39 192.04 283.00 193.53
  Q 283.25 193.67 283.25 193.95
  L 283.26 194.27
  Q 283.26 194.71 283.57 195.03
  L 286.84 198.37
  Q 287.24 198.78 287.27 199.34
  C 287.30 199.73 287.51 200.13 287.83 200.36
  Q 289.03 201.25 289.39 202.64
  Q 289.52 203.14 289.95 203.45
  C 290.49 203.84 291.02 204.52 291.07 205.22
  Q 291.09 205.59 291.40 205.82
  Q 291.75 206.07 291.89 206.48
  Q 292.54 208.35 293.44 210.12
  Q 294.36 211.93 294.75 213.90
  Q 295.10 215.68 295.63 217.38
  Q 296.26 219.41 296.00 221.66
  Q 295.93 222.24 296.31 222.68
  Q 296.84 223.30 296.77 224.08
  C 296.65 225.36 297.06 226.41 296.93 227.66
  Q 296.54 231.32 295.92 234.94
  Q 295.80 235.59 295.84 236.55
  Q 295.88 237.42 295.76 238.18
  Q 295.65 238.91 295.13 238.39
  L 294.82 238.07
  Q 294.45 237.71 294.02 237.99
  Q 293.67 238.22 293.63 238.81
  Z"
/>
<path fill="#3f401d" fill-opacity="0.247" d="
  M 343.13 193.80
  Q 350.45 206.12 356.17 219.43
  Q 356.36 219.66 356.52 220.52
  Q 355.90 220.93 355.92 221.25
  Q 353.05 228.65 350.09 236.01
  Q 349.43 237.63 348.51 239.04
  L 348.35 238.01
  Q 348.31 237.77 348.10 237.90
  Q 347.94 238.01 347.73 238.04
  Q 348.95 226.28 347.45 214.64
  Q 347.01 211.26 345.35 204.22
  Q 344.15 199.08 343.13 193.80
  Z"
/>
<path fill="#1e1e0e" fill-opacity="0.118" d="
  M 152.22 203.24
  Q 152.63 204.81 152.12 206.24
  Q 151.63 206.09 151.40 204.06
  Q 151.76 203.85 152.22 203.24
  Z"
/>
<path fill="#3f401d" fill-opacity="0.247" d="
  M 151.40 204.06
  Q 151.63 206.09 152.12 206.24
  Q 149.39 219.18 149.76 227.50
  Q 150.07 234.49 149.91 237.13
  L 142.89 222.80
  Q 142.90 222.06 143.28 221.14
  L 151.40 204.06
  Z"
/>
<path fill="#c0c257" fill-opacity="0.761" d="
  M 138.89 204.45
  L 138.88 205.84
  Q 138.88 206.28 138.45 206.41
  Q 137.97 206.56 137.94 207.24
  Q 137.92 208.06 137.26 208.28
  Q 137.17 208.27 137.08 208.27
  L 138.89 204.45
  Z"
/>
<path fill="#EB4F58" fill-opacity="0.906" d="
  M 361.67 205.30
  L 367.68 218.03
  Q 368.64 220.39 367.45 221.58
  A 1.61 1.54 -15.5 0 0 367.08 222.20
  Q 365.54 227.05 363.55 231.79
  Q 363.28 232.43 363.32 233.14
  Q 363.34 233.60 362.88 233.63
  Q 362.70 233.64 362.49 233.54
  L 356.52 220.52
  Q 356.36 219.66 356.17 219.43
  L 361.67 205.30
  Z"
/>
<path fill="#85863c" fill-opacity="0.525" d="
  M 270.83 239.43
  Q 270.19 239.48 269.69 239.05
  A 0.33 0.33 0.0 0 0 269.26 239.04
  Q 269.01 239.25 269.15 239.59
  Q 269.21 239.76 269.39 239.76
  Q 269.44 239.76 269.48 239.73
  Q 269.81 239.52 269.80 239.91
  Q 269.78 241.28 268.52 242.06
  Q 268.12 242.30 268.16 242.76
  Q 268.29 244.64 266.68 245.96
  Q 266.28 246.28 266.07 245.82
  Q 266.02 245.70 265.92 245.61
  Q 265.36 245.10 265.20 245.84
  Q 264.72 247.95 262.62 248.22
  Q 262.13 248.29 262.13 248.77
  L 262.13 249.25
  Q 262.13 249.84 261.54 249.89
  Q 259.71 250.04 258.20 250.97
  Q 257.88 251.17 257.49 251.13
  Q 257.24 251.11 257.01 251.12
  Q 256.53 251.13 256.17 251.44
  Q 254.52 252.86 252.81 251.65
  Q 252.14 251.17 252.11 252.02
  Q 252.11 252.17 252.06 252.29
  Q 251.90 252.76 251.40 252.83
  Q 248.98 253.14 246.58 252.90
  Q 246.20 252.86 245.97 252.60
  Q 245.62 252.19 245.09 252.17
  L 241.78 252.05
  A 1.00 0.97 73.2 0 1 240.98 251.60
  Q 240.54 250.92 239.78 251.18
  Q 239.29 251.34 239.05 250.89
  L 238.86 250.53
  Q 238.58 250.01 237.99 250.13
  Q 237.41 250.25 237.00 249.81
  A 0.62 0.60 -60.0 0 1 236.85 249.21
  Q 236.89 249.08 236.88 248.94
  Q 236.84 248.41 236.33 248.29
  Q 234.88 247.94 233.95 246.65
  A 1.20 1.18 70.5 0 0 232.93 246.15
  Q 231.75 246.19 231.86 244.99
  Q 231.94 244.15 231.21 244.57
  Q 231.06 244.65 230.96 244.79
  Q 230.27 245.72 229.99 244.76
  L 229.29 242.32
  A 0.92 0.91 66.4 0 1 229.69 241.29
  Q 230.11 241.03 230.12 240.54
  Q 230.14 239.95 229.56 239.89
  L 228.91 239.83
  L 249.74 208.61
  Q 250.01 208.21 250.28 208.61
  L 270.83 239.43
  Z"
/>
<path fill="#EB4F58" fill-opacity="0.906" d="
  M 143.28 221.14
  Q 142.90 222.06 142.89 222.80
  Q 138.85 230.25 137.20 236.53
  Q 136.97 236.73 136.74 236.94
  Q 136.81 236.73 136.80 236.53
  Q 136.79 236.20 136.46 236.13
  Q 136.19 236.08 135.90 236.18
  A 0.05 0.05 0.0 0 1 135.83 236.12
  Q 136.10 234.26 135.63 233.19
  Q 133.81 229.09 132.07 224.93
  Q 131.68 223.94 130.52 223.19
  L 131.07 221.39
  L 136.26 209.79
  L 137.02 209.46
  Q 137.54 209.23 137.68 209.78
  Q 139.28 216.05 143.28 221.14
  Z"
/>
<path fill="#ffffff" d="
  M 33.31 238.88
  Q 30.68 240.18 28.00 240.26
  Q 25.36 240.34 22.39 239.69
  Q 13.22 233.12 16.44 224.40
  C 21.05 211.93 39.20 215.20 39.27 228.50
  Q 39.31 234.91 33.31 238.88
  Z"
/>
<path fill="#c0c257" fill-opacity="0.761" d="
  M 367.68 218.03
  Q 368.01 218.34 368.33 218.64
  Q 371.54 226.83 375.52 236.63
  Q 388.32 268.18 394.68 299.99
  A 0.27 0.27 0.0 0 0 395.04 300.19
  Q 407.11 295.41 418.20 289.89
  Q 423.94 287.03 429.23 284.00
  Q 430.67 284.87 431.70 285.30
  C 435.62 286.96 434.96 290.13 434.79 293.48
  Q 416.56 304.00 396.74 311.34
  L 395.07 300.90
  A 0.59 0.59 0.0 0 0 394.29 300.44
  L 384.98 303.80
  A 1.11 1.10 -18.5 0 0 384.30 305.15
  Q 385.96 310.69 385.50 315.39
  Q 348.49 327.75 310.04 332.78
  L 306.55 332.94
  Q 309.44 326.88 313.46 322.21
  Q 313.76 321.86 313.50 321.13
  Q 314.45 321.27 315.07 320.84
  L 328.81 318.55
  Q 356.79 313.59 383.62 304.25
  Q 384.09 304.09 384.00 303.60
  Q 378.26 273.67 367.10 245.26
  L 363.03 234.96
  L 362.49 233.54
  Q 362.70 233.64 362.88 233.63
  Q 363.34 233.60 363.32 233.14
  Q 363.28 232.43 363.55 231.79
  Q 365.54 227.05 367.08 222.20
  A 1.61 1.54 -15.5 0 1 367.45 221.58
  Q 368.64 220.39 367.68 218.03
  Z"
/>
<path fill="#85863c" fill-opacity="0.525" d="
  M 356.52 220.52
  L 362.49 233.54
  L 363.03 234.96
  Q 362.56 234.65 362.31 235.29
  Q 351.49 262.60 337.02 286.75
  Q 327.75 302.22 314.81 320.28
  Q 314.69 320.46 314.84 320.61
  Q 314.93 320.71 315.07 320.84
  Q 314.45 321.27 313.50 321.13
  L 300.13 322.66
  Q 300.53 321.31 301.16 320.43
  Q 305.57 314.19 310.02 307.98
  Q 310.28 307.62 310.45 306.71
  Q 310.39 306.59 310.37 306.47
  Q 310.35 306.28 310.49 306.15
  Q 313.56 303.48 315.35 300.00
  Q 317.37 299.83 319.20 297.95
  Q 338.53 278.17 345.34 252.01
  Q 346.17 248.79 344.25 249.41
  L 347.87 240.37
  Q 347.93 239.17 348.51 239.04
  Q 349.43 237.63 350.09 236.01
  Q 353.05 228.65 355.92 221.25
  Q 355.90 220.93 356.52 220.52
  Z"
/>
<path fill="#cdce5c" fill-opacity="0.808" d="
  M 130.52 223.19
  Q 131.68 223.94 132.07 224.93
  Q 131.60 224.82 131.21 225.14
  Q 130.81 225.45 130.81 225.96
  Q 130.80 226.53 130.23 226.54
  Q 129.83 226.55 129.99 226.92
  Q 130.31 227.65 129.89 228.28
  Q 129.53 228.81 129.20 228.26
  Q 128.82 227.59 128.94 226.72
  L 130.52 223.19
  Z"
/>
<path fill="#85863c" fill-opacity="0.525" d="
  M 142.89 222.80
  L 149.91 237.13
  L 151.33 240.68
  Q 151.18 244.64 151.50 246.25
  Q 158.83 282.30 187.57 305.68
  Q 189.32 307.10 190.52 306.76
  Q 192.35 309.70 194.48 311.01
  Q 198.43 317.58 203.30 322.71
  L 201.10 323.16
  L 189.30 321.71
  L 187.93 321.44
  Q 170.92 300.22 158.57 278.69
  Q 147.78 259.86 137.20 236.53
  Q 138.85 230.25 142.89 222.80
  Z"
/>
<path fill="#c0c257" fill-opacity="0.761" d="
  M 132.07 224.93
  Q 133.81 229.09 135.63 233.19
  Q 136.10 234.26 135.83 236.12
  A 0.05 0.05 0.0 0 0 135.90 236.18
  Q 136.19 236.08 136.46 236.13
  Q 136.79 236.20 136.80 236.53
  Q 136.81 236.73 136.74 236.94
  L 126.16 267.15
  Q 120.42 285.67 116.74 304.85
  A 0.32 0.32 0.0 0 0 116.95 305.21
  Q 135.00 311.47 153.69 315.51
  Q 170.43 319.37 187.93 321.44
  L 189.30 321.71
  Q 188.84 321.67 188.56 321.77
  Q 188.10 321.95 188.42 322.32
  L 196.15 331.62
  Q 196.17 331.65 196.16 331.69
  Q 196.15 331.81 196.11 331.93
  Q 195.94 332.45 196.41 332.74
  Q 198.02 333.69 200.07 333.94
  Q 199.50 334.09 199.09 334.80
  Q 198.58 333.84 197.90 333.77
  Q 155.40 329.67 115.05 316.33
  Q 114.70 316.22 114.65 316.58
  Q 111.73 335.06 111.28 353.00
  Q 111.26 353.63 111.24 354.33
  Q 104.93 360.43 100.49 353.30
  Q 100.53 333.04 104.06 313.10
  A 0.86 0.86 0.0 0 0 103.53 312.15
  L 99.59 310.57
  Q 102.24 309.55 103.70 307.24
  C 104.94 305.29 104.49 302.97 104.31 300.71
  Q 105.00 301.13 105.58 301.17
  Q 106.11 301.21 106.21 300.69
  Q 113.95 262.61 128.94 226.72
  Q 128.82 227.59 129.20 228.26
  Q 129.53 228.81 129.89 228.28
  Q 130.31 227.65 129.99 226.92
  Q 129.83 226.55 130.23 226.54
  Q 130.80 226.53 130.81 225.96
  Q 130.81 225.45 131.21 225.14
  Q 131.60 224.82 132.07 224.93
  Z
  M 113.73 315.86
  A 0.82 0.82 0.0 0 0 114.82 315.23
  L 116.48 305.79
  A 0.82 0.82 0.0 0 0 115.95 304.88
  L 106.80 301.63
  A 0.82 0.82 0.0 0 0 105.72 302.28
  L 104.23 311.71
  A 0.82 0.82 0.0 0 0 104.76 312.61
  L 113.73 315.86
  Z"
/>
<path fill="#1e1e0e" fill-opacity="0.118" d="
  M 363.03 234.96
  L 367.10 245.26
  Q 365.47 245.12 365.91 243.31
  Q 365.97 243.10 365.78 243.00
  L 365.50 242.85
  Q 365.27 242.72 365.18 242.97
  Q 364.64 244.53 365.88 245.06
  Q 366.14 245.17 366.04 245.43
  Q 365.53 246.77 366.29 247.99
  Q 367.13 249.32 366.11 250.52
  Q 365.93 250.74 365.90 251.02
  Q 365.72 253.38 364.67 255.77
  Q 364.57 256.02 364.36 256.18
  Q 364.13 256.38 364.24 256.65
  Q 364.35 256.92 364.28 257.21
  L 363.15 261.91
  Q 363.03 262.45 362.64 262.85
  Q 361.63 263.92 361.31 265.40
  Q 360.90 267.29 360.15 269.02
  Q 360.06 269.23 360.15 269.42
  Q 360.32 269.79 360.19 270.18
  L 359.02 273.83
  Q 358.96 274.03 358.79 274.16
  Q 358.69 274.24 358.59 274.32
  Q 358.39 274.50 358.31 274.76
  Q 357.25 278.39 355.19 281.83
  A 0.73 0.70 -82.4 0 1 354.80 282.14
  Q 354.38 282.27 354.39 282.67
  Q 354.41 283.02 354.28 283.35
  Q 353.54 285.28 352.65 287.12
  Q 351.76 288.98 350.53 290.53
  Q 349.00 292.44 347.75 294.63
  Q 347.25 295.51 346.47 296.05
  Q 345.55 296.69 345.16 297.67
  Q 344.21 300.04 342.42 301.35
  Q 341.56 301.98 341.18 302.89
  Q 341.00 303.32 340.69 303.67
  Q 338.53 306.06 336.65 308.67
  Q 336.49 308.88 336.27 308.98
  Q 336.06 309.09 335.84 309.16
  A 1.13 1.11 -2.9 0 0 335.10 309.97
  Q 334.82 311.15 333.69 311.37
  Q 333.33 311.44 333.18 311.78
  Q 332.79 312.68 331.93 313.18
  Q 330.03 314.27 329.71 316.24
  A 1.12 1.11 -77.1 0 1 328.30 317.13
  Q 327.75 316.98 327.28 317.20
  Q 326.43 317.60 327.36 317.72
  Q 328.60 317.89 328.81 318.55
  L 315.07 320.84
  Q 314.93 320.71 314.84 320.61
  Q 314.69 320.46 314.81 320.28
  Q 327.75 302.22 337.02 286.75
  Q 351.49 262.60 362.31 235.29
  Q 362.56 234.65 363.03 234.96
  Z"
/>
<path fill="#1e1e0e" fill-opacity="0.118" d="
  M 136.74 236.94
  Q 136.97 236.73 137.20 236.53
  Q 147.78 259.86 158.57 278.69
  Q 170.92 300.22 187.93 321.44
  Q 170.43 319.37 153.69 315.51
  Q 154.21 315.11 155.09 314.90
  Q 156.04 314.67 155.26 314.09
  Q 155.00 313.90 154.65 313.90
  Q 153.11 313.92 151.92 313.04
  Q 151.52 312.74 151.03 312.66
  Q 149.80 312.45 148.56 312.37
  Q 148.44 312.36 148.45 312.23
  L 148.45 312.23
  Q 148.46 312.10 148.58 312.12
  Q 149.57 312.22 150.55 311.88
  Q 151.33 311.62 150.77 311.02
  Q 147.83 307.90 145.37 304.25
  Q 144.48 302.95 143.84 302.33
  Q 143.48 301.99 143.32 301.52
  Q 142.87 300.21 141.81 299.28
  Q 141.40 298.92 141.25 298.40
  Q 141.00 297.50 140.22 296.89
  A 1.97 1.86 -86.3 0 1 139.68 296.24
  L 137.68 292.38
  Q 137.54 292.10 137.26 291.95
  Q 136.73 291.64 136.84 291.10
  Q 136.97 290.47 136.51 290.02
  L 135.72 289.22
  Q 135.33 288.83 135.34 288.28
  Q 135.36 287.75 134.94 287.40
  Q 134.68 287.18 134.53 286.88
  L 132.44 282.73
  A 0.92 0.79 -61.4 0 1 132.36 282.36
  Q 132.40 280.58 130.94 279.49
  Q 130.36 279.06 130.38 278.38
  Q 130.39 277.98 130.24 277.61
  L 127.34 270.68
  A 2.62 2.60 50.8 0 1 127.58 268.22
  Q 128.46 266.90 128.01 265.33
  Q 127.95 265.09 127.72 265.02
  Q 127.20 264.87 127.09 265.40
  Q 126.86 266.59 126.16 267.15
  L 136.74 236.94
  Z"
/>
<path fill="#1e1e0e" fill-opacity="0.118" d="
  M 348.51 239.04
  Q 347.93 239.17 347.87 240.37
  L 347.73 238.04
  Q 347.94 238.01 348.10 237.90
  Q 348.31 237.77 348.35 238.01
  L 348.51 239.04
  Z"
/>
<path fill="#EB4F58" fill-opacity="0.906" d="
  M 33.31 238.88
  Q 35.85 246.33 36.80 248.51
  C 48.75 276.13 77.99 290.32 104.31 300.71
  C 104.49 302.97 104.94 305.29 103.70 307.24
  Q 102.24 309.55 99.59 310.57
  Q 80.50 303.58 63.41 293.08
  C 43.22 280.66 28.03 263.27 22.39 239.69
  Q 25.36 240.34 28.00 240.26
  Q 30.68 240.18 33.31 238.88
  Z"
/>
<path fill="#515224" fill-opacity="0.318" d="
  M 270.83 239.43
  L 285.43 261.21
  A 0.31 0.30 72.7 0 1 285.18 261.69
  L 269.43 261.71
  A 0.41 0.41 0.0 0 0 269.09 262.35
  L 276.06 272.73
  Q 275.17 272.46 274.95 273.07
  A 2.39 1.95 51.1 0 0 274.94 274.42
  Q 274.99 274.57 275.14 274.58
  Q 275.63 274.62 275.14 274.66
  Q 274.52 274.70 273.98 274.41
  Q 273.57 274.20 273.23 274.51
  L 271.97 275.69
  Q 271.61 276.02 271.14 276.15
  Q 270.15 276.41 269.25 276.94
  Q 268.90 277.14 268.50 277.14
  L 267.95 277.14
  Q 267.42 277.14 267.04 277.52
  Q 266.47 278.10 265.66 278.13
  Q 265.10 278.15 265.17 278.69
  Q 265.19 278.92 264.85 279.05
  Q 264.41 279.22 263.94 279.12
  Q 262.54 278.83 261.83 279.90
  Q 261.55 280.31 261.16 280.02
  Q 260.98 279.89 260.97 279.63
  A 0.50 0.50 0.0 0 0 260.55 279.14
  Q 259.50 278.96 259.01 279.78
  A 0.85 0.85 0.0 0 1 258.07 280.16
  Q 256.85 279.84 255.98 280.64
  Q 255.51 281.07 255.01 280.68
  Q 254.80 280.52 254.72 280.27
  A 0.25 0.25 0.0 0 0 254.25 280.26
  L 254.15 280.55
  Q 253.96 281.06 253.42 281.09
  Q 252.35 281.16 251.72 280.33
  Q 251.50 280.03 251.23 280.29
  Q 251.10 280.42 251.03 280.59
  Q 250.83 281.08 250.31 281.18
  Q 249.33 281.38 248.91 280.56
  A 0.76 0.76 0.0 0 0 248.23 280.14
  L 244.52 280.14
  A 0.41 0.41 0.0 0 0 244.11 280.55
  Q 244.10 280.84 243.84 280.87
  Q 243.50 280.90 243.19 280.69
  Q 241.88 279.81 240.11 280.18
  A 1.14 1.13 -27.3 0 1 239.03 279.84
  Q 238.93 279.73 238.86 279.60
  Q 238.43 278.91 238.06 279.63
  Q 237.81 280.12 237.34 279.83
  Q 236.30 279.18 235.59 278.26
  A 1.14 1.12 70.6 0 0 234.67 277.81
  Q 233.34 277.84 232.40 276.97
  Q 231.99 276.59 231.46 276.75
  Q 230.94 276.91 230.72 277.43
  Q 230.51 277.92 230.28 277.43
  Q 229.86 276.54 228.88 276.66
  A 0.80 0.80 0.0 0 1 228.09 276.28
  Q 227.18 274.79 225.74 274.64
  Q 225.27 274.59 225.14 274.14
  Q 224.86 273.13 225.56 272.63
  Q 225.74 272.51 225.79 272.30
  Q 225.82 272.18 225.73 272.05
  Q 225.56 271.79 225.39 272.05
  Q 224.95 272.70 224.19 272.33
  L 230.99 262.18
  A 0.31 0.31 0.0 0 0 230.74 261.70
  L 214.99 261.68
  Q 214.35 261.68 214.70 261.15
  L 228.91 239.83
  L 229.56 239.89
  Q 230.14 239.95 230.12 240.54
  Q 230.11 241.03 229.69 241.29
  A 0.92 0.91 66.4 0 0 229.29 242.32
  L 229.99 244.76
  Q 230.27 245.72 230.96 244.79
  Q 231.06 244.65 231.21 244.57
  Q 231.94 244.15 231.86 244.99
  Q 231.75 246.19 232.93 246.15
  A 1.20 1.18 70.5 0 1 233.95 246.65
  Q 234.88 247.94 236.33 248.29
  Q 236.84 248.41 236.88 248.94
  Q 236.89 249.08 236.85 249.21
  A 0.62 0.60 -60.0 0 0 237.00 249.81
  Q 237.41 250.25 237.99 250.13
  Q 238.58 250.01 238.86 250.53
  L 239.05 250.89
  Q 239.29 251.34 239.78 251.18
  Q 240.54 250.92 240.98 251.60
  A 1.00 0.97 73.2 0 0 241.78 252.05
  L 245.09 252.17
  Q 245.62 252.19 245.97 252.60
  Q 246.20 252.86 246.58 252.90
  Q 248.98 253.14 251.40 252.83
  Q 251.90 252.76 252.06 252.29
  Q 252.11 252.17 252.11 252.02
  Q 252.14 251.17 252.81 251.65
  Q 254.52 252.86 256.17 251.44
  Q 256.53 251.13 257.01 251.12
  Q 257.24 251.11 257.49 251.13
  Q 257.88 251.17 258.20 250.97
  Q 259.71 250.04 261.54 249.89
  Q 262.13 249.84 262.13 249.25
  L 262.13 248.77
  Q 262.13 248.29 262.62 248.22
  Q 264.72 247.95 265.20 245.84
  Q 265.36 245.10 265.92 245.61
  Q 266.02 245.70 266.07 245.82
  Q 266.28 246.28 266.68 245.96
  Q 268.29 244.64 268.16 242.76
  Q 268.12 242.30 268.52 242.06
  Q 269.78 241.28 269.80 239.91
  Q 269.81 239.52 269.48 239.73
  Q 269.44 239.76 269.39 239.76
  Q 269.21 239.76 269.15 239.59
  Q 269.01 239.25 269.26 239.04
  A 0.33 0.33 0.0 0 1 269.69 239.05
  Q 270.19 239.48 270.83 239.43
  Z"
/>
<path fill="##eb4f58b8" fill-opacity="0.400" d="
  M 151.33 240.68
  Q 157.16 252.71 163.41 264.36
  Q 175.31 286.53 190.52 306.76
  Q 189.32 307.10 187.57 305.68
  Q 158.83 282.30 151.50 246.25
  Q 151.18 244.64 151.33 240.68
  Z"
/>
<path fill="##eb4f58b8" fill-opacity="0.400" d="
  M 344.25 249.41
  Q 346.17 248.79 345.34 252.01
  Q 338.53 278.17 319.20 297.95
  Q 317.37 299.83 315.35 300.00
  Q 331.89 275.80 344.25 249.41
  Z"
/>
<path fill="#313216" fill-opacity="0.192" d="
  M 276.06 272.73
  L 280.26 279.14
  A 1.40 1.38 -16.3 0 0 281.43 279.77
  L 290.53 279.76
  L 281.61 280.02
  A 0.21 0.21 0.0 0 0 281.41 280.22
  L 281.39 280.51
  Q 281.39 280.62 281.49 280.62
  Q 285.28 280.72 288.91 280.66
  C 290.38 280.64 291.56 281.06 292.96 281.35
  Q 293.16 281.39 293.35 281.49
  Q 293.87 281.74 293.45 282.04
  Q 293.33 282.12 293.19 282.12
  L 291.67 282.12
  Q 291.23 282.12 290.93 282.45
  Q 290.37 283.05 289.50 283.10
  Q 289.06 283.13 288.90 283.54
  Q 288.85 283.67 288.82 283.80
  Q 288.78 284.00 288.61 284.11
  C 287.26 284.96 286.11 285.68 284.56 286.44
  Q 283.69 286.86 283.06 287.64
  A 1.84 1.81 -79.8 0 1 282.27 288.20
  Q 279.88 289.06 277.90 290.62
  Q 277.51 290.92 277.01 290.92
  Q 275.83 290.93 275.10 291.67
  Q 274.70 292.09 274.13 292.09
  Q 272.73 292.11 271.60 292.94
  Q 271.10 293.31 270.48 293.36
  Q 267.96 293.60 265.73 294.69
  A 2.06 2.06 0.0 0 1 264.76 294.89
  Q 263.19 294.84 261.91 295.62
  A 1.86 1.84 27.0 0 1 261.06 295.89
  L 253.51 296.37
  A 0.72 0.71 -68.2 0 0 253.03 296.58
  Q 252.51 297.06 252.06 296.62
  A 0.74 0.73 -36.2 0 0 251.20 296.49
  Q 249.50 297.35 247.86 296.51
  Q 247.45 296.30 247.06 296.55
  Q 246.05 297.22 245.04 296.61
  Q 244.63 296.36 244.14 296.34
  Q 237.94 296.07 230.99 294.46
  Q 230.63 294.37 230.28 294.26
  Q 225.21 292.62 220.23 290.37
  Q 219.48 290.03 218.86 289.53
  Q 218.48 289.24 218.01 289.16
  Q 217.17 289.02 216.69 288.45
  Q 216.31 287.98 215.71 288.10
  Q 215.54 288.13 215.38 288.06
  Q 215.21 287.99 215.10 287.84
  Q 213.95 286.32 212.02 285.94
  Q 211.46 285.83 211.01 285.47
  L 207.49 282.67
  Q 207.06 282.33 206.51 282.35
  Q 205.59 282.38 204.77 281.83
  Q 204.14 281.40 204.90 281.39
  Q 206.01 281.38 207.15 281.37
  A 1.08 1.01 -9.7 0 0 208.19 280.00
  Q 208.15 279.90 207.20 279.77
  L 218.69 279.67
  Q 219.20 279.66 219.48 279.24
  L 224.19 272.33
  Q 224.95 272.70 225.39 272.05
  Q 225.56 271.79 225.73 272.05
  Q 225.82 272.18 225.79 272.30
  Q 225.74 272.51 225.56 272.63
  Q 224.86 273.13 225.14 274.14
  Q 225.27 274.59 225.74 274.64
  Q 227.18 274.79 228.09 276.28
  A 0.80 0.80 0.0 0 0 228.88 276.66
  Q 229.86 276.54 230.28 277.43
  Q 230.51 277.92 230.72 277.43
  Q 230.94 276.91 231.46 276.75
  Q 231.99 276.59 232.40 276.97
  Q 233.34 277.84 234.67 277.81
  A 1.14 1.12 70.6 0 1 235.59 278.26
  Q 236.30 279.18 237.34 279.83
  Q 237.81 280.12 238.06 279.63
  Q 238.43 278.91 238.86 279.60
  Q 238.93 279.73 239.03 279.84
  A 1.14 1.13 -27.3 0 0 240.11 280.18
  Q 241.88 279.81 243.19 280.69
  Q 243.50 280.90 243.84 280.87
  Q 244.10 280.84 244.11 280.55
  A 0.41 0.41 0.0 0 1 244.52 280.14
  L 248.23 280.14
  A 0.76 0.76 0.0 0 1 248.91 280.56
  Q 249.33 281.38 250.31 281.18
  Q 250.83 281.08 251.03 280.59
  Q 251.10 280.42 251.23 280.29
  Q 251.50 280.03 251.72 280.33
  Q 252.35 281.16 253.42 281.09
  Q 253.96 281.06 254.15 280.55
  L 254.25 280.26
  A 0.25 0.25 0.0 0 1 254.72 280.27
  Q 254.80 280.52 255.01 280.68
  Q 255.51 281.07 255.98 280.64
  Q 256.85 279.84 258.07 280.16
  A 0.85 0.85 0.0 0 0 259.01 279.78
  Q 259.50 278.96 260.55 279.14
  A 0.50 0.50 0.0 0 1 260.97 279.63
  Q 260.98 279.89 261.16 280.02
  Q 261.55 280.31 261.83 279.90
  Q 262.54 278.83 263.94 279.12
  Q 264.41 279.22 264.85 279.05
  Q 265.19 278.92 265.17 278.69
  Q 265.10 278.15 265.66 278.13
  Q 266.47 278.10 267.04 277.52
  Q 267.42 277.14 267.95 277.14
  L 268.50 277.14
  Q 268.90 277.14 269.25 276.94
  Q 270.15 276.41 271.14 276.15
  Q 271.61 276.02 271.97 275.69
  L 273.23 274.51
  Q 273.57 274.20 273.98 274.41
  Q 274.52 274.70 275.14 274.66
  Q 275.63 274.62 275.14 274.58
  Q 274.99 274.57 274.94 274.42
  A 2.39 1.95 51.1 0 1 274.95 273.07
  Q 275.17 272.46 276.06 272.73
  Z"
/>
<path fill="#EB4F58" fill-opacity="0.906" d="
  M 396.74 311.34
  Q 393.41 312.85 390.10 314.05
  Q 390.00 314.08 390.00 314.17
  Q 389.99 314.27 390.07 314.32
  Q 390.26 314.42 390.46 314.39
  Q 391.99 314.13 393.57 314.11
  Q 394.08 314.11 394.52 314.38
  L 397.47 316.22
  C 400.65 334.64 401.89 354.53 398.75 373.01
  Q 394.18 399.94 374.49 418.87
  Q 373.23 412.67 368.44 409.39
  Q 379.99 397.67 384.76 383.26
  Q 389.08 370.19 389.28 354.49
  Q 389.53 334.85 386.02 315.51
  Q 385.87 314.68 385.50 315.39
  Q 385.96 310.69 384.30 305.15
  A 1.11 1.10 -18.5 0 1 384.98 303.80
  L 394.29 300.44
  A 0.59 0.59 0.0 0 1 395.07 300.90
  L 396.74 311.34
  Z"
/>
<path fill="#EB4F58" fill-opacity="0.906" d="
  M 113.73 315.86
  L 104.76 312.61
  A 0.82 0.82 0.0 0 1 104.23 311.71
  L 105.72 302.28
  A 0.82 0.82 0.0 0 1 106.80 301.63
  L 115.95 304.88
  A 0.82 0.82 0.0 0 1 116.48 305.79
  L 114.82 315.23
  A 0.82 0.82 0.0 0 1 113.73 315.86
  Z"
/>
<path fill="#3f401d" fill-opacity="0.247" d="
  M 310.45 306.71
  Q 310.28 307.62 310.02 307.98
  Q 305.57 314.19 301.16 320.43
  Q 300.53 321.31 300.13 322.66
  L 298.33 323.17
  L 282.56 324.41
  Q 278.86 323.75 275.45 324.62
  Q 274.93 324.34 275.01 324.56
  L 275.15 324.03
  A 0.87 0.84 -1.5 0 1 275.74 323.43
  Q 294.46 317.87 309.32 306.66
  Q 309.65 306.41 310.04 306.56
  L 310.45 306.71
  Z"
/>
<path fill="#3f401d" fill-opacity="0.247" d="
  M 219.22 322.49
  Q 220.29 323.52 222.96 324.43
  Q 213.07 324.36 203.63 323.09
  Q 203.50 323.07 203.38 323.01
  Q 202.71 322.63 203.30 322.71
  Q 198.43 317.58 194.48 311.01
  Q 206.85 318.27 219.22 322.49
  Z"
/>
<path fill="#cdce5c" fill-opacity="0.808" d="
  M 396.74 311.34
  L 397.47 316.22
  L 394.52 314.38
  Q 394.08 314.11 393.57 314.11
  Q 391.99 314.13 390.46 314.39
  Q 390.26 314.42 390.07 314.32
  Q 389.99 314.27 390.00 314.17
  Q 390.00 314.08 390.10 314.05
  Q 393.41 312.85 396.74 311.34
  Z"
/>
<path fill="#EB4F58" fill-opacity="0.906" d="
  M 313.50 321.13
  Q 313.76 321.86 313.46 322.21
  Q 309.44 326.88 306.55 332.94
  L 304.51 333.73
  L 290.59 334.74
  Q 290.70 334.04 292.48 332.47
  Q 294.99 330.26 298.33 323.17
  L 300.13 322.66
  L 313.50 321.13
  Z"
/>
<path fill="#EB4F58" fill-opacity="0.906" d="
  M 189.30 321.71
  L 201.10 323.16
  Q 202.39 323.61 203.75 323.71
  Q 204.94 323.80 205.14 324.84
  A 1.53 1.42 21.6 0 0 205.46 325.51
  Q 209.29 330.19 213.42 334.44
  Q 213.47 334.50 213.62 334.73
  Q 213.94 335.24 215.21 335.21
  Q 214.82 335.02 214.54 335.22
  L 200.07 333.94
  Q 198.02 333.69 196.41 332.74
  Q 195.94 332.45 196.11 331.93
  Q 196.15 331.81 196.16 331.69
  Q 196.17 331.65 196.15 331.62
  L 188.42 322.32
  Q 188.10 321.95 188.56 321.77
  Q 188.84 321.67 189.30 321.71
  Z"
/>
<path fill="#1e1e0e" fill-opacity="0.118" d="
  M 219.22 322.49
  Q 220.55 322.82 221.52 322.93
  Q 222.96 323.09 223.34 324.44
  Q 223.39 324.16 222.96 324.43
  Q 220.29 323.52 219.22 322.49
  Z"
/>
<path fill="#cdce5c" fill-opacity="0.808" d="
  M 203.30 322.71
  Q 202.71 322.63 203.38 323.01
  Q 203.50 323.07 203.63 323.09
  Q 213.07 324.36 222.96 324.43
  Q 223.39 324.16 223.34 324.44
  Q 249.09 326.22 275.01 324.56
  Q 274.93 324.34 275.45 324.62
  L 282.56 324.41
  L 298.33 323.17
  Q 294.99 330.26 292.48 332.47
  Q 290.70 334.04 290.59 334.74
  Q 288.37 334.78 289.75 335.01
  Q 251.80 337.55 215.21 335.21
  Q 213.94 335.24 213.62 334.73
  Q 213.47 334.50 213.42 334.44
  Q 209.29 330.19 205.46 325.51
  A 1.53 1.42 21.6 0 1 205.14 324.84
  Q 204.94 323.80 203.75 323.71
  Q 202.39 323.61 201.10 323.16
  L 203.30 322.71
  Z
  M 284.06 325.49
  Q 283.63 325.02 282.99 325.05
  Q 280.61 325.15 278.30 325.45
  Q 277.36 325.57 278.31 325.62
  Q 281.12 325.78 284.37 325.62
  Q 284.38 325.62 284.38 325.62
  Q 284.38 325.62 284.38 325.62
  Q 284.38 325.69 284.31 325.67
  Q 284.17 325.61 284.06 325.49
  Z"
/>
<path fill="#515224" fill-opacity="0.318" d="
  M 282.56 324.41
  L 275.45 324.62
  Q 278.86 323.75 282.56 324.41
  Z"
/>
<path fill="#EB4F58" fill-opacity="0.906" d="
  M 284.06 325.49
  Q 284.17 325.61 284.31 325.67
  Q 284.38 325.69 284.38 325.62
  Q 284.38 325.62 284.38 325.62
  Q 284.38 325.62 284.37 325.62
  Q 281.12 325.78 278.31 325.62
  Q 277.36 325.57 278.30 325.45
  Q 280.61 325.15 282.99 325.05
  Q 283.63 325.02 284.06 325.49
  Z"
/>
<path fill="#1e1e0e" fill-opacity="0.118" d="
  M 310.04 332.78
  L 309.99 333.18
  Q 309.93 333.71 309.40 333.77
  L 304.56 334.29
  Q 304.65 334.10 304.51 333.73
  L 306.55 332.94
  L 310.04 332.78
  Z"
/>
<path fill="##eb4f58b8" fill-opacity="0.400" d="
  M 304.51 333.73
  Q 304.65 334.10 304.56 334.29
  Q 304.61 334.55 304.37 334.87
  Q 284.94 360.88 262.39 383.50
  Q 262.12 383.77 262.43 384.00
  C 279.01 396.40 297.14 406.43 315.85 414.50
  C 319.51 416.08 322.54 418.76 320.56 422.88
  C 318.82 426.46 315.55 426.66 312.27 425.20
  C 291.36 415.89 271.81 405.50 254.48 391.79
  A 0.80 0.79 -47.1 0 0 253.45 391.83
  Q 237.08 407.10 218.66 418.84
  C 202.01 429.44 182.79 437.54 163.08 437.85
  C 144.53 438.14 125.21 430.20 114.89 414.49
  Q 106.78 402.17 103.66 387.26
  Q 100.13 370.40 100.49 353.30
  Q 104.93 360.43 111.24 354.33
  Q 111.21 354.56 111.33 354.77
  Q 111.45 355.01 111.45 355.28
  C 111.55 377.97 115.89 409.20 138.00 420.79
  C 161.78 433.25 188.88 424.06 210.32 410.94
  Q 228.28 399.94 244.35 385.14
  Q 244.50 385.00 244.69 384.95
  Q 244.82 384.92 244.95 384.93
  Q 245.13 384.94 245.15 384.76
  Q 245.19 384.23 244.81 383.88
  C 230.02 370.42 216.26 354.94 202.87 339.38
  Q 200.90 337.10 199.09 334.80
  Q 199.50 334.09 200.07 333.94
  L 214.54 335.22
  Q 214.61 335.43 214.59 335.57
  Q 214.57 335.81 214.74 335.99
  L 234.13 357.74
  Q 243.11 367.64 253.05 376.26
  Q 253.49 376.63 253.88 376.22
  L 273.77 355.06
  Q 278.15 350.12 282.41 345.13
  Q 286.42 340.44 289.75 335.01
  Q 288.37 334.78 290.59 334.74
  L 304.51 333.73
  Z
  M 261.73 384.17
  A 0.47 0.47 0.0 0 0 261.71 383.46
  L 253.70 376.88
  A 0.47 0.47 0.0 0 0 253.08 376.90
  L 245.78 384.00
  A 0.47 0.47 0.0 0 0 245.81 384.69
  L 253.66 391.21
  A 0.47 0.47 0.0 0 0 254.28 391.19
  L 261.73 384.17
  Z"
/>
<path fill="#1e1e0e" fill-opacity="0.118" d="
  M 289.75 335.01
  Q 286.42 340.44 282.41 345.13
  Q 278.15 350.12 273.77 355.06
  Q 274.09 353.40 275.56 352.25
  Q 275.71 352.14 275.80 351.97
  Q 275.90 351.78 275.82 351.62
  Q 275.60 351.15 275.15 351.38
  Q 273.87 352.00 273.85 353.36
  Q 273.91 353.19 273.78 353.05
  Q 273.48 352.74 273.11 352.96
  Q 272.92 353.07 272.81 353.25
  Q 272.41 353.87 271.85 353.40
  Q 271.54 353.14 271.11 353.30
  Q 269.03 354.08 266.69 354.19
  Q 264.17 354.31 261.70 354.69
  Q 258.06 355.24 253.99 355.14
  Q 253.49 355.12 253.09 355.43
  Q 252.48 355.88 251.91 355.34
  Q 251.51 354.96 251.10 355.34
  Q 250.56 355.83 249.99 355.43
  Q 249.56 355.13 249.05 355.13
  L 246.72 355.13
  Q 246.26 355.13 245.88 355.39
  Q 245.03 355.98 244.12 355.43
  Q 243.70 355.16 243.19 355.17
  Q 239.41 355.19 235.93 354.68
  Q 235.46 354.61 235.17 355.00
  L 234.87 355.42
  Q 234.45 355.99 233.95 355.49
  L 230.69 352.27
  Q 230.30 351.88 230.03 352.36
  Q 229.87 352.65 230.24 353.01
  Q 232.99 355.66 234.13 357.74
  L 214.74 335.99
  Q 214.57 335.81 214.59 335.57
  Q 214.61 335.43 214.54 335.22
  Q 214.82 335.02 215.21 335.21
  Q 251.80 337.55 289.75 335.01
  Z"
/>
<path fill="#a1a349" fill-opacity="0.639" d="
  M 261.73 384.17
  L 254.28 391.19
  A 0.47 0.47 0.0 0 1 253.66 391.21
  L 245.81 384.69
  A 0.47 0.47 0.0 0 1 245.78 384.00
  L 253.08 376.90
  A 0.47 0.47 0.0 0 1 253.70 376.88
  L 261.71 383.46
  A 0.47 0.47 0.0 0 1 261.73 384.17
  Z"
/>
<path fill="#ffffff" d="
  M 368.44 409.39
  Q 373.23 412.67 374.49 418.87
  Q 374.29 425.41 369.82 429.05
  C 363.40 434.28 354.06 431.39 351.18 423.57
  C 349.26 418.37 351.44 412.74 356.08 409.74
  Q 361.51 406.25 368.44 409.39
  Z"
/>
</svg>
