<?xml version="1.0" encoding="utf-8"?>
<!-- Generator: Adobe Illustrator 27.3.1, SVG Export Plug-In . SVG Version: 6.00 Build 0)  -->
<svg version="1.1" id="Layer_1" xmlns="http://www.w3.org/2000/svg" xmlns:xlink="http://www.w3.org/1999/xlink" x="0px" y="0px"
	 viewBox="0 0 261.5 151" style="enable-background:new 0 0 261.5 151;" xml:space="preserve">
<style type="text/css">
	.st0{fill:#121212;}
	.st1{fill:#EA5959;}
	.st2{fill:#FFFFFF;}
	.st3{fill:none;stroke:#3A3A3A;stroke-miterlimit:10;}
	.st4{fill:#A9A9A9;}
	.st5{opacity:0.8;}
</style>
<path class="st0" d="M261.5,151H0V5c0-2.76,2.24-5,5-5h251.5c2.76,0,5,2.24,5,5V151z"/>
<g>
	<path class="st1" d="M98.17,21.17h2.25l2.83,10.8h-1.71l-0.69-2.87h-3.23l-0.69,2.87h-1.69L98.17,21.17z M100.53,27.79l-0.98-4.05
		c-0.05-0.19-0.09-0.37-0.12-0.55c-0.03-0.17-0.06-0.33-0.08-0.47c-0.02-0.16-0.04-0.31-0.06-0.45h-0.07
		c-0.02,0.14-0.05,0.29-0.08,0.45c-0.02,0.14-0.05,0.3-0.08,0.47c-0.04,0.18-0.08,0.36-0.13,0.55l-0.98,4.05H100.53z"/>
	<path class="st1" d="M108.25,32.12c-1.06,0-1.88-0.29-2.47-0.86c-0.59-0.58-0.88-1.36-0.88-2.36v-7.72h1.65v7.72
		c0,0.56,0.14,1,0.44,1.31c0.29,0.31,0.71,0.46,1.26,0.46c0.54,0,0.96-0.15,1.26-0.46c0.3-0.31,0.45-0.74,0.45-1.31v-7.72h1.64v7.72
		c0,1.01-0.29,1.8-0.88,2.37C110.13,31.84,109.31,32.12,108.25,32.12z"/>
	<path class="st1" d="M113.38,22.66v-1.48h7.74v1.48h-3.03v9.31h-1.68v-9.31H113.38z"/>
	<path class="st1" d="M126.25,32.12c-0.53,0-1.01-0.08-1.43-0.23s-0.79-0.38-1.09-0.66c-0.3-0.28-0.53-0.63-0.7-1.03
		c-0.17-0.41-0.25-0.85-0.25-1.34v-4.56c0-0.5,0.08-0.95,0.25-1.35c0.16-0.4,0.4-0.74,0.7-1.03c0.3-0.28,0.66-0.5,1.09-0.66
		c0.42-0.16,0.9-0.23,1.43-0.23c0.53,0,1.01,0.08,1.43,0.23c0.42,0.15,0.79,0.38,1.09,0.66c0.3,0.29,0.53,0.63,0.7,1.03
		c0.17,0.4,0.25,0.85,0.25,1.35v4.56c0,0.49-0.08,0.94-0.25,1.34c-0.16,0.4-0.4,0.75-0.7,1.03c-0.31,0.29-0.67,0.51-1.1,0.66
		C127.24,32.05,126.77,32.12,126.25,32.12z M124.44,28.85c0,0.55,0.17,0.99,0.5,1.32c0.33,0.33,0.77,0.49,1.32,0.49
		c0.55,0,0.99-0.17,1.32-0.49c0.33-0.33,0.5-0.77,0.5-1.32v-4.56c0-0.56-0.17-1-0.5-1.33c-0.33-0.33-0.77-0.49-1.32-0.49
		c-0.55,0-0.99,0.16-1.32,0.49c-0.33,0.33-0.5,0.78-0.5,1.33V28.85z"/>
	<path class="st1" d="M132.25,26.27h6v1.5h-6V26.27z"/>
	<path class="st1" d="M140.96,21.17h3.32c1.06,0,1.89,0.25,2.49,0.75c0.6,0.5,0.9,1.19,0.9,2.07c0,0.65-0.18,1.18-0.55,1.59
		c-0.37,0.41-0.86,0.64-1.48,0.69v0.1c0.69,0.05,1.23,0.3,1.63,0.74c0.4,0.44,0.59,1.03,0.59,1.78c0,0.95-0.31,1.7-0.92,2.25
		c-0.61,0.55-1.46,0.83-2.53,0.83h-3.45V21.17z M144.27,25.73c0.52,0,0.93-0.14,1.24-0.43c0.31-0.29,0.47-0.67,0.47-1.15
		s-0.15-0.86-0.46-1.15c-0.3-0.29-0.72-0.43-1.25-0.43h-1.68v3.15H144.27z M142.58,27.11v3.44h1.71c0.59,0,1.05-0.15,1.38-0.46
		c0.33-0.31,0.5-0.73,0.5-1.27s-0.17-0.96-0.5-1.26c-0.33-0.3-0.79-0.45-1.38-0.45H142.58z"/>
	<path class="st1" d="M153.25,32.12c-1.06,0-1.88-0.29-2.47-0.86s-0.88-1.36-0.88-2.36v-7.72h1.65v7.72c0,0.56,0.14,1,0.44,1.31
		c0.29,0.31,0.71,0.46,1.26,0.46c0.54,0,0.96-0.15,1.26-0.46s0.45-0.74,0.45-1.31v-7.72h1.63v7.72c0,1.01-0.29,1.8-0.88,2.37
		C155.13,31.84,154.31,32.12,153.25,32.12z"/>
	<path class="st1" d="M159.87,21.17l2.01,4.44c0.07,0.15,0.13,0.3,0.17,0.45c0.04,0.15,0.08,0.28,0.11,0.39
		c0.04,0.14,0.07,0.28,0.09,0.4h0.08c0.02-0.13,0.05-0.26,0.09-0.4c0.03-0.11,0.07-0.24,0.11-0.39c0.04-0.15,0.1-0.3,0.16-0.45
		l1.95-4.44h1.74l-3.3,7.05v3.75h-1.65v-3.75l-3.3-7.05H159.87z"/>
</g>
<g>
	<path class="st2" d="M60.41,64.45h1.92c0.02,0.53,0.23,0.95,0.61,1.26s0.9,0.46,1.55,0.46c0.68,0,1.2-0.15,1.57-0.45
		c0.37-0.3,0.55-0.71,0.55-1.23c0-0.45-0.14-0.85-0.41-1.19s-0.65-0.59-1.12-0.75l-1.39-0.44c-1-0.29-1.75-0.74-2.24-1.34
		s-0.75-1.34-0.75-2.21c0-0.5,0.09-0.95,0.26-1.36c0.18-0.41,0.43-0.76,0.77-1.05c0.33-0.29,0.74-0.51,1.21-0.67
		c0.47-0.16,0.99-0.24,1.57-0.24c0.57,0,1.08,0.08,1.55,0.23c0.46,0.15,0.86,0.37,1.19,0.66c0.33,0.29,0.59,0.64,0.78,1.05
		c0.19,0.41,0.29,0.86,0.31,1.36h-1.92c-0.01-0.51-0.19-0.92-0.54-1.22c-0.35-0.3-0.82-0.45-1.39-0.45c-0.58,0-1.04,0.14-1.39,0.43
		c-0.35,0.29-0.52,0.69-0.52,1.2c0,0.41,0.13,0.76,0.38,1.06c0.25,0.3,0.65,0.54,1.2,0.71l1.46,0.46c0.94,0.29,1.66,0.75,2.15,1.38
		c0.49,0.62,0.74,1.39,0.74,2.29c0,0.52-0.09,0.99-0.28,1.41s-0.46,0.78-0.81,1.07c-0.35,0.29-0.78,0.52-1.27,0.69
		c-0.5,0.16-1.06,0.25-1.68,0.25c-0.59,0-1.13-0.08-1.62-0.24s-0.92-0.39-1.27-0.68c-0.36-0.29-0.63-0.65-0.83-1.06
		C60.52,65.42,60.42,64.96,60.41,64.45z"/>
	<path class="st2" d="M70.72,61.74c0-0.56,0.09-1.06,0.27-1.5s0.44-0.83,0.78-1.14c0.34-0.31,0.75-0.55,1.24-0.72
		s1.03-0.25,1.63-0.25c0.6,0,1.14,0.08,1.62,0.25c0.48,0.17,0.89,0.41,1.23,0.72c0.34,0.31,0.6,0.69,0.78,1.14s0.27,0.95,0.27,1.5
		v1.72h-5.98v0.66c0,0.67,0.18,1.19,0.55,1.56c0.37,0.37,0.88,0.56,1.52,0.56c0.48,0,0.89-0.07,1.24-0.22
		c0.35-0.15,0.61-0.37,0.77-0.66h1.84c-0.1,0.37-0.27,0.71-0.49,1.01c-0.23,0.3-0.51,0.56-0.84,0.77c-0.33,0.22-0.71,0.38-1.14,0.49
		c-0.42,0.11-0.88,0.17-1.37,0.17c-0.6,0-1.14-0.08-1.62-0.25c-0.48-0.17-0.89-0.41-1.23-0.73c-0.34-0.32-0.6-0.7-0.79-1.15
		s-0.28-0.95-0.28-1.5V61.74z M72.58,62.1h4.15v-0.36c0-0.65-0.18-1.15-0.54-1.51c-0.36-0.36-0.87-0.54-1.53-0.54
		c-0.66,0-1.17,0.18-1.53,0.54c-0.36,0.36-0.54,0.87-0.54,1.51V62.1z"/>
	<path class="st2" d="M80.63,58.29h2.64V55.4h1.87v2.89h3.59v1.68h-3.59v4.98c0,0.31,0.09,0.55,0.27,0.72
		c0.18,0.18,0.44,0.26,0.76,0.26h2.38v1.7h-2.47c-0.87,0-1.56-0.24-2.07-0.73s-0.76-1.14-0.76-1.96v-4.98h-2.64V58.29z"/>
	<path class="st2" d="M105.71,55.4c0.59,0,1.12,0.09,1.61,0.26c0.48,0.18,0.89,0.42,1.23,0.74s0.6,0.7,0.79,1.16
		c0.19,0.45,0.28,0.95,0.28,1.5s-0.09,1.04-0.28,1.5s-0.45,0.84-0.79,1.16c-0.34,0.32-0.75,0.56-1.23,0.74
		c-0.48,0.18-1.02,0.26-1.61,0.26h-2.31v4.93h-1.87V55.4H105.71z M103.4,61.1h2.31c0.61,0,1.1-0.19,1.46-0.56s0.54-0.87,0.54-1.48
		s-0.18-1.1-0.54-1.48s-0.85-0.56-1.46-0.56h-2.31V61.1z"/>
	<path class="st2" d="M111.3,64.97c0-0.91,0.31-1.63,0.94-2.16c0.63-0.53,1.48-0.8,2.56-0.8h2.53v-0.78c0-0.5-0.17-0.89-0.52-1.16
		c-0.35-0.28-0.84-0.42-1.47-0.42c-0.49,0-0.9,0.09-1.24,0.26c-0.34,0.18-0.57,0.42-0.68,0.74h-1.84c0.15-0.78,0.56-1.4,1.24-1.85
		s1.52-0.68,2.53-0.68c1.19,0,2.13,0.27,2.81,0.82c0.69,0.54,1.03,1.29,1.03,2.24v6.46h-1.73v-1.82h-0.14
		c-0.12,0.61-0.46,1.1-0.99,1.45c-0.54,0.36-1.2,0.54-2,0.54c-0.93,0-1.67-0.26-2.22-0.77S111.3,65.84,111.3,64.97z M113.17,64.82
		c0,0.48,0.15,0.84,0.46,1.1c0.31,0.26,0.74,0.39,1.29,0.39c0.35,0,0.67-0.04,0.97-0.14c0.29-0.09,0.55-0.22,0.77-0.38
		c0.21-0.16,0.38-0.36,0.5-0.58c0.12-0.22,0.18-0.46,0.18-0.72v-1.17h-2.52c-0.51,0-0.91,0.13-1.21,0.39
		C113.32,63.98,113.17,64.35,113.17,64.82z"/>
	<path class="st2" d="M124.05,58.29v1.62h0.15c0.12-0.57,0.42-1.01,0.88-1.32c0.46-0.31,1.03-0.47,1.73-0.47
		c1,0,1.78,0.31,2.35,0.93c0.57,0.62,0.85,1.48,0.85,2.58v0.61h-1.92v-0.43c0-0.66-0.18-1.17-0.53-1.54
		c-0.35-0.37-0.83-0.55-1.44-0.55c-0.6,0-1.08,0.19-1.43,0.56s-0.53,0.88-0.53,1.53v5.83h-1.87v-9.35H124.05z"/>
	<path class="st2" d="M131.7,64.97c0-0.91,0.31-1.63,0.94-2.16c0.63-0.53,1.48-0.8,2.56-0.8h2.53v-0.78c0-0.5-0.17-0.89-0.52-1.16
		c-0.35-0.28-0.84-0.42-1.47-0.42c-0.49,0-0.9,0.09-1.24,0.26c-0.34,0.18-0.57,0.42-0.68,0.74h-1.84c0.15-0.78,0.56-1.4,1.24-1.85
		c0.68-0.45,1.52-0.68,2.53-0.68c1.19,0,2.13,0.27,2.81,0.82c0.69,0.54,1.03,1.29,1.03,2.24v6.46h-1.73v-1.82h-0.14
		c-0.12,0.61-0.46,1.1-0.99,1.45c-0.54,0.36-1.21,0.54-2,0.54c-0.93,0-1.67-0.26-2.22-0.77S131.7,65.84,131.7,64.97z M133.57,64.82
		c0,0.48,0.15,0.84,0.46,1.1s0.74,0.39,1.29,0.39c0.35,0,0.67-0.04,0.97-0.14s0.55-0.22,0.77-0.38c0.21-0.16,0.38-0.36,0.5-0.58
		c0.12-0.22,0.18-0.46,0.18-0.72v-1.17h-2.52c-0.51,0-0.91,0.13-1.21,0.39C133.72,63.98,133.57,64.35,133.57,64.82z"/>
	<path class="st2" d="M141.88,67.64v-9.35h1.55v1.38h0.14c0.03-0.49,0.18-0.87,0.45-1.14c0.27-0.27,0.63-0.41,1.08-0.41
		c0.43,0,0.77,0.13,1.02,0.39c0.25,0.26,0.43,0.65,0.54,1.16h0.12c0.03-0.49,0.19-0.87,0.46-1.14c0.27-0.27,0.64-0.41,1.1-0.41
		c0.57,0,1.02,0.21,1.37,0.64c0.34,0.42,0.52,1.01,0.52,1.76v7.12h-1.72v-7.04c0-0.36-0.07-0.64-0.22-0.83
		c-0.15-0.19-0.36-0.29-0.65-0.29c-0.6,0-0.9,0.4-0.9,1.19v6.97h-1.38v-7.04c0-0.36-0.08-0.64-0.24-0.83
		c-0.16-0.19-0.39-0.29-0.68-0.29c-0.59,0-0.88,0.4-0.88,1.19v6.97H141.88z"/>
	<path class="st2" d="M152.32,61.74c0-0.56,0.09-1.06,0.27-1.5c0.18-0.45,0.44-0.83,0.78-1.14c0.34-0.31,0.75-0.55,1.24-0.72
		s1.03-0.25,1.63-0.25s1.14,0.08,1.62,0.25c0.48,0.17,0.89,0.41,1.23,0.72c0.34,0.31,0.6,0.69,0.78,1.14
		c0.18,0.45,0.27,0.95,0.27,1.5v1.72h-5.98v0.66c0,0.67,0.18,1.19,0.55,1.56s0.88,0.56,1.52,0.56c0.48,0,0.89-0.07,1.24-0.22
		c0.35-0.15,0.61-0.37,0.76-0.66h1.84c-0.1,0.37-0.27,0.71-0.49,1.01c-0.23,0.3-0.51,0.56-0.84,0.77c-0.33,0.22-0.71,0.38-1.14,0.49
		c-0.42,0.11-0.88,0.17-1.37,0.17c-0.6,0-1.14-0.08-1.62-0.25c-0.48-0.17-0.89-0.41-1.23-0.73c-0.34-0.32-0.6-0.7-0.79-1.15
		c-0.19-0.45-0.28-0.95-0.28-1.5V61.74z M154.18,62.1h4.15v-0.36c0-0.65-0.18-1.15-0.54-1.51c-0.36-0.36-0.87-0.54-1.53-0.54
		s-1.17,0.18-1.53,0.54c-0.36,0.36-0.54,0.87-0.54,1.51V62.1z"/>
	<path class="st2" d="M162.23,58.29h2.63V55.4h1.87v2.89h3.59v1.68h-3.59v4.98c0,0.31,0.09,0.55,0.27,0.72
		c0.18,0.18,0.44,0.26,0.76,0.26h2.38v1.7h-2.46c-0.87,0-1.56-0.24-2.07-0.73s-0.76-1.14-0.76-1.96v-4.98h-2.63V58.29z"/>
	<path class="st2" d="M172.72,61.74c0-0.56,0.09-1.06,0.27-1.5c0.18-0.45,0.44-0.83,0.78-1.14c0.34-0.31,0.75-0.55,1.24-0.72
		s1.03-0.25,1.63-0.25s1.14,0.08,1.62,0.25c0.48,0.17,0.89,0.41,1.23,0.72c0.34,0.31,0.6,0.69,0.78,1.14
		c0.18,0.45,0.27,0.95,0.27,1.5v1.72h-5.98v0.66c0,0.67,0.18,1.19,0.55,1.56s0.88,0.56,1.52,0.56c0.48,0,0.89-0.07,1.24-0.22
		c0.35-0.15,0.61-0.37,0.77-0.66h1.84c-0.1,0.37-0.27,0.71-0.49,1.01c-0.23,0.3-0.51,0.56-0.84,0.77c-0.33,0.22-0.71,0.38-1.14,0.49
		s-0.88,0.17-1.37,0.17c-0.6,0-1.14-0.08-1.62-0.25s-0.89-0.41-1.23-0.73s-0.6-0.7-0.79-1.15c-0.19-0.45-0.28-0.95-0.28-1.5V61.74z
		 M174.58,62.1h4.15v-0.36c0-0.65-0.18-1.15-0.54-1.51c-0.36-0.36-0.87-0.54-1.53-0.54s-1.17,0.18-1.53,0.54
		c-0.36,0.36-0.54,0.87-0.54,1.51V62.1z"/>
	<path class="st2" d="M185.25,58.29v1.62h0.15c0.12-0.57,0.42-1.01,0.88-1.32c0.46-0.31,1.03-0.47,1.73-0.47
		c1,0,1.78,0.31,2.35,0.93c0.57,0.62,0.85,1.48,0.85,2.58v0.61h-1.92v-0.43c0-0.66-0.18-1.17-0.53-1.54
		c-0.35-0.37-0.83-0.55-1.45-0.55c-0.6,0-1.08,0.19-1.43,0.56s-0.53,0.88-0.53,1.53v5.83h-1.87v-9.35H185.25z"/>
	<path class="st2" d="M193.07,65.3h1.94c0.07,0.31,0.26,0.55,0.57,0.73c0.31,0.18,0.69,0.27,1.15,0.27h0.61
		c0.56,0,0.99-0.11,1.3-0.34c0.31-0.23,0.47-0.54,0.47-0.94c0-0.68-0.5-1.09-1.5-1.22l-1.36-0.19c-1.01-0.14-1.75-0.43-2.24-0.88
		s-0.72-1.08-0.72-1.9c0-0.86,0.3-1.53,0.91-2.01c0.61-0.48,1.47-0.71,2.59-0.71h0.6c0.99,0,1.79,0.22,2.41,0.65
		c0.62,0.44,0.98,1.03,1.1,1.78h-1.92c-0.07-0.28-0.24-0.51-0.53-0.67c-0.28-0.16-0.63-0.25-1.05-0.25h-0.6
		c-0.53,0-0.94,0.1-1.22,0.3s-0.42,0.5-0.42,0.89c0,0.33,0.1,0.58,0.31,0.77c0.21,0.18,0.55,0.3,1.01,0.36l1.39,0.19
		c1.07,0.15,1.85,0.45,2.35,0.9s0.75,1.1,0.75,1.94c0,0.91-0.31,1.61-0.93,2.1c-0.62,0.49-1.52,0.74-2.69,0.74h-0.61
		c-1.04,0-1.89-0.22-2.54-0.67S193.16,66.08,193.07,65.3z"/>
</g>
<g>
	<path class="st3" d="M119.22,135.56H17.68c-2.76,0-5-2.24-5-5v-17.74c0-2.76,2.24-5,5-5h101.54c2.76,0,5,2.24,5,5v17.74
		C124.22,133.32,121.98,135.56,119.22,135.56z"/>
	<path class="st3" d="M245.39,135.56H143.84c-2.76,0-5-2.24-5-5v-17.74c0-2.76,2.24-5,5-5h101.54c2.76,0,5,2.24,5,5v17.74
		C250.39,133.32,248.15,135.56,245.39,135.56z"/>
	<path class="st3" d="M240.31,130.71h-32.04c-1.92,0-3.47-1.55-3.47-3.47v-10.57c0-1.92,1.55-3.47,3.47-3.47h32.04
		c1.92,0,3.47,1.55,3.47,3.47v10.57C243.78,129.16,242.23,130.71,240.31,130.71z"/>
</g>
<g>
	<path class="st4" d="M18.55,93.12v-1.19h6.19v1.19h-2.42v7.45h-1.34v-7.45H18.55z"/>
	<path class="st4" d="M27.98,91.94h1.8l2.27,8.64h-1.37l-0.55-2.29h-2.58L27,100.58h-1.36L27.98,91.94z M29.87,97.23l-0.78-3.24
		c-0.04-0.15-0.07-0.3-0.1-0.44c-0.02-0.14-0.04-0.27-0.06-0.38c-0.02-0.13-0.03-0.25-0.05-0.36h-0.06
		c-0.02,0.11-0.04,0.23-0.06,0.36c-0.02,0.11-0.04,0.24-0.07,0.38c-0.03,0.14-0.06,0.29-0.1,0.44l-0.78,3.24H29.87z"/>
	<path class="st4" d="M34.75,91.94v3.58h1.22l1.79-3.58h1.5l-2.12,4.13l2.23,4.51h-1.51l-1.88-3.89h-1.22v3.89h-1.32v-8.64H34.75z"
		/>
	<path class="st4" d="M40.73,100.58v-8.64h5.22v1.18h-3.9v2.44h3.48v1.18h-3.48v2.68h3.9v1.18H40.73z"/>
	<path class="st4" d="M57.97,91.94c0.42,0,0.79,0.06,1.13,0.19c0.34,0.12,0.63,0.3,0.87,0.52c0.24,0.22,0.43,0.5,0.56,0.82
		c0.13,0.32,0.2,0.67,0.2,1.06c0,0.38-0.07,0.74-0.2,1.06c-0.13,0.32-0.32,0.59-0.56,0.82c-0.24,0.22-0.53,0.4-0.87,0.52
		c-0.34,0.12-0.72,0.19-1.13,0.19h-1.63v3.48h-1.32v-8.64H57.97z M56.34,95.96h1.63c0.43,0,0.78-0.13,1.03-0.4
		c0.26-0.26,0.38-0.61,0.38-1.04c0-0.43-0.13-0.78-0.38-1.04c-0.26-0.26-0.6-0.4-1.03-0.4h-1.63V95.96z"/>
	<path class="st4" d="M65.03,91.94c0.42,0,0.79,0.06,1.13,0.19c0.34,0.12,0.63,0.3,0.87,0.52c0.24,0.22,0.43,0.49,0.56,0.8
		c0.13,0.32,0.2,0.67,0.2,1.05c0,0.58-0.15,1.08-0.44,1.5c-0.3,0.42-0.7,0.71-1.21,0.89l1.78,3.7h-1.49l-1.61-3.52h-1.27v3.52h-1.31
		v-8.64H65.03z M63.54,95.96h1.49c0.43,0,0.78-0.13,1.03-0.39c0.26-0.26,0.38-0.61,0.38-1.04c0-0.44-0.13-0.79-0.38-1.06
		c-0.26-0.26-0.6-0.4-1.03-0.4h-1.49V95.96z"/>
	<path class="st4" d="M72.05,100.7c-0.42,0-0.81-0.06-1.15-0.19c-0.34-0.12-0.63-0.3-0.87-0.53c-0.24-0.23-0.43-0.5-0.56-0.83
		c-0.13-0.32-0.2-0.68-0.2-1.07v-3.65c0-0.4,0.07-0.76,0.2-1.08c0.13-0.32,0.32-0.59,0.56-0.82c0.24-0.23,0.53-0.4,0.87-0.53
		c0.34-0.12,0.72-0.19,1.15-0.19c0.42,0,0.81,0.06,1.15,0.19c0.34,0.12,0.63,0.3,0.87,0.53c0.24,0.23,0.43,0.5,0.56,0.82
		c0.13,0.32,0.2,0.68,0.2,1.08v3.65c0,0.39-0.07,0.75-0.2,1.07c-0.13,0.32-0.32,0.6-0.56,0.83c-0.24,0.23-0.54,0.4-0.88,0.53
		C72.84,100.63,72.46,100.7,72.05,100.7z M70.6,98.08c0,0.44,0.13,0.79,0.4,1.06c0.26,0.26,0.62,0.4,1.06,0.4s0.79-0.13,1.06-0.4
		c0.26-0.26,0.4-0.62,0.4-1.06v-3.65c0-0.45-0.13-0.8-0.4-1.07c-0.26-0.26-0.62-0.4-1.06-0.4s-0.79,0.13-1.06,0.4
		s-0.4,0.62-0.4,1.07V98.08z"/>
	<path class="st4" d="M76.69,91.92h5.32v1.2h-4.02v2.47h3.71v1.2h-3.68v3.78h-1.32V91.92z"/>
	<path class="st4" d="M83.9,93.09v-1.15h5.09v1.15h-1.87v6.34h1.87v1.15H83.9v-1.15h1.87v-6.34H83.9z"/>
	<path class="st4" d="M90.55,93.12v-1.19h6.19v1.19h-2.42v7.45h-1.34v-7.45H90.55z"/>
	<path class="st4" d="M107.18,91.94h1.8l2.27,8.64h-1.37l-0.55-2.29h-2.58l-0.55,2.29h-1.36L107.18,91.94z M109.07,97.23l-0.78-3.24
		c-0.04-0.15-0.07-0.3-0.1-0.44c-0.02-0.14-0.04-0.27-0.06-0.38c-0.02-0.13-0.03-0.25-0.05-0.36h-0.06
		c-0.02,0.11-0.04,0.23-0.06,0.36c-0.02,0.11-0.04,0.24-0.07,0.38c-0.03,0.14-0.06,0.29-0.1,0.44l-0.78,3.24H109.07z"/>
	<path class="st4" d="M112.15,93.12v-1.19h6.19v1.19h-2.42v7.45h-1.34v-7.45H112.15z"/>
</g>
<g>
	<path class="st4" d="M159.36,98.2h1.36c0.02,0.38,0.16,0.67,0.43,0.89c0.27,0.22,0.64,0.32,1.09,0.32c0.48,0,0.85-0.11,1.11-0.32
		s0.39-0.5,0.39-0.87c0-0.32-0.1-0.6-0.29-0.84c-0.19-0.24-0.46-0.42-0.79-0.53l-0.98-0.31c-0.7-0.21-1.23-0.52-1.58-0.95
		c-0.35-0.42-0.53-0.94-0.53-1.56c0-0.35,0.06-0.67,0.19-0.96s0.3-0.53,0.54-0.74c0.24-0.2,0.52-0.36,0.85-0.47s0.7-0.17,1.11-0.17
		c0.4,0,0.76,0.05,1.09,0.16c0.33,0.11,0.61,0.26,0.84,0.47c0.23,0.2,0.42,0.45,0.55,0.74s0.21,0.61,0.22,0.96h-1.36
		c-0.01-0.36-0.14-0.65-0.38-0.86c-0.25-0.21-0.58-0.32-0.98-0.32s-0.73,0.1-0.98,0.31s-0.37,0.49-0.37,0.85
		c0,0.29,0.09,0.54,0.27,0.75s0.46,0.38,0.85,0.5l1.03,0.32c0.66,0.21,1.17,0.53,1.52,0.97c0.35,0.44,0.52,0.98,0.52,1.62
		c0,0.37-0.07,0.7-0.2,1c-0.13,0.3-0.32,0.55-0.57,0.76s-0.55,0.37-0.9,0.49c-0.35,0.12-0.75,0.17-1.19,0.17
		c-0.42,0-0.8-0.06-1.15-0.17c-0.35-0.11-0.65-0.27-0.9-0.48c-0.25-0.21-0.45-0.46-0.59-0.75C159.44,98.89,159.37,98.56,159.36,98.2
		z"/>
	<path class="st4" d="M166.89,100.46v-8.64h5.22v1.18h-3.9v2.44h3.48v1.18h-3.48v2.68h3.9v1.18H166.89z"/>
	<path class="st4" d="M175.56,91.82v7.43h3.9v1.21h-5.22v-8.64H175.56z"/>
	<path class="st4" d="M182.76,91.82v7.43h3.9v1.21h-5.22v-8.64H182.76z"/>
	<path class="st4" d="M198.54,91.82c0.42,0,0.79,0.06,1.13,0.19s0.63,0.3,0.87,0.52c0.24,0.22,0.43,0.5,0.56,0.82
		c0.13,0.32,0.2,0.67,0.2,1.06c0,0.38-0.07,0.74-0.2,1.06c-0.13,0.32-0.32,0.59-0.56,0.82c-0.24,0.22-0.53,0.4-0.87,0.52
		s-0.72,0.19-1.13,0.19h-1.63v3.48h-1.32v-8.64H198.54z M196.91,95.84h1.63c0.43,0,0.78-0.13,1.03-0.4
		c0.26-0.26,0.38-0.61,0.38-1.04c0-0.43-0.13-0.78-0.38-1.04c-0.26-0.26-0.6-0.4-1.03-0.4h-1.63V95.84z"/>
	<path class="st4" d="M205.59,91.82c0.42,0,0.79,0.06,1.13,0.19s0.63,0.3,0.87,0.52c0.24,0.22,0.43,0.49,0.56,0.8
		c0.13,0.32,0.2,0.67,0.2,1.05c0,0.58-0.15,1.08-0.44,1.5c-0.3,0.42-0.7,0.71-1.21,0.89l1.78,3.7h-1.49l-1.61-3.52h-1.27v3.52h-1.31
		v-8.64H205.59z M204.11,95.84h1.49c0.43,0,0.78-0.13,1.03-0.39c0.26-0.26,0.38-0.61,0.38-1.04c0-0.44-0.13-0.79-0.38-1.06
		c-0.26-0.26-0.6-0.4-1.03-0.4h-1.49V95.84z"/>
	<path class="st4" d="M210.07,92.97v-1.15h5.09v1.15h-1.87v6.34h1.87v1.15h-5.09V99.3h1.87v-6.34H210.07z"/>
	<path class="st4" d="M219.87,100.58c-0.42,0-0.79-0.06-1.13-0.19c-0.34-0.12-0.63-0.3-0.87-0.53c-0.24-0.23-0.43-0.5-0.56-0.83
		s-0.2-0.68-0.2-1.07v-3.65c0-0.4,0.07-0.76,0.2-1.08c0.13-0.32,0.32-0.59,0.56-0.82c0.24-0.23,0.53-0.4,0.87-0.53
		s0.72-0.19,1.15-0.19c0.8,0,1.44,0.22,1.93,0.66c0.49,0.44,0.76,1.04,0.83,1.8h-1.32c-0.04-0.41-0.19-0.72-0.44-0.95
		s-0.59-0.34-1-0.34c-0.45,0-0.8,0.13-1.06,0.38c-0.26,0.26-0.39,0.61-0.39,1.06v3.65c0,0.45,0.13,0.8,0.38,1.06
		c0.25,0.26,0.61,0.38,1.06,0.38c0.42,0,0.76-0.11,1.01-0.34c0.25-0.23,0.4-0.54,0.44-0.94h1.32c-0.03,0.38-0.12,0.72-0.26,1.02
		c-0.14,0.3-0.33,0.56-0.57,0.77s-0.52,0.38-0.85,0.49C220.64,100.52,220.27,100.58,219.87,100.58z"/>
	<path class="st4" d="M224.49,100.46v-8.64h5.22v1.18h-3.9v2.44h3.48v1.18h-3.48v2.68h3.9v1.18H224.49z"/>
</g>
<g class="st5">
	<g>
		<path class="st4" d="M217.58,124.53c-0.57,0-1-0.15-1.32-0.46c-0.31-0.31-0.47-0.73-0.47-1.26v-4.12h0.88v4.12
			c0,0.3,0.08,0.53,0.23,0.7c0.16,0.17,0.38,0.25,0.67,0.25c0.29,0,0.51-0.08,0.67-0.25c0.16-0.17,0.24-0.4,0.24-0.7v-4.12h0.87
			v4.12c0,0.54-0.16,0.96-0.47,1.26C218.59,124.38,218.15,124.53,217.58,124.53z"/>
		<path class="st4" d="M220.48,122.95h0.9c0.01,0.25,0.11,0.45,0.29,0.59c0.18,0.14,0.42,0.22,0.73,0.22c0.32,0,0.57-0.07,0.74-0.21
			c0.17-0.14,0.26-0.33,0.26-0.58c0-0.21-0.06-0.4-0.19-0.56s-0.3-0.28-0.53-0.35l-0.66-0.21c-0.47-0.14-0.82-0.35-1.06-0.63
			c-0.24-0.28-0.35-0.63-0.35-1.04c0-0.23,0.04-0.45,0.12-0.64s0.2-0.36,0.36-0.49s0.35-0.24,0.57-0.32
			c0.22-0.08,0.47-0.11,0.74-0.11c0.27,0,0.51,0.04,0.73,0.11c0.22,0.07,0.41,0.18,0.56,0.31s0.28,0.3,0.37,0.49
			c0.09,0.19,0.14,0.41,0.14,0.64h-0.9c-0.01-0.24-0.09-0.43-0.26-0.57c-0.17-0.14-0.38-0.21-0.66-0.21c-0.27,0-0.49,0.07-0.65,0.2
			s-0.24,0.32-0.24,0.56c0,0.19,0.06,0.36,0.18,0.5c0.12,0.14,0.31,0.25,0.56,0.33l0.69,0.22c0.44,0.14,0.78,0.35,1.01,0.65
			c0.23,0.29,0.35,0.65,0.35,1.08c0,0.25-0.04,0.47-0.13,0.66s-0.21,0.37-0.38,0.5s-0.37,0.25-0.6,0.32
			c-0.24,0.08-0.5,0.12-0.79,0.12c-0.28,0-0.53-0.04-0.76-0.11c-0.23-0.07-0.43-0.18-0.6-0.32s-0.3-0.31-0.39-0.5
			C220.53,123.4,220.48,123.19,220.48,122.95z"/>
		<path class="st4" d="M225.42,118.69h1.7c0.29,0,0.55,0.04,0.78,0.13s0.43,0.21,0.6,0.36s0.3,0.35,0.39,0.57
			c0.09,0.22,0.14,0.47,0.14,0.73v2.17c0,0.27-0.05,0.52-0.14,0.74c-0.09,0.22-0.22,0.41-0.39,0.57s-0.37,0.28-0.6,0.36
			s-0.49,0.13-0.78,0.13h-1.7V118.69z M226.3,123.65h0.82c0.3,0,0.55-0.09,0.74-0.27c0.19-0.18,0.28-0.42,0.28-0.73v-2.17
			c0-0.3-0.09-0.54-0.28-0.72c-0.19-0.18-0.43-0.27-0.74-0.27h-0.82V123.65z"/>
		<path class="st4" d="M229.92,119.48v-0.79h4.13v0.79h-1.62v4.97h-0.9v-4.97H229.92z"/>
	</g>
</g>
</svg>
