<?xml version="1.0" encoding="utf-8"?>
<!-- Generator: Adobe Illustrator 27.3.1, SVG Export Plug-In . SVG Version: 6.00 Build 0)  -->
<svg version="1.1" id="Layer_1" xmlns="http://www.w3.org/2000/svg" xmlns:xlink="http://www.w3.org/1999/xlink" x="0px" y="0px"
	 viewBox="0 0 500 500" style="enable-background:new 0 0 500 500;" xml:space="preserve">
<style type="text/css">
	.st0{fill:url(#SVGID_1_);}
	.st1{fill:#FFFFFF;}
	.st2{fill:url(#SVGID_00000065070354365908590470000016935331527892169637_);}
</style>
<g>
	<linearGradient id="SVGID_1_" gradientUnits="userSpaceOnUse" x1="519.0135" y1="653.0128" x2="168.9218" y2="128.5357">
		<stop  offset="0" style="stop-color:#F7DB31"/>
		<stop  offset="0.1991" style="stop-color:#F4B840"/>
		<stop  offset="0.6344" style="stop-color:#EB4F58"/>
		<stop  offset="1" style="stop-color:#E9355E"/>
	</linearGradient>
	<circle class="st0" cx="250" cy="250" r="250"/>
	<g>
		<path class="st1" d="M234.72,178.57c-66.45,81.78,1.42,164.28,1.37,169.23c0,0-48.71-48.66-36.99-114.65
			c9.96-56.04,36.99-67.05,36.99-67.05s-50.19,12.55-90.62,63.66c21.84-14.87,23.24-12.55,23.24-12.55s-44.61,32.53-31.6,87.83
			c0.93-12.08,6.04-19.98,6.04-19.98s-1.86,52.51,75.28,73.89c-23.19-22-63.26-90.62-23.24-151.49c0,0-28.15,50.79,4.61,110.73
			c32.76,59.94,59.5,67.82,60.42,92.81c30.24-21.84,37.21-65.52,13.04-100.38c16.73,15.8,20.64,27.88,20.64,27.88
			c2.02-14.74-2.45-31.38-18.6-51.2c-16.15-19.83-20.11-42.75-12.08-56.69c0,0-22.43,15.9-3,51.2
			c-13.44-13.48-16.7-26.02-16.7-26.02s-7.9,14.62,7.9,44.95C267.22,331.07,193.36,258.96,234.72,178.57z"/>
		<path class="st1" d="M365.27,212.73c0,0-2.79-29.43-34.39-39.96c15.8-20.14-15.8-60.41-48.33-66.92
			c20.14,1.55,32.84,10.22,38.73,16.73c-9.29-20.76-35.05-38.73-70.66-32.22c-35.6,6.51,3.12,18.28,3.74,27.88
			c0.62,9.6-53.91-1.24-64.13-22.31c-17.35,17.97,4.03,29.12,3.41,35.32c-0.62,6.2-40.27,14.87-38.42,37.18
			c1.86,22.31,31.91,12.7,57.31-0.93c25.4-13.63,55.15-13.94,73.11,0c17.97,13.94,35.32,14.25,35.32,14.25s-18.59,2.48-29.12-2.79
			c-4.03,14.56-31.8,18.28-43.68-0.93c-11.77,6.82-14.56,28.5,9.91,34.7c24.47,6.2,25.4,17.04,22.93,33.46
			c-1.86-14.56-6.94-17.74-6.94-17.74s-23.86,24.23,16.46,58.57c29.08,24.77,42.84-11.25,36.96-28.98
			c6.82,14.49,2.35,26.48-0.75,32.37c18.59-11.15,18.41-62.8-8.86-81.7C338.63,205.6,361.87,208.08,365.27,212.73z"/>
		<path class="st1" d="M254.36,167.03c0,0,15.8-3.41,32.06,10.22C279.77,185.15,260.41,187.94,254.36,167.03z"/>
		
			<linearGradient id="SVGID_00000004512661181757092880000016827736995732022934_" gradientUnits="userSpaceOnUse" x1="548.3881" y1="414.1644" x2="188.878" y2="101.4198">
			<stop  offset="0" style="stop-color:#F7DB31"/>
			<stop  offset="0.1991" style="stop-color:#F4B840"/>
			<stop  offset="0.6344" style="stop-color:#EB4F58"/>
			<stop  offset="1" style="stop-color:#E9355E"/>
		</linearGradient>
		<circle style="fill:url(#SVGID_00000004512661181757092880000016827736995732022934_);" cx="270.4" cy="172.33" r="6.23"/>
	</g>
</g>
</svg>
