<?xml version="1.0" encoding="utf-8"?>
<!-- Generator: Adobe Illustrator 27.3.1, SVG Export Plug-In . SVG Version: 6.00 Build 0)  -->
<svg version="1.1" id="Layer_1" xmlns="http://www.w3.org/2000/svg" xmlns:xlink="http://www.w3.org/1999/xlink" x="0px" y="0px"
	 viewBox="0 0 221.38 50" style="enable-background:new 0 0 221.38 50;" xml:space="preserve">
<style type="text/css">
	.st0{fill:#FFFFFF;}
	.st1{fill:url(#SVGID_1_);}
	.st2{fill:url(#SVGID_00000152964064107130958210000010746624836854718636_);}
	.st3{fill:url(#SVGID_00000014631952884538505810000002653211868260078505_);}
</style>
<g>
	<path class="st0" d="M77.48,27.03c-0.65,2.64-2.03,4.77-4.14,6.4c-2.09,1.62-4.49,2.43-7.22,2.43c-3.28,0-6.07-1.13-8.38-3.38
		c-2.31-2.26-3.47-5.04-3.47-8.32c0-3.27,1.15-6.03,3.44-8.29c2.28-2.22,5.06-3.34,8.35-3.34c4.27,0,7.57,1.76,9.89,5.28
		c0.81,1.22,1.32,2.44,1.53,3.68h-6.02c-1-2.61-2.81-3.91-5.43-3.91c-1.77,0-3.23,0.66-4.37,1.97c-1.1,1.27-1.65,2.79-1.65,4.58
		c0,1.81,0.55,3.36,1.65,4.64c1.16,1.36,2.62,2.05,4.4,2.05c2.45,0,4.25-1.26,5.4-3.79H77.48z"/>
	<path class="st0" d="M93.54,35.44v-8.98h-7.35v8.98h-5.74V12.97h5.74v8.45h7.35v-8.45h5.74v22.47H93.54z"/>
	<path class="st0" d="M103.34,35.44V12.97h5.74v22.47H103.34z"/>
	<path class="st0" d="M125.68,35.44l-6.14-9.71h-0.06v9.71h-5.74V12.97h5.74v10.11h0.06l6.35-10.11h6.02l-7.44,11.21l7.92,11.27
		H125.68z"/>
	<path class="st0" d="M147.99,35.44l-1.1-3.25h-7.8l-1.19,3.25h-6.17l9.01-22.47h4.52l8.94,22.47H147.99z M143.07,19.96h-0.09
		l-2.31,7.68h4.71L143.07,19.96z"/>
	<path class="st0" d="M171,33.5c-1.04,0.89-2.19,1.46-3.45,1.71c-0.52,0.11-1.14,0.18-1.84,0.21c-0.29,0.01-0.62,0.02-0.99,0.03
		h-8.2V12.97h6.92c0.87,0,1.53,0.01,1.99,0.04c0.72,0.04,1.35,0.12,1.9,0.25c1.34,0.31,2.45,0.94,3.31,1.9
		c0.89,0.98,1.33,2.21,1.33,3.71c0,2.04-0.87,3.54-2.61,4.52c2.47,0.85,3.71,2.59,3.71,5.22C173.06,30.7,172.37,32.33,171,33.5z
		 M165.79,18.33c-0.36-0.22-0.88-0.33-1.57-0.33h-2.21v3.5h2.18c1.52,0,2.28-0.6,2.28-1.79C166.47,19.06,166.25,18.6,165.79,18.33z
		 M166.73,26.66c-0.44-0.24-1.05-0.36-1.84-0.36h-2.88v4.09h2.85c0.81,0,1.44-0.15,1.88-0.45c0.54-0.37,0.82-0.93,0.82-1.7
		C167.56,27.51,167.28,26.98,166.73,26.66z"/>
	<path class="st0" d="M195.41,32.53c-2.3,2.22-5.11,3.33-8.42,3.33c-3.22,0-5.98-1.09-8.29-3.28c-2.35-2.21-3.53-4.92-3.53-8.11
		c0-1.7,0.29-3.3,0.87-4.8c0.31-0.8,0.8-1.64,1.47-2.52c2.33-3.07,5.5-4.61,9.5-4.61c3.3,0,6.1,1.12,8.39,3.35
		c2.31,2.24,3.47,5.01,3.47,8.3C198.88,27.5,197.72,30.28,195.41,32.53z M191.48,19.61c-1.18-1.34-2.65-2.02-4.43-2.02
		c-1.8,0-3.28,0.65-4.45,1.96c-1.13,1.26-1.69,2.79-1.69,4.6c0,1.85,0.57,3.41,1.71,4.68c1.18,1.33,2.67,2,4.49,2
		c1.75,0,3.21-0.67,4.37-2.02c1.11-1.27,1.66-2.8,1.66-4.58C193.14,22.42,192.59,20.88,191.48,19.61z"/>
	<path class="st0" d="M210.41,18.01v17.43h-5.74V18.01h-4.43v-5.04h14.57v5.04H210.41z"/>
</g>
<linearGradient id="SVGID_1_" gradientUnits="userSpaceOnUse" x1="1.4466" y1="25" x2="47.6851" y2="25">
	<stop  offset="0" style="stop-color:#EA5959"/>
	<stop  offset="1" style="stop-color:#FF3F5F"/>
</linearGradient>
<path class="st1" d="M45.69,48.12H3.45c-1.1,0-2-0.9-2-2V3.88c0-1.1,0.9-2,2-2h42.24c1.1,0,2,0.9,2,2v42.24
	C47.69,47.22,46.79,48.12,45.69,48.12z"/>
<g>
	<path class="st0" d="M22.95,17.46c-7.02,8.64,0.15,17.35,0.14,17.87c0,0-5.14-5.14-3.91-12.11c1.05-5.92,3.91-7.08,3.91-7.08
		s-5.3,1.33-9.57,6.72c2.31-1.57,2.45-1.33,2.45-1.33s-4.71,3.43-3.34,9.27c0.1-1.28,0.64-2.11,0.64-2.11s-0.2,5.54,7.95,7.8
		c-2.45-2.32-6.68-9.57-2.45-16c0,0-2.97,5.36,0.49,11.69s6.28,7.16,6.38,9.8c3.19-2.31,3.93-6.92,1.38-10.6
		c1.77,1.67,2.18,2.94,2.18,2.94c0.21-1.56-0.26-3.31-1.96-5.41c-1.71-2.09-2.12-4.51-1.28-5.99c0,0-2.37,1.68-0.32,5.41
		c-1.42-1.42-1.76-2.75-1.76-2.75s-0.83,1.54,0.83,4.75C26.38,33.56,18.59,25.95,22.95,17.46z"/>
	<path class="st0" d="M36.74,21.06c0,0-0.29-3.11-3.63-4.22c1.67-2.13-1.67-6.38-5.1-7.07c2.13,0.16,3.47,1.08,4.09,1.77
		c-0.98-2.19-3.7-4.09-7.46-3.4c-3.76,0.69,0.33,1.93,0.39,2.94s-5.69-0.13-6.77-2.36c-1.83,1.9,0.43,3.07,0.36,3.73
		c-0.07,0.65-4.25,1.57-4.06,3.93c0.2,2.36,3.37,1.34,6.05-0.1c2.68-1.44,5.82-1.47,7.72,0c1.9,1.47,3.73,1.5,3.73,1.5
		s-1.96,0.26-3.07-0.29c-0.43,1.54-3.36,1.93-4.61-0.1c-1.24,0.72-1.54,3.01,1.05,3.66s2.68,1.8,2.42,3.53
		c-0.2-1.54-0.73-1.87-0.73-1.87s-2.52,2.56,1.74,6.18c3.07,2.62,4.52-1.19,3.9-3.06c0.72,1.53,0.25,2.8-0.08,3.42
		c1.96-1.18,1.94-6.63-0.94-8.63C33.92,20.31,36.38,20.57,36.74,21.06z"/>
	<path class="st0" d="M25.03,16.24c0,0,1.67-0.36,3.39,1.08C27.71,18.15,25.66,18.45,25.03,16.24z"/>
	
		<linearGradient id="SVGID_00000097480860879636262920000015653636092303742138_" gradientUnits="userSpaceOnUse" x1="56.0735" y1="9.6663" x2="18.1121" y2="42.6896" gradientTransform="matrix(1 0 0 -1 0 52)">
		<stop  offset="0" style="stop-color:#F7DB31"/>
		<stop  offset="0.1991" style="stop-color:#F4B840"/>
		<stop  offset="0.6344" style="stop-color:#EB4F58"/>
		<stop  offset="1" style="stop-color:#E9355E"/>
	</linearGradient>
	<circle style="fill:url(#SVGID_00000097480860879636262920000015653636092303742138_);" cx="26.72" cy="16.8" r="0.66"/>
</g>
</svg>
