<?xml version="1.0" encoding="utf-8"?>
<!-- Generator: Adobe Illustrator 27.3.1, SVG Export Plug-In . SVG Version: 6.00 Build 0)  -->
<svg version="1.1" id="Layer_1" xmlns="http://www.w3.org/2000/svg" xmlns:xlink="http://www.w3.org/1999/xlink" x="0px" y="0px"
	 viewBox="0 0 261.5 151" style="enable-background:new 0 0 261.5 151;" xml:space="preserve">
<style type="text/css">
	.st0{fill:#121212;}
	.st1{fill:#EA5959;}
	.st2{fill:#FFFFFF;}
	.st3{fill:none;stroke:#3B3B3B;stroke-miterlimit:10;}
	.st4{fill:#A9A9A9;}
	.st5{fill-rule:evenodd;clip-rule:evenodd;fill:#747474;}
</style>
<path class="st0" d="M261.5,151H0V5c0-2.76,2.24-5,5-5h251.5c2.76,0,5,2.24,5,5V151z"/>
<g>
	<path class="st1" d="M99.48,21.17c0.52,0,0.99,0.08,1.42,0.23c0.42,0.16,0.79,0.37,1.09,0.65s0.53,0.61,0.7,1
		c0.16,0.4,0.25,0.83,0.25,1.31c0,0.73-0.19,1.35-0.55,1.88c-0.37,0.52-0.88,0.89-1.52,1.11l2.22,4.62h-1.86l-2.01-4.4h-1.59v4.4
		h-1.64v-10.8H99.48z M97.62,26.2h1.86c0.54,0,0.97-0.16,1.29-0.49c0.32-0.32,0.48-0.76,0.48-1.3c0-0.55-0.16-0.99-0.48-1.32
		c-0.32-0.33-0.75-0.5-1.29-0.5h-1.86V26.2z"/>
	<path class="st1" d="M105.1,31.97v-10.8h6.52v1.47h-4.88v3.04h4.35v1.47h-4.35v3.34h4.88v1.47H105.1z"/>
	<path class="st1" d="M113.79,28.85v-4.56c0-0.49,0.08-0.93,0.25-1.33c0.16-0.4,0.4-0.74,0.7-1.02c0.31-0.29,0.67-0.5,1.1-0.66
		c0.42-0.15,0.9-0.23,1.42-0.23c0.97,0,1.76,0.25,2.37,0.74c0.61,0.5,0.99,1.2,1.14,2.11h-1.66c-0.08-0.43-0.28-0.77-0.61-1.01
		c-0.32-0.25-0.74-0.37-1.24-0.37c-0.56,0-1,0.16-1.33,0.47c-0.32,0.31-0.49,0.75-0.49,1.3v4.56c0,0.57,0.16,1.02,0.49,1.33
		c0.33,0.32,0.77,0.48,1.33,0.48s1-0.16,1.33-0.48c0.32-0.32,0.49-0.76,0.49-1.33v-1.14h-2.02v-1.44h3.67v2.58
		c0,0.49-0.08,0.94-0.25,1.34c-0.16,0.4-0.4,0.75-0.7,1.03c-0.3,0.29-0.66,0.51-1.09,0.66c-0.43,0.15-0.9,0.23-1.43,0.23
		c-0.52,0-1-0.08-1.42-0.23c-0.43-0.15-0.8-0.38-1.1-0.66c-0.3-0.28-0.53-0.63-0.7-1.03C113.87,29.79,113.79,29.34,113.79,28.85z"/>
	<path class="st1" d="M123.07,22.61v-1.44h6.36v1.44h-2.34v7.92h2.34v1.44h-6.36v-1.44h2.34v-7.92H123.07z"/>
	<path class="st1" d="M131.68,29.15h1.69c0.02,0.47,0.2,0.84,0.54,1.11s0.79,0.4,1.37,0.4c0.6,0,1.06-0.13,1.39-0.4
		c0.32-0.26,0.49-0.63,0.49-1.09c0-0.4-0.12-0.75-0.36-1.05c-0.24-0.3-0.57-0.52-0.99-0.66l-1.23-0.39
		c-0.88-0.26-1.54-0.65-1.98-1.19c-0.44-0.53-0.66-1.18-0.66-1.95c0-0.44,0.08-0.84,0.23-1.2c0.15-0.36,0.38-0.67,0.67-0.92
		s0.65-0.45,1.07-0.59c0.41-0.14,0.88-0.21,1.39-0.21c0.5,0,0.96,0.07,1.37,0.2c0.41,0.14,0.76,0.33,1.05,0.58s0.52,0.56,0.69,0.92
		c0.17,0.36,0.26,0.76,0.27,1.2h-1.69c-0.01-0.45-0.17-0.81-0.48-1.07c-0.31-0.27-0.72-0.4-1.23-0.4c-0.51,0-0.92,0.13-1.22,0.38
		c-0.31,0.25-0.46,0.61-0.46,1.06c0,0.36,0.11,0.67,0.34,0.94c0.22,0.27,0.58,0.47,1.06,0.62l1.29,0.4c0.83,0.26,1.46,0.67,1.9,1.21
		c0.43,0.55,0.65,1.23,0.65,2.02c0,0.46-0.08,0.88-0.25,1.25c-0.16,0.37-0.4,0.69-0.71,0.95c-0.31,0.26-0.69,0.46-1.12,0.61
		c-0.44,0.14-0.94,0.22-1.49,0.22c-0.52,0-1-0.07-1.43-0.21c-0.43-0.14-0.81-0.34-1.12-0.6c-0.31-0.26-0.56-0.57-0.73-0.94
		C131.78,30.01,131.69,29.6,131.68,29.15z"/>
	<path class="st1" d="M140.38,22.66v-1.48h7.74v1.48h-3.03v9.31h-1.68v-9.31H140.38z"/>
	<path class="st1" d="M150.1,31.97v-10.8h6.53v1.47h-4.88v3.04h4.35v1.47h-4.35v3.34h4.88v1.47H150.1z"/>
	<path class="st1" d="M162.47,21.17c0.52,0,0.99,0.08,1.42,0.23c0.43,0.16,0.79,0.37,1.09,0.65s0.53,0.61,0.7,1
		c0.17,0.4,0.25,0.83,0.25,1.31c0,0.73-0.19,1.35-0.55,1.88c-0.37,0.52-0.88,0.89-1.52,1.11l2.22,4.62h-1.86l-2.01-4.4h-1.59v4.4
		h-1.64v-10.8H162.47z M160.62,26.2h1.86c0.54,0,0.97-0.16,1.29-0.49c0.32-0.32,0.48-0.76,0.48-1.3c0-0.55-0.16-0.99-0.48-1.32
		s-0.75-0.5-1.29-0.5h-1.86V26.2z"/>
</g>
<g>
	<path class="st2" d="M49.24,60.85c-0.59,0-1.12-0.09-1.61-0.26c-0.48-0.18-0.89-0.43-1.23-0.75c-0.34-0.32-0.6-0.71-0.79-1.17
		c-0.19-0.46-0.28-0.97-0.28-1.52v-5.17c0-0.57,0.09-1.08,0.28-1.53c0.19-0.45,0.45-0.84,0.79-1.16c0.34-0.32,0.75-0.57,1.23-0.75
		s1.02-0.26,1.62-0.26c1.13,0,2.04,0.31,2.74,0.94c0.69,0.62,1.08,1.47,1.17,2.55h-1.87c-0.06-0.58-0.26-1.03-0.62-1.34
		c-0.36-0.32-0.83-0.48-1.42-0.48c-0.63,0-1.14,0.18-1.5,0.54c-0.37,0.36-0.55,0.86-0.55,1.5v5.17c0,0.63,0.18,1.13,0.54,1.5
		c0.36,0.36,0.86,0.54,1.5,0.54c0.6,0,1.08-0.16,1.44-0.48c0.36-0.32,0.56-0.77,0.62-1.33h1.87c-0.04,0.53-0.17,1.01-0.37,1.44
		c-0.2,0.43-0.47,0.8-0.81,1.1s-0.74,0.53-1.21,0.7C50.32,60.77,49.8,60.85,49.24,60.85z"/>
	<path class="st2" d="M57.75,51.33v1.62h0.15c0.12-0.57,0.42-1.01,0.88-1.32c0.46-0.31,1.03-0.47,1.73-0.47c1,0,1.78,0.31,2.35,0.93
		c0.57,0.62,0.85,1.48,0.85,2.58v0.61h-1.92v-0.43c0-0.66-0.18-1.17-0.53-1.54c-0.35-0.37-0.83-0.55-1.44-0.55
		c-0.6,0-1.08,0.19-1.43,0.56c-0.35,0.37-0.53,0.88-0.53,1.53v5.83h-1.87v-9.35H57.75z"/>
	<path class="st2" d="M65.62,54.78c0-0.56,0.09-1.06,0.27-1.5c0.18-0.45,0.44-0.83,0.78-1.14c0.34-0.31,0.75-0.55,1.24-0.72
		s1.03-0.25,1.63-0.25c0.6,0,1.14,0.08,1.62,0.25s0.89,0.41,1.23,0.72c0.34,0.31,0.6,0.69,0.78,1.14c0.18,0.45,0.27,0.95,0.27,1.5
		v1.72h-5.98v0.66c0,0.67,0.18,1.19,0.55,1.56c0.37,0.37,0.88,0.56,1.52,0.56c0.48,0,0.89-0.07,1.24-0.22
		c0.35-0.15,0.61-0.37,0.77-0.66h1.84c-0.1,0.37-0.27,0.71-0.49,1.01s-0.51,0.56-0.84,0.77c-0.33,0.22-0.71,0.38-1.14,0.49
		s-0.88,0.17-1.37,0.17c-0.6,0-1.14-0.08-1.62-0.25s-0.89-0.41-1.23-0.73s-0.6-0.7-0.79-1.15c-0.19-0.45-0.28-0.95-0.28-1.5V54.78z
		 M67.48,55.14h4.15v-0.36c0-0.65-0.18-1.15-0.54-1.51c-0.36-0.36-0.87-0.54-1.53-0.54c-0.66,0-1.17,0.18-1.53,0.54
		c-0.36,0.36-0.54,0.87-0.54,1.51V55.14z"/>
	<path class="st2" d="M75.6,58.01c0-0.91,0.31-1.63,0.94-2.16c0.63-0.53,1.48-0.8,2.56-0.8h2.53v-0.78c0-0.5-0.17-0.89-0.52-1.16
		c-0.35-0.28-0.83-0.42-1.47-0.42c-0.49,0-0.9,0.09-1.24,0.26c-0.34,0.18-0.57,0.42-0.68,0.74h-1.84c0.15-0.78,0.56-1.4,1.24-1.85
		c0.68-0.45,1.52-0.68,2.53-0.68c1.19,0,2.13,0.27,2.81,0.82s1.03,1.29,1.03,2.24v6.46h-1.73v-1.82h-0.14
		c-0.12,0.61-0.46,1.1-0.99,1.45c-0.54,0.36-1.2,0.54-2,0.54c-0.93,0-1.67-0.26-2.22-0.77S75.6,58.87,75.6,58.01z M77.47,57.86
		c0,0.48,0.15,0.84,0.46,1.1c0.31,0.26,0.74,0.39,1.29,0.39c0.35,0,0.67-0.04,0.97-0.14c0.29-0.09,0.55-0.22,0.76-0.38
		c0.21-0.16,0.38-0.36,0.5-0.58c0.12-0.22,0.18-0.46,0.18-0.72v-1.17h-2.52c-0.51,0-0.91,0.13-1.21,0.39S77.47,57.38,77.47,57.86z"
		/>
	<path class="st2" d="M85.73,51.33h2.64v-2.89h1.87v2.89h3.59v1.68h-3.59v4.98c0,0.31,0.09,0.55,0.27,0.72s0.44,0.26,0.76,0.26h2.38
		v1.7h-2.47c-0.87,0-1.56-0.24-2.07-0.73c-0.5-0.49-0.76-1.14-0.76-1.96v-4.98h-2.64V51.33z"/>
	<path class="st2" d="M96.22,54.78c0-0.56,0.09-1.06,0.27-1.5c0.18-0.45,0.44-0.83,0.78-1.14c0.34-0.31,0.75-0.55,1.24-0.72
		s1.03-0.25,1.63-0.25s1.14,0.08,1.62,0.25c0.48,0.17,0.89,0.41,1.23,0.72c0.34,0.31,0.6,0.69,0.78,1.14
		c0.18,0.45,0.27,0.95,0.27,1.5v1.72h-5.98v0.66c0,0.67,0.18,1.19,0.55,1.56s0.88,0.56,1.52,0.56c0.48,0,0.89-0.07,1.24-0.22
		c0.35-0.15,0.61-0.37,0.76-0.66h1.84c-0.1,0.37-0.27,0.71-0.49,1.01c-0.23,0.3-0.51,0.56-0.84,0.77c-0.33,0.22-0.71,0.38-1.14,0.49
		c-0.42,0.11-0.88,0.17-1.37,0.17c-0.6,0-1.14-0.08-1.62-0.25c-0.48-0.17-0.89-0.41-1.23-0.73c-0.34-0.32-0.6-0.7-0.79-1.15
		c-0.19-0.45-0.28-0.95-0.28-1.5V54.78z M98.08,55.14h4.15v-0.36c0-0.65-0.18-1.15-0.54-1.51c-0.36-0.36-0.87-0.54-1.53-0.54
		s-1.17,0.18-1.53,0.54c-0.36,0.36-0.54,0.87-0.54,1.51V55.14z"/>
	<path class="st2" d="M119.33,48.44h2.55l3.21,12.24h-1.94l-0.78-3.25h-3.65l-0.78,3.25h-1.92L119.33,48.44z M122,55.94l-1.1-4.59
		c-0.06-0.22-0.1-0.42-0.14-0.62c-0.03-0.2-0.06-0.38-0.08-0.54c-0.02-0.18-0.05-0.35-0.07-0.51h-0.08
		c-0.02,0.16-0.05,0.33-0.08,0.51c-0.02,0.16-0.05,0.34-0.09,0.54c-0.04,0.2-0.09,0.41-0.14,0.62l-1.1,4.59H122z"/>
	<path class="st2" d="M126.99,51.33h1.77v1.62h0.15c0.12-0.58,0.4-1.02,0.83-1.33s0.99-0.46,1.67-0.46c0.49,0,0.92,0.08,1.3,0.25
		c0.38,0.16,0.7,0.39,0.97,0.69c0.27,0.29,0.47,0.65,0.6,1.06s0.2,0.87,0.2,1.37v6.15h-1.87v-5.9c0-0.65-0.16-1.14-0.49-1.5
		c-0.33-0.35-0.78-0.53-1.36-0.53c-0.59,0-1.05,0.19-1.39,0.56s-0.51,0.88-0.51,1.53v5.83h-1.87V51.33z"/>
	<path class="st2" d="M149.93,48.44h2.55l3.21,12.24h-1.94l-0.78-3.25h-3.65l-0.78,3.25h-1.92L149.93,48.44z M152.59,55.94
		l-1.1-4.59c-0.06-0.22-0.1-0.42-0.14-0.62c-0.03-0.2-0.06-0.38-0.08-0.54c-0.02-0.18-0.05-0.35-0.07-0.51h-0.08
		c-0.02,0.16-0.05,0.33-0.08,0.51c-0.02,0.16-0.05,0.34-0.09,0.54c-0.04,0.2-0.09,0.41-0.14,0.62l-1.1,4.59H152.59z"/>
	<path class="st2" d="M161.47,60.85c-0.6,0-1.14-0.08-1.62-0.25c-0.48-0.17-0.89-0.41-1.23-0.73c-0.34-0.32-0.6-0.7-0.78-1.16
		c-0.18-0.45-0.27-0.96-0.27-1.51v-2.38c0-0.55,0.09-1.06,0.27-1.51c0.18-0.45,0.44-0.84,0.78-1.16c0.34-0.32,0.75-0.56,1.23-0.73
		c0.48-0.17,1.02-0.25,1.62-0.25c0.53,0,1.02,0.07,1.47,0.22c0.45,0.15,0.84,0.36,1.18,0.65c0.34,0.28,0.62,0.62,0.84,1.02
		c0.22,0.4,0.37,0.84,0.43,1.34h-1.87c-0.08-0.48-0.31-0.86-0.68-1.16c-0.37-0.29-0.83-0.44-1.38-0.44c-0.65,0-1.15,0.18-1.51,0.54
		c-0.36,0.36-0.54,0.85-0.54,1.49v2.38c0,0.63,0.18,1.13,0.54,1.48c0.36,0.35,0.87,0.53,1.51,0.53c0.54,0,1-0.14,1.38-0.43
		s0.6-0.67,0.68-1.15h1.87c-0.16,1-0.59,1.79-1.28,2.36C163.42,60.56,162.53,60.85,161.47,60.85z"/>
	<path class="st2" d="M171.67,60.85c-0.6,0-1.14-0.08-1.62-0.25s-0.89-0.41-1.23-0.73s-0.6-0.7-0.78-1.16
		c-0.18-0.45-0.27-0.96-0.27-1.51v-2.38c0-0.55,0.09-1.06,0.27-1.51s0.44-0.84,0.78-1.16c0.34-0.32,0.75-0.56,1.23-0.73
		s1.02-0.25,1.62-0.25c0.53,0,1.02,0.07,1.47,0.22c0.45,0.15,0.84,0.36,1.18,0.65s0.62,0.62,0.84,1.02c0.22,0.4,0.37,0.84,0.43,1.34
		h-1.87c-0.08-0.48-0.31-0.86-0.68-1.16c-0.37-0.29-0.83-0.44-1.38-0.44c-0.65,0-1.15,0.18-1.51,0.54s-0.54,0.85-0.54,1.49v2.38
		c0,0.63,0.18,1.13,0.54,1.48s0.87,0.53,1.51,0.53c0.54,0,1-0.14,1.38-0.43s0.6-0.67,0.68-1.15h1.87c-0.16,1-0.59,1.79-1.28,2.36
		C173.62,60.56,172.73,60.85,171.67,60.85z"/>
	<path class="st2" d="M181.75,60.85c-0.6,0-1.14-0.09-1.62-0.26c-0.48-0.18-0.89-0.43-1.23-0.75c-0.34-0.32-0.6-0.71-0.79-1.16
		c-0.19-0.45-0.28-0.96-0.28-1.51v-2.33c0-0.56,0.09-1.06,0.28-1.51c0.19-0.45,0.45-0.84,0.79-1.16c0.34-0.32,0.75-0.57,1.23-0.75
		s1.02-0.26,1.62-0.26c0.6,0,1.14,0.08,1.62,0.25c0.48,0.17,0.89,0.42,1.23,0.74c0.34,0.32,0.6,0.71,0.79,1.16
		c0.19,0.45,0.28,0.96,0.28,1.52v2.35c0,0.56-0.09,1.06-0.27,1.52c-0.18,0.46-0.44,0.85-0.78,1.16c-0.34,0.32-0.75,0.56-1.24,0.74
		C182.89,60.76,182.35,60.85,181.75,60.85z M179.69,57.16c0,0.63,0.18,1.13,0.54,1.5c0.36,0.36,0.87,0.54,1.51,0.54
		c0.63,0,1.14-0.18,1.5-0.54s0.55-0.86,0.55-1.5v-2.33c0-0.63-0.18-1.13-0.55-1.5c-0.37-0.36-0.87-0.54-1.5-0.54
		c-0.63,0-1.14,0.18-1.5,0.54c-0.37,0.36-0.55,0.86-0.55,1.5V57.16z"/>
	<path class="st2" d="M190.11,51.33v5.93c0,1.3,0.61,1.96,1.82,1.96c1.24,0,1.85-0.65,1.85-1.96v-5.93h1.87v5.93
		c0,1.15-0.32,2.03-0.97,2.65c-0.65,0.62-1.56,0.94-2.75,0.94c-1.17,0-2.07-0.31-2.72-0.94c-0.65-0.63-0.97-1.51-0.97-2.64v-5.93
		H190.11z"/>
	<path class="st2" d="M198.39,51.33h1.77v1.62h0.15c0.12-0.58,0.4-1.02,0.83-1.33c0.43-0.31,0.99-0.46,1.67-0.46
		c0.49,0,0.92,0.08,1.3,0.25c0.38,0.16,0.7,0.39,0.97,0.69c0.27,0.29,0.47,0.65,0.6,1.06c0.14,0.41,0.2,0.87,0.2,1.37v6.15h-1.87
		v-5.9c0-0.65-0.17-1.14-0.49-1.5c-0.33-0.35-0.78-0.53-1.36-0.53c-0.59,0-1.05,0.19-1.39,0.56c-0.34,0.37-0.51,0.88-0.51,1.53v5.83
		h-1.87V51.33z"/>
	<path class="st2" d="M208.13,51.33h2.64v-2.89h1.87v2.89h3.59v1.68h-3.59v4.98c0,0.31,0.09,0.55,0.27,0.72
		c0.18,0.18,0.44,0.26,0.76,0.26h2.38v1.7h-2.46c-0.87,0-1.56-0.24-2.07-0.73s-0.76-1.14-0.76-1.96v-4.98h-2.64V51.33z"/>
</g>
<g>
	<path class="st3" d="M197.09,123.5H64.41c-2.76,0-5-2.24-5-5v-38c0-2.76,2.24-5,5-5h132.68c2.76,0,5,2.24,5,5v38
		C202.09,121.27,199.85,123.5,197.09,123.5z"/>
	<g>
		<g>
			<g>
				<path class="st4" d="M91.99,94.49c0.42,0,0.79,0.06,1.13,0.19c0.34,0.12,0.63,0.3,0.87,0.52c0.24,0.22,0.43,0.49,0.56,0.8
					c0.13,0.32,0.2,0.67,0.2,1.05c0,0.58-0.15,1.08-0.44,1.5c-0.3,0.42-0.7,0.71-1.21,0.89l1.78,3.7h-1.49l-1.61-3.52h-1.27v3.52
					H89.2v-8.64H91.99z M90.51,98.51h1.49c0.43,0,0.78-0.13,1.03-0.39c0.26-0.26,0.38-0.61,0.38-1.04c0-0.44-0.13-0.79-0.38-1.06
					c-0.26-0.26-0.6-0.4-1.03-0.4h-1.49V98.51z"/>
				<path class="st4" d="M96.49,103.13v-8.64h5.22v1.18h-3.9v2.44h3.48v1.18h-3.48v2.68h3.9v1.18H96.49z"/>
				<path class="st4" d="M103.44,100.63v-3.65c0-0.39,0.07-0.75,0.2-1.06c0.13-0.32,0.32-0.59,0.56-0.82
					c0.24-0.23,0.54-0.4,0.88-0.53c0.34-0.12,0.72-0.19,1.13-0.19c0.78,0,1.41,0.2,1.9,0.59c0.49,0.4,0.79,0.96,0.91,1.69h-1.33
					c-0.06-0.34-0.23-0.61-0.49-0.81c-0.26-0.2-0.59-0.29-0.99-0.29c-0.45,0-0.8,0.13-1.06,0.38c-0.26,0.25-0.39,0.6-0.39,1.04v3.65
					c0,0.46,0.13,0.81,0.39,1.07c0.26,0.26,0.61,0.38,1.06,0.38c0.45,0,0.8-0.13,1.06-0.38c0.26-0.26,0.39-0.61,0.39-1.07v-0.91
					h-1.62v-1.15h2.94v2.06c0,0.39-0.07,0.75-0.2,1.07c-0.13,0.32-0.32,0.6-0.56,0.83c-0.24,0.23-0.53,0.4-0.87,0.53
					c-0.34,0.12-0.72,0.19-1.15,0.19c-0.42,0-0.8-0.06-1.14-0.19c-0.34-0.12-0.64-0.3-0.88-0.53c-0.24-0.23-0.43-0.5-0.56-0.83
					C103.51,101.38,103.44,101.03,103.44,100.63z"/>
				<path class="st4" d="M110.87,95.64v-1.15h5.09v1.15h-1.87v6.34h1.87v1.15h-5.09v-1.15h1.87v-6.34H110.87z"/>
				<path class="st4" d="M117.76,100.87h1.36c0.02,0.38,0.16,0.67,0.43,0.89c0.27,0.22,0.64,0.32,1.09,0.32
					c0.48,0,0.85-0.11,1.11-0.32s0.39-0.5,0.39-0.87c0-0.32-0.1-0.6-0.29-0.84c-0.19-0.24-0.46-0.42-0.79-0.53l-0.98-0.31
					c-0.7-0.21-1.23-0.52-1.58-0.95c-0.35-0.42-0.53-0.94-0.53-1.56c0-0.35,0.06-0.67,0.19-0.96s0.3-0.53,0.54-0.74
					s0.52-0.36,0.85-0.47s0.7-0.17,1.11-0.17c0.4,0,0.76,0.05,1.09,0.16c0.33,0.11,0.61,0.26,0.84,0.47s0.42,0.45,0.55,0.74
					c0.14,0.29,0.21,0.61,0.22,0.96h-1.36c-0.01-0.36-0.14-0.65-0.38-0.86c-0.25-0.21-0.58-0.32-0.98-0.32
					c-0.41,0-0.73,0.1-0.98,0.31s-0.37,0.49-0.37,0.85c0,0.29,0.09,0.54,0.27,0.75c0.18,0.21,0.46,0.38,0.85,0.5l1.03,0.32
					c0.66,0.21,1.17,0.53,1.52,0.97c0.35,0.44,0.52,0.98,0.52,1.62c0,0.37-0.07,0.7-0.2,1c-0.13,0.3-0.32,0.55-0.57,0.76
					s-0.55,0.37-0.9,0.49c-0.35,0.12-0.75,0.17-1.19,0.17c-0.42,0-0.8-0.06-1.15-0.17c-0.35-0.11-0.65-0.27-0.9-0.48
					c-0.25-0.21-0.45-0.46-0.59-0.75C117.84,101.56,117.77,101.23,117.76,100.87z"/>
				<path class="st4" d="M124.72,95.68v-1.19h6.19v1.19h-2.42v7.45h-1.34v-7.45H124.72z"/>
				<path class="st4" d="M132.49,103.13v-8.64h5.22v1.18h-3.9v2.44h3.48v1.18h-3.48v2.68h3.9v1.18H132.49z"/>
				<path class="st4" d="M142.39,94.49c0.42,0,0.79,0.06,1.13,0.19s0.63,0.3,0.87,0.52c0.24,0.22,0.43,0.49,0.56,0.8
					c0.13,0.32,0.2,0.67,0.2,1.05c0,0.58-0.15,1.08-0.44,1.5s-0.7,0.71-1.21,0.89l1.78,3.7h-1.49l-1.61-3.52h-1.27v3.52h-1.31v-8.64
					H142.39z M140.9,98.51h1.49c0.43,0,0.78-0.13,1.03-0.39c0.26-0.26,0.38-0.61,0.38-1.04c0-0.44-0.13-0.79-0.38-1.06
					c-0.26-0.26-0.6-0.4-1.03-0.4h-1.49V98.51z"/>
			</g>
		</g>
		<path class="st5" d="M173.29,103.02l-0.02-7.37c0.02-0.09-0.04-0.15-0.15-0.15l-7.35,0c-0.07,0-0.15,0.07-0.15,0.15l0.02,1.61
			l4.62,0.02l-4.9,4.9c-0.11,0.11-0.13,0.28-0.02,0.39l0.87,0.87c0.09,0.09,0.28,0.09,0.39-0.02l4.9-4.9l0.02,4.62l1.62,0.02
			C173.21,103.16,173.29,103.09,173.29,103.02L173.29,103.02z"/>
	</g>
</g>
</svg>
