<?xml version="1.0" encoding="utf-8"?>
<!-- Generator: Adobe Illustrator 27.3.1, SVG Export Plug-In . SVG Version: 6.00 Build 0)  -->
<svg version="1.1" id="Layer_1" xmlns="http://www.w3.org/2000/svg" xmlns:xlink="http://www.w3.org/1999/xlink" x="0px" y="0px"
	 viewBox="0 0 261.5 151" style="enable-background:new 0 0 261.5 151;" xml:space="preserve">
<style type="text/css">
	.st0{fill:#121212;}
	.st1{fill:#EA5959;}
	.st2{fill:#FFFFFF;}
	.st3{fill:none;stroke:#3A3A3A;stroke-miterlimit:10;}
	.st4{fill:#A9A9A9;}
	.st5{fill-rule:evenodd;clip-rule:evenodd;fill:#3A3A3A;}
</style>
<g>
	<path class="st0" d="M261.5,151H0V5c0-2.76,2.24-5,5-5h251.5c2.76,0,5,2.24,5,5V151z"/>
	<g>
		<path class="st1" d="M64.29,28.85v-4.56c0-0.49,0.08-0.93,0.25-1.33c0.16-0.4,0.4-0.74,0.7-1.02c0.31-0.29,0.67-0.5,1.1-0.66
			c0.42-0.15,0.9-0.23,1.42-0.23c0.97,0,1.76,0.25,2.37,0.74c0.61,0.5,0.99,1.2,1.14,2.11H69.6c-0.08-0.43-0.28-0.77-0.61-1.01
			c-0.32-0.25-0.74-0.37-1.24-0.37c-0.56,0-1,0.16-1.33,0.47c-0.32,0.31-0.49,0.75-0.49,1.3v4.56c0,0.57,0.16,1.02,0.49,1.33
			c0.33,0.32,0.77,0.48,1.33,0.48s1-0.16,1.33-0.48c0.32-0.32,0.49-0.76,0.49-1.33v-1.14h-2.02v-1.44h3.67v2.58
			c0,0.49-0.08,0.94-0.25,1.34c-0.16,0.4-0.4,0.75-0.7,1.03c-0.3,0.29-0.66,0.51-1.09,0.66c-0.43,0.15-0.9,0.23-1.43,0.23
			c-0.52,0-1-0.08-1.42-0.23c-0.43-0.15-0.8-0.38-1.1-0.66c-0.3-0.28-0.53-0.63-0.7-1.03C64.37,29.79,64.29,29.34,64.29,28.85z"/>
		<path class="st1" d="M73.6,31.97v-10.8h6.52v1.47h-4.88v3.04h4.35v1.47h-4.35v3.34h4.88v1.47H73.6z"/>
		<path class="st1" d="M84.45,21.17l2.7,7.21c0.07,0.17,0.13,0.37,0.19,0.58c0.05,0.22,0.11,0.43,0.16,0.63
			c0.05,0.24,0.1,0.48,0.15,0.72h0.15c-0.03-0.26-0.06-0.5-0.08-0.71s-0.05-0.44-0.07-0.71c-0.02-0.26-0.03-0.52-0.03-0.78v-6.96
			h1.5v10.8h-2.04l-2.67-7.23c-0.08-0.2-0.15-0.41-0.21-0.64c-0.06-0.22-0.12-0.44-0.17-0.64c-0.05-0.22-0.1-0.44-0.13-0.66h-0.15
			c0.03,0.21,0.05,0.43,0.07,0.66c0.02,0.2,0.04,0.43,0.05,0.69c0.01,0.26,0.02,0.54,0.02,0.82v6.99h-1.5v-10.8H84.45z"/>
		<path class="st1" d="M91.6,31.97v-10.8h6.52v1.47h-4.88v3.04h4.35v1.47h-4.35v3.34h4.88v1.47H91.6z"/>
		<path class="st1" d="M103.98,21.17c0.52,0,0.99,0.08,1.42,0.23c0.42,0.16,0.79,0.37,1.09,0.65s0.53,0.61,0.7,1
			c0.16,0.4,0.25,0.83,0.25,1.31c0,0.73-0.19,1.35-0.55,1.88c-0.37,0.52-0.88,0.89-1.52,1.11l2.22,4.62h-1.86l-2.01-4.4h-1.59v4.4
			h-1.64v-10.8H103.98z M102.12,26.2h1.86c0.54,0,0.97-0.16,1.29-0.49c0.32-0.32,0.48-0.76,0.48-1.3c0-0.55-0.16-0.99-0.48-1.32
			c-0.32-0.33-0.75-0.5-1.29-0.5h-1.86V26.2z"/>
		<path class="st1" d="M111.67,21.17h2.25l2.83,10.8h-1.71l-0.69-2.87h-3.23l-0.69,2.87h-1.69L111.67,21.17z M114.03,27.79
			l-0.98-4.05c-0.05-0.19-0.09-0.37-0.12-0.55c-0.03-0.17-0.06-0.33-0.08-0.47c-0.02-0.16-0.04-0.31-0.06-0.45h-0.07
			c-0.02,0.14-0.05,0.29-0.08,0.45c-0.02,0.14-0.05,0.3-0.08,0.47c-0.04,0.18-0.08,0.36-0.13,0.55l-0.98,4.05H114.03z"/>
		<path class="st1" d="M117.88,22.66v-1.48h7.74v1.48h-3.03v9.31h-1.68v-9.31H117.88z"/>
		<path class="st1" d="M127.6,31.97v-10.8h6.52v1.47h-4.88v3.04h4.35v1.47h-4.35v3.34h4.88v1.47H127.6z"/>
		<path class="st1" d="M141.54,19.52h1.71l-5.26,14.1h-1.73L141.54,19.52z"/>
		<path class="st1" d="M145.57,22.61v-1.44h6.36v1.44h-2.34v7.92h2.34v1.44h-6.36v-1.44h2.34v-7.92H145.57z"/>
		<path class="st1" d="M156.19,21.17l1.2,3.52c0.05,0.15,0.1,0.31,0.14,0.49c0.04,0.18,0.08,0.34,0.1,0.49
			c0.04,0.18,0.07,0.35,0.09,0.52h0.12c0.03-0.17,0.06-0.35,0.1-0.52c0.03-0.15,0.07-0.31,0.11-0.49c0.04-0.17,0.08-0.34,0.13-0.49
			l1.11-3.52h2.01v10.8h-1.49v-7.26c0-0.27,0.01-0.54,0.03-0.81c0.02-0.27,0.04-0.52,0.06-0.75c0.02-0.26,0.04-0.51,0.07-0.75h-0.17
			c-0.06,0.23-0.12,0.46-0.18,0.7c-0.05,0.21-0.11,0.44-0.18,0.7c-0.07,0.25-0.15,0.5-0.23,0.74l-0.82,2.65h-1.29l-0.86-2.65
			c-0.08-0.27-0.16-0.53-0.23-0.79s-0.14-0.48-0.2-0.68c-0.06-0.24-0.12-0.46-0.17-0.67h-0.14c0.03,0.24,0.06,0.49,0.08,0.75
			c0.02,0.23,0.04,0.48,0.05,0.75s0.02,0.54,0.02,0.81v7.26h-1.47v-10.8H156.19z"/>
		<path class="st1" d="M167.16,21.17c0.52,0,0.99,0.08,1.42,0.23c0.43,0.16,0.79,0.37,1.09,0.65c0.3,0.28,0.53,0.62,0.7,1.02
			c0.17,0.4,0.25,0.84,0.25,1.32s-0.08,0.92-0.25,1.32c-0.16,0.4-0.4,0.74-0.7,1.02c-0.3,0.28-0.66,0.5-1.09,0.65
			c-0.42,0.16-0.9,0.23-1.42,0.23h-2.04v4.35h-1.65v-10.8H167.16z M165.11,26.2h2.04c0.54,0,0.97-0.17,1.29-0.5s0.48-0.77,0.48-1.31
			s-0.16-0.97-0.48-1.3s-0.75-0.5-1.29-0.5h-2.04V26.2z"/>
		<path class="st1" d="M175.75,32.12c-0.53,0-1.01-0.08-1.43-0.23s-0.79-0.38-1.09-0.66c-0.3-0.28-0.53-0.63-0.7-1.03
			c-0.17-0.41-0.25-0.85-0.25-1.34v-4.56c0-0.5,0.08-0.95,0.25-1.35s0.4-0.74,0.7-1.03c0.3-0.28,0.66-0.5,1.09-0.66
			c0.42-0.16,0.9-0.23,1.43-0.23s1.01,0.08,1.43,0.23c0.42,0.15,0.79,0.38,1.09,0.66c0.3,0.29,0.53,0.63,0.7,1.03
			s0.25,0.85,0.25,1.35v4.56c0,0.49-0.08,0.94-0.25,1.34c-0.17,0.4-0.4,0.75-0.71,1.03c-0.31,0.29-0.67,0.51-1.09,0.66
			C176.74,32.05,176.27,32.12,175.75,32.12z M173.93,28.85c0,0.55,0.17,0.99,0.5,1.32c0.33,0.33,0.77,0.49,1.32,0.49
			s0.99-0.17,1.32-0.49c0.33-0.33,0.5-0.77,0.5-1.32v-4.56c0-0.56-0.17-1-0.5-1.33s-0.77-0.49-1.32-0.49s-0.99,0.16-1.32,0.49
			s-0.5,0.78-0.5,1.33V28.85z"/>
		<path class="st1" d="M184.97,21.17c0.52,0,0.99,0.08,1.42,0.23s0.79,0.37,1.09,0.65c0.3,0.27,0.53,0.61,0.7,1s0.25,0.83,0.25,1.31
			c0,0.73-0.18,1.35-0.55,1.88s-0.88,0.89-1.51,1.11l2.22,4.62h-1.86l-2.01-4.4h-1.59v4.4h-1.63v-10.8H184.97z M183.11,26.2h1.86
			c0.54,0,0.97-0.16,1.29-0.49c0.32-0.32,0.48-0.76,0.48-1.3c0-0.55-0.16-0.99-0.48-1.32c-0.32-0.33-0.75-0.5-1.29-0.5h-1.86V26.2z"
			/>
		<path class="st1" d="M189.88,22.66v-1.48h7.74v1.48h-3.03v9.31h-1.68v-9.31H189.88z"/>
	</g>
	<g>
		<path class="st2" d="M69.64,67.81c-0.59,0-1.12-0.09-1.61-0.26c-0.48-0.18-0.89-0.43-1.23-0.75c-0.34-0.32-0.6-0.71-0.79-1.17
			s-0.28-0.97-0.28-1.52v-5.17c0-0.57,0.09-1.08,0.28-1.53s0.45-0.84,0.79-1.16c0.34-0.32,0.75-0.57,1.23-0.75
			c0.48-0.18,1.02-0.26,1.62-0.26c1.13,0,2.05,0.31,2.74,0.94c0.69,0.62,1.08,1.47,1.17,2.55h-1.87c-0.06-0.58-0.26-1.03-0.62-1.34
			c-0.36-0.32-0.83-0.48-1.42-0.48c-0.63,0-1.14,0.18-1.5,0.54c-0.37,0.36-0.55,0.86-0.55,1.5v5.17c0,0.63,0.18,1.13,0.54,1.5
			c0.36,0.36,0.86,0.54,1.5,0.54c0.6,0,1.08-0.16,1.44-0.48c0.36-0.32,0.56-0.77,0.62-1.33h1.87c-0.05,0.53-0.17,1.01-0.37,1.44
			c-0.2,0.43-0.47,0.8-0.81,1.1s-0.74,0.53-1.21,0.7C70.72,67.73,70.2,67.81,69.64,67.81z"/>
		<path class="st2" d="M78.15,58.29v1.62h0.15c0.12-0.57,0.42-1.01,0.88-1.32c0.46-0.31,1.03-0.47,1.73-0.47
			c1,0,1.78,0.31,2.35,0.93c0.57,0.62,0.85,1.48,0.85,2.58v0.61h-1.92v-0.43c0-0.66-0.18-1.17-0.53-1.54
			c-0.35-0.37-0.83-0.55-1.44-0.55c-0.6,0-1.08,0.19-1.43,0.56s-0.53,0.88-0.53,1.53v5.83h-1.87v-9.35H78.15z"/>
		<path class="st2" d="M86.02,61.74c0-0.56,0.09-1.06,0.27-1.5s0.44-0.83,0.78-1.14c0.34-0.31,0.75-0.55,1.24-0.72
			s1.03-0.25,1.63-0.25c0.6,0,1.14,0.08,1.62,0.25c0.48,0.17,0.89,0.41,1.23,0.72c0.34,0.31,0.6,0.69,0.78,1.14s0.27,0.95,0.27,1.5
			v1.72h-5.98v0.66c0,0.67,0.18,1.19,0.55,1.56c0.37,0.37,0.88,0.56,1.52,0.56c0.48,0,0.89-0.07,1.24-0.22
			c0.35-0.15,0.61-0.37,0.77-0.66h1.84c-0.1,0.37-0.27,0.71-0.49,1.01c-0.23,0.3-0.51,0.56-0.84,0.77
			c-0.33,0.22-0.71,0.38-1.14,0.49c-0.42,0.11-0.88,0.17-1.37,0.17c-0.6,0-1.14-0.08-1.62-0.25c-0.48-0.17-0.89-0.41-1.23-0.73
			c-0.34-0.32-0.6-0.7-0.79-1.15s-0.28-0.95-0.28-1.5V61.74z M87.88,62.1h4.15v-0.36c0-0.65-0.18-1.15-0.54-1.51
			c-0.36-0.36-0.87-0.54-1.53-0.54c-0.66,0-1.17,0.18-1.53,0.54c-0.36,0.36-0.54,0.87-0.54,1.51V62.1z"/>
		<path class="st2" d="M96,64.97c0-0.91,0.31-1.63,0.94-2.16c0.63-0.53,1.48-0.8,2.56-0.8h2.53v-0.78c0-0.5-0.17-0.89-0.52-1.16
			c-0.35-0.28-0.84-0.42-1.47-0.42c-0.49,0-0.9,0.09-1.24,0.26c-0.34,0.18-0.57,0.42-0.68,0.74h-1.84c0.15-0.78,0.56-1.4,1.24-1.85
			s1.52-0.68,2.53-0.68c1.19,0,2.13,0.27,2.81,0.82c0.69,0.54,1.03,1.29,1.03,2.24v6.46h-1.73v-1.82h-0.14
			c-0.12,0.61-0.46,1.1-0.99,1.45c-0.54,0.36-1.2,0.54-2,0.54c-0.93,0-1.67-0.26-2.22-0.77S96,65.84,96,64.97z M97.87,64.82
			c0,0.48,0.15,0.84,0.46,1.1c0.31,0.26,0.74,0.39,1.29,0.39c0.35,0,0.67-0.04,0.97-0.14c0.29-0.09,0.55-0.22,0.77-0.38
			c0.21-0.16,0.38-0.36,0.5-0.58c0.12-0.22,0.18-0.46,0.18-0.72v-1.17h-2.52c-0.51,0-0.91,0.13-1.21,0.39
			C98.02,63.98,97.87,64.35,97.87,64.82z"/>
		<path class="st2" d="M106.13,58.29h2.64V55.4h1.87v2.89h3.59v1.68h-3.59v4.98c0,0.31,0.09,0.55,0.27,0.72
			c0.18,0.18,0.44,0.26,0.76,0.26h2.38v1.7h-2.47c-0.87,0-1.56-0.24-2.07-0.73s-0.76-1.14-0.76-1.96v-4.98h-2.64V58.29z"/>
		<path class="st2" d="M116.62,61.74c0-0.56,0.09-1.06,0.27-1.5s0.44-0.83,0.78-1.14c0.34-0.31,0.75-0.55,1.24-0.72
			s1.03-0.25,1.63-0.25c0.6,0,1.14,0.08,1.62,0.25c0.48,0.17,0.89,0.41,1.23,0.72c0.34,0.31,0.6,0.69,0.78,1.14s0.27,0.95,0.27,1.5
			v1.72h-5.98v0.66c0,0.67,0.18,1.19,0.55,1.56c0.37,0.37,0.88,0.56,1.52,0.56c0.48,0,0.89-0.07,1.24-0.22
			c0.35-0.15,0.61-0.37,0.77-0.66h1.84c-0.1,0.37-0.27,0.71-0.49,1.01c-0.23,0.3-0.51,0.56-0.84,0.77
			c-0.33,0.22-0.71,0.38-1.14,0.49c-0.42,0.11-0.88,0.17-1.37,0.17c-0.6,0-1.14-0.08-1.62-0.25c-0.48-0.17-0.89-0.41-1.23-0.73
			c-0.34-0.32-0.6-0.7-0.79-1.15s-0.28-0.95-0.28-1.5V61.74z M118.48,62.1h4.15v-0.36c0-0.65-0.18-1.15-0.54-1.51
			c-0.36-0.36-0.87-0.54-1.53-0.54c-0.66,0-1.17,0.18-1.53,0.54c-0.36,0.36-0.54,0.87-0.54,1.51V62.1z"/>
		<path class="st2" d="M136.19,55.4h1.67l0.73,8.67c0.02,0.23,0.04,0.48,0.05,0.76c0.01,0.28,0.02,0.54,0.02,0.77
			c0.01,0.28,0.02,0.57,0.02,0.85h0.22c0.01-0.28,0.02-0.57,0.03-0.85c0.02-0.24,0.04-0.5,0.07-0.77s0.04-0.53,0.07-0.76l1.09-8.67
			h1.63l1.05,8.67c0.02,0.23,0.05,0.48,0.07,0.75c0.02,0.27,0.04,0.53,0.05,0.78c0.02,0.28,0.04,0.57,0.05,0.85h0.24
			c0.01-0.28,0.02-0.57,0.03-0.85c0.01-0.24,0.02-0.5,0.03-0.77c0.01-0.28,0.03-0.53,0.05-0.76l0.71-8.67h1.63l-1.24,12.24h-2.33
			l-0.95-8.69c-0.03-0.29-0.06-0.58-0.07-0.86c-0.01-0.28-0.02-0.53-0.02-0.76c-0.01-0.27-0.01-0.53,0-0.77h-0.27
			c0,0.24,0,0.49,0,0.77c0,0.23-0.01,0.48-0.02,0.76c-0.01,0.28-0.03,0.56-0.07,0.86l-1.04,8.69h-2.31L136.19,55.4z"/>
		<path class="st2" d="M147,64.97c0-0.91,0.31-1.63,0.94-2.16c0.63-0.53,1.48-0.8,2.56-0.8h2.53v-0.78c0-0.5-0.17-0.89-0.52-1.16
			c-0.35-0.28-0.84-0.42-1.47-0.42c-0.49,0-0.9,0.09-1.24,0.26c-0.34,0.18-0.57,0.42-0.68,0.74h-1.84c0.15-0.78,0.56-1.4,1.24-1.85
			c0.68-0.45,1.52-0.68,2.53-0.68c1.19,0,2.13,0.27,2.81,0.82c0.69,0.54,1.03,1.29,1.03,2.24v6.46h-1.73v-1.82h-0.14
			c-0.12,0.61-0.46,1.1-0.99,1.45c-0.54,0.36-1.21,0.54-2,0.54c-0.93,0-1.67-0.26-2.22-0.77S147,65.84,147,64.97z M148.87,64.82
			c0,0.48,0.15,0.84,0.46,1.1s0.74,0.39,1.29,0.39c0.35,0,0.67-0.04,0.97-0.14s0.55-0.22,0.77-0.38c0.21-0.16,0.38-0.36,0.5-0.58
			c0.12-0.22,0.18-0.46,0.18-0.72v-1.17h-2.52c-0.51,0-0.91,0.13-1.21,0.39C149.02,63.98,148.87,64.35,148.87,64.82z"/>
		<path class="st2" d="M156.85,56.98v-1.7h4.9v9.47c0,0.37,0.1,0.67,0.31,0.88c0.2,0.21,0.49,0.31,0.85,0.31h2.79v1.7h-2.87
			c-0.92,0-1.64-0.26-2.16-0.77s-0.78-1.22-0.78-2.12v-7.77H156.85z"/>
		<path class="st2" d="M167.04,56.98v-1.7h4.9v9.47c0,0.37,0.1,0.67,0.31,0.88c0.2,0.21,0.49,0.31,0.85,0.31h2.79v1.7h-2.87
			c-0.92,0-1.64-0.26-2.16-0.77c-0.52-0.52-0.78-1.22-0.78-2.12v-7.77H167.04z"/>
		<path class="st2" d="M177.82,61.74c0-0.56,0.09-1.06,0.27-1.5c0.18-0.45,0.44-0.83,0.78-1.14c0.34-0.31,0.75-0.55,1.24-0.72
			s1.03-0.25,1.63-0.25s1.14,0.08,1.62,0.25c0.48,0.17,0.89,0.41,1.23,0.72c0.34,0.31,0.6,0.69,0.78,1.14
			c0.18,0.45,0.27,0.95,0.27,1.5v1.72h-5.98v0.66c0,0.67,0.18,1.19,0.55,1.56s0.88,0.56,1.52,0.56c0.48,0,0.89-0.07,1.24-0.22
			c0.35-0.15,0.61-0.37,0.77-0.66h1.84c-0.1,0.37-0.27,0.71-0.49,1.01c-0.23,0.3-0.51,0.56-0.84,0.77
			c-0.33,0.22-0.71,0.38-1.14,0.49s-0.88,0.17-1.37,0.17c-0.6,0-1.14-0.08-1.62-0.25s-0.89-0.41-1.23-0.73s-0.6-0.7-0.79-1.15
			c-0.19-0.45-0.28-0.95-0.28-1.5V61.74z M179.68,62.1h4.15v-0.36c0-0.65-0.18-1.15-0.54-1.51c-0.36-0.36-0.87-0.54-1.53-0.54
			s-1.17,0.18-1.53,0.54c-0.36,0.36-0.54,0.87-0.54,1.51V62.1z"/>
		<path class="st2" d="M187.73,58.29h2.63V55.4h1.87v2.89h3.59v1.68h-3.59v4.98c0,0.31,0.09,0.55,0.27,0.72
			c0.18,0.18,0.44,0.26,0.76,0.26h2.38v1.7h-2.46c-0.87,0-1.56-0.24-2.07-0.73s-0.76-1.14-0.76-1.96v-4.98h-2.63V58.29z"/>
	</g>
	<path class="st3" d="M231.6,126.89H29.9c-2.76,0-5-2.24-5-5V86.97c0-2.76,2.24-5,5-5H231.6c2.76,0,5,2.24,5,5v34.92
		C236.6,124.65,234.36,126.89,231.6,126.89z"/>
	<g>
		<g>
			<path class="st4" d="M58.07,99.75h1.8l2.27,8.64h-1.37l-0.55-2.29h-2.58l-0.55,2.29h-1.36L58.07,99.75z M59.95,105.05l-0.78-3.24
				c-0.04-0.15-0.07-0.3-0.1-0.44c-0.02-0.14-0.04-0.27-0.06-0.38c-0.02-0.13-0.03-0.25-0.05-0.36h-0.06
				c-0.02,0.11-0.04,0.23-0.06,0.36c-0.02,0.11-0.04,0.24-0.07,0.38c-0.03,0.14-0.06,0.29-0.1,0.44l-0.78,3.24H59.95z"/>
			<path class="st4" d="M63.02,101.79h1.38l1.49,4.44c0.06,0.17,0.11,0.32,0.14,0.47c0.03,0.14,0.05,0.27,0.07,0.38
				c0.02,0.13,0.02,0.24,0.02,0.35h0.1c0-0.1,0.01-0.22,0.02-0.35c0.02-0.11,0.04-0.24,0.07-0.38c0.03-0.14,0.07-0.3,0.13-0.47
				l1.42-4.44h1.39l-2.32,6.6h-1.54L63.02,101.79z"/>
			<path class="st4" d="M70.4,106.51c0-0.64,0.22-1.15,0.67-1.52c0.44-0.38,1.05-0.56,1.81-0.56h1.79v-0.55
				c0-0.35-0.12-0.62-0.37-0.82s-0.59-0.29-1.04-0.29c-0.34,0-0.64,0.06-0.88,0.19c-0.24,0.12-0.4,0.3-0.48,0.52h-1.3
				c0.1-0.55,0.4-0.99,0.88-1.31c0.48-0.32,1.08-0.48,1.79-0.48c0.84,0,1.5,0.19,1.99,0.58c0.48,0.38,0.73,0.91,0.73,1.58v4.56
				h-1.22v-1.28h-0.1c-0.09,0.43-0.32,0.77-0.7,1.03s-0.85,0.38-1.41,0.38c-0.66,0-1.18-0.18-1.57-0.55S70.4,107.12,70.4,106.51z
				 M71.72,106.4c0,0.34,0.11,0.6,0.32,0.78c0.22,0.18,0.52,0.28,0.91,0.28c0.25,0,0.48-0.03,0.68-0.1
				c0.21-0.06,0.39-0.15,0.54-0.27c0.15-0.12,0.27-0.25,0.35-0.41s0.13-0.33,0.13-0.51v-0.83h-1.78c-0.36,0-0.64,0.09-0.85,0.28
				C71.83,105.81,71.72,106.07,71.72,106.4z"/>
			<path class="st4" d="M77.35,100.87v-1.2h3.46v6.68c0,0.26,0.07,0.47,0.22,0.62c0.14,0.15,0.34,0.22,0.6,0.22h1.97v1.2h-2.03
				c-0.65,0-1.16-0.18-1.52-0.55s-0.55-0.86-0.55-1.49v-5.48H77.35z"/>
			<path class="st4" d="M84.8,106.51c0-0.64,0.22-1.15,0.67-1.52c0.44-0.38,1.05-0.56,1.81-0.56h1.79v-0.55
				c0-0.35-0.12-0.62-0.37-0.82s-0.59-0.29-1.04-0.29c-0.34,0-0.64,0.06-0.88,0.19c-0.24,0.12-0.4,0.3-0.48,0.52h-1.3
				c0.1-0.55,0.4-0.99,0.88-1.31c0.48-0.32,1.08-0.48,1.79-0.48c0.84,0,1.5,0.19,1.99,0.58c0.48,0.38,0.73,0.91,0.73,1.58v4.56
				h-1.22v-1.28h-0.1c-0.09,0.43-0.32,0.77-0.7,1.03s-0.85,0.38-1.41,0.38c-0.66,0-1.18-0.18-1.57-0.55S84.8,107.12,84.8,106.51z
				 M86.12,106.4c0,0.34,0.11,0.6,0.32,0.78c0.22,0.18,0.52,0.28,0.91,0.28c0.25,0,0.48-0.03,0.68-0.1
				c0.21-0.06,0.39-0.15,0.54-0.27c0.15-0.12,0.27-0.25,0.35-0.41s0.13-0.33,0.13-0.51v-0.83h-1.78c-0.36,0-0.64,0.09-0.85,0.28
				C86.23,105.81,86.12,106.07,86.12,106.4z"/>
			<path class="st4" d="M92.28,101.79h1.25v1.14h0.11c0.09-0.41,0.28-0.72,0.59-0.94c0.3-0.22,0.7-0.32,1.18-0.32
				c0.34,0,0.65,0.06,0.92,0.17s0.5,0.28,0.68,0.49s0.33,0.46,0.43,0.75c0.1,0.29,0.14,0.61,0.14,0.97v4.34h-1.32v-4.16
				c0-0.46-0.12-0.81-0.35-1.06s-0.55-0.37-0.96-0.37c-0.42,0-0.74,0.13-0.98,0.4c-0.24,0.26-0.36,0.62-0.36,1.08v4.12h-1.32V101.79
				z"/>
			<path class="st4" d="M102.21,108.51c-0.42,0-0.81-0.06-1.15-0.18c-0.34-0.12-0.63-0.29-0.87-0.52c-0.24-0.22-0.42-0.5-0.55-0.82
				c-0.13-0.32-0.19-0.68-0.19-1.07v-1.68c0-0.39,0.06-0.75,0.19-1.07c0.13-0.32,0.31-0.59,0.55-0.82c0.24-0.22,0.53-0.4,0.87-0.52
				c0.34-0.12,0.72-0.18,1.15-0.18c0.38,0,0.72,0.05,1.04,0.16c0.32,0.1,0.59,0.26,0.83,0.46c0.24,0.2,0.44,0.44,0.59,0.72
				c0.16,0.28,0.26,0.6,0.31,0.95h-1.32c-0.06-0.34-0.22-0.61-0.48-0.82c-0.26-0.21-0.59-0.31-0.97-0.31
				c-0.46,0-0.81,0.13-1.07,0.38c-0.26,0.25-0.38,0.6-0.38,1.05v1.68c0,0.45,0.13,0.8,0.38,1.04c0.26,0.25,0.61,0.37,1.07,0.37
				c0.38,0,0.71-0.1,0.97-0.31c0.26-0.2,0.42-0.47,0.48-0.81h1.32c-0.11,0.7-0.41,1.26-0.91,1.67
				C103.59,108.31,102.97,108.51,102.21,108.51z"/>
			<path class="st4" d="M106.68,108.39v-8.64H108v2.04c0,0.11,0,0.23-0.01,0.37c-0.01,0.13-0.02,0.26-0.03,0.37
				c-0.01,0.12-0.02,0.25-0.03,0.4h0.11c0.09-0.4,0.29-0.71,0.59-0.93c0.31-0.22,0.7-0.33,1.17-0.33c0.33,0,0.63,0.06,0.89,0.17
				s0.5,0.27,0.68,0.48s0.33,0.46,0.44,0.75s0.16,0.62,0.16,0.98v4.34h-1.31v-4.16c0-0.45-0.12-0.8-0.35-1.05
				c-0.24-0.25-0.56-0.38-0.97-0.38c-0.42,0-0.74,0.13-0.98,0.4c-0.24,0.26-0.36,0.62-0.36,1.08v4.12H106.68z"/>
			<path class="st4" d="M113.76,104.23c0-0.39,0.06-0.75,0.19-1.06c0.13-0.32,0.31-0.58,0.55-0.8c0.24-0.22,0.53-0.39,0.88-0.51
				c0.34-0.12,0.73-0.18,1.15-0.18c0.42,0,0.81,0.06,1.15,0.18c0.34,0.12,0.63,0.29,0.87,0.51c0.24,0.22,0.42,0.49,0.55,0.8
				c0.13,0.32,0.19,0.67,0.19,1.06v1.21h-4.22v0.47c0,0.47,0.13,0.84,0.39,1.1s0.62,0.4,1.07,0.4c0.34,0,0.63-0.05,0.88-0.16
				c0.25-0.1,0.43-0.26,0.54-0.47h1.3c-0.07,0.26-0.19,0.5-0.35,0.71s-0.36,0.39-0.59,0.55c-0.24,0.15-0.5,0.27-0.8,0.35
				c-0.3,0.08-0.62,0.12-0.97,0.12c-0.42,0-0.81-0.06-1.15-0.18c-0.34-0.12-0.63-0.29-0.87-0.52c-0.24-0.22-0.43-0.49-0.56-0.81
				c-0.13-0.32-0.2-0.67-0.2-1.06V104.23z M115.07,104.48h2.93v-0.25c0-0.46-0.13-0.81-0.38-1.07c-0.26-0.26-0.62-0.38-1.08-0.38
				c-0.46,0-0.82,0.13-1.08,0.38c-0.26,0.26-0.38,0.61-0.38,1.07V104.48z"/>
			<path class="st4" d="M130.07,99.75h1.8l2.27,8.64h-1.37l-0.55-2.29h-2.58l-0.55,2.29h-1.36L130.07,99.75z M131.95,105.05
				l-0.78-3.24c-0.04-0.15-0.07-0.3-0.1-0.44c-0.02-0.14-0.04-0.27-0.06-0.38c-0.02-0.13-0.03-0.25-0.05-0.36h-0.06
				c-0.02,0.11-0.04,0.23-0.06,0.36c-0.02,0.11-0.04,0.24-0.07,0.38c-0.03,0.14-0.06,0.29-0.1,0.44l-0.78,3.24H131.95z"/>
			<path class="st4" d="M135.36,104.25c0-0.4,0.05-0.76,0.16-1.07s0.26-0.59,0.46-0.81c0.2-0.22,0.43-0.4,0.71-0.52
				s0.59-0.18,0.92-0.18c0.48,0,0.88,0.11,1.19,0.33c0.32,0.22,0.52,0.53,0.61,0.93h0.11c-0.01-0.14-0.02-0.27-0.02-0.41
				c-0.02-0.12-0.03-0.25-0.03-0.38s-0.01-0.25-0.01-0.35v-2.04h1.31v8.64h-1.25v-1.14h-0.11c-0.09,0.4-0.29,0.71-0.61,0.93
				c-0.32,0.22-0.71,0.33-1.19,0.33c-0.34,0-0.64-0.06-0.92-0.18c-0.28-0.12-0.52-0.29-0.71-0.52c-0.2-0.22-0.35-0.5-0.46-0.82
				c-0.11-0.32-0.16-0.69-0.16-1.09V104.25z M136.68,104.28v1.62c0,0.45,0.13,0.8,0.38,1.07c0.25,0.26,0.6,0.4,1.04,0.4
				c0.42,0,0.75-0.13,1-0.4c0.25-0.26,0.37-0.62,0.37-1.06v-1.63c0-0.45-0.13-0.8-0.38-1.07c-0.25-0.26-0.58-0.4-0.99-0.4
				c-0.44,0-0.79,0.13-1.04,0.39C136.8,103.46,136.68,103.82,136.68,104.28z"/>
			<path class="st4" d="M142.56,104.25c0-0.4,0.05-0.76,0.16-1.07c0.11-0.32,0.26-0.59,0.46-0.81c0.2-0.22,0.43-0.4,0.71-0.52
				c0.28-0.12,0.59-0.18,0.92-0.18c0.48,0,0.88,0.11,1.19,0.33c0.32,0.22,0.52,0.53,0.61,0.93h0.11c-0.01-0.14-0.02-0.27-0.02-0.41
				c-0.02-0.12-0.03-0.25-0.03-0.38c0-0.13-0.01-0.25-0.01-0.35v-2.04h1.31v8.64h-1.25v-1.14h-0.11c-0.09,0.4-0.29,0.71-0.61,0.93
				c-0.32,0.22-0.71,0.33-1.19,0.33c-0.34,0-0.64-0.06-0.92-0.18c-0.28-0.12-0.52-0.29-0.71-0.52c-0.2-0.22-0.35-0.5-0.46-0.82
				c-0.11-0.32-0.16-0.69-0.16-1.09V104.25z M143.88,104.28v1.62c0,0.45,0.13,0.8,0.38,1.07c0.25,0.26,0.6,0.4,1.04,0.4
				c0.42,0,0.75-0.13,1-0.4c0.25-0.26,0.37-0.62,0.37-1.06v-1.63c0-0.45-0.13-0.8-0.38-1.07c-0.25-0.26-0.58-0.4-0.99-0.4
				c-0.44,0-0.79,0.13-1.04,0.39C144,103.46,143.88,103.82,143.88,104.28z"/>
			<path class="st4" d="M151.4,101.79v1.14h0.11c0.09-0.4,0.29-0.71,0.62-0.93c0.32-0.22,0.73-0.33,1.22-0.33
				c0.7,0,1.26,0.22,1.66,0.65c0.4,0.44,0.6,1.04,0.6,1.82v0.43h-1.36v-0.3c0-0.46-0.12-0.83-0.37-1.09
				c-0.25-0.26-0.59-0.39-1.02-0.39c-0.42,0-0.76,0.13-1.01,0.4c-0.25,0.26-0.37,0.62-0.37,1.08v4.12h-1.32v-6.6H151.4z"/>
			<path class="st4" d="M156.96,104.23c0-0.39,0.06-0.75,0.19-1.06c0.13-0.32,0.31-0.58,0.55-0.8c0.24-0.22,0.53-0.39,0.88-0.51
				c0.34-0.12,0.73-0.18,1.15-0.18c0.42,0,0.81,0.06,1.15,0.18s0.63,0.29,0.87,0.51c0.24,0.22,0.42,0.49,0.55,0.8
				c0.13,0.32,0.19,0.67,0.19,1.06v1.21h-4.22v0.47c0,0.47,0.13,0.84,0.39,1.1c0.26,0.26,0.62,0.4,1.07,0.4
				c0.34,0,0.63-0.05,0.88-0.16c0.25-0.1,0.43-0.26,0.54-0.47h1.3c-0.07,0.26-0.19,0.5-0.35,0.71s-0.36,0.39-0.59,0.55
				c-0.24,0.15-0.5,0.27-0.8,0.35c-0.3,0.08-0.62,0.12-0.97,0.12c-0.42,0-0.81-0.06-1.15-0.18c-0.34-0.12-0.63-0.29-0.87-0.52
				c-0.24-0.22-0.43-0.49-0.56-0.81c-0.13-0.32-0.2-0.67-0.2-1.06V104.23z M158.27,104.48h2.93v-0.25c0-0.46-0.13-0.81-0.38-1.07
				c-0.26-0.26-0.62-0.38-1.08-0.38s-0.82,0.13-1.08,0.38c-0.26,0.26-0.38,0.61-0.38,1.07V104.48z"/>
			<path class="st4" d="M164.12,106.74h1.37c0.05,0.22,0.18,0.39,0.4,0.52c0.22,0.13,0.49,0.19,0.81,0.19h0.43
				c0.39,0,0.7-0.08,0.92-0.24c0.22-0.16,0.33-0.38,0.33-0.66c0-0.48-0.35-0.77-1.06-0.86l-0.96-0.13c-0.71-0.1-1.24-0.3-1.58-0.62
				s-0.51-0.76-0.51-1.34c0-0.61,0.21-1.08,0.64-1.42s1.04-0.5,1.83-0.5h0.42c0.7,0,1.26,0.15,1.7,0.46
				c0.44,0.31,0.69,0.73,0.77,1.25h-1.36c-0.05-0.2-0.17-0.36-0.37-0.47c-0.2-0.12-0.45-0.17-0.74-0.17h-0.42
				c-0.38,0-0.66,0.07-0.86,0.21c-0.2,0.14-0.3,0.35-0.3,0.63c0,0.23,0.07,0.41,0.22,0.54c0.15,0.13,0.39,0.21,0.71,0.25l0.98,0.13
				c0.75,0.1,1.3,0.32,1.66,0.64c0.35,0.32,0.53,0.78,0.53,1.37c0,0.64-0.22,1.13-0.66,1.48c-0.44,0.35-1.07,0.52-1.9,0.52h-0.43
				c-0.74,0-1.33-0.16-1.79-0.47C164.45,107.72,164.18,107.29,164.12,106.74z"/>
			<path class="st4" d="M171.32,106.74h1.37c0.05,0.22,0.18,0.39,0.4,0.52c0.22,0.13,0.49,0.19,0.81,0.19h0.43
				c0.39,0,0.7-0.08,0.92-0.24c0.22-0.16,0.33-0.38,0.33-0.66c0-0.48-0.35-0.77-1.06-0.86l-0.96-0.13c-0.71-0.1-1.24-0.3-1.58-0.62
				s-0.51-0.76-0.51-1.34c0-0.61,0.21-1.08,0.64-1.42s1.04-0.5,1.83-0.5h0.42c0.7,0,1.26,0.15,1.7,0.46
				c0.44,0.31,0.69,0.73,0.77,1.25h-1.36c-0.05-0.2-0.17-0.36-0.37-0.47c-0.2-0.12-0.45-0.17-0.74-0.17h-0.42
				c-0.38,0-0.66,0.07-0.86,0.21c-0.2,0.14-0.3,0.35-0.3,0.63c0,0.23,0.07,0.41,0.22,0.54c0.15,0.13,0.39,0.21,0.71,0.25l0.98,0.13
				c0.75,0.1,1.3,0.32,1.66,0.64c0.35,0.32,0.53,0.78,0.53,1.37c0,0.64-0.22,1.13-0.66,1.48c-0.44,0.35-1.07,0.52-1.9,0.52h-0.43
				c-0.74,0-1.33-0.16-1.79-0.47C171.65,107.72,171.38,107.29,171.32,106.74z"/>
		</g>
		<path class="st5" d="M199.02,100.2c-0.51-0.57-1.39-0.57-1.9,0l-6.92,7.83c-0.51,0.57-0.15,1.06,0.79,1.06h14.18
			c0.94,0,1.3-0.48,0.76-1.06L199.02,100.2z"/>
	</g>
</g>
</svg>
