<?xml version="1.0" encoding="utf-8"?>
<!-- Generator: Adobe Illustrator 27.3.1, SVG Export Plug-In . SVG Version: 6.00 Build 0)  -->
<svg version="1.1" id="Layer_1" xmlns="http://www.w3.org/2000/svg" xmlns:xlink="http://www.w3.org/1999/xlink" x="0px" y="0px"
	 viewBox="0 0 261.5 151" style="enable-background:new 0 0 261.5 151;" xml:space="preserve">
<style type="text/css">
	.st0{clip-path:url(#SVGID_00000141420518848685539050000009389413195836678323_);fill:#121212;}
	
		.st1{opacity:0.2;clip-path:url(#SVGID_00000141420518848685539050000009389413195836678323_);fill:#3A3A3A;stroke:#565656;stroke-miterlimit:10;}
	.st2{clip-path:url(#SVGID_00000141420518848685539050000009389413195836678323_);}
	.st3{fill:#EA5959;}
	.st4{fill:#FFFFFF;}
	.st5{fill-rule:evenodd;clip-rule:evenodd;fill:#333333;}
</style>
<g>
	<defs>
		<path id="SVGID_1_" d="M261.5,151H0V5c0-2.76,2.24-5,5-5h251.5c2.76,0,5,2.24,5,5V151z"/>
	</defs>
	<clipPath id="SVGID_00000103985291799235886810000005149931698723887542_">
		<use xlink:href="#SVGID_1_"  style="overflow:visible;"/>
	</clipPath>
	<path style="clip-path:url(#SVGID_00000103985291799235886810000005149931698723887542_);fill:#121212;" d="M261.5,151H0V5
		c0-2.76,2.24-5,5-5h251.5c2.76,0,5,2.24,5,5V151z"/>
	
		<path style="opacity:0.2;clip-path:url(#SVGID_00000103985291799235886810000005149931698723887542_);fill:#3A3A3A;stroke:#565656;stroke-miterlimit:10;" d="
		M192.89,158.18H68.61c-1.66,0-3-1.34-3-3v-65.6c0-1.66,1.34-3,3-3h124.28c1.66,0,3,1.34,3,3v65.6
		C195.89,156.83,194.55,158.18,192.89,158.18z"/>
	<g style="clip-path:url(#SVGID_00000103985291799235886810000005149931698723887542_);">
		<path class="st3" d="M86.98,31.97v-10.8h1.65v4.42h3.25v-4.42h1.65v10.8h-1.65v-4.86h-3.25v4.86H86.98z"/>
		<path class="st3" d="M99.25,32.12c-0.53,0-1.01-0.08-1.43-0.23s-0.79-0.38-1.09-0.66c-0.3-0.28-0.53-0.63-0.7-1.03
			c-0.17-0.41-0.25-0.85-0.25-1.34v-4.56c0-0.5,0.08-0.95,0.25-1.35c0.16-0.4,0.4-0.74,0.7-1.03c0.3-0.28,0.66-0.5,1.09-0.66
			c0.42-0.16,0.9-0.23,1.43-0.23c0.53,0,1.01,0.08,1.43,0.23c0.42,0.15,0.79,0.38,1.09,0.66c0.3,0.29,0.53,0.63,0.7,1.03
			c0.17,0.4,0.25,0.85,0.25,1.35v4.56c0,0.49-0.08,0.94-0.25,1.34c-0.16,0.4-0.4,0.75-0.7,1.03c-0.31,0.29-0.67,0.51-1.1,0.66
			C100.24,32.05,99.77,32.12,99.25,32.12z M97.44,28.85c0,0.55,0.17,0.99,0.5,1.32c0.33,0.33,0.77,0.49,1.32,0.49
			c0.55,0,0.99-0.17,1.32-0.49c0.33-0.33,0.5-0.77,0.5-1.32v-4.56c0-0.56-0.17-1-0.5-1.33c-0.33-0.33-0.77-0.49-1.32-0.49
			c-0.55,0-0.99,0.16-1.32,0.49c-0.33,0.33-0.5,0.78-0.5,1.33V28.85z"/>
		<path class="st3" d="M104.05,21.17h1.47l0.65,7.65c0.02,0.2,0.03,0.42,0.04,0.67c0.01,0.25,0.02,0.47,0.02,0.68
			c0.01,0.25,0.02,0.5,0.02,0.75h0.19c0.01-0.25,0.02-0.5,0.03-0.75c0.02-0.21,0.04-0.44,0.06-0.68s0.04-0.47,0.06-0.67l0.96-7.65
			h1.44l0.93,7.65c0.02,0.2,0.04,0.42,0.06,0.66c0.02,0.24,0.03,0.47,0.04,0.69c0.02,0.25,0.03,0.5,0.04,0.75h0.21
			c0.01-0.25,0.02-0.5,0.03-0.75c0.01-0.21,0.02-0.44,0.03-0.68c0.01-0.25,0.02-0.47,0.04-0.67l0.63-7.65h1.44l-1.1,10.8h-2.06
			l-0.84-7.67c-0.03-0.26-0.05-0.51-0.06-0.76s-0.02-0.47-0.02-0.67c-0.01-0.24-0.01-0.47,0-0.68h-0.24c0,0.21,0,0.44,0,0.68
			c0,0.2-0.01,0.42-0.02,0.67s-0.03,0.5-0.06,0.76l-0.92,7.67h-2.04L104.05,21.17z"/>
		<path class="st3" d="M122.38,22.66v-1.48h7.74v1.48h-3.03v9.31h-1.68v-9.31H122.38z"/>
		<path class="st3" d="M135.25,32.12c-0.53,0-1.01-0.08-1.43-0.23s-0.79-0.38-1.09-0.66c-0.3-0.28-0.53-0.63-0.7-1.03
			c-0.17-0.41-0.25-0.85-0.25-1.34v-4.56c0-0.5,0.08-0.95,0.25-1.35c0.16-0.4,0.4-0.74,0.7-1.03c0.3-0.28,0.66-0.5,1.09-0.66
			c0.42-0.16,0.9-0.23,1.43-0.23s1.01,0.08,1.43,0.23c0.42,0.15,0.79,0.38,1.09,0.66c0.3,0.29,0.53,0.63,0.7,1.03
			s0.25,0.85,0.25,1.35v4.56c0,0.49-0.08,0.94-0.25,1.34c-0.17,0.4-0.4,0.75-0.71,1.03c-0.3,0.29-0.67,0.51-1.09,0.66
			C136.24,32.05,135.77,32.12,135.25,32.12z M133.44,28.85c0,0.55,0.17,0.99,0.5,1.32c0.33,0.33,0.77,0.49,1.32,0.49
			s0.99-0.17,1.32-0.49c0.33-0.33,0.5-0.77,0.5-1.32v-4.56c0-0.56-0.17-1-0.5-1.33s-0.77-0.49-1.32-0.49s-0.99,0.16-1.32,0.49
			c-0.33,0.33-0.5,0.78-0.5,1.33V28.85z"/>
		<path class="st3" d="M153.25,32.12c-1.06,0-1.88-0.29-2.47-0.86s-0.88-1.36-0.88-2.36v-7.72h1.65v7.72c0,0.56,0.14,1,0.44,1.31
			c0.29,0.31,0.71,0.46,1.26,0.46c0.54,0,0.96-0.15,1.26-0.46s0.45-0.74,0.45-1.31v-7.72h1.63v7.72c0,1.01-0.29,1.8-0.88,2.37
			C155.13,31.84,154.31,32.12,153.25,32.12z"/>
		<path class="st3" d="M158.68,29.15h1.7c0.02,0.47,0.2,0.84,0.54,1.11c0.34,0.27,0.79,0.4,1.36,0.4c0.6,0,1.06-0.13,1.39-0.4
			c0.32-0.26,0.49-0.63,0.49-1.09c0-0.4-0.12-0.75-0.36-1.05c-0.24-0.3-0.57-0.52-0.99-0.66l-1.23-0.39
			c-0.88-0.26-1.54-0.65-1.98-1.19c-0.44-0.53-0.66-1.18-0.66-1.95c0-0.44,0.08-0.84,0.23-1.2s0.38-0.67,0.67-0.92
			s0.65-0.45,1.07-0.59c0.42-0.14,0.88-0.21,1.39-0.21c0.5,0,0.96,0.07,1.36,0.2c0.41,0.14,0.76,0.33,1.05,0.58
			c0.29,0.25,0.52,0.56,0.69,0.92c0.17,0.36,0.26,0.76,0.27,1.2h-1.7c-0.01-0.45-0.17-0.81-0.48-1.07c-0.31-0.27-0.72-0.4-1.23-0.4
			s-0.92,0.13-1.22,0.38c-0.3,0.25-0.46,0.61-0.46,1.06c0,0.36,0.11,0.67,0.34,0.94c0.23,0.27,0.58,0.47,1.06,0.62l1.29,0.4
			c0.83,0.26,1.46,0.67,1.9,1.21c0.44,0.55,0.65,1.23,0.65,2.02c0,0.46-0.08,0.88-0.25,1.25c-0.16,0.37-0.4,0.69-0.71,0.95
			c-0.31,0.26-0.69,0.46-1.13,0.61c-0.44,0.14-0.93,0.22-1.48,0.22c-0.52,0-1-0.07-1.43-0.21c-0.44-0.14-0.81-0.34-1.12-0.6
			c-0.32-0.26-0.56-0.57-0.74-0.94C158.78,30.01,158.69,29.6,158.68,29.15z"/>
		<path class="st3" d="M168.1,31.97v-10.8h6.53v1.47h-4.88v3.04h4.35v1.47h-4.35v3.34h4.88v1.47H168.1z"/>
	</g>
	<g style="clip-path:url(#SVGID_00000103985291799235886810000005149931698723887542_);">
		<path class="st4" d="M54.34,67.81c-0.59,0-1.12-0.09-1.61-0.26c-0.48-0.18-0.89-0.43-1.23-0.75c-0.34-0.32-0.6-0.71-0.79-1.17
			s-0.28-0.97-0.28-1.52v-5.17c0-0.57,0.09-1.08,0.28-1.53s0.45-0.84,0.79-1.16c0.34-0.32,0.75-0.57,1.23-0.75
			c0.48-0.18,1.02-0.26,1.62-0.26c1.13,0,2.05,0.31,2.74,0.94c0.69,0.62,1.08,1.47,1.17,2.55h-1.87c-0.06-0.58-0.26-1.03-0.62-1.34
			c-0.36-0.32-0.83-0.48-1.42-0.48c-0.63,0-1.14,0.18-1.5,0.54c-0.37,0.36-0.55,0.86-0.55,1.5v5.17c0,0.63,0.18,1.13,0.54,1.5
			c0.36,0.36,0.86,0.54,1.5,0.54c0.6,0,1.08-0.16,1.44-0.48c0.36-0.32,0.56-0.77,0.62-1.33h1.87c-0.05,0.53-0.17,1.01-0.37,1.44
			c-0.2,0.43-0.47,0.8-0.81,1.1s-0.74,0.53-1.21,0.7C55.42,67.73,54.9,67.81,54.34,67.81z"/>
		<path class="st4" d="M60.69,67.64V55.4h1.87v2.89c0,0.16-0.01,0.33-0.02,0.52s-0.03,0.36-0.04,0.53
			c-0.02,0.16-0.03,0.35-0.04,0.57h0.15c0.12-0.57,0.4-1.01,0.84-1.32c0.44-0.31,0.99-0.47,1.66-0.47c0.46,0,0.89,0.08,1.27,0.24
			c0.38,0.16,0.7,0.39,0.97,0.68c0.27,0.29,0.47,0.65,0.62,1.06c0.15,0.41,0.22,0.88,0.22,1.39v6.15h-1.85v-5.9
			c0-0.63-0.17-1.13-0.5-1.49c-0.33-0.36-0.79-0.54-1.37-0.54c-0.59,0-1.05,0.19-1.39,0.56c-0.34,0.37-0.51,0.88-0.51,1.53v5.83
			H60.69z"/>
		<path class="st4" d="M71.06,65.94h3.37v-5.97h-2.94v-1.68h4.76v7.65h2.74v1.7h-7.92V65.94z M73.75,55.73
			c0-0.33,0.1-0.59,0.31-0.79c0.21-0.2,0.49-0.3,0.84-0.3h0.41c0.35,0,0.63,0.1,0.84,0.3c0.21,0.2,0.31,0.46,0.31,0.79
			s-0.1,0.59-0.31,0.78c-0.21,0.19-0.5,0.29-0.86,0.29h-0.39c-0.35,0-0.63-0.1-0.84-0.29C73.85,56.32,73.75,56.06,73.75,55.73z"/>
		<path class="st4" d="M81.2,55.4h1.87v6.68h1.65l2.57-3.79h2.11l-3.08,4.54l3.13,4.81h-2.16l-2.57-3.94h-1.65v3.94H81.2V55.4z"/>
		<path class="st4" d="M90.9,64.97c0-0.91,0.31-1.63,0.94-2.16c0.63-0.53,1.48-0.8,2.56-0.8h2.53v-0.78c0-0.5-0.17-0.89-0.52-1.16
			c-0.35-0.28-0.84-0.42-1.47-0.42c-0.49,0-0.9,0.09-1.24,0.26c-0.34,0.18-0.57,0.42-0.68,0.74h-1.84c0.15-0.78,0.56-1.4,1.24-1.85
			s1.52-0.68,2.53-0.68c1.19,0,2.13,0.27,2.81,0.82c0.69,0.54,1.03,1.29,1.03,2.24v6.46h-1.73v-1.82h-0.14
			c-0.12,0.61-0.46,1.1-0.99,1.45c-0.54,0.36-1.2,0.54-2,0.54c-0.93,0-1.67-0.26-2.22-0.77S90.9,65.84,90.9,64.97z M92.77,64.82
			c0,0.48,0.15,0.84,0.46,1.1c0.31,0.26,0.74,0.39,1.29,0.39c0.35,0,0.67-0.04,0.97-0.14c0.29-0.09,0.55-0.22,0.77-0.38
			c0.21-0.16,0.38-0.36,0.5-0.58c0.12-0.22,0.18-0.46,0.18-0.72v-1.17h-2.52c-0.51,0-0.91,0.13-1.21,0.39
			C92.92,63.98,92.77,64.35,92.77,64.82z"/>
		<path class="st4" d="M111.4,64.45h1.92c0.02,0.53,0.23,0.95,0.61,1.26s0.9,0.46,1.55,0.46c0.68,0,1.2-0.15,1.57-0.45
			c0.37-0.3,0.55-0.71,0.55-1.23c0-0.45-0.14-0.85-0.41-1.19s-0.65-0.59-1.12-0.75l-1.39-0.44c-1-0.29-1.75-0.74-2.24-1.34
			s-0.75-1.34-0.75-2.21c0-0.5,0.09-0.95,0.26-1.36c0.18-0.41,0.43-0.76,0.77-1.05c0.33-0.29,0.74-0.51,1.21-0.67
			c0.47-0.16,0.99-0.24,1.57-0.24c0.57,0,1.08,0.08,1.55,0.23c0.46,0.15,0.86,0.37,1.19,0.66c0.33,0.29,0.59,0.64,0.78,1.05
			c0.19,0.41,0.29,0.86,0.31,1.36h-1.92c-0.01-0.51-0.19-0.92-0.54-1.22c-0.35-0.3-0.82-0.45-1.39-0.45c-0.58,0-1.04,0.14-1.39,0.43
			c-0.35,0.29-0.52,0.69-0.52,1.2c0,0.41,0.13,0.76,0.38,1.06c0.25,0.3,0.65,0.54,1.2,0.71l1.46,0.46c0.94,0.29,1.66,0.75,2.15,1.38
			c0.49,0.62,0.74,1.39,0.74,2.29c0,0.52-0.09,0.99-0.28,1.41s-0.46,0.78-0.81,1.07c-0.35,0.29-0.78,0.52-1.27,0.69
			c-0.5,0.16-1.06,0.25-1.68,0.25c-0.59,0-1.13-0.08-1.62-0.24s-0.92-0.39-1.27-0.68c-0.36-0.29-0.63-0.65-0.83-1.06
			C111.52,65.42,111.42,64.96,111.4,64.45z"/>
		<path class="st4" d="M121.89,58.29h1.77v1.62h0.15c0.12-0.58,0.4-1.02,0.83-1.33c0.43-0.31,0.99-0.46,1.67-0.46
			c0.49,0,0.92,0.08,1.3,0.25c0.38,0.16,0.7,0.39,0.97,0.69c0.27,0.29,0.47,0.65,0.6,1.06c0.14,0.41,0.2,0.87,0.2,1.37v6.15h-1.87
			v-5.9c0-0.65-0.16-1.14-0.49-1.5c-0.33-0.35-0.78-0.53-1.36-0.53c-0.59,0-1.05,0.19-1.39,0.56c-0.34,0.37-0.51,0.88-0.51,1.53
			v5.83h-1.87V58.29z"/>
		<path class="st4" d="M132.26,65.94h3.37v-5.97h-2.94v-1.68h4.76v7.65h2.74v1.7h-7.92V65.94z M134.95,55.73
			c0-0.33,0.1-0.59,0.31-0.79s0.49-0.3,0.84-0.3h0.41c0.35,0,0.63,0.1,0.84,0.3s0.31,0.46,0.31,0.79s-0.1,0.59-0.31,0.78
			c-0.21,0.19-0.5,0.29-0.86,0.29h-0.39c-0.35,0-0.63-0.1-0.84-0.29C135.05,56.32,134.95,56.06,134.95,55.73z"/>
		<path class="st4" d="M142.31,58.29h1.79v1.62h0.14c0.12-0.57,0.41-1.01,0.86-1.32c0.45-0.31,1.01-0.47,1.69-0.47
			c0.48,0,0.91,0.08,1.31,0.25c0.4,0.17,0.73,0.41,1.01,0.73c0.28,0.32,0.49,0.7,0.65,1.15c0.15,0.45,0.23,0.96,0.23,1.52v2.35
			c0,0.57-0.08,1.08-0.23,1.54s-0.37,0.85-0.65,1.16c-0.28,0.32-0.61,0.56-1.01,0.73c-0.4,0.17-0.83,0.25-1.31,0.25
			c-0.68,0-1.24-0.16-1.69-0.47s-0.73-0.75-0.86-1.32h-0.14c0,0.01,0,0.07,0.02,0.19c0.01,0.11,0.02,0.25,0.03,0.41
			s0.01,0.33,0.03,0.51c0.01,0.18,0.02,0.35,0.02,0.51v2.89h-1.87V58.29z M144.18,61.81v2.31c0,0.62,0.17,1.12,0.52,1.5
			s0.81,0.56,1.4,0.56c0.62,0,1.11-0.19,1.47-0.56c0.36-0.37,0.54-0.88,0.54-1.51v-2.29c0-0.65-0.18-1.15-0.54-1.52
			c-0.36-0.37-0.85-0.55-1.47-0.55c-0.58,0-1.04,0.19-1.39,0.56C144.36,60.67,144.18,61.18,144.18,61.81z"/>
		<path class="st4" d="M152.32,61.74c0-0.56,0.09-1.06,0.27-1.5c0.18-0.45,0.44-0.83,0.78-1.14c0.34-0.31,0.75-0.55,1.24-0.72
			s1.03-0.25,1.63-0.25s1.14,0.08,1.62,0.25c0.48,0.17,0.89,0.41,1.23,0.72c0.34,0.31,0.6,0.69,0.78,1.14
			c0.18,0.45,0.27,0.95,0.27,1.5v1.72h-5.98v0.66c0,0.67,0.18,1.19,0.55,1.56s0.88,0.56,1.52,0.56c0.48,0,0.89-0.07,1.24-0.22
			c0.35-0.15,0.61-0.37,0.76-0.66h1.84c-0.1,0.37-0.27,0.71-0.49,1.01c-0.23,0.3-0.51,0.56-0.84,0.77
			c-0.33,0.22-0.71,0.38-1.14,0.49c-0.42,0.11-0.88,0.17-1.37,0.17c-0.6,0-1.14-0.08-1.62-0.25c-0.48-0.17-0.89-0.41-1.23-0.73
			c-0.34-0.32-0.6-0.7-0.79-1.15c-0.19-0.45-0.28-0.95-0.28-1.5V61.74z M154.18,62.1h4.15v-0.36c0-0.65-0.18-1.15-0.54-1.51
			c-0.36-0.36-0.87-0.54-1.53-0.54s-1.17,0.18-1.53,0.54c-0.36,0.36-0.54,0.87-0.54,1.51V62.1z"/>
		<path class="st4" d="M164.85,58.29v1.62H165c0.12-0.57,0.42-1.01,0.88-1.32c0.46-0.31,1.03-0.47,1.73-0.47
			c1,0,1.78,0.31,2.35,0.93c0.57,0.62,0.85,1.48,0.85,2.58v0.61h-1.92v-0.43c0-0.66-0.18-1.17-0.53-1.54
			c-0.35-0.37-0.83-0.55-1.45-0.55c-0.6,0-1.08,0.19-1.43,0.56s-0.53,0.88-0.53,1.53v5.83h-1.87v-9.35H164.85z"/>
		<path class="st4" d="M183.13,55.4h3.76c1.2,0,2.14,0.28,2.82,0.85c0.68,0.57,1.02,1.35,1.02,2.35c0,0.74-0.21,1.34-0.62,1.8
			c-0.41,0.46-0.97,0.73-1.67,0.78v0.12c0.78,0.06,1.4,0.33,1.84,0.83s0.67,1.17,0.67,2.02c0,1.08-0.35,1.93-1.05,2.55
			c-0.7,0.62-1.65,0.94-2.86,0.94h-3.91V55.4z M186.87,60.57c0.59,0,1.06-0.16,1.41-0.48c0.35-0.32,0.53-0.76,0.53-1.3
			s-0.17-0.98-0.52-1.3c-0.35-0.32-0.82-0.48-1.42-0.48h-1.9v3.57H186.87z M184.96,62.14v3.89h1.94c0.67,0,1.19-0.17,1.56-0.52
			s0.56-0.82,0.56-1.44c0-0.61-0.19-1.09-0.56-1.43s-0.9-0.51-1.56-0.51H184.96z"/>
		<path class="st4" d="M197.05,67.81c-0.6,0-1.14-0.09-1.62-0.26c-0.48-0.18-0.89-0.43-1.23-0.75c-0.34-0.32-0.6-0.71-0.79-1.16
			c-0.19-0.45-0.28-0.96-0.28-1.51V61.8c0-0.56,0.09-1.06,0.28-1.51c0.19-0.45,0.45-0.84,0.79-1.16c0.34-0.32,0.75-0.57,1.23-0.75
			s1.02-0.26,1.62-0.26s1.14,0.08,1.62,0.25c0.48,0.17,0.89,0.42,1.23,0.74c0.34,0.32,0.6,0.71,0.79,1.16
			c0.19,0.45,0.28,0.96,0.28,1.52v2.35c0,0.56-0.09,1.06-0.27,1.52s-0.44,0.85-0.78,1.16c-0.34,0.32-0.75,0.56-1.24,0.74
			C198.19,67.73,197.65,67.81,197.05,67.81z M194.99,64.12c0,0.63,0.18,1.13,0.54,1.5s0.87,0.54,1.51,0.54
			c0.63,0,1.14-0.18,1.5-0.54s0.55-0.86,0.55-1.5V61.8c0-0.63-0.18-1.13-0.55-1.5c-0.37-0.36-0.87-0.54-1.5-0.54
			s-1.14,0.18-1.5,0.54c-0.37,0.36-0.55,0.86-0.55,1.5V64.12z"/>
		<path class="st4" d="M203.03,58.29h2.63V55.4h1.87v2.89h3.59v1.68h-3.59v4.98c0,0.31,0.09,0.55,0.27,0.72
			c0.18,0.18,0.44,0.26,0.76,0.26h2.38v1.7h-2.46c-0.87,0-1.56-0.24-2.07-0.73s-0.76-1.14-0.76-1.96v-4.98h-2.63V58.29z"/>
	</g>
</g>
<path class="st5" d="M134.59,120.87c0.55,0.45,0.55,1.23,0,1.71l-7.12,6.29c-0.53,0.48-0.98,0.18-0.98-0.7v-12.88
	c0-0.88,0.45-1.18,0.98-0.71L134.59,120.87z"/>
</svg>
