<?xml version="1.0" encoding="utf-8"?>
<!-- Generator: Adobe Illustrator 27.3.1, SVG Export Plug-In . SVG Version: 6.00 Build 0)  -->
<svg version="1.1" id="Layer_1" xmlns="http://www.w3.org/2000/svg" xmlns:xlink="http://www.w3.org/1999/xlink" x="0px" y="0px"
	 viewBox="0 0 261.5 151" style="enable-background:new 0 0 261.5 151;" xml:space="preserve">
<style type="text/css">
	.st0{fill:#121212;}
	.st1{fill:#EA5959;}
	.st2{fill:#D9D9D9;}
	.st3{clip-path:url(#SVGID_00000164513741007779799950000002348772237883026836_);}
	.st4{fill:none;stroke:#FFFFFF;stroke-miterlimit:10;}
	.st5{fill:none;stroke:#EA5959;stroke-width:3;stroke-miterlimit:10;}
	.st6{fill:none;stroke:#3B3B3B;stroke-miterlimit:10;}
</style>
<path class="st0" d="M261.5,151H0V5c0-2.76,2.24-5,5-5h251.5c2.76,0,5,2.24,5,5V151z"/>
<g>
	<path class="st1" d="M64.56,21.16h6.65v1.5h-5.03v3.09h4.64v1.5h-4.6v4.73h-1.65V21.16z"/>
	<path class="st1" d="M73.57,22.61v-1.44h6.36v1.44h-2.34v7.92h2.34v1.44h-6.36v-1.44h2.34v-7.92H73.57z"/>
	<path class="st1" d="M84.43,21.17v9.28h4.88v1.52h-6.53v-10.8H84.43z"/>
	<path class="st1" d="M90.88,22.66v-1.48h7.74v1.48h-3.03v9.31h-1.68v-9.31H90.88z"/>
	<path class="st1" d="M100.6,31.97v-10.8h6.52v1.47h-4.88v3.04h4.35v1.47h-4.35v3.34h4.88v1.47H100.6z"/>
	<path class="st1" d="M112.98,21.17c0.52,0,0.99,0.08,1.42,0.23c0.42,0.16,0.79,0.37,1.09,0.65s0.53,0.61,0.7,1
		c0.16,0.4,0.25,0.83,0.25,1.31c0,0.73-0.19,1.35-0.55,1.88c-0.37,0.52-0.88,0.89-1.52,1.11l2.22,4.62h-1.86l-2.01-4.4h-1.59v4.4
		h-1.64v-10.8H112.98z M111.12,26.2h1.86c0.54,0,0.97-0.16,1.29-0.49c0.32-0.32,0.48-0.76,0.48-1.3c0-0.55-0.16-0.99-0.48-1.32
		c-0.32-0.33-0.75-0.5-1.29-0.5h-1.86V26.2z"/>
	<path class="st1" d="M130.75,32.12c-0.53,0-1.01-0.08-1.43-0.23s-0.79-0.38-1.09-0.66c-0.3-0.28-0.53-0.63-0.7-1.03
		c-0.17-0.41-0.25-0.85-0.25-1.34v-4.56c0-0.5,0.08-0.95,0.25-1.35c0.16-0.4,0.4-0.74,0.7-1.03c0.3-0.28,0.66-0.5,1.09-0.66
		c0.42-0.16,0.9-0.23,1.43-0.23c0.53,0,1.01,0.08,1.43,0.23c0.42,0.15,0.79,0.38,1.09,0.66c0.3,0.29,0.53,0.63,0.7,1.03
		s0.25,0.85,0.25,1.35v4.56c0,0.49-0.08,0.94-0.25,1.34c-0.17,0.4-0.4,0.75-0.71,1.03c-0.3,0.29-0.67,0.51-1.09,0.66
		C131.74,32.05,131.27,32.12,130.75,32.12z M128.94,28.85c0,0.55,0.17,0.99,0.5,1.32c0.33,0.33,0.77,0.49,1.32,0.49
		c0.55,0,0.99-0.17,1.32-0.49c0.33-0.33,0.5-0.77,0.5-1.32v-4.56c0-0.56-0.17-1-0.5-1.33s-0.77-0.49-1.32-0.49
		c-0.55,0-0.99,0.16-1.32,0.49c-0.33,0.33-0.5,0.78-0.5,1.33V28.85z"/>
	<path class="st1" d="M138.45,21.17l2.7,7.21c0.07,0.17,0.13,0.37,0.19,0.58c0.05,0.22,0.11,0.43,0.16,0.63
		c0.05,0.24,0.1,0.48,0.15,0.72h0.15c-0.03-0.26-0.06-0.5-0.08-0.71c-0.03-0.21-0.05-0.44-0.07-0.71c-0.02-0.26-0.03-0.52-0.03-0.78
		v-6.96h1.5v10.8h-2.04l-2.67-7.23c-0.08-0.2-0.15-0.41-0.21-0.64c-0.06-0.22-0.12-0.44-0.17-0.64c-0.05-0.22-0.1-0.44-0.13-0.66
		h-0.15c0.03,0.21,0.05,0.43,0.08,0.66c0.02,0.2,0.04,0.43,0.05,0.69c0.01,0.26,0.02,0.54,0.02,0.82v6.99h-1.5v-10.8H138.45z"/>
	<path class="st1" d="M145.75,26.27h6v1.5h-6V26.27z"/>
	<path class="st1" d="M157.83,32.12c-0.52,0-0.99-0.08-1.42-0.23s-0.79-0.38-1.09-0.66c-0.3-0.28-0.53-0.63-0.7-1.03
		c-0.17-0.41-0.25-0.85-0.25-1.34v-4.56c0-0.5,0.08-0.95,0.25-1.35s0.4-0.74,0.7-1.03c0.3-0.28,0.66-0.5,1.09-0.66
		c0.42-0.16,0.9-0.23,1.43-0.23c1,0,1.8,0.28,2.42,0.83c0.61,0.55,0.96,1.3,1.04,2.25h-1.65c-0.05-0.51-0.23-0.9-0.55-1.19
		c-0.31-0.28-0.73-0.42-1.25-0.42c-0.56,0-1,0.16-1.33,0.48c-0.33,0.32-0.49,0.76-0.49,1.32v4.56c0,0.56,0.16,1,0.47,1.32
		c0.32,0.32,0.76,0.48,1.33,0.48c0.53,0,0.95-0.14,1.27-0.43c0.32-0.29,0.5-0.68,0.55-1.18h1.65c-0.04,0.47-0.15,0.9-0.32,1.27
		c-0.17,0.38-0.41,0.7-0.71,0.97c-0.3,0.27-0.66,0.47-1.07,0.62C158.78,32.05,158.32,32.12,157.83,32.12z"/>
	<path class="st1" d="M163.48,31.97v-10.8h1.65v4.42h3.25v-4.42h1.65v10.8h-1.65v-4.86h-3.25v4.86H163.48z"/>
	<path class="st1" d="M174.67,21.17h2.25l2.83,10.8h-1.71l-0.69-2.87h-3.23l-0.69,2.87h-1.7L174.67,21.17z M177.02,27.79l-0.98-4.05
		c-0.05-0.19-0.09-0.37-0.12-0.55c-0.03-0.17-0.05-0.33-0.07-0.47c-0.02-0.16-0.04-0.31-0.06-0.45h-0.08
		c-0.02,0.14-0.04,0.29-0.08,0.45c-0.02,0.14-0.05,0.3-0.08,0.47c-0.04,0.18-0.08,0.36-0.13,0.55l-0.97,4.05H177.02z"/>
	<path class="st1" d="M181.57,22.61v-1.44h6.36v1.44h-2.34v7.92h2.34v1.44h-6.36v-1.44h2.34v-7.92H181.57z"/>
	<path class="st1" d="M192.44,21.17l2.7,7.21c0.07,0.17,0.13,0.37,0.19,0.58c0.06,0.22,0.11,0.43,0.16,0.63
		c0.05,0.24,0.1,0.48,0.15,0.72h0.15c-0.03-0.26-0.06-0.5-0.08-0.71c-0.02-0.21-0.05-0.44-0.07-0.71c-0.02-0.26-0.03-0.52-0.03-0.78
		v-6.96h1.5v10.8h-2.04l-2.67-7.23c-0.08-0.2-0.15-0.41-0.21-0.64c-0.06-0.22-0.12-0.44-0.17-0.64c-0.05-0.22-0.1-0.44-0.14-0.66
		h-0.15c0.03,0.21,0.05,0.43,0.08,0.66c0.02,0.2,0.04,0.43,0.05,0.69c0.02,0.26,0.02,0.54,0.02,0.82v6.99h-1.5v-10.8H192.44z"/>
</g>
<g>
	<g>
		<path class="st2" d="M101.02,72.36c0.01,0.2,0.08,0.36,0.2,0.48s0.29,0.2,0.5,0.24V71.4l-0.13-0.04c-0.4-0.14-0.7-0.32-0.9-0.55
			c-0.21-0.23-0.31-0.53-0.31-0.88c0-0.38,0.12-0.69,0.36-0.93c0.24-0.24,0.56-0.38,0.98-0.42v-0.85h0.43v0.85
			c0.41,0.04,0.74,0.18,0.98,0.42s0.37,0.55,0.39,0.93h-0.76c-0.01-0.18-0.07-0.33-0.18-0.45c-0.11-0.12-0.25-0.2-0.43-0.24v1.53
			l0.25,0.08c0.39,0.12,0.69,0.31,0.89,0.57c0.2,0.26,0.3,0.57,0.3,0.93c0,0.2-0.03,0.38-0.1,0.54c-0.07,0.16-0.16,0.31-0.29,0.43
			c-0.12,0.12-0.27,0.22-0.45,0.29c-0.18,0.07-0.38,0.12-0.6,0.14v0.92h-0.43v-0.92c-0.44-0.04-0.79-0.18-1.05-0.42
			c-0.26-0.24-0.4-0.56-0.41-0.96H101.02z M101.1,69.89c0,0.34,0.2,0.59,0.61,0.74v-1.41c-0.19,0.03-0.34,0.11-0.45,0.22
			S101.1,69.71,101.1,69.89z M102.15,71.54v1.55c0.22-0.03,0.4-0.1,0.52-0.22c0.12-0.12,0.18-0.29,0.18-0.5
			c0-0.2-0.06-0.36-0.18-0.49c-0.12-0.13-0.28-0.24-0.49-0.33L102.15,71.54z"/>
		<path class="st2" d="M104.6,73h1.35v-3.23c0-0.12,0-0.23,0.01-0.33c0.01-0.1,0.01-0.15,0.01-0.15h-0.01
			c-0.03,0.03-0.06,0.06-0.09,0.08c-0.03,0.02-0.06,0.05-0.09,0.07c-0.03,0.03-0.07,0.05-0.1,0.07l-0.99,0.66v-0.76l1.12-0.78h0.92
			V73h1.11v0.68h-3.23V73z"/>
		<path class="st2" d="M108.7,70.09c0-0.23,0.04-0.44,0.12-0.63c0.08-0.19,0.19-0.35,0.33-0.48c0.14-0.13,0.31-0.24,0.51-0.31
			c0.2-0.07,0.42-0.11,0.67-0.11c0.24,0,0.46,0.04,0.66,0.11s0.37,0.17,0.51,0.31c0.14,0.13,0.25,0.29,0.32,0.48
			c0.07,0.19,0.11,0.4,0.11,0.63v2.13c0,0.23-0.04,0.44-0.12,0.63s-0.19,0.35-0.33,0.49c-0.14,0.14-0.31,0.24-0.5,0.31
			c-0.2,0.07-0.42,0.11-0.66,0.11c-0.25,0-0.47-0.04-0.67-0.11c-0.2-0.07-0.37-0.17-0.51-0.31c-0.14-0.13-0.25-0.29-0.33-0.48
			s-0.12-0.4-0.12-0.63V70.09z M109.46,72.22c0,0.26,0.08,0.47,0.23,0.62c0.16,0.15,0.37,0.23,0.63,0.23c0.26,0,0.46-0.08,0.62-0.23
			c0.15-0.15,0.23-0.36,0.23-0.62v-2.13c0-0.26-0.08-0.46-0.23-0.62c-0.15-0.15-0.36-0.23-0.62-0.23c-0.27,0-0.48,0.08-0.63,0.23
			s-0.23,0.36-0.23,0.62V72.22z M109.99,70.65c0-0.11,0.03-0.2,0.09-0.27c0.06-0.07,0.14-0.1,0.25-0.1c0.1,0,0.18,0.03,0.25,0.1
			c0.06,0.07,0.09,0.16,0.09,0.27v1.07c0,0.11-0.03,0.2-0.09,0.27c-0.06,0.07-0.14,0.1-0.25,0.1c-0.11,0-0.19-0.03-0.25-0.1
			c-0.06-0.07-0.09-0.16-0.09-0.27V70.65z"/>
		<path class="st2" d="M112.9,70.09c0-0.23,0.04-0.44,0.12-0.63c0.08-0.19,0.19-0.35,0.33-0.48c0.14-0.13,0.31-0.24,0.51-0.31
			c0.2-0.07,0.42-0.11,0.67-0.11c0.24,0,0.46,0.04,0.66,0.11s0.37,0.17,0.51,0.31c0.14,0.13,0.25,0.29,0.32,0.48
			c0.07,0.19,0.11,0.4,0.11,0.63v2.13c0,0.23-0.04,0.44-0.12,0.63c-0.08,0.19-0.19,0.35-0.33,0.49c-0.14,0.14-0.31,0.24-0.5,0.31
			s-0.42,0.11-0.66,0.11c-0.25,0-0.47-0.04-0.67-0.11c-0.2-0.07-0.37-0.17-0.51-0.31c-0.14-0.13-0.25-0.29-0.33-0.48
			c-0.08-0.19-0.12-0.4-0.12-0.63V70.09z M113.66,72.22c0,0.26,0.08,0.47,0.24,0.62c0.16,0.15,0.37,0.23,0.63,0.23
			c0.26,0,0.46-0.08,0.62-0.23c0.15-0.15,0.23-0.36,0.23-0.62v-2.13c0-0.26-0.08-0.46-0.23-0.62s-0.36-0.23-0.62-0.23
			c-0.27,0-0.48,0.08-0.63,0.23c-0.16,0.15-0.24,0.36-0.24,0.62V72.22z M114.18,70.65c0-0.11,0.03-0.2,0.09-0.27
			c0.06-0.07,0.14-0.1,0.25-0.1c0.1,0,0.18,0.03,0.25,0.1c0.06,0.07,0.09,0.16,0.09,0.27v1.07c0,0.11-0.03,0.2-0.09,0.27
			c-0.06,0.07-0.14,0.1-0.25,0.1c-0.11,0-0.19-0.03-0.25-0.1c-0.06-0.07-0.09-0.16-0.09-0.27V70.65z"/>
		<path class="st2" d="M117.96,68.64v2.09h0.71l1.04-2.09h0.88l-1.24,2.41l1.3,2.63h-0.88l-1.1-2.27h-0.71v2.27h-0.77v-5.04H117.96z
			"/>
		<path class="st2" d="M126.39,68.64l0.56,1.65c0.02,0.07,0.04,0.15,0.07,0.23c0.02,0.08,0.04,0.16,0.04,0.23
			c0.02,0.08,0.03,0.17,0.04,0.25h0.06c0.01-0.08,0.03-0.16,0.05-0.25c0.01-0.07,0.03-0.15,0.05-0.23s0.04-0.16,0.06-0.23l0.52-1.65
			h0.94v5.04h-0.69v-3.39c0-0.13,0-0.25,0.01-0.38c0.01-0.13,0.02-0.24,0.03-0.35c0.01-0.12,0.02-0.24,0.04-0.35h-0.08
			c-0.03,0.11-0.06,0.22-0.08,0.33c-0.02,0.1-0.05,0.21-0.08,0.33c-0.03,0.12-0.07,0.23-0.11,0.35l-0.38,1.24h-0.6l-0.4-1.24
			c-0.04-0.13-0.07-0.25-0.11-0.37s-0.07-0.23-0.09-0.32c-0.03-0.11-0.05-0.22-0.08-0.31h-0.06c0.01,0.11,0.03,0.23,0.04,0.35
			c0.01,0.11,0.02,0.22,0.02,0.35s0.01,0.25,0.01,0.38v3.39h-0.69v-5.04H126.39z"/>
		<path class="st2" d="M130.52,72.19l-0.49,1.48h-0.63l1.6-4.72h0.74l1.61,4.72h-0.65l-0.5-1.48H130.52z M132.06,71.72l-0.46-1.36
			c-0.1-0.31-0.17-0.59-0.25-0.86h-0.01c-0.07,0.28-0.15,0.57-0.24,0.85l-0.46,1.37H132.06z"/>
		<path class="st2" d="M134.04,69.02c0.31-0.06,0.75-0.1,1.17-0.1c0.65,0,1.07,0.12,1.37,0.38c0.24,0.21,0.37,0.53,0.37,0.9
			c0,0.62-0.39,1.04-0.89,1.21v0.02c0.36,0.13,0.58,0.46,0.69,0.95c0.15,0.66,0.27,1.11,0.36,1.3h-0.63
			c-0.08-0.13-0.18-0.54-0.32-1.13c-0.14-0.65-0.39-0.9-0.95-0.92h-0.57v2.04h-0.61V69.02z M134.65,71.17h0.62
			c0.65,0,1.06-0.36,1.06-0.9c0-0.61-0.44-0.88-1.08-0.88c-0.29,0-0.5,0.03-0.6,0.06V71.17z"/>
		<path class="st2" d="M137.8,68.96h0.61v2.28h0.02c0.13-0.18,0.25-0.35,0.37-0.5l1.44-1.77H141l-1.71,2l1.84,2.72h-0.72l-1.55-2.32
			l-0.45,0.52v1.8h-0.61V68.96z"/>
		<path class="st2" d="M144.04,71.46h-1.83v1.7h2.04v0.51h-2.65v-4.72h2.55v0.51h-1.94v1.49h1.83V71.46z"/>
		<path class="st2" d="M146.05,69.48h-1.44v-0.52h3.5v0.52h-1.44v4.2h-0.62V69.48z"/>
		<path class="st2" d="M153.41,73.52c-0.22,0.11-0.67,0.22-1.25,0.22c-1.33,0-2.33-0.84-2.33-2.39c0-1.48,1-2.48,2.47-2.48
			c0.59,0,0.96,0.13,1.12,0.21l-0.15,0.5c-0.23-0.11-0.56-0.2-0.95-0.2c-1.11,0-1.84,0.71-1.84,1.95c0,1.16,0.67,1.9,1.81,1.9
			c0.37,0,0.75-0.08,0.99-0.2L153.41,73.52z"/>
		<path class="st2" d="M154.97,72.19l-0.49,1.48h-0.63l1.6-4.72h0.74l1.61,4.72h-0.65l-0.5-1.48H154.97z M156.51,71.72l-0.46-1.36
			c-0.11-0.31-0.18-0.59-0.25-0.86h-0.01c-0.07,0.28-0.15,0.57-0.24,0.85l-0.46,1.37H156.51z"/>
		<path class="st2" d="M158.49,69.01c0.29-0.05,0.68-0.09,1.17-0.09c0.6,0,1.04,0.14,1.32,0.39c0.26,0.22,0.41,0.57,0.41,0.99
			c0,0.43-0.13,0.76-0.36,1.01c-0.32,0.34-0.85,0.52-1.44,0.52c-0.18,0-0.35-0.01-0.49-0.04v1.89h-0.61V69.01z M159.1,71.29
			c0.13,0.04,0.3,0.05,0.5,0.05c0.74,0,1.18-0.36,1.18-1.01c0-0.62-0.44-0.92-1.11-0.92c-0.27,0-0.47,0.02-0.57,0.05V71.29z"/>
	</g>
</g>
<g>
	<defs>
		<path id="SVGID_1_" d="M261.5,151H0V5c0-2.76,2.24-5,5-5h251.5c2.76,0,5,2.24,5,5V151z"/>
	</defs>
	<clipPath id="SVGID_00000114759612825980420460000016608457377890551956_">
		<use xlink:href="#SVGID_1_"  style="overflow:visible;"/>
	</clipPath>
	<g style="clip-path:url(#SVGID_00000114759612825980420460000016608457377890551956_);">
		<circle class="st4" cx="130.75" cy="219.78" r="78.28"/>
		<path class="st5" d="M228.83,219.78c0,54.17-43.91,98.08-98.08,98.08s-98.08-43.91-98.08-98.08s43.91-98.08,98.08-98.08
			S228.83,165.62,228.83,219.78z"/>
		<circle class="st4" cx="130.75" cy="221.78" r="115.93"/>
		<path class="st4" d="M259.95,213.78c0,71.35-57.84,129.2-129.2,129.2S1.55,285.14,1.55,213.78s57.84-129.2,129.2-129.2
			S259.95,142.43,259.95,213.78z"/>
	</g>
</g>
<g>
	<path class="st6" d="M201.84,60.61H59.66c-2.37,0-4.29-1.92-4.29-4.29v0c0-2.37,1.92-4.29,4.29-4.29h142.18
		c2.37,0,4.29,1.92,4.29,4.29v0C206.14,58.69,204.21,60.61,201.84,60.61z"/>
	<path class="st2" d="M136.69,63.42h-14.37c-4.24,0-7.68-3.44-7.68-7.68v0c0-4.24,3.44-7.68,7.68-7.68h14.37
		c4.24,0,7.68,3.44,7.68,7.68v0C144.37,59.98,140.94,63.42,136.69,63.42z"/>
</g>
</svg>
