<?xml version="1.0" encoding="utf-8"?>
<!-- Generator: Adobe Illustrator 27.3.1, SVG Export Plug-In . SVG Version: 6.00 Build 0)  -->
<svg version="1.1" id="Layer_1" xmlns="http://www.w3.org/2000/svg" xmlns:xlink="http://www.w3.org/1999/xlink" x="0px" y="0px"
	 viewBox="0 0 500 500" style="enable-background:new 0 0 500 500;" xml:space="preserve">
<style type="text/css">
	
		.st0{fill:url(#SVGID_1_);stroke:url(#SVGID_00000150815783977294922700000005832195101225513383_);stroke-width:15;stroke-miterlimit:10;}
	.st1{fill:#FFFFFF;}
	.st2{fill:url(#SVGID_00000156554274253620904890000014299247549967111612_);}
</style>
<g>
	<linearGradient id="SVGID_1_" gradientUnits="userSpaceOnUse" x1="496.4559" y1="619.2189" x2="175.7205" y2="138.7209">
		<stop  offset="0" style="stop-color:#F7DB31"/>
		<stop  offset="0.1991" style="stop-color:#F4B840"/>
		<stop  offset="0.6344" style="stop-color:#EB4F58"/>
		<stop  offset="1" style="stop-color:#E9355E"/>
	</linearGradient>
	
		<linearGradient id="SVGID_00000066499258462769299600000002605404505748031902_" gradientUnits="userSpaceOnUse" x1="13.4633" y1="250" x2="486.5367" y2="250">
		<stop  offset="0" style="stop-color:#F7DB31"/>
		<stop  offset="0.1991" style="stop-color:#F4B840"/>
		<stop  offset="0.6344" style="stop-color:#EB4F58"/>
		<stop  offset="1" style="stop-color:#E9355E"/>
	</linearGradient>
	
		<circle style="fill:url(#SVGID_1_);stroke:url(#SVGID_00000066499258462769299600000002605404505748031902_);stroke-width:15;stroke-miterlimit:10;" cx="250" cy="250" r="229.04"/>
	<g>
		<path class="st1" d="M236,184.56c-60.88,74.92,1.3,150.51,1.25,155.04c0,0-44.63-44.58-33.88-105.03
			c9.12-51.34,33.88-61.43,33.88-61.43s-45.98,11.49-83.02,58.33c20.01-13.62,21.29-11.49,21.29-11.49s-40.87,29.8-28.95,80.46
			c0.85-11.07,5.53-18.31,5.53-18.31s-1.7,48.11,68.97,67.69c-21.24-20.15-57.96-83.02-21.29-138.79c0,0-25.79,46.53,4.22,101.45
			c30.01,54.92,54.51,62.13,55.35,85.03c27.7-20.01,34.09-60.03,11.95-91.96c15.33,14.48,18.91,25.54,18.91,25.54
			c1.85-13.5-2.24-28.75-17.04-46.91c-14.79-18.16-18.42-39.17-11.07-51.94c0,0-20.55,14.57-2.75,46.91
			c-12.32-12.35-15.3-23.84-15.3-23.84s-7.24,13.39,7.24,41.18C265.78,324.27,198.11,258.2,236,184.56z"/>
		<path class="st1" d="M355.61,215.85c0,0-2.55-26.96-31.5-36.61c14.48-18.45-14.48-55.35-44.28-61.31
			c18.45,1.42,30.09,9.37,35.48,15.33c-8.51-19.02-32.11-35.48-64.73-29.52c-32.62,5.96,2.86,16.75,3.43,25.54
			c0.57,8.8-49.39-1.14-58.75-20.44c-15.89,16.46,3.69,26.68,3.12,32.36c-0.57,5.68-36.9,13.62-35.19,34.06
			c1.7,20.44,29.23,11.64,52.51-0.85c23.27-12.49,50.52-12.77,66.98,0c16.46,12.77,32.36,13.06,32.36,13.06s-17.03,2.27-26.68-2.55
			c-3.69,13.34-29.13,16.75-40.02-0.85c-10.79,6.24-13.34,26.11,9.08,31.79c22.42,5.68,23.27,15.61,21,30.65
			c-1.7-13.34-6.36-16.26-6.36-16.26s-21.86,22.2,15.08,53.66c26.65,22.69,39.25-10.3,33.86-26.55c6.24,13.27,2.15,24.26-0.68,29.66
			c17.03-10.22,16.86-57.54-8.11-74.85C331.2,209.32,352.49,211.59,355.61,215.85z"/>
		<path class="st1" d="M254,173.99c0,0,14.48-3.12,29.38,9.37C277.27,190.59,259.53,193.15,254,173.99z"/>
		
			<linearGradient id="SVGID_00000050664834712430662970000012182590030474897026_" gradientUnits="userSpaceOnUse" x1="523.3673" y1="400.3987" x2="194.0033" y2="113.8787">
			<stop  offset="0" style="stop-color:#F7DB31"/>
			<stop  offset="0.1991" style="stop-color:#F4B840"/>
			<stop  offset="0.6344" style="stop-color:#EB4F58"/>
			<stop  offset="1" style="stop-color:#E9355E"/>
		</linearGradient>
		<circle style="fill:url(#SVGID_00000050664834712430662970000012182590030474897026_);" cx="268.69" cy="178.85" r="5.71"/>
	</g>
</g>
</svg>
