<?xml version="1.0" encoding="UTF-8" standalone="no"?>
<svg xmlns="http://www.w3.org/2000/svg" version="1.2" baseProfile="tiny" viewBox="0.00 0.00 523.00 302.00">
<g fill="#121212">
<path d="
  M 523.00 298.97
  L 523.00 302.00
  L 1.66 302.00
  L 1.64 300.05
  Q 2.56 300.05 3.21 299.39
  Q 3.53 299.05 3.53 298.58
  Q 3.45 157.63 3.57 16.77
  C 3.57 14.19 3.44 11.06 4.22 8.82
  C 5.50 5.13 8.74 3.01 12.56 3.01
  Q 262.26 3.00 512.46 3.00
  C 516.02 3.00 519.70 5.08 520.89 8.41
  Q 521.53 10.18 521.53 13.67
  Q 521.51 152.03 521.53 290.37
  Q 521.53 296.12 523.00 298.97
  Z
  M 115.16 66.41
  C 113.31 68.67 108.59 68.31 108.41 64.74
  A 0.41 0.41 0.0 0 0 107.98 64.35
  L 105.99 64.42
  Q 105.44 64.44 105.53 64.98
  C 106.34 70.16 111.64 71.46 115.76 69.39
  C 119.57 67.48 119.36 61.79 116.25 59.47
  C 114.04 57.83 107.27 58.17 108.99 53.56
  Q 109.50 52.19 110.81 51.89
  Q 114.28 51.10 115.26 54.26
  Q 115.42 54.77 115.95 54.76
  L 117.48 54.75
  Q 118.11 54.74 118.00 54.12
  C 117.22 49.59 112.64 48.20 108.89 50.01
  C 105.83 51.50 105.19 55.47 107.13 58.14
  C 108.73 60.36 111.58 60.52 113.96 61.38
  C 115.97 62.10 116.43 64.86 115.16 66.41
  Z
  M 216.29 62.30
  C 216.15 63.79 216.67 65.51 215.53 66.69
  C 213.59 68.72 209.52 68.07 209.51 64.64
  Q 209.49 60.02 209.50 55.20
  C 209.50 50.69 215.77 50.56 216.22 54.73
  Q 216.26 55.05 216.59 55.07
  L 218.46 55.17
  A 0.54 0.54 0.0 0 0 219.03 54.58
  C 218.24 46.78 206.17 47.43 206.71 56.28
  Q 206.92 59.74 206.71 63.23
  C 206.48 66.93 208.06 69.91 212.11 70.25
  Q 215.99 70.57 217.99 67.98
  C 219.64 65.85 218.85 62.44 219.04 59.83
  A 0.55 0.55 0.0 0 0 218.49 59.24
  L 212.72 59.26
  A 0.50 0.50 0.0 0 0 212.22 59.78
  L 212.28 61.20
  Q 212.29 61.61 212.70 61.62
  L 215.70 61.65
  Q 216.36 61.65 216.29 62.30
  Z
  M 336.3630 54.8789
  A 5.62 5.62 0.0 0 0 330.7234 49.2785
  L 329.8434 49.2816
  A 5.62 5.62 0.0 0 0 324.2430 54.9212
  L 324.2770 64.6611
  A 5.62 5.62 0.0 0 0 329.9166 70.2615
  L 330.7966 70.2584
  A 5.62 5.62 0.0 0 0 336.3970 64.6188
  L 336.3630 54.8789
  Z
  M 350.71 62.20
  C 350.53 63.85 350.97 65.95 349.45 67.06
  C 347.49 68.49 343.88 67.75 343.87 64.87
  Q 343.87 59.76 343.91 54.62
  C 343.94 50.90 349.98 50.47 350.64 54.92
  Q 350.67 55.14 350.89 55.15
  Q 352.71 55.23 353.42 54.97
  Q 353.48 54.95 353.47 54.89
  Q 352.71 49.47 347.48 49.28
  C 342.18 49.10 340.72 52.75 341.05 57.34
  C 341.39 62.05 339.19 69.99 346.80 70.27
  Q 350.46 70.41 352.27 68.03
  C 353.87 65.91 353.31 62.46 353.43 59.90
  Q 353.46 59.25 352.81 59.25
  L 347.20 59.25
  A 0.55 0.55 0.0 0 0 346.65 59.79
  L 346.62 61.11
  Q 346.62 61.61 347.11 61.61
  L 350.20 61.62
  Q 350.77 61.63 350.71 62.20
  Z
  M 396.53 57.60
  C 393.21 56.69 393.37 52.27 396.82 51.80
  Q 399.93 51.38 400.62 54.31
  Q 400.73 54.80 401.24 54.78
  L 402.97 54.70
  Q 403.44 54.68 403.40 54.22
  C 402.99 49.52 397.81 48.24 394.19 50.08
  C 389.77 52.33 391.03 59.00 395.61 60.29
  C 397.45 60.82 399.99 60.90 400.91 62.83
  C 403.44 68.15 394.25 69.77 393.80 64.90
  Q 393.76 64.39 393.24 64.38
  L 391.43 64.36
  Q 391.00 64.36 391.01 64.79
  C 391.11 69.80 396.55 71.14 400.51 69.74
  C 405.27 68.06 405.14 60.48 400.36 58.79
  Q 398.51 58.14 396.53 57.60
  Z
  M 415.33 51.86
  Q 417.13 52.34 417.40 54.26
  Q 417.47 54.78 417.99 54.76
  L 419.89 54.71
  Q 420.23 54.70 420.19 54.37
  C 419.78 49.80 414.71 48.11 411.05 49.97
  C 406.73 52.16 407.57 58.72 412.12 60.16
  C 414.75 60.99 419.29 61.35 417.84 65.65
  C 416.76 68.82 410.93 68.46 410.66 64.92
  A 0.61 0.60 -2.0 0 0 410.05 64.36
  L 408.24 64.39
  Q 407.70 64.39 407.75 64.93
  C 408.23 70.59 416.30 72.13 419.52 68.09
  C 421.73 65.33 420.96 60.54 417.65 59.01
  Q 415.79 58.15 413.60 57.76
  C 409.22 56.96 410.60 50.62 415.33 51.86
  Z
  M 125.86 54.53
  L 131.02 69.28
  Q 131.27 70.00 132.04 70.00
  L 134.05 70.00
  Q 134.85 70.00 134.85 69.20
  L 134.90 49.71
  Q 134.90 49.52 134.71 49.52
  L 132.49 49.50
  Q 132.22 49.50 132.22 49.77
  L 132.30 64.77
  Q 132.31 66.09 131.87 64.85
  L 126.63 50.07
  Q 126.43 49.50 125.83 49.50
  L 123.44 49.50
  Q 122.87 49.50 122.87 50.06
  L 122.87 69.56
  Q 122.87 70.01 123.32 70.00
  L 125.03 69.98
  Q 125.54 69.98 125.53 69.47
  L 125.43 54.60
  Q 125.42 53.27 125.86 54.53
  Z
  M 143.87 52.09
  A 0.37 0.37 0.0 0 1 144.25 52.46
  L 144.25 67.15
  A 0.37 0.37 0.0 0 1 143.87 67.52
  L 140.55 67.48
  A 0.37 0.37 0.0 0 0 140.18 67.82
  L 140.07 69.61
  A 0.37 0.37 0.0 0 0 140.44 70.00
  L 150.87 70.00
  A 0.37 0.37 0.0 0 0 151.24 69.63
  L 151.26 67.86
  A 0.37 0.37 0.0 0 0 150.89 67.49
  L 147.37 67.51
  A 0.37 0.37 0.0 0 1 147.00 67.14
  L 147.00 52.48
  A 0.37 0.37 0.0 0 1 147.37 52.11
  L 150.88 52.16
  A 0.37 0.37 0.0 0 0 151.26 51.78
  L 151.25 49.87
  A 0.37 0.37 0.0 0 0 150.88 49.50
  L 140.52 49.50
  A 0.37 0.37 0.0 0 0 140.15 49.86
  L 140.10 51.80
  A 0.37 0.37 0.0 0 0 140.48 52.18
  L 143.87 52.09
  Z
  M 159.79 61.73
  C 161.83 61.68 164.05 62.06 165.91 61.25
  C 171.46 58.84 170.60 50.49 164.28 49.69
  Q 161.17 49.30 156.98 49.53
  Q 156.50 49.55 156.50 50.03
  L 156.50 69.50
  Q 156.50 70.00 157.00 70.00
  L 158.75 70.00
  Q 159.26 70.00 159.26 69.49
  L 159.25 62.28
  A 0.55 0.55 0.0 0 1 159.79 61.73
  Z
  M 180.63 52.50
  A 0.37 0.37 0.0 0 1 181.01 52.13
  L 184.36 52.17
  A 0.37 0.37 0.0 0 0 184.73 51.81
  L 184.74 49.87
  A 0.37 0.37 0.0 0 0 184.37 49.50
  L 173.99 49.50
  A 0.37 0.37 0.0 0 0 173.62 49.87
  L 173.61 51.78
  A 0.37 0.37 0.0 0 0 173.98 52.15
  L 177.51 52.13
  A 0.37 0.37 0.0 0 1 177.88 52.50
  L 177.87 67.15
  A 0.37 0.37 0.0 0 1 177.50 67.52
  L 174.02 67.48
  A 0.37 0.37 0.0 0 0 173.64 67.85
  L 173.61 69.62
  A 0.37 0.37 0.0 0 0 173.98 70.00
  L 184.39 69.98
  A 0.37 0.37 0.0 0 0 184.76 69.60
  L 184.73 67.86
  A 0.37 0.37 0.0 0 0 184.36 67.50
  L 181.00 67.50
  A 0.37 0.37 0.0 0 1 180.63 67.13
  L 180.63 52.50
  Z
  M 192.91 54.22
  L 198.25 69.47
  Q 198.43 69.99 198.98 69.99
  L 201.37 70.01
  Q 202.00 70.01 202.00 69.38
  L 202.00 49.75
  A 0.25 0.25 0.0 0 0 201.75 49.50
  L 199.70 49.51
  Q 199.34 49.51 199.35 49.86
  L 199.47 65.05
  Q 199.48 66.06 199.14 65.11
  L 193.75 50.03
  Q 193.57 49.51 193.02 49.51
  L 190.50 49.49
  Q 190.00 49.49 190.00 50.00
  L 190.00 69.75
  Q 190.00 70.01 190.25 70.00
  L 192.22 69.97
  A 0.45 0.44 -0.7 0 0 192.66 69.53
  L 192.57 54.28
  Q 192.56 53.22 192.91 54.22
  Z
  M 247.74 52.48
  A 0.37 0.37 0.0 0 1 248.12 52.11
  L 251.59 52.16
  A 0.37 0.37 0.0 0 0 251.97 51.80
  L 252.01 49.87
  A 0.37 0.37 0.0 0 0 251.64 49.49
  L 241.26 49.50
  A 0.37 0.37 0.0 0 0 240.89 49.87
  L 240.88 51.77
  A 0.37 0.37 0.0 0 0 241.26 52.15
  L 244.63 52.10
  A 0.37 0.37 0.0 0 1 245.00 52.47
  L 245.00 67.15
  A 0.37 0.37 0.0 0 1 244.63 67.52
  L 241.27 67.49
  A 0.37 0.37 0.0 0 0 240.90 67.85
  L 240.85 69.62
  A 0.37 0.37 0.0 0 0 241.22 70.00
  L 251.61 70.00
  A 0.37 0.37 0.0 0 0 251.98 69.64
  L 252.00 67.86
  A 0.37 0.37 0.0 0 0 251.63 67.48
  L 248.12 67.51
  A 0.37 0.37 0.0 0 1 247.75 67.14
  L 247.74 52.48
  Z
  M 266.31 65.11
  L 260.89 49.97
  A 0.71 0.71 0.0 0 0 260.22 49.50
  L 257.68 49.51
  Q 257.11 49.51 257.11 50.07
  L 257.13 69.66
  Q 257.13 70.01 257.48 70.01
  L 259.53 69.96
  Q 259.75 69.95 259.75 69.72
  L 259.74 55.17
  Q 259.73 53.21 260.38 55.06
  L 265.37 69.41
  Q 265.57 69.99 266.19 69.99
  L 268.75 70.00
  Q 269.25 70.00 269.25 69.50
  L 269.25 49.76
  Q 269.25 49.52 269.01 49.52
  L 266.97 49.49
  Q 266.61 49.49 266.61 49.85
  L 266.65 65.04
  Q 266.66 66.07 266.31 65.11
  Z
  M 294.33 61.73
  C 296.22 61.70 298.24 62.01 300.00 61.32
  C 305.54 59.14 305.09 50.42 298.80 49.71
  Q 295.38 49.32 291.49 49.53
  Q 290.87 49.56 290.87 50.18
  L 290.87 69.64
  A 0.36 0.36 0.0 0 0 291.24 70.00
  L 293.21 69.98
  Q 293.64 69.98 293.64 69.54
  L 293.62 62.45
  Q 293.62 61.73 294.33 61.73
  Z
  M 310.95 61.49
  L 313.08 61.51
  Q 313.60 61.52 313.81 61.99
  L 317.16 69.48
  A 0.88 0.87 -11.9 0 0 317.96 70.00
  L 319.85 69.99
  Q 320.47 69.99 320.21 69.43
  L 316.66 61.74
  Q 316.46 61.31 316.83 61.01
  Q 317.14 60.76 317.50 60.59
  C 320.05 59.33 320.66 55.81 319.88 53.36
  C 318.40 48.67 311.78 49.37 308.13 49.50
  Q 307.62 49.52 307.62 50.03
  L 307.63 69.44
  Q 307.63 70.01 308.19 70.01
  L 309.95 69.99
  Q 310.38 69.98 310.38 69.55
  L 310.38 62.05
  Q 310.37 61.48 310.95 61.49
  Z
  M 361.25 61.49
  L 363.15 61.51
  Q 363.89 61.51 364.20 62.18
  L 367.57 69.44
  Q 367.84 70.02 368.48 70.01
  L 370.24 69.98
  Q 370.91 69.97 370.62 69.37
  L 366.97 61.78
  Q 366.71 61.24 367.23 60.94
  Q 371.49 58.54 370.33 53.72
  C 369.11 48.60 362.31 49.43 358.52 49.49
  Q 358.00 49.50 358.00 50.02
  L 358.00 69.51
  Q 358.00 70.02 358.51 70.01
  L 360.27 69.98
  Q 360.76 69.97 360.76 69.48
  L 360.75 62.00
  Q 360.74 61.49 361.25 61.49
  Z
  M 378.23 67.51
  A 0.49 0.49 0.0 0 1 377.74 67.02
  L 377.74 60.97
  A 0.49 0.49 0.0 0 1 378.23 60.48
  L 385.38 60.51
  A 0.49 0.49 0.0 0 0 385.87 60.02
  L 385.89 58.60
  A 0.49 0.49 0.0 0 0 385.40 58.11
  L 378.24 58.12
  A 0.49 0.49 0.0 0 1 377.75 57.63
  L 377.73 52.49
  A 0.49 0.49 0.0 0 1 378.22 52.00
  L 386.46 51.99
  A 0.49 0.49 0.0 0 0 386.95 51.47
  L 386.85 49.96
  A 0.49 0.49 0.0 0 0 386.36 49.50
  L 375.49 49.49
  A 0.49 0.49 0.0 0 0 375.00 49.98
  L 375.00 69.52
  A 0.49 0.49 0.0 0 0 375.49 70.01
  L 386.46 69.98
  A 0.49 0.49 0.0 0 0 386.95 69.45
  L 386.83 67.93
  A 0.49 0.49 0.0 0 0 386.34 67.48
  L 378.23 67.51
  Z
  M 319.2925 102.1505
  A 2.33 2.33 0.0 0 0 316.9953 99.7882
  L 315.8554 99.7723
  A 2.33 2.33 0.0 0 0 313.4931 102.0695
  L 313.4875 102.4695
  A 2.33 2.33 0.0 0 0 315.7847 104.8318
  L 316.9246 104.8477
  A 2.33 2.33 0.0 0 0 319.2869 102.5505
  L 319.2925 102.1505
  Z
  M 118.76 117.81
  C 122.72 118.02 126.51 118.13 129.06 115.08
  C 132.20 111.33 131.29 105.18 126.94 102.83
  C 123.46 100.95 118.14 101.94 114.15 101.68
  Q 113.50 101.64 113.50 102.29
  L 113.50 127.75
  Q 113.50 127.99 113.75 127.99
  L 117.75 128.00
  A 0.25 0.25 0.0 0 0 118.00 127.75
  L 118.00 118.52
  Q 118.00 117.77 118.76 117.81
  Z
  M 139.76 106.45
  Q 139.76 113.68 139.73 121.47
  Q 139.71 125.68 143.11 127.33
  C 145.57 128.52 149.24 127.92 151.97 128.00
  A 0.42 0.41 -89.3 0 0 152.39 127.58
  L 152.37 124.25
  Q 152.36 123.88 151.99 123.88
  L 146.06 123.87
  A 1.81 1.81 0.0 0 1 144.25 122.06
  L 144.25 102.25
  Q 144.25 101.75 143.75 101.75
  L 133.75 101.75
  Q 133.25 101.75 133.25 102.25
  L 133.25 105.25
  Q 133.25 105.75 133.75 105.75
  L 139.06 105.75
  Q 139.76 105.75 139.76 106.45
  Z
  M 267.95 123.74
  L 266.06 102.01
  A 0.29 0.28 87.8 0 0 265.78 101.74
  L 262.51 101.76
  Q 262.29 101.76 262.31 101.99
  L 264.95 127.50
  Q 265.00 128.00 265.50 128.00
  L 269.77 128.00
  Q 270.04 128.00 270.07 127.73
  L 272.38 107.75
  Q 272.58 106.03 272.77 107.76
  L 274.98 127.52
  A 0.54 0.54 0.0 0 0 275.52 128.00
  L 279.50 128.00
  Q 279.99 128.00 280.05 127.51
  L 282.81 102.04
  Q 282.85 101.72 282.53 101.73
  L 279.36 101.78
  Q 279.14 101.78 279.12 102.00
  L 277.35 122.24
  Q 277.17 124.25 276.94 122.25
  L 274.63 102.36
  Q 274.56 101.75 273.95 101.75
  L 271.25 101.75
  Q 270.68 101.75 270.61 102.31
  Q 269.16 113.45 267.99 123.74
  A 0.02 0.02 0.0 0 1 267.95 123.74
  Z
  M 332.50 108.25
  L 328.00 108.26
  Q 327.75 108.26 327.75 108.50
  L 327.75 112.00
  Q 327.75 112.25 328.00 112.25
  L 332.72 112.25
  Q 333.28 112.25 333.27 112.82
  Q 333.22 117.50 333.27 122.11
  C 333.34 128.94 340.33 128.38 345.37 127.87
  Q 345.51 127.85 345.51 127.71
  L 345.48 124.05
  Q 345.48 123.86 345.30 123.86
  L 339.64 123.90
  Q 337.75 123.91 337.75 122.03
  L 337.75 112.75
  Q 337.75 112.25 338.25 112.25
  L 345.17 112.25
  Q 345.60 112.25 345.60 111.83
  L 345.65 108.70
  A 0.45 0.44 0.6 0 0 345.20 108.25
  L 338.25 108.25
  A 0.50 0.50 0.0 0 1 337.75 107.75
  L 337.75 102.96
  Q 337.75 102.67 337.46 102.67
  L 333.47 102.58
  Q 333.26 102.58 333.26 102.78
  L 333.24 107.50
  Q 333.24 108.25 332.50 108.25
  Z
  M 161.94 119.25
  L 172.21 119.25
  Q 172.72 119.25 172.78 118.75
  Q 173.29 114.97 172.30 112.51
  C 170.17 107.24 162.40 106.31 158.43 110.16
  Q 156.56 111.97 156.38 115.54
  C 156.09 121.50 156.16 126.84 162.48 128.14
  C 166.64 128.99 171.13 127.69 172.67 123.32
  A 0.43 0.43 0.0 0 0 172.26 122.75
  L 168.88 122.75
  A 0.85 0.84 16.9 0 0 168.18 123.12
  Q 166.86 125.04 163.90 124.62
  Q 161.51 124.29 160.90 121.95
  Q 160.77 121.47 160.64 120.97
  Q 160.16 119.25 161.94 119.25
  Z
  M 189.82 126.01
  L 189.77 127.50
  Q 189.75 128.00 190.25 128.00
  L 193.72 128.00
  Q 194.32 128.00 194.30 127.40
  Q 194.14 121.84 194.31 115.78
  C 194.43 111.78 192.97 108.87 188.74 108.07
  C 184.51 107.28 179.42 108.33 178.41 113.16
  Q 178.27 113.85 178.97 113.85
  L 182.01 113.88
  A 0.86 0.84 -74.8 0 0 182.77 113.43
  C 184.47 110.23 190.38 110.75 189.75 115.30
  Q 189.65 116.02 188.92 115.95
  C 184.29 115.47 177.84 115.75 177.57 121.79
  C 177.26 128.65 185.81 130.64 189.44 125.87
  Q 189.84 125.35 189.82 126.01
  Z
  M 204.07 114.35
  Q 203.41 112.33 205.24 111.69
  C 207.10 111.04 210.41 110.95 211.52 112.97
  A 0.84 0.83 75.3 0 0 212.25 113.40
  L 215.48 113.36
  A 0.52 0.52 0.0 0 0 215.97 112.70
  C 214.44 107.39 208.25 107.26 203.96 108.25
  C 197.52 109.73 198.37 119.04 204.99 119.53
  C 207.21 119.70 211.66 119.53 212.03 122.49
  A 1.72 1.72 0.0 0 1 210.82 124.36
  C 209.07 124.89 204.54 125.52 203.84 122.93
  Q 203.67 122.33 203.04 122.34
  L 200.01 122.42
  Q 199.20 122.44 199.36 123.23
  Q 200.05 126.67 203.10 127.66
  C 207.49 129.08 215.45 129.12 216.21 123.00
  C 216.71 118.97 214.28 116.30 210.33 116.01
  Q 207.47 115.80 204.91 115.14
  A 1.18 1.18 0.0 0 1 204.07 114.35
  Z
  M 226.19 119.25
  L 237.24 119.25
  A 0.38 0.37 90.0 0 0 237.61 118.87
  C 237.65 116.59 237.94 114.17 236.89 112.04
  C 234.09 106.37 225.12 106.50 222.13 111.59
  C 220.64 114.14 221.10 118.07 221.17 121.03
  C 221.38 130.03 235.38 130.87 237.37 123.22
  Q 237.49 122.76 237.01 122.76
  L 233.82 122.74
  Q 233.37 122.73 233.05 123.04
  C 229.98 125.98 225.10 124.93 225.36 120.03
  Q 225.40 119.25 226.19 119.25
  Z
  M 297.84 126.00
  L 297.71 127.46
  Q 297.67 128.00 298.21 128.00
  L 301.50 128.00
  Q 302.13 128.00 302.13 127.37
  Q 302.14 120.68 302.12 114.39
  C 302.09 105.73 287.72 105.66 286.34 113.30
  Q 286.24 113.83 286.78 113.83
  L 289.99 113.88
  Q 290.44 113.89 290.63 113.48
  Q 291.85 110.82 295.69 111.65
  Q 297.06 111.95 297.43 113.29
  Q 297.65 114.05 297.71 114.87
  Q 297.79 116.03 296.63 115.93
  C 291.96 115.52 285.76 115.77 285.49 121.91
  C 285.18 128.93 293.80 130.40 297.36 125.81
  Q 297.91 125.11 297.84 126.00
  Z
  M 314.16 112.24
  A 0.34 0.34 0.0 0 1 314.50 112.58
  L 314.50 123.55
  A 0.34 0.34 0.0 0 1 314.16 123.89
  L 307.97 123.85
  A 0.34 0.34 0.0 0 0 307.63 124.19
  L 307.63 127.66
  A 0.34 0.34 0.0 0 0 307.97 128.00
  L 324.64 128.00
  A 0.34 0.34 0.0 0 0 324.98 127.66
  L 325.01 124.21
  A 0.34 0.34 0.0 0 0 324.66 123.86
  L 319.34 123.91
  A 0.34 0.34 0.0 0 1 319.00 123.57
  L 319.00 108.59
  A 0.34 0.34 0.0 0 0 318.66 108.25
  L 308.74 108.26
  A 0.34 0.34 0.0 0 0 308.40 108.60
  L 308.36 111.92
  A 0.34 0.34 0.0 0 0 308.70 112.26
  L 314.16 112.24
  Z
  M 365.47 125.05
  A 3.39 3.39 0.0 0 0 362.08 121.66
  A 3.39 3.39 0.0 0 0 358.69 125.05
  A 3.39 3.39 0.0 0 0 362.08 128.44
  A 3.39 3.39 0.0 0 0 365.47 125.05
  Z
  M 383.88 125.05
  A 3.40 3.40 0.0 0 0 380.48 121.65
  A 3.40 3.40 0.0 0 0 377.08 125.05
  A 3.40 3.40 0.0 0 0 380.48 128.45
  A 3.40 3.40 0.0 0 0 383.88 125.05
  Z
  M 402.27 125.06
  A 3.38 3.38 0.0 0 0 398.89 121.68
  A 3.38 3.38 0.0 0 0 395.51 125.06
  A 3.38 3.38 0.0 0 0 398.89 128.44
  A 3.38 3.38 0.0 0 0 402.27 125.06
  Z
  M 341.78 194.76
  L 341.95 195.08
  Q 342.35 195.83 343.15 195.55
  Q 350.50 192.93 350.49 185.23
  Q 350.49 177.41 350.68 169.49
  C 350.78 165.17 349.35 161.38 345.46 159.19
  Q 343.40 158.03 337.55 158.01
  Q 262.78 157.87 183.80 158.33
  Q 183.09 158.34 182.33 158.37
  Q 181.89 158.39 181.91 158.83
  L 181.95 159.72
  A 0.45 0.45 0.0 0 0 182.53 160.14
  Q 183.47 159.85 184.41 159.85
  Q 263.45 159.94 340.04 159.98
  C 345.01 159.98 348.71 163.32 348.67 168.39
  Q 348.60 176.77 348.80 184.80
  Q 349.00 192.75 342.17 193.95
  Q 341.42 194.09 341.78 194.76
  Z
  M 267.24 175.72
  A 1.39 1.39 0.0 0 1 266.52 173.44
  Q 267.41 172.44 268.67 173.21
  Q 269.19 173.53 269.54 174.02
  Q 270.04 174.70 270.76 174.49
  A 1.00 1.00 0.0 0 0 271.30 172.96
  C 268.57 168.99 261.92 172.20 264.93 176.42
  C 265.83 177.68 267.12 177.78 268.49 178.13
  A 1.65 1.64 -61.8 0 1 269.30 180.83
  Q 268.39 181.84 266.76 181.17
  A 1.28 1.23 1.7 0 1 266.07 180.47
  Q 265.68 179.44 264.62 179.69
  A 0.78 0.78 0.0 0 0 264.08 180.72
  C 265.41 184.23 271.40 184.12 271.77 179.94
  C 272.02 177.05 269.44 176.22 267.24 175.72
  Z
  M 204.52 178.49
  C 207.71 178.55 210.76 177.50 209.36 173.45
  C 208.46 170.81 204.84 171.26 202.54 171.37
  Q 201.88 171.40 201.88 172.06
  L 201.88 182.44
  Q 201.88 183.00 202.44 183.00
  L 203.29 183.00
  Q 203.83 183.00 203.84 182.46
  L 203.86 179.14
  Q 203.87 178.48 204.52 178.49
  Z
  M 214.30 180.41
  A 0.43 0.43 0.0 0 1 214.73 180.07
  L 217.18 180.15
  A 0.43 0.43 0.0 0 1 217.59 180.50
  L 217.96 182.62
  A 0.43 0.43 0.0 0 0 218.37 182.98
  L 219.56 183.00
  A 0.43 0.43 0.0 0 0 219.98 182.46
  L 217.27 171.70
  A 0.43 0.43 0.0 0 0 216.85 171.38
  L 214.93 171.38
  A 0.43 0.43 0.0 0 0 214.52 171.70
  L 211.75 182.51
  A 0.43 0.43 0.0 0 0 212.22 183.04
  L 213.46 182.91
  A 0.43 0.43 0.0 0 0 213.83 182.57
  L 214.30 180.41
  Z
  M 226.00 181.43
  A 1.44 1.43 -89.6 0 1 224.60 180.00
  L 224.59 171.95
  Q 224.59 171.33 223.97 171.35
  L 223.23 171.38
  Q 222.62 171.40 222.62 172.02
  L 222.65 179.48
  Q 222.65 182.07 225.09 182.93
  Q 225.65 183.13 226.31 183.12
  Q 229.95 183.08 229.96 179.43
  L 229.98 172.02
  Q 229.98 171.38 229.34 171.27
  Q 229.07 171.22 228.80 171.27
  A 0.95 0.95 0.0 0 0 228.00 172.21
  L 227.96 180.14
  Q 227.96 181.48 226.61 181.45
  L 226.00 181.43
  Z
  M 235.48 175.48
  A 1.37 1.37 0.0 0 1 235.52 173.18
  Q 237.17 172.15 238.28 173.81
  A 1.57 1.53 -4.3 0 0 238.91 174.34
  Q 239.25 174.50 239.62 174.47
  A 0.73 0.72 -18.9 0 0 240.17 173.35
  C 236.67 167.98 230.03 173.78 234.36 176.92
  C 235.61 177.82 237.54 177.61 238.41 178.79
  C 239.78 180.65 236.47 182.81 234.79 180.34
  Q 234.19 179.47 233.21 179.74
  A 0.61 0.61 0.0 0 0 232.82 180.58
  C 234.83 184.90 241.68 183.55 240.30 178.36
  C 239.67 175.98 236.97 176.48 235.48 175.48
  Z
  M 245.89 181.25
  A 0.34 0.34 0.0 0 1 245.55 180.90
  L 245.57 178.20
  A 0.34 0.34 0.0 0 1 245.91 177.86
  L 249.82 177.90
  A 0.34 0.34 0.0 0 0 250.16 177.55
  L 250.15 176.44
  A 0.34 0.34 0.0 0 0 249.80 176.10
  L 245.92 176.11
  A 0.34 0.34 0.0 0 1 245.58 175.77
  L 245.58 173.45
  A 0.34 0.34 0.0 0 1 245.92 173.11
  L 250.39 173.12
  A 0.34 0.34 0.0 0 0 250.73 172.78
  L 250.72 171.73
  A 0.34 0.34 0.0 0 0 250.38 171.39
  L 243.97 171.39
  A 0.34 0.34 0.0 0 0 243.63 171.73
  L 243.65 182.68
  A 0.34 0.34 0.0 0 0 243.99 183.02
  L 250.42 182.95
  A 0.34 0.34 0.0 0 0 250.75 182.66
  L 250.90 181.72
  A 0.34 0.34 0.0 0 0 250.57 181.32
  L 245.89 181.25
  Z
  M 280.06 178.30
  Q 280.04 180.10 279.46 178.40
  Q 278.55 175.74 277.56 172.72
  C 277.13 171.43 276.32 170.94 275.03 171.40
  Q 274.61 171.55 274.61 172.00
  L 274.62 182.44
  Q 274.63 183.00 275.19 182.99
  L 275.72 182.99
  A 0.70 0.69 89.2 0 0 276.40 182.28
  L 276.30 175.31
  Q 276.27 173.78 276.80 175.22
  Q 278.11 178.78 279.17 182.44
  Q 279.33 182.97 279.88 182.98
  L 281.21 183.00
  Q 281.94 183.01 281.93 182.29
  L 281.89 171.78
  Q 281.89 171.26 281.37 171.26
  L 280.93 171.26
  Q 280.14 171.27 280.13 172.06
  L 280.06 178.30
  Z
  M 289.63 180.72
  L 289.65 173.73
  Q 289.65 173.10 290.28 173.11
  L 291.30 173.13
  A 0.68 0.67 0.0 0 0 291.99 172.45
  L 291.99 171.92
  Q 291.99 171.34 291.41 171.35
  L 285.50 171.41
  A 0.49 0.48 83.7 0 0 285.03 172.00
  L 285.09 172.28
  Q 285.24 172.93 285.90 173.02
  L 287.07 173.17
  Q 287.64 173.25 287.63 173.82
  L 287.59 180.58
  Q 287.59 181.35 286.82 181.26
  Q 285.96 181.16 285.20 181.56
  Q 285.07 181.63 285.06 181.78
  L 285.05 182.12
  A 0.83 0.83 0.0 0 0 285.88 182.99
  L 291.27 183.00
  Q 292.08 183.00 292.01 182.19
  L 291.99 181.89
  A 0.72 0.71 85.9 0 0 291.24 181.23
  L 290.22 181.29
  Q 289.63 181.32 289.63 180.72
  Z
  M 298.28 178.41
  C 303.30 179.64 305.21 172.79 300.92 171.65
  Q 298.91 171.11 296.02 171.42
  Q 295.50 171.47 295.50 172.00
  L 295.50 182.55
  Q 295.50 182.81 295.74 182.88
  Q 296.32 183.06 297.05 183.00
  Q 297.51 182.97 297.51 182.51
  L 297.50 179.03
  A 0.63 0.63 0.0 0 1 298.28 178.41
  Z
  M 308.31 176.11
  A 0.34 0.34 0.0 0 1 307.97 175.77
  L 308.01 173.41
  A 0.34 0.34 0.0 0 1 308.35 173.07
  L 312.63 173.14
  A 0.34 0.34 0.0 0 0 312.98 172.79
  L 312.97 171.71
  A 0.34 0.34 0.0 0 0 312.63 171.37
  L 306.34 171.39
  A 0.34 0.34 0.0 0 0 306.00 171.73
  L 306.01 182.66
  A 0.34 0.34 0.0 0 0 306.35 183.00
  L 312.63 182.98
  A 0.34 0.34 0.0 0 0 312.97 182.64
  L 312.96 181.61
  A 0.34 0.34 0.0 0 0 312.62 181.27
  L 308.32 181.26
  A 0.34 0.34 0.0 0 1 307.98 180.92
  L 308.01 178.22
  A 0.34 0.34 0.0 0 1 308.34 177.89
  L 312.14 177.86
  A 0.34 0.34 0.0 0 0 312.47 177.55
  L 312.54 176.51
  A 0.34 0.34 0.0 0 0 312.21 176.15
  L 308.31 176.11
  Z
  M 322.12 177.87
  Q 324.83 175.78 323.20 172.94
  C 321.94 170.75 319.09 171.49 316.90 171.35
  Q 316.25 171.31 316.25 171.96
  L 316.25 182.50
  A 0.50 0.50 0.0 0 0 316.75 183.00
  L 317.76 182.99
  A 0.50 0.50 0.0 0 0 318.26 182.49
  L 318.25 178.95
  A 0.70 0.70 0.0 0 1 319.03 178.26
  Q 319.64 178.33 319.95 178.90
  Q 320.80 180.45 321.28 182.12
  A 1.21 1.21 0.0 0 0 322.46 183.00
  L 323.24 182.99
  Q 324.03 182.99 323.67 182.29
  L 321.90 178.86
  Q 321.59 178.27 322.12 177.87
  Z"
/>
<rect x="327.01" y="51.77" width="6.62" height="16.00" rx="3.03"/>
<path d="
  M 159.25 52.28
  A 0.27 0.27 0.0 0 1 159.52 52.01
  L 163.28 52.01
  A 3.35 3.33 0.0 0 1 166.63 55.34
  L 166.63 55.94
  A 3.35 3.33 0.0 0 1 163.28 59.27
  L 159.52 59.27
  A 0.27 0.27 0.0 0 1 159.25 59.00
  L 159.25 52.28
  Z"
/>
<path d="
  M 293.62 52.29
  A 0.26 0.26 0.0 0 1 293.88 52.03
  L 297.64 52.02
  A 3.37 3.36 89.8 0 1 301.01 55.38
  L 301.01 55.88
  A 3.37 3.36 89.8 0 1 297.66 59.26
  L 293.90 59.27
  A 0.26 0.26 0.0 0 1 293.64 59.01
  L 293.62 52.29
  Z"
/>
<path d="
  M 310.35 52.46
  A 0.45 0.45 0.0 0 1 310.80 52.01
  L 314.08 52.00
  A 3.29 3.29 0.0 0 1 317.38 55.28
  L 317.38 55.72
  A 3.29 3.29 0.0 0 1 314.10 59.02
  L 310.82 59.03
  A 0.45 0.45 0.0 0 1 310.37 58.58
  L 310.35 52.46
  Z"
/>
<path d="
  M 360.73 52.34
  A 0.33 0.33 0.0 0 1 361.06 52.01
  L 364.47 52.00
  A 3.36 3.26 89.9 0 1 367.74 55.35
  L 367.74 55.63
  A 3.36 3.26 89.9 0 1 364.49 59.00
  L 361.08 59.01
  A 0.33 0.33 0.0 0 1 360.75 58.68
  L 360.73 52.34
  Z"
/>
<path d="
  M 117.99 105.93
  A 0.31 0.31 0.0 0 1 118.30 105.62
  L 122.23 105.61
  A 4.14 4.08 -0.2 0 1 126.38 109.68
  L 126.38 109.90
  A 4.14 4.08 -0.2 0 1 122.25 113.99
  L 118.32 114.00
  A 0.31 0.31 0.0 0 1 118.01 113.69
  L 117.99 105.93
  Z"
/>
<path d="
  M 161.03 116.26
  A 0.34 0.34 0.0 0 1 160.69 115.92
  L 160.69 115.23
  A 3.95 3.68 89.8 0 1 164.35 111.27
  L 164.93 111.27
  A 3.95 3.68 89.8 0 1 168.63 115.21
  L 168.63 115.90
  A 0.34 0.34 0.0 0 1 168.29 116.24
  L 161.03 116.26
  Z"
/>
<path d="
  M 225.79 116.26
  A 0.34 0.34 0.0 0 1 225.45 115.92
  L 225.44 115.19
  A 3.91 3.86 89.8 0 1 229.29 111.27
  L 229.51 111.27
  A 3.91 3.86 89.8 0 1 233.38 115.17
  L 233.39 115.90
  A 0.34 0.34 0.0 0 1 233.05 116.24
  L 225.79 116.26
  Z"
/>
<path d="
  M 189.72 119.25
  C 190.35 123.06 188.23 125.26 184.16 124.51
  C 180.98 123.93 181.23 119.15 184.74 118.84
  Q 186.77 118.66 189.12 118.72
  Q 189.64 118.73 189.72 119.25
  Z"
/>
<path d="
  M 297.66 119.28
  C 297.93 122.88 296.71 125.10 292.53 124.63
  C 289.97 124.34 288.84 121.33 290.82 119.58
  C 292.32 118.26 295.12 118.82 297.00 118.71
  Q 297.62 118.67 297.66 119.28
  Z"
/>
<path d="
  M 203.82 173.46
  A 0.35 0.35 0.0 0 1 204.17 173.11
  L 205.92 173.10
  A 1.74 1.71 -0.2 0 1 207.67 174.80
  L 207.67 175.04
  A 1.74 1.71 -0.2 0 1 205.94 176.76
  L 204.19 176.77
  A 0.35 0.35 0.0 0 1 203.84 176.42
  L 203.82 173.46
  Z"
/>
<path d="
  M 297.50 173.49
  A 0.35 0.35 0.0 0 1 297.85 173.14
  L 299.42 173.14
  A 1.80 1.69 0.1 0 1 301.22 174.83
  L 301.22 175.07
  A 1.80 1.69 0.1 0 1 299.42 176.76
  L 297.85 176.76
  A 0.35 0.35 0.0 0 1 297.50 176.41
  L 297.50 173.49
  Z"
/>
<path d="
  M 318.27 173.58
  A 0.49 0.49 0.0 0 1 318.76 173.09
  L 320.00 173.11
  A 1.75 1.56 0.7 0 1 321.73 174.69
  L 321.73 175.09
  A 1.75 1.56 0.7 0 1 319.96 176.63
  L 318.72 176.61
  A 0.49 0.49 0.0 0 1 318.23 176.12
  L 318.27 173.58
  Z"
/>
<path d="
  M 216.15 174.12
  L 216.95 177.76
  Q 217.18 178.80 216.15 178.53
  Q 215.78 178.43 215.41 178.55
  Q 214.64 178.80 214.81 178.01
  L 215.65 174.12
  Q 215.90 172.99 216.15 174.12
  Z"
/>
</g>
<g fill="#ffffff">
<rect x="-2.90" y="-2.53" transform="translate(316.39,102.31) rotate(0.8)" width="5.80" height="5.06" rx="2.33"/>
<path d="
  M 118.00 118.52
  L 118.00 127.75
  A 0.25 0.25 0.0 0 1 117.75 128.00
  L 113.75 127.99
  Q 113.50 127.99 113.50 127.75
  L 113.50 102.29
  Q 113.50 101.64 114.15 101.68
  C 118.14 101.94 123.46 100.95 126.94 102.83
  C 131.29 105.18 132.20 111.33 129.06 115.08
  C 126.51 118.13 122.72 118.02 118.76 117.81
  Q 118.00 117.77 118.00 118.52
  Z
  M 117.99 105.93
  L 118.01 113.69
  A 0.31 0.31 0.0 0 0 118.32 114.00
  L 122.25 113.99
  A 4.14 4.08 -0.2 0 0 126.38 109.90
  L 126.38 109.68
  A 4.14 4.08 -0.2 0 0 122.23 105.61
  L 118.30 105.62
  A 0.31 0.31 0.0 0 0 117.99 105.93
  Z"
/>
<path d="
  M 139.06 105.75
  L 133.75 105.75
  Q 133.25 105.75 133.25 105.25
  L 133.25 102.25
  Q 133.25 101.75 133.75 101.75
  L 143.75 101.75
  Q 144.25 101.75 144.25 102.25
  L 144.25 122.06
  A 1.81 1.81 0.0 0 0 146.06 123.87
  L 151.99 123.88
  Q 152.36 123.88 152.37 124.25
  L 152.39 127.58
  A 0.42 0.41 -89.3 0 1 151.97 128.00
  C 149.24 127.92 145.57 128.52 143.11 127.33
  Q 139.71 125.68 139.73 121.47
  Q 139.76 113.68 139.76 106.45
  Q 139.76 105.75 139.06 105.75
  Z"
/>
<path d="
  M 267.99 123.74
  Q 269.16 113.45 270.61 102.31
  Q 270.68 101.75 271.25 101.75
  L 273.95 101.75
  Q 274.56 101.75 274.63 102.36
  L 276.94 122.25
  Q 277.17 124.25 277.35 122.24
  L 279.12 102.00
  Q 279.14 101.78 279.36 101.78
  L 282.53 101.73
  Q 282.85 101.72 282.81 102.04
  L 280.05 127.51
  Q 279.99 128.00 279.50 128.00
  L 275.52 128.00
  A 0.54 0.54 0.0 0 1 274.98 127.52
  L 272.77 107.76
  Q 272.58 106.03 272.38 107.75
  L 270.07 127.73
  Q 270.04 128.00 269.77 128.00
  L 265.50 128.00
  Q 265.00 128.00 264.95 127.50
  L 262.31 101.99
  Q 262.29 101.76 262.51 101.76
  L 265.78 101.74
  A 0.29 0.28 87.8 0 1 266.06 102.01
  L 267.95 123.74
  A 0.02 0.02 0.0 0 0 267.99 123.74
  Z"
/>
<path d="
  M 333.24 107.50
  L 333.26 102.78
  Q 333.26 102.58 333.47 102.58
  L 337.46 102.67
  Q 337.75 102.67 337.75 102.96
  L 337.75 107.75
  A 0.50 0.50 0.0 0 0 338.25 108.25
  L 345.20 108.25
  A 0.45 0.44 0.6 0 1 345.65 108.70
  L 345.60 111.83
  Q 345.60 112.25 345.17 112.25
  L 338.25 112.25
  Q 337.75 112.25 337.75 112.75
  L 337.75 122.03
  Q 337.75 123.91 339.64 123.90
  L 345.30 123.86
  Q 345.48 123.86 345.48 124.05
  L 345.51 127.71
  Q 345.51 127.85 345.37 127.87
  C 340.33 128.38 333.34 128.94 333.27 122.11
  Q 333.22 117.50 333.27 112.82
  Q 333.28 112.25 332.72 112.25
  L 328.00 112.25
  Q 327.75 112.25 327.75 112.00
  L 327.75 108.50
  Q 327.75 108.26 328.00 108.26
  L 332.50 108.25
  Q 333.24 108.25 333.24 107.50
  Z"
/>
<path d="
  M 161.94 119.25
  Q 160.16 119.25 160.64 120.97
  Q 160.77 121.47 160.90 121.95
  Q 161.51 124.29 163.90 124.62
  Q 166.86 125.04 168.18 123.12
  A 0.85 0.84 16.9 0 1 168.88 122.75
  L 172.26 122.75
  A 0.43 0.43 0.0 0 1 172.67 123.32
  C 171.13 127.69 166.64 128.99 162.48 128.14
  C 156.16 126.84 156.09 121.50 156.38 115.54
  Q 156.56 111.97 158.43 110.16
  C 162.40 106.31 170.17 107.24 172.30 112.51
  Q 173.29 114.97 172.78 118.75
  Q 172.72 119.25 172.21 119.25
  L 161.94 119.25
  Z
  M 161.03 116.26
  L 168.29 116.24
  A 0.34 0.34 0.0 0 0 168.63 115.90
  L 168.63 115.21
  A 3.95 3.68 89.8 0 0 164.93 111.27
  L 164.35 111.27
  A 3.95 3.68 89.8 0 0 160.69 115.23
  L 160.69 115.92
  A 0.34 0.34 0.0 0 0 161.03 116.26
  Z"
/>
<path d="
  M 189.44 125.87
  C 185.81 130.64 177.26 128.65 177.57 121.79
  C 177.84 115.75 184.29 115.47 188.92 115.95
  Q 189.65 116.02 189.75 115.30
  C 190.38 110.75 184.47 110.23 182.77 113.43
  A 0.86 0.84 -74.8 0 1 182.01 113.88
  L 178.97 113.85
  Q 178.27 113.85 178.41 113.16
  C 179.42 108.33 184.51 107.28 188.74 108.07
  C 192.97 108.87 194.43 111.78 194.31 115.78
  Q 194.14 121.84 194.30 127.40
  Q 194.32 128.00 193.72 128.00
  L 190.25 128.00
  Q 189.75 128.00 189.77 127.50
  L 189.82 126.01
  Q 189.84 125.35 189.44 125.87
  Z
  M 184.16 124.51
  C 188.23 125.26 190.35 123.06 189.72 119.25
  Q 189.64 118.73 189.12 118.72
  Q 186.77 118.66 184.74 118.84
  C 181.23 119.15 180.98 123.93 184.16 124.51
  Z"
/>
<path d="
  M 204.07 114.35
  A 1.18 1.18 0.0 0 0 204.91 115.14
  Q 207.47 115.80 210.33 116.01
  C 214.28 116.30 216.71 118.97 216.21 123.00
  C 215.45 129.12 207.49 129.08 203.10 127.66
  Q 200.05 126.67 199.36 123.23
  Q 199.20 122.44 200.01 122.42
  L 203.04 122.34
  Q 203.67 122.33 203.84 122.93
  C 204.54 125.52 209.07 124.89 210.82 124.36
  A 1.72 1.72 0.0 0 0 212.03 122.49
  C 211.66 119.53 207.21 119.70 204.99 119.53
  C 198.37 119.04 197.52 109.73 203.96 108.25
  C 208.25 107.26 214.44 107.39 215.97 112.70
  A 0.52 0.52 0.0 0 1 215.48 113.36
  L 212.25 113.40
  A 0.84 0.83 75.3 0 1 211.52 112.97
  C 210.41 110.95 207.10 111.04 205.24 111.69
  Q 203.41 112.33 204.07 114.35
  Z"
/>
<path d="
  M 225.36 120.03
  C 225.10 124.93 229.98 125.98 233.05 123.04
  Q 233.37 122.73 233.82 122.74
  L 237.01 122.76
  Q 237.49 122.76 237.37 123.22
  C 235.38 130.87 221.38 130.03 221.17 121.03
  C 221.10 118.07 220.64 114.14 222.13 111.59
  C 225.12 106.50 234.09 106.37 236.89 112.04
  C 237.94 114.17 237.65 116.59 237.61 118.87
  A 0.38 0.37 -90.0 0 1 237.24 119.25
  L 226.19 119.25
  Q 225.40 119.25 225.36 120.03
  Z
  M 225.79 116.26
  L 233.05 116.24
  A 0.34 0.34 0.0 0 0 233.39 115.90
  L 233.38 115.17
  A 3.91 3.86 89.8 0 0 229.51 111.27
  L 229.29 111.27
  A 3.91 3.86 89.8 0 0 225.44 115.19
  L 225.45 115.92
  A 0.34 0.34 0.0 0 0 225.79 116.26
  Z"
/>
<path d="
  M 297.36 125.81
  C 293.80 130.40 285.18 128.93 285.49 121.91
  C 285.76 115.77 291.96 115.52 296.63 115.93
  Q 297.79 116.03 297.71 114.87
  Q 297.65 114.05 297.43 113.29
  Q 297.06 111.95 295.69 111.65
  Q 291.85 110.82 290.63 113.48
  Q 290.44 113.89 289.99 113.88
  L 286.78 113.83
  Q 286.24 113.83 286.34 113.30
  C 287.72 105.66 302.09 105.73 302.12 114.39
  Q 302.14 120.68 302.13 127.37
  Q 302.13 128.00 301.50 128.00
  L 298.21 128.00
  Q 297.67 128.00 297.71 127.46
  L 297.84 126.00
  Q 297.91 125.11 297.36 125.81
  Z
  M 292.53 124.63
  C 296.71 125.10 297.93 122.88 297.66 119.28
  Q 297.62 118.67 297.00 118.71
  C 295.12 118.82 292.32 118.26 290.82 119.58
  C 288.84 121.33 289.97 124.34 292.53 124.63
  Z"
/>
<path d="
  M 314.16 112.24
  L 308.70 112.26
  A 0.34 0.34 0.0 0 1 308.36 111.92
  L 308.40 108.60
  A 0.34 0.34 0.0 0 1 308.74 108.26
  L 318.66 108.25
  A 0.34 0.34 0.0 0 1 319.00 108.59
  L 319.00 123.57
  A 0.34 0.34 0.0 0 0 319.34 123.91
  L 324.66 123.86
  A 0.34 0.34 0.0 0 1 325.01 124.21
  L 324.98 127.66
  A 0.34 0.34 0.0 0 1 324.64 128.00
  L 307.97 128.00
  A 0.34 0.34 0.0 0 1 307.63 127.66
  L 307.63 124.19
  A 0.34 0.34 0.0 0 1 307.97 123.85
  L 314.16 123.89
  A 0.34 0.34 0.0 0 0 314.50 123.55
  L 314.50 112.58
  A 0.34 0.34 0.0 0 0 314.16 112.24
  Z"
/>
<circle cx="362.08" cy="125.05" r="3.39"/>
<circle cx="380.48" cy="125.05" r="3.40"/>
<circle cx="398.89" cy="125.06" r="3.38"/>
</g>
<g fill="#EA5959">
<path d="
  M 108.41 64.74
  C 108.59 68.31 113.31 68.67 115.16 66.41
  C 116.43 64.86 115.97 62.10 113.96 61.38
  C 111.58 60.52 108.73 60.36 107.13 58.14
  C 105.19 55.47 105.83 51.50 108.89 50.01
  C 112.64 48.20 117.22 49.59 118.00 54.12
  Q 118.11 54.74 117.48 54.75
  L 115.95 54.76
  Q 115.42 54.77 115.26 54.26
  Q 114.28 51.10 110.81 51.89
  Q 109.50 52.19 108.99 53.56
  C 107.27 58.17 114.04 57.83 116.25 59.47
  C 119.36 61.79 119.57 67.48 115.76 69.39
  C 111.64 71.46 106.34 70.16 105.53 64.98
  Q 105.44 64.44 105.99 64.42
  L 107.98 64.35
  A 0.41 0.41 0.0 0 1 108.41 64.74
  Z"
/>
<path d="
  M 215.70 61.65
  L 212.70 61.62
  Q 212.29 61.61 212.28 61.20
  L 212.22 59.78
  A 0.50 0.50 0.0 0 1 212.72 59.26
  L 218.49 59.24
  A 0.55 0.55 0.0 0 1 219.04 59.83
  C 218.85 62.44 219.64 65.85 217.99 67.98
  Q 215.99 70.57 212.11 70.25
  C 208.06 69.91 206.48 66.93 206.71 63.23
  Q 206.92 59.74 206.71 56.28
  C 206.17 47.43 218.24 46.78 219.03 54.58
  A 0.54 0.54 0.0 0 1 218.46 55.17
  L 216.59 55.07
  Q 216.26 55.05 216.22 54.73
  C 215.77 50.56 209.50 50.69 209.50 55.20
  Q 209.49 60.02 209.51 64.64
  C 209.52 68.07 213.59 68.72 215.53 66.69
  C 216.67 65.51 216.15 63.79 216.29 62.30
  Q 216.36 61.65 215.70 61.65
  Z"
/>
<path d="
  M 336.3970 64.6188
  A 5.62 5.62 0.0 0 1 330.7966 70.2584
  L 329.9166 70.2615
  A 5.62 5.62 0.0 0 1 324.2770 64.6611
  L 324.2430 54.9212
  A 5.62 5.62 0.0 0 1 329.8434 49.2816
  L 330.7234 49.2785
  A 5.62 5.62 0.0 0 1 336.3630 54.8789
  L 336.3970 64.6188
  Z
  M 333.63 54.80
  A 3.03 3.03 0.0 0 0 330.60 51.77
  L 330.04 51.77
  A 3.03 3.03 0.0 0 0 327.01 54.80
  L 327.01 64.74
  A 3.03 3.03 0.0 0 0 330.04 67.77
  L 330.60 67.77
  A 3.03 3.03 0.0 0 0 333.63 64.74
  L 333.63 54.80
  Z"
/>
<path d="
  M 350.20 61.62
  L 347.11 61.61
  Q 346.62 61.61 346.62 61.11
  L 346.65 59.79
  A 0.55 0.55 0.0 0 1 347.20 59.25
  L 352.81 59.25
  Q 353.46 59.25 353.43 59.90
  C 353.31 62.46 353.87 65.91 352.27 68.03
  Q 350.46 70.41 346.80 70.27
  C 339.19 69.99 341.39 62.05 341.05 57.34
  C 340.72 52.75 342.18 49.10 347.48 49.28
  Q 352.71 49.47 353.47 54.89
  Q 353.48 54.95 353.42 54.97
  Q 352.71 55.23 350.89 55.15
  Q 350.67 55.14 350.64 54.92
  C 349.98 50.47 343.94 50.90 343.91 54.62
  Q 343.87 59.76 343.87 64.87
  C 343.88 67.75 347.49 68.49 349.45 67.06
  C 350.97 65.95 350.53 63.85 350.71 62.20
  Q 350.77 61.63 350.20 61.62
  Z"
/>
<path d="
  M 396.82 51.80
  C 393.37 52.27 393.21 56.69 396.53 57.60
  Q 398.51 58.14 400.36 58.79
  C 405.14 60.48 405.27 68.06 400.51 69.74
  C 396.55 71.14 391.11 69.80 391.01 64.79
  Q 391.00 64.36 391.43 64.36
  L 393.24 64.38
  Q 393.76 64.39 393.80 64.90
  C 394.25 69.77 403.44 68.15 400.91 62.83
  C 399.99 60.90 397.45 60.82 395.61 60.29
  C 391.03 59.00 389.77 52.33 394.19 50.08
  C 397.81 48.24 402.99 49.52 403.40 54.22
  Q 403.44 54.68 402.97 54.70
  L 401.24 54.78
  Q 400.73 54.80 400.62 54.31
  Q 399.93 51.38 396.82 51.80
  Z"
/>
<path d="
  M 415.33 51.86
  C 410.60 50.62 409.22 56.96 413.60 57.76
  Q 415.79 58.15 417.65 59.01
  C 420.96 60.54 421.73 65.33 419.52 68.09
  C 416.30 72.13 408.23 70.59 407.75 64.93
  Q 407.70 64.39 408.24 64.39
  L 410.05 64.36
  A 0.61 0.60 -2.0 0 1 410.66 64.92
  C 410.93 68.46 416.76 68.82 417.84 65.65
  C 419.29 61.35 414.75 60.99 412.12 60.16
  C 407.57 58.72 406.73 52.16 411.05 49.97
  C 414.71 48.11 419.78 49.80 420.19 54.37
  Q 420.23 54.70 419.89 54.71
  L 417.99 54.76
  Q 417.47 54.78 417.40 54.26
  Q 417.13 52.34 415.33 51.86
  Z"
/>
<path d="
  M 125.86 54.53
  Q 125.42 53.27 125.43 54.60
  L 125.53 69.47
  Q 125.54 69.98 125.03 69.98
  L 123.32 70.00
  Q 122.87 70.01 122.87 69.56
  L 122.87 50.06
  Q 122.87 49.50 123.44 49.50
  L 125.83 49.50
  Q 126.43 49.50 126.63 50.07
  L 131.87 64.85
  Q 132.31 66.09 132.30 64.77
  L 132.22 49.77
  Q 132.22 49.50 132.49 49.50
  L 134.71 49.52
  Q 134.90 49.52 134.90 49.71
  L 134.85 69.20
  Q 134.85 70.00 134.05 70.00
  L 132.04 70.00
  Q 131.27 70.00 131.02 69.28
  L 125.86 54.53
  Z"
/>
<path d="
  M 143.87 52.09
  L 140.48 52.18
  A 0.37 0.37 0.0 0 1 140.10 51.80
  L 140.15 49.86
  A 0.37 0.37 0.0 0 1 140.52 49.50
  L 150.88 49.50
  A 0.37 0.37 0.0 0 1 151.25 49.87
  L 151.26 51.78
  A 0.37 0.37 0.0 0 1 150.88 52.16
  L 147.37 52.11
  A 0.37 0.37 0.0 0 0 147.00 52.48
  L 147.00 67.14
  A 0.37 0.37 0.0 0 0 147.37 67.51
  L 150.89 67.49
  A 0.37 0.37 0.0 0 1 151.26 67.86
  L 151.24 69.63
  A 0.37 0.37 0.0 0 1 150.87 70.00
  L 140.44 70.00
  A 0.37 0.37 0.0 0 1 140.07 69.61
  L 140.18 67.82
  A 0.37 0.37 0.0 0 1 140.55 67.48
  L 143.87 67.52
  A 0.37 0.37 0.0 0 0 144.25 67.15
  L 144.25 52.46
  A 0.37 0.37 0.0 0 0 143.87 52.09
  Z"
/>
<path d="
  M 159.25 62.28
  L 159.26 69.49
  Q 159.26 70.00 158.75 70.00
  L 157.00 70.00
  Q 156.50 70.00 156.50 69.50
  L 156.50 50.03
  Q 156.50 49.55 156.98 49.53
  Q 161.17 49.30 164.28 49.69
  C 170.60 50.49 171.46 58.84 165.91 61.25
  C 164.05 62.06 161.83 61.68 159.79 61.73
  A 0.55 0.55 0.0 0 0 159.25 62.28
  Z
  M 159.25 52.28
  L 159.25 59.00
  A 0.27 0.27 0.0 0 0 159.52 59.27
  L 163.28 59.27
  A 3.35 3.33 0.0 0 0 166.63 55.94
  L 166.63 55.34
  A 3.35 3.33 -0.0 0 0 163.28 52.01
  L 159.52 52.01
  A 0.27 0.27 0.0 0 0 159.25 52.28
  Z"
/>
<path d="
  M 180.63 52.50
  L 180.63 67.13
  A 0.37 0.37 0.0 0 0 181.00 67.50
  L 184.36 67.50
  A 0.37 0.37 0.0 0 1 184.73 67.86
  L 184.76 69.60
  A 0.37 0.37 0.0 0 1 184.39 69.98
  L 173.98 70.00
  A 0.37 0.37 0.0 0 1 173.61 69.62
  L 173.64 67.85
  A 0.37 0.37 0.0 0 1 174.02 67.48
  L 177.50 67.52
  A 0.37 0.37 0.0 0 0 177.87 67.15
  L 177.88 52.50
  A 0.37 0.37 0.0 0 0 177.51 52.13
  L 173.98 52.15
  A 0.37 0.37 0.0 0 1 173.61 51.78
  L 173.62 49.87
  A 0.37 0.37 0.0 0 1 173.99 49.50
  L 184.37 49.50
  A 0.37 0.37 0.0 0 1 184.74 49.87
  L 184.73 51.81
  A 0.37 0.37 0.0 0 1 184.36 52.17
  L 181.01 52.13
  A 0.37 0.37 0.0 0 0 180.63 52.50
  Z"
/>
<path d="
  M 192.57 54.28
  L 192.66 69.53
  A 0.45 0.44 -0.7 0 1 192.22 69.97
  L 190.25 70.00
  Q 190.00 70.01 190.00 69.75
  L 190.00 50.00
  Q 190.00 49.49 190.50 49.49
  L 193.02 49.51
  Q 193.57 49.51 193.75 50.03
  L 199.14 65.11
  Q 199.48 66.06 199.47 65.05
  L 199.35 49.86
  Q 199.34 49.51 199.70 49.51
  L 201.75 49.50
  A 0.25 0.25 0.0 0 1 202.00 49.75
  L 202.00 69.38
  Q 202.00 70.01 201.37 70.01
  L 198.98 69.99
  Q 198.43 69.99 198.25 69.47
  L 192.91 54.22
  Q 192.56 53.22 192.57 54.28
  Z"
/>
<path d="
  M 247.74 52.48
  L 247.75 67.14
  A 0.37 0.37 0.0 0 0 248.12 67.51
  L 251.63 67.48
  A 0.37 0.37 0.0 0 1 252.00 67.86
  L 251.98 69.64
  A 0.37 0.37 0.0 0 1 251.61 70.00
  L 241.22 70.00
  A 0.37 0.37 0.0 0 1 240.85 69.62
  L 240.90 67.85
  A 0.37 0.37 0.0 0 1 241.27 67.49
  L 244.63 67.52
  A 0.37 0.37 0.0 0 0 245.00 67.15
  L 245.00 52.47
  A 0.37 0.37 0.0 0 0 244.63 52.10
  L 241.26 52.15
  A 0.37 0.37 0.0 0 1 240.88 51.77
  L 240.89 49.87
  A 0.37 0.37 0.0 0 1 241.26 49.50
  L 251.64 49.49
  A 0.37 0.37 0.0 0 1 252.01 49.87
  L 251.97 51.80
  A 0.37 0.37 0.0 0 1 251.59 52.16
  L 248.12 52.11
  A 0.37 0.37 0.0 0 0 247.74 52.48
  Z"
/>
<path d="
  M 266.65 65.04
  L 266.61 49.85
  Q 266.61 49.49 266.97 49.49
  L 269.01 49.52
  Q 269.25 49.52 269.25 49.76
  L 269.25 69.50
  Q 269.25 70.00 268.75 70.00
  L 266.19 69.99
  Q 265.57 69.99 265.37 69.41
  L 260.38 55.06
  Q 259.73 53.21 259.74 55.17
  L 259.75 69.72
  Q 259.75 69.95 259.53 69.96
  L 257.48 70.01
  Q 257.13 70.01 257.13 69.66
  L 257.11 50.07
  Q 257.11 49.51 257.68 49.51
  L 260.22 49.50
  A 0.71 0.71 0.0 0 1 260.89 49.97
  L 266.31 65.11
  Q 266.66 66.07 266.65 65.04
  Z"
/>
<path d="
  M 293.62 62.45
  L 293.64 69.54
  Q 293.64 69.98 293.21 69.98
  L 291.24 70.00
  A 0.36 0.36 0.0 0 1 290.87 69.64
  L 290.87 50.18
  Q 290.87 49.56 291.49 49.53
  Q 295.38 49.32 298.80 49.71
  C 305.09 50.42 305.54 59.14 300.00 61.32
  C 298.24 62.01 296.22 61.70 294.33 61.73
  Q 293.62 61.73 293.62 62.45
  Z
  M 293.62 52.29
  L 293.64 59.01
  A 0.26 0.26 0.0 0 0 293.90 59.27
  L 297.66 59.26
  A 3.37 3.36 89.8 0 0 301.01 55.88
  L 301.01 55.38
  A 3.37 3.36 89.8 0 0 297.64 52.02
  L 293.88 52.03
  A 0.26 0.26 0.0 0 0 293.62 52.29
  Z"
/>
<path d="
  M 310.38 62.05
  L 310.38 69.55
  Q 310.38 69.98 309.95 69.99
  L 308.19 70.01
  Q 307.63 70.01 307.63 69.44
  L 307.62 50.03
  Q 307.62 49.52 308.13 49.50
  C 311.78 49.37 318.40 48.67 319.88 53.36
  C 320.66 55.81 320.05 59.33 317.50 60.59
  Q 317.14 60.76 316.83 61.01
  Q 316.46 61.31 316.66 61.74
  L 320.21 69.43
  Q 320.47 69.99 319.85 69.99
  L 317.96 70.00
  A 0.88 0.87 -11.9 0 1 317.16 69.48
  L 313.81 61.99
  Q 313.60 61.52 313.08 61.51
  L 310.95 61.49
  Q 310.37 61.48 310.38 62.05
  Z
  M 310.35 52.46
  L 310.37 58.58
  A 0.45 0.45 0.0 0 0 310.82 59.03
  L 314.10 59.02
  A 3.29 3.29 0.0 0 0 317.38 55.72
  L 317.38 55.28
  A 3.29 3.29 0.0 0 0 314.08 52.00
  L 310.80 52.01
  A 0.45 0.45 0.0 0 0 310.35 52.46
  Z"
/>
<path d="
  M 360.75 62.00
  L 360.76 69.48
  Q 360.76 69.97 360.27 69.98
  L 358.51 70.01
  Q 358.00 70.02 358.00 69.51
  L 358.00 50.02
  Q 358.00 49.50 358.52 49.49
  C 362.31 49.43 369.11 48.60 370.33 53.72
  Q 371.49 58.54 367.23 60.94
  Q 366.71 61.24 366.97 61.78
  L 370.62 69.37
  Q 370.91 69.97 370.24 69.98
  L 368.48 70.01
  Q 367.84 70.02 367.57 69.44
  L 364.20 62.18
  Q 363.89 61.51 363.15 61.51
  L 361.25 61.49
  Q 360.74 61.49 360.75 62.00
  Z
  M 360.73 52.34
  L 360.75 58.68
  A 0.33 0.33 0.0 0 0 361.08 59.01
  L 364.49 59.00
  A 3.36 3.26 89.9 0 0 367.74 55.63
  L 367.74 55.35
  A 3.36 3.26 89.9 0 0 364.47 52.00
  L 361.06 52.01
  A 0.33 0.33 0.0 0 0 360.73 52.34
  Z"
/>
<path d="
  M 378.23 67.51
  L 386.34 67.48
  A 0.49 0.49 0.0 0 1 386.83 67.93
  L 386.95 69.45
  A 0.49 0.49 0.0 0 1 386.46 69.98
  L 375.49 70.01
  A 0.49 0.49 0.0 0 1 375.00 69.52
  L 375.00 49.98
  A 0.49 0.49 0.0 0 1 375.49 49.49
  L 386.36 49.50
  A 0.49 0.49 0.0 0 1 386.85 49.96
  L 386.95 51.47
  A 0.49 0.49 0.0 0 1 386.46 51.99
  L 378.22 52.00
  A 0.49 0.49 0.0 0 0 377.73 52.49
  L 377.75 57.63
  A 0.49 0.49 0.0 0 0 378.24 58.12
  L 385.40 58.11
  A 0.49 0.49 0.0 0 1 385.89 58.60
  L 385.87 60.02
  A 0.49 0.49 0.0 0 1 385.38 60.51
  L 378.23 60.48
  A 0.49 0.49 0.0 0 0 377.74 60.97
  L 377.74 67.02
  A 0.49 0.49 0.0 0 0 378.23 67.51
  Z"
/>
</g>
<g fill="#3a393a">
<path d="
  M 341.78 194.76
  Q 341.42 194.09 342.17 193.95
  Q 349.00 192.75 348.80 184.80
  Q 348.60 176.77 348.67 168.39
  C 348.71 163.32 345.01 159.98 340.04 159.98
  Q 263.45 159.94 184.41 159.85
  Q 183.47 159.85 182.53 160.14
  A 0.45 0.45 0.0 0 1 181.95 159.72
  L 181.91 158.83
  Q 181.89 158.39 182.33 158.37
  Q 183.09 158.34 183.80 158.33
  Q 262.78 157.87 337.55 158.01
  Q 343.40 158.03 345.46 159.19
  C 349.35 161.38 350.78 165.17 350.68 169.49
  Q 350.49 177.41 350.49 185.23
  Q 350.50 192.93 343.15 195.55
  Q 342.35 195.83 341.95 195.08
  L 341.78 194.76
  Z"
/>
</g>
<g fill="#aaaaaa">
<path d="
  M 267.24 175.72
  C 269.44 176.22 272.02 177.05 271.77 179.94
  C 271.40 184.12 265.41 184.23 264.08 180.72
  A 0.78 0.78 0.0 0 1 264.62 179.69
  Q 265.68 179.44 266.07 180.47
  A 1.28 1.23 1.7 0 0 266.76 181.17
  Q 268.39 181.84 269.30 180.83
  A 1.65 1.64 -61.8 0 0 268.49 178.13
  C 267.12 177.78 265.83 177.68 264.93 176.42
  C 261.92 172.20 268.57 168.99 271.30 172.96
  A 1.00 1.00 0.0 0 1 270.76 174.49
  Q 270.04 174.70 269.54 174.02
  Q 269.19 173.53 268.67 173.21
  Q 267.41 172.44 266.52 173.44
  A 1.39 1.39 0.0 0 0 267.24 175.72
  Z"
/>
<path d="
  M 203.86 179.14
  L 203.84 182.46
  Q 203.83 183.00 203.29 183.00
  L 202.44 183.00
  Q 201.88 183.00 201.88 182.44
  L 201.88 172.06
  Q 201.88 171.40 202.54 171.37
  C 204.84 171.26 208.46 170.81 209.36 173.45
  C 210.76 177.50 207.71 178.55 204.52 178.49
  Q 203.87 178.48 203.86 179.14
  Z
  M 203.82 173.46
  L 203.84 176.42
  A 0.35 0.35 0.0 0 0 204.19 176.77
  L 205.94 176.76
  A 1.74 1.71 -0.2 0 0 207.67 175.04
  L 207.67 174.80
  A 1.74 1.71 -0.2 0 0 205.92 173.10
  L 204.17 173.11
  A 0.35 0.35 0.0 0 0 203.82 173.46
  Z"
/>
<path d="
  M 214.30 180.41
  L 213.83 182.57
  A 0.43 0.43 0.0 0 1 213.46 182.91
  L 212.22 183.04
  A 0.43 0.43 0.0 0 1 211.75 182.51
  L 214.52 171.70
  A 0.43 0.43 0.0 0 1 214.93 171.38
  L 216.85 171.38
  A 0.43 0.43 0.0 0 1 217.27 171.70
  L 219.98 182.46
  A 0.43 0.43 0.0 0 1 219.56 183.00
  L 218.37 182.98
  A 0.43 0.43 0.0 0 1 217.96 182.62
  L 217.59 180.50
  A 0.43 0.43 0.0 0 0 217.18 180.15
  L 214.73 180.07
  A 0.43 0.43 0.0 0 0 214.30 180.41
  Z
  M 215.65 174.12
  L 214.81 178.01
  Q 214.64 178.80 215.41 178.55
  Q 215.78 178.43 216.15 178.53
  Q 217.18 178.80 216.95 177.76
  L 216.15 174.12
  Q 215.90 172.99 215.65 174.12
  Z"
/>
<path d="
  M 227.96 180.14
  L 228.00 172.21
  A 0.95 0.95 0.0 0 1 228.80 171.27
  Q 229.07 171.22 229.34 171.27
  Q 229.98 171.38 229.98 172.02
  L 229.96 179.43
  Q 229.95 183.08 226.31 183.12
  Q 225.65 183.13 225.09 182.93
  Q 222.65 182.07 222.65 179.48
  L 222.62 172.02
  Q 222.62 171.40 223.23 171.38
  L 223.97 171.35
  Q 224.59 171.33 224.59 171.95
  L 224.60 180.00
  A 1.44 1.43 -89.6 0 0 226.00 181.43
  L 226.61 181.45
  Q 227.96 181.48 227.96 180.14
  Z"
/>
<path d="
  M 235.48 175.48
  C 236.97 176.48 239.67 175.98 240.30 178.36
  C 241.68 183.55 234.83 184.90 232.82 180.58
  A 0.61 0.61 0.0 0 1 233.21 179.74
  Q 234.19 179.47 234.79 180.34
  C 236.47 182.81 239.78 180.65 238.41 178.79
  C 237.54 177.61 235.61 177.82 234.36 176.92
  C 230.03 173.78 236.67 167.98 240.17 173.35
  A 0.73 0.72 -18.9 0 1 239.62 174.47
  Q 239.25 174.50 238.91 174.34
  A 1.57 1.53 -4.3 0 1 238.28 173.81
  Q 237.17 172.15 235.52 173.18
  A 1.37 1.37 0.0 0 0 235.48 175.48
  Z"
/>
<path d="
  M 245.89 181.25
  L 250.57 181.32
  A 0.34 0.34 0.0 0 1 250.90 181.72
  L 250.75 182.66
  A 0.34 0.34 0.0 0 1 250.42 182.95
  L 243.99 183.02
  A 0.34 0.34 0.0 0 1 243.65 182.68
  L 243.63 171.73
  A 0.34 0.34 0.0 0 1 243.97 171.39
  L 250.38 171.39
  A 0.34 0.34 0.0 0 1 250.72 171.73
  L 250.73 172.78
  A 0.34 0.34 0.0 0 1 250.39 173.12
  L 245.92 173.11
  A 0.34 0.34 0.0 0 0 245.58 173.45
  L 245.58 175.77
  A 0.34 0.34 0.0 0 0 245.92 176.11
  L 249.80 176.10
  A 0.34 0.34 0.0 0 1 250.15 176.44
  L 250.16 177.55
  A 0.34 0.34 0.0 0 1 249.82 177.90
  L 245.91 177.86
  A 0.34 0.34 0.0 0 0 245.57 178.20
  L 245.55 180.90
  A 0.34 0.34 0.0 0 0 245.89 181.25
  Z"
/>
<path d="
  M 280.06 178.30
  L 280.13 172.06
  Q 280.14 171.27 280.93 171.26
  L 281.37 171.26
  Q 281.89 171.26 281.89 171.78
  L 281.93 182.29
  Q 281.94 183.01 281.21 183.00
  L 279.88 182.98
  Q 279.33 182.97 279.17 182.44
  Q 278.11 178.78 276.80 175.22
  Q 276.27 173.78 276.30 175.31
  L 276.40 182.28
  A 0.70 0.69 89.2 0 1 275.72 182.99
  L 275.19 182.99
  Q 274.63 183.00 274.62 182.44
  L 274.61 172.00
  Q 274.61 171.55 275.03 171.40
  C 276.32 170.94 277.13 171.43 277.56 172.72
  Q 278.55 175.74 279.46 178.40
  Q 280.04 180.10 280.06 178.30
  Z"
/>
<path d="
  M 290.22 181.29
  L 291.24 181.23
  A 0.72 0.71 85.9 0 1 291.99 181.89
  L 292.01 182.19
  Q 292.08 183.00 291.27 183.00
  L 285.88 182.99
  A 0.83 0.83 0.0 0 1 285.05 182.12
  L 285.06 181.78
  Q 285.07 181.63 285.20 181.56
  Q 285.96 181.16 286.82 181.26
  Q 287.59 181.35 287.59 180.58
  L 287.63 173.82
  Q 287.64 173.25 287.07 173.17
  L 285.90 173.02
  Q 285.24 172.93 285.09 172.28
  L 285.03 172.00
  A 0.49 0.48 83.7 0 1 285.50 171.41
  L 291.41 171.35
  Q 291.99 171.34 291.99 171.92
  L 291.99 172.45
  A 0.68 0.67 0.0 0 1 291.30 173.13
  L 290.28 173.11
  Q 289.65 173.10 289.65 173.73
  L 289.63 180.72
  Q 289.63 181.32 290.22 181.29
  Z"
/>
<path d="
  M 297.50 179.03
  L 297.51 182.51
  Q 297.51 182.97 297.05 183.00
  Q 296.32 183.06 295.74 182.88
  Q 295.50 182.81 295.50 182.55
  L 295.50 172.00
  Q 295.50 171.47 296.02 171.42
  Q 298.91 171.11 300.92 171.65
  C 305.21 172.79 303.30 179.64 298.28 178.41
  A 0.63 0.63 0.0 0 0 297.50 179.03
  Z
  M 297.50 173.49
  L 297.50 176.41
  A 0.35 0.35 0.0 0 0 297.85 176.76
  L 299.42 176.76
  A 1.80 1.69 0.1 0 0 301.22 175.07
  L 301.22 174.83
  A 1.80 1.69 0.1 0 0 299.42 173.14
  L 297.85 173.14
  A 0.35 0.35 0.0 0 0 297.50 173.49
  Z"
/>
<path d="
  M 308.31 176.11
  L 312.21 176.15
  A 0.34 0.34 0.0 0 1 312.54 176.51
  L 312.47 177.55
  A 0.34 0.34 0.0 0 1 312.14 177.86
  L 308.34 177.89
  A 0.34 0.34 0.0 0 0 308.01 178.22
  L 307.98 180.92
  A 0.34 0.34 0.0 0 0 308.32 181.26
  L 312.62 181.27
  A 0.34 0.34 0.0 0 1 312.96 181.61
  L 312.97 182.64
  A 0.34 0.34 0.0 0 1 312.63 182.98
  L 306.35 183.00
  A 0.34 0.34 0.0 0 1 306.01 182.66
  L 306.00 171.73
  A 0.34 0.34 0.0 0 1 306.34 171.39
  L 312.63 171.37
  A 0.34 0.34 0.0 0 1 312.97 171.71
  L 312.98 172.79
  A 0.34 0.34 0.0 0 1 312.63 173.14
  L 308.35 173.07
  A 0.34 0.34 0.0 0 0 308.01 173.41
  L 307.97 175.77
  A 0.34 0.34 0.0 0 0 308.31 176.11
  Z"
/>
<path d="
  M 321.90 178.86
  L 323.67 182.29
  Q 324.03 182.99 323.24 182.99
  L 322.46 183.00
  A 1.21 1.21 0.0 0 1 321.28 182.12
  Q 320.80 180.45 319.95 178.90
  Q 319.64 178.33 319.03 178.26
  A 0.70 0.70 0.0 0 0 318.25 178.95
  L 318.26 182.49
  A 0.50 0.50 0.0 0 1 317.76 182.99
  L 316.75 183.00
  A 0.50 0.50 0.0 0 1 316.25 182.50
  L 316.25 171.96
  Q 316.25 171.31 316.90 171.35
  C 319.09 171.49 321.94 170.75 323.20 172.94
  Q 324.83 175.78 322.12 177.87
  Q 321.59 178.27 321.90 178.86
  Z
  M 318.27 173.58
  L 318.23 176.12
  A 0.49 0.49 0.0 0 0 318.72 176.61
  L 319.96 176.63
  A 1.75 1.56 0.7 0 0 321.73 175.09
  L 321.73 174.69
  A 1.75 1.56 0.7 0 0 320.00 173.11
  L 318.76 173.09
  A 0.49 0.49 0.0 0 0 318.27 173.58
  Z"
/>
</g>
</svg>
